<?xml version="1.0" encoding="UTF-8" standalone="no"?>
<svg
   xmlns:dc="http://purl.org/dc/elements/1.1/"
   xmlns:cc="http://creativecommons.org/ns#"
   xmlns:rdf="http://www.w3.org/1999/02/22-rdf-syntax-ns#"
   xmlns:svg="http://www.w3.org/2000/svg"
   xmlns="http://www.w3.org/2000/svg"
   xmlns:sodipodi="http://sodipodi.sourceforge.net/DTD/sodipodi-0.dtd"
   xmlns:inkscape="http://www.inkscape.org/namespaces/inkscape"
   version="1.1"
   id="svg54291"
   xml:space="preserve"
   width="1321.1346"
   height="421.41733"
   viewBox="0 0 1321.1346 421.41733"
   sodipodi:docname="quefrency-macro-top.svg"
   inkscape:version="1.0.1 (3bc2e813f5, 2020-09-07)"><metadata
     id="metadata54297"><rdf:RDF><cc:Work
         rdf:about=""><dc:format>image/svg+xml</dc:format><dc:type
           rdf:resource="http://purl.org/dc/dcmitype/StillImage" /><dc:title></dc:title></cc:Work></rdf:RDF></metadata><defs
     id="defs54295"><clipPath
       clipPathUnits="userSpaceOnUse"
       id="clipPath54591"><path
         d="M 0,316.063 H 990.851 V 0 H 0 Z"
         id="path54589" /></clipPath><clipPath
       clipPathUnits="userSpaceOnUse"
       id="clipPath54603"><path
         d="M 0,316.063 H 990.851 V 0 H 0 Z"
         id="path54601" /></clipPath><clipPath
       clipPathUnits="userSpaceOnUse"
       id="clipPath54615"><path
         d="M 0,316.063 H 990.851 V 0 H 0 Z"
         id="path54613" /></clipPath><clipPath
       clipPathUnits="userSpaceOnUse"
       id="clipPath54627"><path
         d="M 0,316.063 H 990.851 V 0 H 0 Z"
         id="path54625" /></clipPath><clipPath
       clipPathUnits="userSpaceOnUse"
       id="clipPath54663"><path
         d="M 0,316.063 H 990.851 V 0 H 0 Z"
         id="path54661" /></clipPath><clipPath
       clipPathUnits="userSpaceOnUse"
       id="clipPath54699"><path
         d="M 0,316.063 H 990.851 V 0 H 0 Z"
         id="path54697" /></clipPath><clipPath
       clipPathUnits="userSpaceOnUse"
       id="clipPath54735"><path
         d="M 0,316.063 H 990.851 V 0 H 0 Z"
         id="path54733" /></clipPath><clipPath
       clipPathUnits="userSpaceOnUse"
       id="clipPath54747"><path
         d="M 0,316.063 H 990.851 V 0 H 0 Z"
         id="path54745" /></clipPath></defs><sodipodi:namedview
     pagecolor="#ffffff"
     bordercolor="#666666"
     borderopacity="1"
     objecttolerance="10"
     gridtolerance="10"
     guidetolerance="10"
     inkscape:pageopacity="0"
     inkscape:pageshadow="2"
     inkscape:window-width="1920"
     inkscape:window-height="1027"
     id="namedview54293"
     showgrid="false"
     inkscape:zoom="0.60641206"
     inkscape:cx="976.65827"
     inkscape:cy="103.47312"
     inkscape:window-x="-8"
     inkscape:window-y="-8"
     inkscape:window-maximized="1"
     inkscape:current-layer="g54299" /><g
     id="g54299"
     inkscape:groupmode="layer"
     inkscape:label="quefrency-macro-design"
     transform="matrix(1.3333333,0,0,-1.3333333,0,421.41733)"><g
       id="g54597"><g
         id="g54599"
         clip-path="url(#clipPath54603)"><g
           id="g54605"
           transform="translate(522.3177,136.7)" /></g></g><g
       id="g54617"
       transform="translate(549.3177,6.0232)" /><g
       id="g55034"
       style="stroke:#ff0000;stroke-opacity:1"><g
         id="g54741"
         style="stroke:#ff0000;stroke-opacity:1"><g
           id="g54743"
           clip-path="url(#clipPath54747)"
           style="stroke:#ff0000;stroke-opacity:1"><g
             id="g54749"
             transform="translate(772.1712,11.6922)"
             style="stroke:#ff0000;stroke-opacity:1"><path
               d="m 0,0 c 0,-1.722 -1.396,-3.118 -3.117,-3.118 -1.723,0 -3.118,1.396 -3.118,3.118 0,1.722 1.395,3.118 3.118,3.118 C -1.396,3.118 0,1.722 0,0 Z"
               style="fill:none;stroke:#ff0000;stroke-width:0.283;stroke-linecap:butt;stroke-linejoin:miter;stroke-miterlimit:4;stroke-dasharray:none;stroke-opacity:1"
               id="path54751" /></g><g
             id="g54753"
             transform="translate(974.3382,302.6687)"
             style="stroke:#ff0000;stroke-opacity:1"><path
               d="m 0,0 c 0,-1.722 1.396,-3.118 3.118,-3.118 1.723,0 3.118,1.396 3.118,3.118 0,1.722 -1.395,3.118 -3.118,3.118 C 1.396,3.118 0,1.722 0,0 Z"
               style="fill:none;stroke:#ff0000;stroke-width:0.283;stroke-linecap:butt;stroke-linejoin:miter;stroke-miterlimit:4;stroke-dasharray:none;stroke-opacity:1"
               id="path54755" /></g><g
             id="g54757"
             transform="translate(974.3382,13.3933)"
             style="stroke:#ff0000;stroke-opacity:1"><path
               d="m 0,0 c 0,-1.723 1.396,-3.118 3.118,-3.118 1.723,0 3.118,1.395 3.118,3.118 0,1.722 -1.395,3.118 -3.118,3.118 C 1.396,3.118 0,1.722 0,0 Z"
               style="fill:none;stroke:#ff0000;stroke-width:0.283;stroke-linecap:butt;stroke-linejoin:miter;stroke-miterlimit:4;stroke-dasharray:none;stroke-opacity:1"
               id="path54759" /></g><g
             id="g54761"
             transform="translate(976.0394,158.031)"
             style="stroke:#ff0000;stroke-opacity:1"><path
               d="M 0,0 C 0,-1.723 1.396,-3.118 3.118,-3.118 4.84,-3.118 6.236,-1.723 6.236,0 6.236,1.722 4.84,3.118 3.118,3.118 1.396,3.118 0,1.722 0,0 Z"
               style="fill:none;stroke:#ff0000;stroke-width:0.283;stroke-linecap:butt;stroke-linejoin:miter;stroke-miterlimit:4;stroke-dasharray:none;stroke-opacity:1"
               id="path54763" /></g><g
             id="g54765"
             transform="translate(550.2757,304.3694)"
             style="stroke:#ff0000;stroke-opacity:1"><path
               d="m 0,0 c 0,-1.722 -1.396,-3.118 -3.118,-3.118 -1.722,0 -3.118,1.396 -3.118,3.118 0,1.722 1.396,3.118 3.118,3.118 C -1.396,3.118 0,1.722 0,0 Z"
               style="fill:none;stroke:#ff0000;stroke-width:0.283;stroke-linecap:butt;stroke-linejoin:miter;stroke-miterlimit:4;stroke-dasharray:none;stroke-opacity:1"
               id="path54767" /></g><g
             id="g54769"
             transform="translate(563.7689,11.6922)"
             style="stroke:#ff0000;stroke-opacity:1"><path
               d="m 0,0 c 0,-1.722 -1.396,-3.118 -3.118,-3.118 -1.723,0 -3.118,1.396 -3.118,3.118 0,1.722 1.395,3.118 3.118,3.118 C -1.396,3.118 0,1.722 0,0 Z"
               style="fill:none;stroke:#ff0000;stroke-width:0.283;stroke-linecap:butt;stroke-linejoin:miter;stroke-miterlimit:4;stroke-dasharray:none;stroke-opacity:1"
               id="path54771" /></g><g
             id="g54773"
             transform="translate(759.1888,304.3709)"
             style="stroke:#ff0000;stroke-opacity:1"><path
               d="m 0,0 c 0,-1.722 1.396,-3.118 3.118,-3.118 1.723,0 3.118,1.396 3.118,3.118 0,1.722 -1.395,3.118 -3.118,3.118 C 1.396,3.118 0,1.722 0,0 Z"
               style="fill:none;stroke:#ff0000;stroke-width:0.283;stroke-linecap:butt;stroke-linejoin:miter;stroke-miterlimit:4;stroke-dasharray:none;stroke-opacity:1"
               id="path54775" /></g></g></g><path
         id="path54992"
         style="fill:none;stroke:#ff0000;stroke-width:0.188976mm;stroke-opacity:1"
         d="M 721.98438 0.47265625 C 717.8097 0.47265625 714.42578 3.8565835 714.42578 8.03125 L 714.42578 30.701172 L 1290.4258 30.701172 L 1290.4258 390.70898 L 732.42383 390.70898 L 732.42383 413.38672 L 732.42773 413.38672 C 732.42773 417.5614 735.81165 420.94531 739.98633 420.94531 L 1305.543 420.94531 C 1313.8936 420.94531 1320.6621 414.17685 1320.6621 405.82617 L 1320.6621 15.589844 C 1320.6621 7.2405107 1313.8936 0.47265625 1305.543 0.47265625 L 721.98438 0.47265625 z "
         transform="matrix(0.75000002,0,0,-0.75000002,0,316.06301)" /></g><g
       id="g55015"
       transform="translate(0,340.58666)"
       style="stroke:#ff0000;stroke-opacity:1"><g
         id="g54621"
         transform="translate(0,-340.5)"
         style="stroke:#ff0000;stroke-opacity:1"><g
           id="g54623"
           clip-path="url(#clipPath54627)"
           style="stroke:#ff0000;stroke-opacity:1"><g
             id="g54629"
             transform="translate(16.2991,302.6687)"
             style="stroke:#ff0000;stroke-opacity:1"><path
               d="m 0,0 c 0,-1.722 -1.396,-3.118 -3.118,-3.118 -1.722,0 -3.118,1.396 -3.118,3.118 0,1.722 1.396,3.118 3.118,3.118 C -1.396,3.118 0,1.722 0,0 Z"
               style="fill:none;stroke:#ff0000;stroke-width:0.283;stroke-linecap:butt;stroke-linejoin:miter;stroke-miterlimit:4;stroke-dasharray:none;stroke-opacity:1"
               id="path54631" /></g><g
             id="g54633"
             transform="translate(16.2991,13.3933)"
             style="stroke:#ff0000;stroke-opacity:1"><path
               d="m 0,0 c 0,-1.723 -1.396,-3.118 -3.118,-3.118 -1.722,0 -3.118,1.395 -3.118,3.118 0,1.722 1.396,3.118 3.118,3.118 C -1.396,3.118 0,1.722 0,0 Z"
               style="fill:none;stroke:#ff0000;stroke-width:0.283;stroke-linecap:butt;stroke-linejoin:miter;stroke-miterlimit:4;stroke-dasharray:none;stroke-opacity:1"
               id="path54635" /></g><g
             id="g54637"
             transform="translate(14.5984,158.031)"
             style="stroke:#ff0000;stroke-opacity:1"><path
               d="m 0,0 c 0,-1.723 -1.396,-3.118 -3.118,-3.118 -1.722,0 -3.118,1.395 -3.118,3.118 0,1.722 1.396,3.118 3.118,3.118 C -1.396,3.118 0,1.722 0,0 Z"
               style="fill:none;stroke:#ff0000;stroke-width:0.283;stroke-linecap:butt;stroke-linejoin:miter;stroke-miterlimit:4;stroke-dasharray:none;stroke-opacity:1"
               id="path54639" /></g><g
             id="g54641"
             transform="translate(527.598,304.3694)"
             style="stroke:#ff0000;stroke-opacity:1"><path
               d="m 0,0 c 0,-1.722 -1.396,-3.118 -3.117,-3.118 -1.723,0 -3.118,1.396 -3.118,3.118 0,1.722 1.395,3.118 3.118,3.118 C -1.396,3.118 0,1.722 0,0 Z"
               style="fill:none;stroke:#ff0000;stroke-width:0.283;stroke-linecap:butt;stroke-linejoin:miter;stroke-miterlimit:4;stroke-dasharray:none;stroke-opacity:1"
               id="path54643" /></g><g
             id="g54645"
             transform="translate(271.0276,304.3694)"
             style="stroke:#ff0000;stroke-opacity:1"><path
               d="m 0,0 c 0,-1.722 -1.396,-3.118 -3.118,-3.118 -1.722,0 -3.118,1.396 -3.118,3.118 0,1.722 1.396,3.118 3.118,3.118 C -1.396,3.118 0,1.722 0,0 Z"
               style="fill:none;stroke:#ff0000;stroke-width:0.283;stroke-linecap:butt;stroke-linejoin:miter;stroke-miterlimit:4;stroke-dasharray:none;stroke-opacity:1"
               id="path54647" /></g><g
             id="g54649"
             transform="translate(277.8309,11.6922)"
             style="stroke:#ff0000;stroke-opacity:1"><path
               d="m 0,0 c 0,-1.722 -1.396,-3.118 -3.118,-3.118 -1.722,0 -3.118,1.396 -3.118,3.118 0,1.722 1.396,3.118 3.118,3.118 C -1.396,3.118 0,1.722 0,0 Z"
               style="fill:none;stroke:#ff0000;stroke-width:0.283;stroke-linecap:butt;stroke-linejoin:miter;stroke-miterlimit:4;stroke-dasharray:none;stroke-opacity:1"
               id="path54651" /></g><g
             id="g54653"
             transform="translate(541.0911,11.6922)"
             style="stroke:#ff0000;stroke-opacity:1"><path
               d="m 0,0 c 0,-1.722 -1.396,-3.118 -3.118,-3.118 -1.722,0 -3.118,1.396 -3.118,3.118 0,1.722 1.396,3.118 3.118,3.118 C -1.396,3.118 0,1.722 0,0 Z"
               style="fill:none;stroke:#ff0000;stroke-width:0.283;stroke-linecap:butt;stroke-linejoin:miter;stroke-miterlimit:4;stroke-dasharray:none;stroke-opacity:1"
               id="path54655" /></g></g></g><path
         id="polygon54819"
         style="fill:none;stroke:#ff0000;stroke-width:0.141732mm;stroke-opacity:1"
         d="M 130.81899,-317.469 V -47.463332 H 22.810486 V -317.469 Z M 11.479981,-24.791494 c -6.2630002,0 -11.33789116,-5.076353 -11.33789116,-11.339355 V -328.8081 c 0,-6.26199 5.07489096,-11.33936 11.33789116,-11.33936 H 543.64747 c 3.132,0 5.67042,2.53841 5.67042,5.67041 v 17.00831 H 157.81348 v 270.005863 h 378.00587 v 17.00244 c 0,3.131003 -2.53793,5.668943 -5.66894,5.668943 z" /></g></g></svg>
