<?xml version="1.0" encoding="UTF-8" standalone="no"?>
<!-- Created with Inkscape (http://www.inkscape.org/) -->

<svg
   xmlns:dc="http://purl.org/dc/elements/1.1/"
   xmlns:cc="http://creativecommons.org/ns#"
   xmlns:rdf="http://www.w3.org/1999/02/22-rdf-syntax-ns#"
   xmlns:svg="http://www.w3.org/2000/svg"
   xmlns="http://www.w3.org/2000/svg"
   xmlns:sodipodi="http://sodipodi.sourceforge.net/DTD/sodipodi-0.dtd"
   xmlns:inkscape="http://www.inkscape.org/namespaces/inkscape"
   width="616.94177mm"
   height="466.44141mm"
   viewBox="0 0 616.94178 466.44138"
   version="1.1"
   id="svg8"
   inkscape:version="0.92.4 (5da689c313, 2019-01-14)"
   sodipodi:docname="layout-a-64.svg">
  <defs
     id="defs2" />
  <sodipodi:namedview
     id="base"
     pagecolor="#ffffff"
     bordercolor="#666666"
     borderopacity="1.0"
     inkscape:pageopacity="0.0"
     inkscape:pageshadow="2"
     inkscape:zoom="0.5"
     inkscape:cx="1509.5717"
     inkscape:cy="1376.9623"
     inkscape:document-units="mm"
     inkscape:current-layer="layer5"
     showgrid="false"
     fit-margin-top="5"
     fit-margin-left="5"
     fit-margin-right="5"
     fit-margin-bottom="5"
     showguides="true"
     inkscape:guide-bbox="true"
     inkscape:snap-global="false"
     inkscape:window-width="1920"
     inkscape:window-height="1027"
     inkscape:window-x="-8"
     inkscape:window-y="-8"
     inkscape:window-maximized="1"
     inkscape:pagecheckerboard="true">
    <sodipodi:guide
       position="302.84665,469.21582"
       orientation="1,0"
       id="guide8440"
       inkscape:locked="false" />
    <sodipodi:guide
       position="612.84756,352.4407"
       orientation="1,0"
       inkscape:locked="false"
       id="guide9960" />
    <sodipodi:guide
       position="302.96054,365.09522"
       orientation="0,1"
       id="guide9992"
       inkscape:locked="false" />
    <sodipodi:guide
       position="302.90266,468.3468"
       orientation="0,1"
       id="guide9994"
       inkscape:locked="false" />
    <sodipodi:guide
       position="342.53848,218.8778"
       orientation="1,0"
       id="guide10104"
       inkscape:locked="false" />
    <sodipodi:guide
       position="156.0403,333.8682"
       orientation="0,1"
       id="guide10139"
       inkscape:locked="false" />
    <sodipodi:guide
       position="155.96589,333.83718"
       orientation="1,0"
       id="guide10143"
       inkscape:locked="false" />
    <sodipodi:guide
       position="280.96498,334.13794"
       orientation="1,0"
       id="guide10145"
       inkscape:locked="false" />
    <sodipodi:guide
       position="31.864943,334.2537"
       orientation="1,0"
       id="guide10147"
       inkscape:locked="false" />
    <sodipodi:guide
       position="156.18087,372.1997"
       orientation="0,1"
       id="guide10323"
       inkscape:locked="false" />
    <sodipodi:guide
       position="91.838542,461.25059"
       orientation="0,1"
       id="guide10328"
       inkscape:locked="false" />
  </sodipodi:namedview>
  <metadata
     id="metadata5">
    <rdf:RDF>
      <cc:Work
         rdf:about="">
        <dc:format>image/svg+xml</dc:format>
        <dc:type
           rdf:resource="http://purl.org/dc/dcmitype/StillImage" />
        <dc:title></dc:title>
      </cc:Work>
    </rdf:RDF>
  </metadata>
  <g
     inkscape:label="Layer 1"
     inkscape:groupmode="layer"
     id="layer1"
     transform="translate(333.61983,-31.211298)" />
  <g
     inkscape:groupmode="layer"
     id="layer10"
     inkscape:label="closed-plate"
     transform="translate(-2.5589898,-12.181787)">
    <path
       style="fill:#ffffff;stroke:#ff0000;stroke-width:0.05mm"
       d="m 10.654841,132.27657 -0.236161,0.0103 -0.234094,0.0269 -0.2309939,0.046 -0.2268596,0.0641 -0.221175,0.0822 -0.212907,0.0977 -0.206189,0.11627 -0.1958536,0.12971 -0.1850017,0.14624 -0.173116,0.15968 -0.15968,0.17312 -0.1462445,0.185 -0.1297078,0.19637 -0.1162719,0.20567 -0.097669,0.21291 -0.082166,0.22118 -0.064079,0.22685 -0.045992,0.231 -0.026872,0.23409 -0.0093,0.23617 -0.00103,105.2499 0.010335,0.23616 0.026872,0.23358 0.045992,0.23099 0.064079,0.22738 0.082166,0.22066 0.097669,0.21342 0.1162719,0.20567 0.1297078,0.19637 0.1462445,0.185 0.15968,0.1726 0.173116,0.1602 0.1850017,0.14573 0.1958536,0.13022 0.206189,0.11576 0.212907,0.0982 0.221175,0.0822 0.2268596,0.0641 0.2309939,0.046 0.234094,0.0269 0.236161,0.009 295.750924,10e-4 0.23514,-0.01 0.23357,-0.0269 0.23102,-0.046 0.22735,-0.0641 0.22066,-0.0822 0.21344,-0.0982 0.20567,-0.11576 0.19583,-0.13022 0.185,-0.14573 0.17312,-0.1602 0.1602,-0.1726 0.14573,-0.185 0.13023,-0.19637 0.11576,-0.20567 0.0982,-0.21342 0.0822,-0.22066 0.0641,-0.22738 0.046,-0.23099 0.0269,-0.23358 0.0103,-0.23616 v -105.2499 l -0.0103,-0.23617 -0.0269,-0.23409 -0.046,-0.231 -0.0641,-0.22685 -0.0822,-0.22118 -0.0982,-0.21291 -0.11576,-0.20567 -0.13023,-0.19637 -0.14573,-0.185 -0.1602,-0.17312 -0.17312,-0.15968 -0.185,-0.14624 -0.19583,-0.12971 -0.20567,-0.11627 -0.21344,-0.0977 -0.22066,-0.0827 -0.22735,-0.0641 -0.23102,-0.046 -0.23357,-0.0269 -0.23514,-0.009 z m 98.916959,2.26963 1.49862,0.86609 v 1.73013 l -1.49862,0.86506 -1.49913,-0.86506 v -1.73013 z m 97.91805,0 1.49862,0.86558 v 1.73064 l -1.49862,0.86506 -1.49913,-0.86506 v -1.73064 z m 97.91651,0 1.4986,0.86558 v 1.73064 l -1.4986,0.86506 -1.49913,-0.86506 v -1.73064 z m -293.751063,5.1e-4 1.498616,0.86558 v 1.73065 l -1.498616,0.86506 -1.499133,-0.86506 v -1.73065 z m 5.089095,5.73092 H 300.3157 c 0.6038,0 1.08987,0.48607 1.08987,1.08986 v 93.07028 c 0,0.60379 -0.48607,1.08986 -1.08987,1.08986 H 16.744392 c -0.603785,0 -1.089856,-0.48607 -1.089856,-1.08986 v -93.07028 c 0,-0.60379 0.486071,-1.08986 1.089856,-1.08986 z m -5.089095,97.51911 1.498616,0.86558 v 1.73064 l -1.498616,0.86507 -1.499133,-0.86507 v -1.73064 z m 97.917023,0 1.49861,0.86558 v 1.73064 l -1.49861,0.86507 -1.49914,-0.86507 v -1.73064 z m 97.91702,5.2e-4 1.49861,0.86558 v 1.73064 l -1.49861,0.86507 -1.49914,-0.86507 v -1.73064 z m 97.91702,0 1.4986,0.86558 v 1.73064 l -1.4986,0.86507 -1.49913,-0.86507 v -1.73064 z"
       id="path10046"
       inkscape:connector-curvature="0" />
    <path
       inkscape:connector-curvature="0"
       style="fill:#ffffff;stroke:#ff0000;stroke-width:0.05mm"
       d="m 315.65465,132.27609 -0.23616,0.0104 -0.2341,0.0269 -0.23099,0.046 -0.22686,0.0641 -0.22118,0.0822 -0.2129,0.0977 -0.20619,0.11627 -0.19586,0.12971 -0.185,0.14625 -0.17311,0.15968 -0.15968,0.17311 -0.14625,0.185 -0.12971,0.19637 -0.11627,0.20568 -0.0977,0.2129 -0.0822,0.22118 -0.0641,0.22686 -0.046,0.23099 -0.0269,0.2341 -0.009,0.23616 -0.001,105.2499 0.0103,0.23617 0.0269,0.23357 0.046,0.23099 0.0641,0.22738 0.0822,0.22066 0.0977,0.21342 0.11627,0.20568 0.12971,0.19637 0.14624,0.185 0.15968,0.1726 0.17312,0.16019 0.185,0.14573 0.19585,0.13023 0.20619,0.11575 0.21291,0.0982 0.22117,0.0822 0.22686,0.0641 0.231,0.046 0.23409,0.0269 0.23616,0.009 295.75094,0.001 0.23514,-0.01 0.23356,-0.0269 0.23102,-0.046 0.22735,-0.0641 0.22066,-0.0822 0.21344,-0.0982 0.20567,-0.11576 0.19585,-0.13022 0.18499,-0.14573 0.17312,-0.1602 0.16021,-0.1726 0.14573,-0.185 0.13023,-0.19637 0.11575,-0.20567 0.0982,-0.21342 0.0822,-0.22066 0.0641,-0.22738 0.046,-0.23099 0.0269,-0.23358 0.0103,-0.23616 V 135.27746 l -0.0103,-0.23616 -0.0269,-0.2341 -0.046,-0.23099 -0.0641,-0.22686 -0.0822,-0.22118 -0.0982,-0.2129 -0.11575,-0.20568 -0.13023,-0.19636 -0.14573,-0.18501 -0.16021,-0.17311 -0.17312,-0.15968 -0.18499,-0.14625 -0.19585,-0.1297 -0.20567,-0.11628 -0.21344,-0.0977 -0.22066,-0.0827 -0.22735,-0.0641 -0.23102,-0.046 -0.23356,-0.0269 -0.23514,-0.009 z m 98.91696,2.26963 1.49861,0.8661 v 1.73012 l -1.49861,0.86507 -1.49914,-0.86507 v -1.73012 z m 97.91805,0 1.49862,0.86558 v 1.73064 l -1.49862,0.86507 -1.49913,-0.86507 v -1.73064 z m 97.91651,0 1.4986,0.86558 v 1.73064 l -1.4986,0.86507 -1.49912,-0.86507 v -1.73064 z m -293.75107,5.3e-4 1.49862,0.86558 v 1.73064 l -1.49862,0.86507 -1.49913,-0.86507 v -1.73064 z m 5.0891,5.73092 h 283.57131 c 0.60381,0 1.08987,0.48607 1.08987,1.08985 v 93.07029 c 0,0.60379 -0.48606,1.08986 -1.08987,1.08986 H 321.7442 c -0.60379,0 -1.08986,-0.48607 -1.08986,-1.08986 v -93.0703 c 0,-0.60378 0.48607,-1.08986 1.08986,-1.08986 z m -5.0891,97.51911 1.49862,0.86558 v 1.73064 l -1.49862,0.86507 -1.49913,-0.86507 v -1.73064 z m 97.91702,0 1.49862,0.86558 v 1.73064 l -1.49862,0.86507 -1.49913,-0.86507 v -1.73064 z m 97.91702,5.3e-4 1.49862,0.86558 v 1.73064 l -1.49862,0.86507 -1.49913,-0.86507 v -1.73064 z m 97.91703,0 1.4986,0.86558 v 1.73064 l -1.4986,0.86507 -1.49912,-0.86507 v -1.73064 z"
       id="path10046-6" />
    <path
       inkscape:connector-curvature="0"
       style="fill:#ffffff;stroke:#ff0000;stroke-width:0.05mm"
       d="m 10.654824,247.27619 -0.236161,0.0103 -0.234095,0.0269 -0.2309934,0.046 -0.22686,0.0641 -0.221175,0.0822 -0.212907,0.0977 -0.206189,0.11627 -0.1958534,0.12971 -0.185002,0.14624 -0.173116,0.15968 -0.15968,0.17312 -0.146245,0.185 -0.129707,0.19637 -0.116272,0.20567 -0.09767,0.21291 -0.08217,0.22117 -0.06408,0.22686 -0.04599,0.231 -0.02687,0.23409 -0.0093,0.23617 -0.001,105.2499 0.01033,0.23617 0.02687,0.23357 0.04599,0.23099 0.06408,0.22738 0.08217,0.22066 0.09767,0.21342 0.116272,0.20568 0.129707,0.19637 0.146245,0.185 0.15968,0.1726 0.173116,0.16019 0.185002,0.14573 0.1958534,0.13023 0.206189,0.11575 0.212907,0.0982 0.221175,0.0822 0.22686,0.0641 0.2309934,0.046 0.234095,0.0269 0.236161,0.009 295.750946,10e-4 0.23514,-0.01 0.23356,-0.0269 0.23102,-0.046 0.22735,-0.0641 0.22066,-0.0822 0.21344,-0.0982 0.20567,-0.11576 0.19585,-0.13022 0.18499,-0.14573 0.17312,-0.1602 0.16021,-0.1726 0.14573,-0.185 0.13023,-0.19637 0.11575,-0.20567 0.0982,-0.21342 0.0822,-0.22066 0.0641,-0.22738 0.046,-0.23099 0.0269,-0.23358 0.0103,-0.23616 V 250.27756 l -0.0103,-0.23616 -0.0269,-0.2341 -0.046,-0.23099 -0.0641,-0.22686 -0.0822,-0.22118 -0.0982,-0.2129 -0.11575,-0.20568 -0.13023,-0.19637 -0.14573,-0.185 -0.16021,-0.17311 -0.17312,-0.15968 -0.18499,-0.14625 -0.19585,-0.12971 -0.20567,-0.11627 -0.21344,-0.0977 -0.22066,-0.0827 -0.22735,-0.0641 -0.23102,-0.046 -0.23356,-0.0269 -0.23514,-0.009 z m 98.916966,2.26963 1.49861,0.8661 v 1.73012 l -1.49861,0.86507 -1.49914,-0.86507 v -1.73012 z m 97.91805,0 1.49862,0.86558 v 1.73064 l -1.49862,0.86507 -1.49913,-0.86507 v -1.73064 z m 97.91651,0 1.4986,0.86558 v 1.73064 l -1.4986,0.86507 -1.49912,-0.86507 v -1.73064 z m -293.75107,5.3e-4 1.498616,0.86558 v 1.73064 l -1.498616,0.86506 -1.499134,-0.86506 v -1.73064 z m 5.089095,5.73091 H 300.31569 c 0.60381,0 1.08987,0.48608 1.08987,1.08986 v 93.07029 c 0,0.60378 -0.48606,1.08985 -1.08987,1.08985 H 16.744375 c -0.603785,0 -1.089856,-0.48607 -1.089856,-1.08985 v -93.0703 c 0,-0.60379 0.486071,-1.08986 1.089856,-1.08986 z m -5.089095,97.51912 1.498616,0.86558 v 1.73064 l -1.498616,0.86507 -1.499134,-0.86507 v -1.73064 z m 97.91702,0 1.49862,0.86558 v 1.73064 l -1.49862,0.86507 -1.49913,-0.86507 v -1.73064 z m 97.91702,5.3e-4 1.49862,0.86558 v 1.73064 l -1.49862,0.86507 -1.49913,-0.86507 v -1.73064 z m 97.91703,0 1.4986,0.86558 v 1.73064 l -1.4986,0.86507 -1.49912,-0.86507 v -1.73064 z"
       id="path10046-4" />
  </g>
  <g
     inkscape:groupmode="layer"
     id="layer9"
     inkscape:label="open-plate"
     style="display:inline"
     transform="translate(-2.5589898,-12.181787)">
    <path
       style="fill:#ffffff;stroke:#ff0000;stroke-width:0.05mm"
       d="m 315.65464,362.27668 -0.23617,0.0103 -0.23408,0.0269 -0.23101,0.046 -0.22685,0.0641 -0.22116,0.0822 -0.21291,0.0977 -0.20619,0.11627 -0.19588,0.12971 -0.18499,0.14625 -0.17312,0.15968 -0.15967,0.17311 -0.14624,0.185 -0.12973,0.19637 -0.11625,0.20568 -0.0977,0.2129 -0.0822,0.22118 -0.0641,0.22686 -0.046,0.23099 -0.0269,0.23409 -0.009,0.23617 -0.001,105.2499 0.0103,0.23616 0.0269,0.23358 0.046,0.231 0.0641,0.22736 0.0822,0.22066 0.0977,0.21344 0.11628,0.20566 0.1297,0.19638 0.14626,0.18499 0.15968,0.17262 0.17312,0.16018 0.18499,0.14573 0.19585,0.13023 0.20619,0.11575 0.21291,0.0982 0.22119,0.0822 0.22685,0.0641 0.23099,0.046 0.2341,0.0269 0.23617,0.009 295.75092,5.1e-4 0.23514,-0.01 0.23357,-0.0269 0.23098,-0.046 0.22739,-0.0641 0.22066,-0.0822 0.21341,-0.0982 0.20569,-0.11575 0.19584,-0.13023 0.185,-0.14573 0.17312,-0.16018 0.1602,-0.17262 0.14574,-0.18499 0.13022,-0.19638 0.11576,-0.20566 0.0982,-0.21344 0.0821,-0.22066 0.0641,-0.22736 0.046,-0.231 0.0269,-0.23358 0.0103,-0.23616 v -105.2499 l -0.0103,-0.23617 -0.0269,-0.23409 -0.046,-0.23099 -0.0641,-0.22686 -0.0821,-0.22118 -0.0982,-0.2129 -0.11576,-0.20568 -0.13022,-0.19637 -0.14574,-0.185 -0.1602,-0.17311 -0.17312,-0.15968 -0.185,-0.14625 -0.19584,-0.12971 -0.20569,-0.11627 -0.21341,-0.0977 -0.22066,-0.0832 -0.22739,-0.0641 -0.23098,-0.046 -0.23357,-0.0269 -0.23514,-0.009 -265.97808,-5.2e-4 v 8.00107 h 259.88751 c 0.6038,0 1.08984,0.48606 1.08984,1.08984 v 93.07028 c 0,0.60381 -0.48604,1.08987 -1.08984,1.08987 H 321.74418 c -0.60378,0 -1.08984,-0.48606 -1.08984,-1.08987 v -93.07028 c 0,-0.60378 0.48606,-1.08984 1.08984,-1.08984 h 11.88921 v -8.00107 z m 98.91696,2.26963 1.49863,0.86609 v 1.73013 l -1.49863,0.86506 -1.49913,-0.86506 v -1.73013 z m 97.91806,0 1.4986,0.86558 v 1.73064 l -1.4986,0.86506 -1.49913,-0.86506 v -1.73064 z m 97.91649,0 1.49863,0.86558 v 1.73064 l -1.49863,0.86506 -1.49912,-0.86506 v -1.73064 z m -293.75104,5.2e-4 1.4986,0.86557 v 1.73065 l -1.4986,0.86507 -1.49916,-0.86507 v -1.73065 z m 0,103.25003 1.4986,0.86556 v 1.73067 l -1.4986,0.86505 -1.49916,-0.86505 v -1.73067 z m 97.91699,0 1.49863,0.86556 v 1.73067 l -1.49863,0.86505 -1.49913,-0.86505 v -1.73067 z m 97.91703,5.1e-4 1.49863,0.86558 v 1.73064 l -1.49863,0.86506 -1.49913,-0.86506 v -1.73064 z m 97.91702,0 1.49863,0.86558 v 1.73064 l -1.49863,0.86506 -1.49912,-0.86506 v -1.73064 z"
       id="path10046-9"
       inkscape:connector-curvature="0" />
    <path
       style="display:inline;fill:#ffffff;stroke:#ff0000;stroke-width:0.05mm"
       d="m 315.65464,247.27666 -0.23617,0.0103 -0.23408,0.0269 -0.23101,0.046 -0.22685,0.0641 -0.22116,0.0822 -0.21291,0.0977 -0.20619,0.11627 -0.19588,0.12971 -0.18499,0.14625 -0.17312,0.15968 -0.15967,0.17311 -0.14624,0.185 -0.12973,0.19637 -0.11625,0.20568 -0.0977,0.2129 -0.0822,0.22118 -0.0641,0.22686 -0.046,0.23099 -0.0269,0.23409 -0.009,0.23617 -0.001,105.24989 0.0103,0.23616 0.0269,0.23359 0.046,0.231 0.0641,0.22735 0.0822,0.22066 0.0977,0.21344 0.11628,0.20566 0.1297,0.19638 0.14626,0.18499 0.15968,0.17262 0.17312,0.16019 0.18499,0.14573 0.19585,0.13022 0.20619,0.11576 0.21291,0.0982 0.22119,0.0822 0.22685,0.0641 0.23099,0.046 0.2341,0.0269 0.23617,0.009 295.75093,5.3e-4 0.23514,-0.01 0.23357,-0.0269 0.23098,-0.046 0.22738,-0.0641 0.22067,-0.0822 0.21341,-0.0982 0.20569,-0.11575 0.19584,-0.13023 0.185,-0.14573 0.17312,-0.16018 0.1602,-0.17262 0.14573,-0.18499 0.13023,-0.19638 0.11576,-0.20566 0.0982,-0.21344 0.0821,-0.22066 0.0641,-0.22736 0.046,-0.231 0.0269,-0.23358 0.0103,-0.23616 V 250.27763 l -0.0103,-0.23617 -0.0269,-0.23409 -0.046,-0.23099 -0.0641,-0.22686 -0.0821,-0.22118 -0.0982,-0.2129 -0.11576,-0.20568 -0.13023,-0.19637 -0.14573,-0.185 -0.1602,-0.17311 -0.17312,-0.15968 -0.185,-0.14625 -0.19584,-0.12971 -0.20569,-0.11627 -0.21341,-0.0977 -0.22067,-0.0832 -0.22738,-0.0641 -0.23098,-0.046 -0.23357,-0.0269 -0.23514,-0.009 -265.97809,-5.2e-4 v 8.00107 h 259.88752 c 0.6038,0 1.08984,0.48606 1.08984,1.08984 v 93.07028 c 0,0.60381 -0.48604,1.08987 -1.08984,1.08987 H 321.74418 c -0.60378,0 -1.08984,-0.48606 -1.08984,-1.08987 v -93.07028 c 0,-0.60378 0.48606,-1.08984 1.08984,-1.08984 h 11.88921 v -8.00107 z m 98.91696,2.26963 1.49863,0.86609 v 1.73013 l -1.49863,0.86506 -1.49913,-0.86506 v -1.73013 z m 97.91806,0 1.4986,0.86558 v 1.73064 l -1.4986,0.86506 -1.49913,-0.86506 v -1.73064 z m 97.91649,0 1.49862,0.86558 v 1.73064 l -1.49862,0.86506 -1.49911,-0.86506 v -1.73064 z m -293.75104,5.2e-4 1.4986,0.86557 v 1.73065 l -1.4986,0.86507 -1.49916,-0.86507 v -1.73065 z m 0,103.25002 1.4986,0.86557 v 1.73066 l -1.4986,0.86505 -1.49916,-0.86505 v -1.73066 z m 97.91699,0 1.49863,0.86557 v 1.73066 l -1.49863,0.86505 -1.49913,-0.86505 v -1.73066 z m 97.91703,5.3e-4 1.49863,0.86558 v 1.73064 l -1.49863,0.86506 -1.49913,-0.86506 v -1.73064 z m 97.91702,0 1.49862,0.86558 v 1.73064 l -1.49862,0.86506 -1.49911,-0.86506 v -1.73064 z"
       id="path10046-9-5"
       inkscape:connector-curvature="0" />
    <path
       style="display:inline;fill:#ffffff;stroke:#ff0000;stroke-width:0.05mm"
       d="m 10.654638,362.27666 -0.23617,0.0103 -0.23408,0.0269 -0.2310098,0.046 -0.22685,0.0641 -0.22116,0.0822 -0.21291,0.0977 -0.20619,0.11627 -0.19588,0.12971 -0.18499,0.14625 -0.17312,0.15968 -0.15967,0.17311 -0.14624,0.185 -0.12973,0.19637 -0.11625,0.20568 -0.0977,0.2129 -0.0822,0.22118 -0.0641,0.22686 -0.046,0.23099 -0.0269,0.23409 -0.009,0.23617 -0.001,105.24989 0.0103,0.23616 0.0269,0.23359 0.046,0.231 0.0641,0.22735 0.0822,0.22066 0.0977,0.21344 0.11628,0.20566 0.1297,0.19638 0.14626,0.18499 0.15968,0.17262 0.17312,0.16019 0.18499,0.14573 0.19585,0.13022 0.20619,0.11576 0.21291,0.0982 0.22119,0.0822 0.22685,0.0641 0.2309898,0.046 0.23409,0.0269 0.23617,0.009 295.750942,5.3e-4 0.23514,-0.01 0.23357,-0.0269 0.23098,-0.046 0.22738,-0.0641 0.22067,-0.0822 0.21341,-0.0982 0.20569,-0.11575 0.19584,-0.13023 0.185,-0.14573 0.17312,-0.16018 0.1602,-0.17262 0.14573,-0.18499 0.13023,-0.19638 0.11576,-0.20566 0.0982,-0.21344 0.0821,-0.22066 0.0641,-0.22736 0.046,-0.231 0.0269,-0.23358 0.0103,-0.23616 V 365.27763 l -0.0103,-0.23617 -0.0269,-0.23409 -0.046,-0.23099 -0.0641,-0.22686 -0.0821,-0.22118 -0.0982,-0.2129 -0.11576,-0.20568 -0.13023,-0.19637 -0.14573,-0.185 -0.1602,-0.17311 -0.17312,-0.15968 -0.185,-0.14625 -0.19584,-0.12971 -0.20569,-0.11627 -0.21341,-0.0977 -0.22067,-0.0832 -0.22738,-0.0641 -0.23098,-0.046 -0.23357,-0.0269 -0.23514,-0.009 -265.978096,-5.2e-4 v 8.00107 H 300.31533 c 0.6038,0 1.08984,0.48606 1.08984,1.08984 v 93.07028 c 0,0.60381 -0.48604,1.08987 -1.08984,1.08987 H 16.744178 c -0.60378,0 -1.08984,-0.48606 -1.08984,-1.08987 v -93.07028 c 0,-0.60378 0.48606,-1.08984 1.08984,-1.08984 h 11.8892 v -8.00107 z m 98.916952,2.26963 1.49864,0.86609 v 1.73013 l -1.49864,0.86506 -1.49912,-0.86506 v -1.73013 z m 97.91807,0 1.4986,0.86558 v 1.73064 l -1.4986,0.86506 -1.49913,-0.86506 v -1.73064 z m 97.91649,0 1.49862,0.86558 v 1.73064 l -1.49862,0.86506 -1.49911,-0.86506 v -1.73064 z m -293.751042,5.2e-4 1.4986,0.86557 v 1.73065 l -1.4986,0.86507 -1.49916,-0.86507 v -1.73065 z m 0,103.25002 1.4986,0.86557 v 1.73066 l -1.4986,0.86505 -1.49916,-0.86505 v -1.73066 z m 97.916982,0 1.49864,0.86557 v 1.73066 l -1.49864,0.86505 -1.49912,-0.86505 v -1.73066 z m 97.91704,5.3e-4 1.49863,0.86558 v 1.73064 l -1.49863,0.86506 -1.49913,-0.86506 v -1.73064 z m 97.91702,0 1.49862,0.86558 v 1.73064 l -1.49862,0.86506 -1.49911,-0.86506 v -1.73064 z"
       id="path10046-9-4"
       inkscape:connector-curvature="0" />
  </g>
  <g
     inkscape:groupmode="layer"
     id="layer11"
     inkscape:label="stand-off"
     transform="translate(-4.9999898,-15.999985)">
    <g
       transform="translate(3.5718356e-4,240.5414)"
       id="g10402">
      <path
         inkscape:connector-curvature="0"
         id="rect10137"
         d="m 18.97817,142.68347 c -0.490125,0 -0.884701,0.39458 -0.884701,0.8847 v 6.04924 c 0,0.49013 0.394576,0.8847 0.884701,0.8847 h 283.9749 c 0.49014,0 0.88472,-0.39457 0.88472,-0.8847 v -6.04924 c 0,-0.49012 -0.39458,-0.8847 -0.88472,-0.8847 z m 17.886762,2.85977 a 1.0489551,1.0489551 0 0 1 1.049034,1.04904 1.0489551,1.0489551 0 0 1 -1.049034,1.04903 1.0489551,1.0489551 0 0 1 -1.04903,-1.04903 1.0489551,1.0489551 0 0 1 1.04903,-1.04904 z m 124.100948,5.2e-4 a 1.0489551,1.0489551 0 0 1 1.04903,1.04903 1.0489551,1.0489551 0 0 1 -1.04903,1.04903 1.0489551,1.0489551 0 0 1 -1.04903,-1.04903 1.0489551,1.0489551 0 0 1 1.04903,-1.04903 z m 124.99962,0 a 1.0489551,1.0489551 0 0 1 1.04902,1.04903 1.0489551,1.0489551 0 0 1 -1.04902,1.04903 1.0489551,1.0489551 0 0 1 -1.04905,-1.04903 1.0489551,1.0489551 0 0 1 1.04905,-1.04903 z"
         style="display:inline;fill:#ffffff;fill-opacity:1;stroke:#f60000;stroke-width:0.18165237;stroke-linecap:butt;stroke-linejoin:miter;stroke-miterlimit:4;stroke-dasharray:none;stroke-opacity:1" />
      <path
         id="rect10137-4"
         d="m 18.978526,134.86343 c -0.49013,0 -0.8847,0.39458 -0.8847,0.8847 v 6.04925 c 0,0.49012 0.39457,0.8847 0.8847,0.8847 H 302.95342 c 0.49014,0 0.88471,-0.39458 0.88471,-0.8847 v -6.04925 c 0,-0.49012 -0.39457,-0.8847 -0.88471,-0.8847 z m 17.88676,2.85977 a 1.0489551,1.0489551 0 0 1 1.04903,1.04904 1.0489551,1.0489551 0 0 1 -1.04903,1.04903 1.0489551,1.0489551 0 0 1 -1.04903,-1.04903 1.0489551,1.0489551 0 0 1 1.04903,-1.04904 z m 124.100944,5.3e-4 a 1.0489551,1.0489551 0 0 1 1.04903,1.04903 1.0489551,1.0489551 0 0 1 -1.04903,1.04903 1.0489551,1.0489551 0 0 1 -1.04903,-1.04903 1.0489551,1.0489551 0 0 1 1.04903,-1.04903 z m 124.99962,0 a 1.0489551,1.0489551 0 0 1 1.04902,1.04903 1.0489551,1.0489551 0 0 1 -1.04902,1.04903 1.0489551,1.0489551 0 0 1 -1.04905,-1.04903 1.0489551,1.0489551 0 0 1 1.04905,-1.04903 z"
         style="display:inline;fill:#ffffff;fill-opacity:1;stroke:#f60000;stroke-width:0.18165237;stroke-linecap:butt;stroke-linejoin:miter;stroke-miterlimit:4;stroke-dasharray:none;stroke-opacity:1"
         inkscape:connector-curvature="0" />
      <path
         inkscape:connector-curvature="0"
         id="rect10137-3"
         d="m 18.978527,150.50133 c -0.490125,0 -0.884701,0.39458 -0.884701,0.8847 v 6.04924 c 0,0.49013 0.394576,0.8847 0.884701,0.8847 H 302.95343 c 0.49014,0 0.88471,-0.39457 0.88471,-0.8847 v -6.04924 c 0,-0.49012 -0.39457,-0.8847 -0.88471,-0.8847 z m 17.886763,2.85977 a 1.0489551,1.0489551 0 0 1 1.049034,1.04904 1.0489551,1.0489551 0 0 1 -1.049034,1.04903 1.0489551,1.0489551 0 0 1 -1.049031,-1.04903 1.0489551,1.0489551 0 0 1 1.049031,-1.04904 z m 124.10095,5.3e-4 a 1.0489551,1.0489551 0 0 1 1.04903,1.04903 1.0489551,1.0489551 0 0 1 -1.04903,1.04903 1.0489551,1.0489551 0 0 1 -1.04903,-1.04903 1.0489551,1.0489551 0 0 1 1.04903,-1.04903 z m 124.99962,0 a 1.0489551,1.0489551 0 0 1 1.04902,1.04903 1.0489551,1.0489551 0 0 1 -1.04902,1.04903 1.0489551,1.0489551 0 0 1 -1.04905,-1.04903 1.0489551,1.0489551 0 0 1 1.04905,-1.04903 z"
         style="display:inline;fill:#ffffff;fill-opacity:1;stroke:#f60000;stroke-width:0.18165237;stroke-linecap:butt;stroke-linejoin:miter;stroke-miterlimit:4;stroke-dasharray:none;stroke-opacity:1" />
      <path
         inkscape:connector-curvature="0"
         id="rect10137-1"
         d="m 18.978527,166.14144 c -0.490125,0 -0.884701,0.39458 -0.884701,0.8847 v 6.04924 c 0,0.49013 0.394576,0.8847 0.884701,0.8847 H 302.95343 c 0.49014,0 0.88471,-0.39457 0.88471,-0.8847 v -6.04924 c 0,-0.49012 -0.39457,-0.8847 -0.88471,-0.8847 z m 17.886763,2.85977 a 1.0489551,1.0489551 0 0 1 1.049034,1.04904 1.0489551,1.0489551 0 0 1 -1.049034,1.04903 1.0489551,1.0489551 0 0 1 -1.049031,-1.04903 1.0489551,1.0489551 0 0 1 1.049031,-1.04904 z m 124.10095,5.3e-4 a 1.0489551,1.0489551 0 0 1 1.04903,1.04903 1.0489551,1.0489551 0 0 1 -1.04903,1.04903 1.0489551,1.0489551 0 0 1 -1.04903,-1.04903 1.0489551,1.0489551 0 0 1 1.04903,-1.04903 z m 124.99962,0 a 1.0489551,1.0489551 0 0 1 1.04902,1.04903 1.0489551,1.0489551 0 0 1 -1.04902,1.04903 1.0489551,1.0489551 0 0 1 -1.04905,-1.04903 1.0489551,1.0489551 0 0 1 1.04905,-1.04903 z"
         style="display:inline;fill:#ffffff;fill-opacity:1;stroke:#f60000;stroke-width:0.18165237;stroke-linecap:butt;stroke-linejoin:miter;stroke-miterlimit:4;stroke-dasharray:none;stroke-opacity:1" />
      <path
         inkscape:connector-curvature="0"
         id="rect10137-39"
         d="m 18.978527,158.32105 c -0.490125,0 -0.884701,0.39458 -0.884701,0.8847 v 6.04924 c 0,0.49013 0.394576,0.8847 0.884701,0.8847 H 302.95343 c 0.49014,0 0.88471,-0.39457 0.88471,-0.8847 v -6.04924 c 0,-0.49012 -0.39457,-0.8847 -0.88471,-0.8847 z m 17.886762,2.85977 a 1.0489551,1.0489551 0 0 1 1.049034,1.04904 1.0489551,1.0489551 0 0 1 -1.049034,1.04903 1.0489551,1.0489551 0 0 1 -1.049031,-1.04903 1.0489551,1.0489551 0 0 1 1.049031,-1.04904 z m 124.100951,5.3e-4 a 1.0489551,1.0489551 0 0 1 1.04903,1.04903 1.0489551,1.0489551 0 0 1 -1.04903,1.04903 1.0489551,1.0489551 0 0 1 -1.04903,-1.04903 1.0489551,1.0489551 0 0 1 1.04903,-1.04903 z m 124.99962,0 a 1.0489551,1.0489551 0 0 1 1.04902,1.04903 1.0489551,1.0489551 0 0 1 -1.04902,1.04903 1.0489551,1.0489551 0 0 1 -1.04905,-1.04903 1.0489551,1.0489551 0 0 1 1.04905,-1.04903 z"
         style="display:inline;fill:#ffffff;fill-opacity:1;stroke:#f60000;stroke-width:0.18165237;stroke-linecap:butt;stroke-linejoin:miter;stroke-miterlimit:4;stroke-dasharray:none;stroke-opacity:1" />
      <path
         inkscape:connector-curvature="0"
         id="rect10137-38"
         d="m 18.978527,173.96137 c -0.490125,0 -0.884701,0.39458 -0.884701,0.8847 v 6.04924 c 0,0.49013 0.394576,0.8847 0.884701,0.8847 H 302.95343 c 0.49014,0 0.88471,-0.39457 0.88471,-0.8847 v -6.04924 c 0,-0.49012 -0.39457,-0.8847 -0.88471,-0.8847 z m 17.886762,2.85977 a 1.0489551,1.0489551 0 0 1 1.049034,1.04904 1.0489551,1.0489551 0 0 1 -1.049034,1.04903 1.0489551,1.0489551 0 0 1 -1.049031,-1.04903 1.0489551,1.0489551 0 0 1 1.049031,-1.04904 z m 124.100951,5.3e-4 a 1.0489551,1.0489551 0 0 1 1.04903,1.04903 1.0489551,1.0489551 0 0 1 -1.04903,1.04903 1.0489551,1.0489551 0 0 1 -1.04903,-1.04903 1.0489551,1.0489551 0 0 1 1.04903,-1.04903 z m 124.99962,0 a 1.0489551,1.0489551 0 0 1 1.04902,1.04903 1.0489551,1.0489551 0 0 1 -1.04902,1.04903 1.0489551,1.0489551 0 0 1 -1.04905,-1.04903 1.0489551,1.0489551 0 0 1 1.04905,-1.04903 z"
         style="display:inline;fill:#ffffff;fill-opacity:1;stroke:#f60000;stroke-width:0.18165237;stroke-linecap:butt;stroke-linejoin:miter;stroke-miterlimit:4;stroke-dasharray:none;stroke-opacity:1" />
    </g>
  </g>
  <g
     inkscape:groupmode="layer"
     id="layer3"
     inkscape:label="hex"
     transform="translate(-2.5589898,-12.181787)" />
  <g
     inkscape:groupmode="layer"
     id="layer2"
     inkscape:label="2mm"
     transform="translate(-2.5589898,-12.181787)"
     style="display:none">
    <path
       inkscape:connector-curvature="0"
       style="display:inline;fill:#ffffff;fill-opacity:1;stroke:#fe0000;stroke-width:0.189;stroke-miterlimit:4;stroke-dasharray:none;stroke-opacity:1"
       d="m 0.19719819,152.00295 a 1.0489551,1.0489551 0 0 1 1.04903001,1.04903 1.0489551,1.0489551 0 0 1 -1.04903001,1.04901 1.0489551,1.0489551 0 0 1 -1.04903,-1.04901 1.0489551,1.0489551 0 0 1 1.04903,-1.04903 z"
       id="path8212-1" />
  </g>
  <g
     inkscape:groupmode="layer"
     id="layer4"
     inkscape:label="bottom"
     style="display:inline"
     transform="translate(-2.5589898,-12.181787)">
    <path
       style="fill:#ffffff;stroke:#ff0000;stroke-width:0.189;stroke-miterlimit:4;stroke-dasharray:none"
       d="m 10.655358,17.276779 -0.236161,0.0098 -0.234094,0.02687 -0.2309942,0.04599 -0.2268595,0.06408 -0.221175,0.08217 -0.2129071,0.09819 -0.206189,0.115755 -0.1958535,0.130225 -0.1850017,0.145727 -0.1731161,0.160197 -0.15968,0.173116 -0.1462445,0.185002 -0.1297077,0.195854 -0.116272,0.206189 -0.097669,0.212907 -0.082165,0.220658 -0.064079,0.227376 -0.045992,0.230994 -0.026872,0.233577 -0.0093,0.236162 -0.00103,105.249912 0.010335,0.23616 0.026872,0.23409 0.045992,0.231 0.064079,0.22686 0.082165,0.22117 0.097669,0.21291 0.116272,0.20619 0.1297077,0.19585 0.1462445,0.185 0.15968,0.17312 0.1731161,0.15968 0.1850017,0.14624 0.1958535,0.12971 0.206189,0.11627 0.2129071,0.0977 0.221175,0.0822 0.2268595,0.0641 0.2309942,0.046 0.234094,0.0269 0.236161,0.009 295.750947,0.001 0.23511,-0.0103 0.2336,-0.0269 0.23098,-0.046 0.22738,-0.0641 0.22067,-0.0822 0.21341,-0.0977 0.20569,-0.11628 0.19584,-0.1297 0.185,-0.14625 0.17311,-0.15968 0.1602,-0.17311 0.14573,-0.18501 0.1302,-0.19585 0.11577,-0.20619 0.0982,-0.21291 0.0822,-0.22117 0.0641,-0.22686 0.046,-0.23099 0.0269,-0.2341 0.01,-0.23616 V 20.27763 l -0.01,-0.236162 -0.0269,-0.233577 -0.046,-0.230994 -0.0641,-0.227376 -0.0822,-0.220658 -0.0982,-0.212907 -0.11577,-0.206189 -0.1302,-0.195854 -0.14573,-0.185002 -0.1602,-0.173116 -0.17311,-0.160197 -0.185,-0.145727 -0.19584,-0.130225 -0.20569,-0.115755 -0.21341,-0.09819 -0.22067,-0.08217 -0.22738,-0.06408 -0.23098,-0.04599 -0.2336,-0.02687 -0.23511,-0.0088 z m 0.999939,2.950725 a 1.0489551,1.0489551 0 0 1 1.049032,1.049031 1.0489551,1.0489551 0 0 1 -1.049032,1.049032 1.0489551,1.0489551 0 0 1 -1.049032,-1.049032 1.0489551,1.0489551 0 0 1 1.049032,-1.049031 z m 97.916503,5.16e-4 a 1.0489551,1.0489551 0 0 1 1.04903,1.049032 1.0489551,1.0489551 0 0 1 -1.04903,1.049031 1.0489551,1.0489551 0 0 1 -1.04903,-1.049031 1.0489551,1.0489551 0 0 1 1.04903,-1.049032 z m 195.83353,0 a 1.0489551,1.0489551 0 0 1 1.04902,1.049032 1.0489551,1.0489551 0 0 1 -1.04902,1.049031 1.0489551,1.0489551 0 0 1 -1.04905,-1.049031 1.0489551,1.0489551 0 0 1 1.04905,-1.049032 z m -97.91599,5.17e-4 a 1.0489551,1.0489551 0 0 1 1.04903,1.049032 1.0489551,1.0489551 0 0 1 -1.04903,1.049031 1.0489551,1.0489551 0 0 1 -1.04903,-1.049031 1.0489551,1.0489551 0 0 1 1.04903,-1.049032 z M 34.423932,27.323194 a 1.0489551,1.0489551 0 0 1 1.049034,1.049032 1.0489551,1.0489551 0 0 1 -1.049034,1.049032 1.0489551,1.0489551 0 0 1 -1.04903,-1.049032 1.0489551,1.0489551 0 0 1 1.04903,-1.049032 z m 124.100948,5.17e-4 a 1.0489551,1.0489551 0 0 1 1.04903,1.049032 1.0489551,1.0489551 0 0 1 -1.04903,1.049031 1.0489551,1.0489551 0 0 1 -1.04903,-1.049031 1.0489551,1.0489551 0 0 1 1.04903,-1.049032 z m 124.99909,0 a 1.0489551,1.0489551 0 0 1 1.04902,1.049032 1.0489551,1.0489551 0 0 1 -1.04902,1.049031 1.0489551,1.0489551 0 0 1 -1.04902,-1.049031 1.0489551,1.0489551 0 0 1 1.04902,-1.049032 z M 41.229201,52.45551 a 1.0489551,1.0489551 0 0 1 1.049033,1.04903 1.0489551,1.0489551 0 0 1 -1.049033,1.048518 1.0489551,1.0489551 0 0 1 -1.049031,-1.048518 1.0489551,1.0489551 0 0 1 1.049031,-1.04903 z m 234.848709,0 a 1.0489551,1.0489551 0 0 1 1.04904,1.04903 1.0489551,1.0489551 0 0 1 -1.04904,1.049034 1.0489551,1.0489551 0 0 1 -1.04902,-1.049034 1.0489551,1.0489551 0 0 1 1.04902,-1.04903 z m -38.14134,18.27382 a 1.0489551,1.0489551 0 0 1 1.04904,1.049031 1.0489551,1.0489551 0 0 1 -1.04904,1.049033 1.0489551,1.0489551 0 0 1 -1.04903,-1.049033 1.0489551,1.0489551 0 0 1 1.04903,-1.049031 z m -93.70642,1.127062 a 1.0489551,1.0489551 0 0 1 1.04903,1.049033 1.0489551,1.0489551 0 0 1 -1.04903,1.049031 1.0489551,1.0489551 0 0 1 -1.04903,-1.049031 1.0489551,1.0489551 0 0 1 1.04903,-1.049033 z m -124.881266,9.19117 a 1.0489551,1.0489551 0 0 1 1.049032,1.049033 1.0489551,1.0489551 0 0 1 -1.049032,1.049031 1.0489551,1.0489551 0 0 1 -1.049031,-1.049031 1.0489551,1.0489551 0 0 1 1.049031,-1.049033 z m 278.356146,0 a 1.0489551,1.0489551 0 0 1 1.04902,1.049033 1.0489551,1.0489551 0 0 1 -1.04902,1.049031 1.0489551,1.0489551 0 0 1 -1.04905,-1.049031 1.0489551,1.0489551 0 0 1 1.04905,-1.049033 z m -91.17377,28.709878 a 1.0489551,1.0489551 0 0 1 1.04903,1.04903 1.0489551,1.0489551 0 0 1 -1.04903,1.04955 1.0489551,1.0489551 0 0 1 -1.04904,-1.04955 1.0489551,1.0489551 0 0 1 1.04904,-1.04903 z m -172.107843,6.61717 a 1.0489551,1.0489551 0 0 1 1.04903,1.04903 1.0489551,1.0489551 0 0 1 -1.04903,1.04851 1.0489551,1.0489551 0 0 1 -1.049034,-1.04851 1.0489551,1.0489551 0 0 1 1.049034,-1.04903 z m 124.101463,0 a 1.0489551,1.0489551 0 0 1 1.04903,1.04903 1.0489551,1.0489551 0 0 1 -1.04903,1.04903 1.0489551,1.0489551 0 0 1 -1.04903,-1.04903 1.0489551,1.0489551 0 0 1 1.04903,-1.04903 z m 124.99909,0 a 1.0489551,1.0489551 0 0 1 1.04902,1.04903 1.0489551,1.0489551 0 0 1 -1.04902,1.04851 1.0489551,1.0489551 0 0 1 -1.04902,-1.04851 1.0489551,1.0489551 0 0 1 1.04902,-1.04903 z m -271.868673,7.10396 a 1.0489551,1.0489551 0 0 1 1.049032,1.04903 1.0489551,1.0489551 0 0 1 -1.049032,1.04903 1.0489551,1.0489551 0 0 1 -1.049032,-1.04903 1.0489551,1.0489551 0 0 1 1.049032,-1.04903 z m 97.916503,0 a 1.0489551,1.0489551 0 0 1 1.04903,1.04903 1.0489551,1.0489551 0 0 1 -1.04903,1.04903 1.0489551,1.0489551 0 0 1 -1.04903,-1.04903 1.0489551,1.0489551 0 0 1 1.04903,-1.04903 z m 97.91754,5.1e-4 a 1.0489551,1.0489551 0 0 1 1.04903,1.04904 1.0489551,1.0489551 0 0 1 -1.04903,1.04903 1.0489551,1.0489551 0 0 1 -1.04903,-1.04903 1.0489551,1.0489551 0 0 1 1.04903,-1.04904 z m 97.91649,0 a 1.0489551,1.0489551 0 0 1 1.04905,1.04904 1.0489551,1.0489551 0 0 1 -1.04905,1.04903 1.0489551,1.0489551 0 0 1 -1.04902,-1.04903 1.0489551,1.0489551 0 0 1 1.04902,-1.04904 z"
       id="path10372"
       inkscape:connector-curvature="0" />
  </g>
  <g
     inkscape:groupmode="layer"
     id="layer5"
     inkscape:label="switch-plate"
     style="display:inline"
     transform="translate(-2.5589898,-12.181787)">
    <path
       style="fill:#ffffff;stroke:#ff0000;stroke-width:0.18897638mm"
       d="M 1183.3535 19.253906 L 1182.4609 19.292969 L 1181.5762 19.394531 L 1180.7031 19.568359 L 1179.8457 19.810547 L 1179.0098 20.121094 L 1178.2051 20.490234 L 1177.4258 20.929688 L 1176.6855 21.419922 L 1175.9863 21.972656 L 1175.332 22.576172 L 1174.7285 23.230469 L 1174.1758 23.929688 L 1173.6855 24.671875 L 1173.2461 25.449219 L 1172.877 26.253906 L 1172.5664 27.089844 L 1172.3242 27.947266 L 1172.1504 28.820312 L 1172.0488 29.705078 L 1172.0137 30.597656 L 1172.0098 428.39258 L 1172.0488 429.28516 L 1172.1504 430.16797 L 1172.3242 431.04102 L 1172.5684 431.90039 L 1172.8789 432.73438 L 1173.248 433.54102 L 1173.6875 434.31836 L 1174.1777 435.06055 L 1174.7305 435.75977 L 1175.334 436.41211 L 1175.9883 437.01758 L 1176.6875 437.56836 L 1177.4277 438.06055 L 1178.207 438.49805 L 1179.0117 438.86914 L 1179.8477 439.18164 L 1180.7051 439.42383 L 1181.5781 439.59766 L 1182.4629 439.69922 L 1183.3555 439.73242 L 2301.1543 439.73633 L 2302.043 439.69727 L 2302.9258 439.5957 L 2303.7988 439.42188 L 2304.6582 439.17969 L 2305.4922 438.86914 L 2306.2988 438.49805 L 2307.0762 438.06055 L 2307.8164 437.56836 L 2308.5156 437.01758 L 2309.1699 436.41211 L 2309.7754 435.75977 L 2310.3262 435.06055 L 2310.8184 434.31836 L 2311.2559 433.54102 L 2311.627 432.73438 L 2311.9375 431.90039 L 2312.1797 431.04102 L 2312.3535 430.16797 L 2312.4551 429.28516 L 2312.4922 428.39258 L 2312.4922 30.597656 L 2312.4551 29.705078 L 2312.3535 28.820312 L 2312.1797 27.947266 L 2311.9375 27.089844 L 2311.627 26.253906 L 2311.2559 25.449219 L 2310.8184 24.671875 L 2310.3262 23.929688 L 2309.7754 23.230469 L 2309.1699 22.576172 L 2308.5156 21.972656 L 2307.8164 21.419922 L 2307.0762 20.929688 L 2306.2988 20.490234 L 2305.4922 20.121094 L 2304.6582 19.810547 L 2303.7988 19.568359 L 2302.9258 19.394531 L 2302.043 19.292969 L 2301.1543 19.257812 L 1183.3535 19.253906 z M 2297.377 30.40625 A 3.9645547 3.9645547 0 0 1 2301.3418 34.371094 A 3.9645547 3.9645547 0 0 1 2297.377 38.335938 A 3.9645547 3.9645547 0 0 1 2293.4121 34.371094 A 3.9645547 3.9645547 0 0 1 2297.377 30.40625 z M 1187.1328 30.408203 A 3.9645547 3.9645547 0 0 1 1191.0977 34.373047 A 3.9645547 3.9645547 0 0 1 1187.1328 38.337891 A 3.9645547 3.9645547 0 0 1 1183.168 34.373047 A 3.9645547 3.9645547 0 0 1 1187.1328 30.408203 z M 1927.2969 30.408203 A 3.9645547 3.9645547 0 0 1 1931.2617 34.373047 A 3.9645547 3.9645547 0 0 1 1927.2969 38.337891 A 3.9645547 3.9645547 0 0 1 1923.332 34.373047 A 3.9645547 3.9645547 0 0 1 1927.2969 30.408203 z M 1557.2129 30.410156 A 3.9645547 3.9645547 0 0 1 1561.1777 34.375 A 3.9645547 3.9645547 0 0 1 1557.2129 38.339844 A 3.9645547 3.9645547 0 0 1 1553.248 34.375 A 3.9645547 3.9645547 0 0 1 1557.2129 30.410156 z M 1211.791 59.035156 L 1264.707 59.035156 L 1264.707 62.818359 L 1267.7305 62.818359 L 1267.7305 74.535156 L 1264.707 74.535156 L 1264.707 96.451172 L 1267.7305 96.451172 L 1267.7305 108.17188 L 1264.707 108.17188 L 1264.707 111.95117 L 1211.791 111.95117 L 1211.791 108.17188 L 1208.7656 108.17188 L 1208.7656 96.451172 L 1211.791 96.451172 L 1211.791 74.535156 L 1208.7656 74.535156 L 1208.7656 62.818359 L 1211.791 62.818359 L 1211.791 59.035156 z M 1283.793 59.035156 L 1336.707 59.035156 L 1336.707 62.818359 L 1339.7305 62.818359 L 1339.7305 74.535156 L 1336.707 74.535156 L 1336.707 96.451172 L 1339.7305 96.451172 L 1339.7305 108.17188 L 1336.707 108.17188 L 1336.707 111.95117 L 1283.793 111.95117 L 1283.793 108.17188 L 1280.7695 108.17188 L 1280.7695 96.451172 L 1283.793 96.451172 L 1283.793 74.535156 L 1280.7695 74.535156 L 1280.7695 62.818359 L 1283.793 62.818359 L 1283.793 59.035156 z M 1355.793 59.035156 L 1408.707 59.035156 L 1408.707 62.818359 L 1411.7305 62.818359 L 1411.7305 74.535156 L 1408.707 74.535156 L 1408.707 96.451172 L 1411.7305 96.451172 L 1411.7305 108.17188 L 1408.707 108.17188 L 1408.707 111.95117 L 1355.793 111.95117 L 1355.793 108.17188 L 1352.7695 108.17188 L 1352.7695 96.451172 L 1355.793 96.451172 L 1355.793 74.535156 L 1352.7695 74.535156 L 1352.7695 62.818359 L 1355.793 62.818359 L 1355.793 59.035156 z M 1427.793 59.035156 L 1480.707 59.035156 L 1480.707 62.818359 L 1483.7305 62.818359 L 1483.7305 74.535156 L 1480.707 74.535156 L 1480.707 96.451172 L 1483.7305 96.451172 L 1483.7305 108.17188 L 1480.707 108.17188 L 1480.707 111.95117 L 1427.793 111.95117 L 1427.793 108.17188 L 1424.7695 108.17188 L 1424.7695 96.451172 L 1427.793 96.451172 L 1427.793 74.535156 L 1424.7695 74.535156 L 1424.7695 62.818359 L 1427.793 62.818359 L 1427.793 59.035156 z M 1499.793 59.035156 L 1552.707 59.035156 L 1552.707 62.818359 L 1555.7266 62.818359 L 1555.7266 74.535156 L 1552.707 74.535156 L 1552.707 96.451172 L 1555.7266 96.451172 L 1555.7266 108.17188 L 1552.707 108.17188 L 1552.707 111.95117 L 1499.793 111.95117 L 1499.793 108.17188 L 1496.7695 108.17188 L 1496.7695 96.451172 L 1499.793 96.451172 L 1499.793 74.535156 L 1496.7695 74.535156 L 1496.7695 62.818359 L 1499.793 62.818359 L 1499.793 59.035156 z M 1571.791 59.035156 L 1624.7031 59.035156 L 1624.7031 62.818359 L 1627.7266 62.818359 L 1627.7266 74.535156 L 1624.7031 74.535156 L 1624.7031 96.451172 L 1627.7266 96.451172 L 1627.7266 108.17188 L 1624.7031 108.17188 L 1624.7031 111.95117 L 1571.791 111.95117 L 1571.791 108.17188 L 1568.7695 108.17188 L 1568.7695 96.451172 L 1571.791 96.451172 L 1571.791 74.535156 L 1568.7695 74.535156 L 1568.7695 62.818359 L 1571.791 62.818359 L 1571.791 59.035156 z M 1643.791 59.035156 L 1696.707 59.035156 L 1696.707 62.818359 L 1699.7305 62.818359 L 1699.7305 74.535156 L 1696.707 74.535156 L 1696.707 96.451172 L 1699.7305 96.451172 L 1699.7305 108.17188 L 1696.707 108.17188 L 1696.707 111.95117 L 1643.791 111.95117 L 1643.791 108.17188 L 1640.7656 108.17188 L 1640.7656 96.451172 L 1643.791 96.451172 L 1643.791 74.535156 L 1640.7656 74.535156 L 1640.7656 62.818359 L 1643.791 62.818359 L 1643.791 59.035156 z M 1715.793 59.035156 L 1768.707 59.035156 L 1768.707 62.818359 L 1771.7305 62.818359 L 1771.7305 74.535156 L 1768.707 74.535156 L 1768.707 96.451172 L 1771.7305 96.451172 L 1771.7305 108.17188 L 1768.707 108.17188 L 1768.707 111.95117 L 1715.793 111.95117 L 1715.793 108.17188 L 1712.7695 108.17188 L 1712.7695 96.451172 L 1715.793 96.451172 L 1715.793 74.535156 L 1712.7695 74.535156 L 1712.7695 62.818359 L 1715.793 62.818359 L 1715.793 59.035156 z M 1787.793 59.035156 L 1840.707 59.035156 L 1840.707 62.818359 L 1843.7305 62.818359 L 1843.7305 74.535156 L 1840.707 74.535156 L 1840.707 96.451172 L 1843.7305 96.451172 L 1843.7305 108.17188 L 1840.707 108.17188 L 1840.707 111.95117 L 1787.793 111.95117 L 1787.793 108.17188 L 1784.7695 108.17188 L 1784.7695 96.451172 L 1787.793 96.451172 L 1787.793 74.535156 L 1784.7695 74.535156 L 1784.7695 62.818359 L 1787.793 62.818359 L 1787.793 59.035156 z M 1859.793 59.035156 L 1912.707 59.035156 L 1912.707 62.818359 L 1915.7305 62.818359 L 1915.7305 74.535156 L 1912.707 74.535156 L 1912.707 96.451172 L 1915.7305 96.451172 L 1915.7305 108.17188 L 1912.707 108.17188 L 1912.707 111.95117 L 1859.793 111.95117 L 1859.793 108.17188 L 1856.7695 108.17188 L 1856.7695 96.451172 L 1859.793 96.451172 L 1859.793 74.535156 L 1856.7695 74.535156 L 1856.7695 62.818359 L 1859.793 62.818359 L 1859.793 59.035156 z M 1931.793 59.035156 L 1984.707 59.035156 L 1984.707 62.818359 L 1987.7305 62.818359 L 1987.7305 74.535156 L 1984.707 74.535156 L 1984.707 96.451172 L 1987.7305 96.451172 L 1987.7305 108.17188 L 1984.707 108.17188 L 1984.707 111.95117 L 1931.793 111.95117 L 1931.793 108.17188 L 1928.7695 108.17188 L 1928.7695 96.451172 L 1931.793 96.451172 L 1931.793 74.535156 L 1928.7695 74.535156 L 1928.7695 62.818359 L 1931.793 62.818359 L 1931.793 59.035156 z M 2003.793 59.035156 L 2056.707 59.035156 L 2056.707 62.818359 L 2059.7305 62.818359 L 2059.7305 74.535156 L 2056.707 74.535156 L 2056.707 96.451172 L 2059.7305 96.451172 L 2059.7305 108.17188 L 2056.707 108.17188 L 2056.707 111.95117 L 2003.793 111.95117 L 2003.793 108.17188 L 2000.7695 108.17188 L 2000.7695 96.451172 L 2003.793 96.451172 L 2003.793 74.535156 L 2000.7695 74.535156 L 2000.7695 62.818359 L 2003.793 62.818359 L 2003.793 59.035156 z M 2075.793 59.035156 L 2128.707 59.035156 L 2128.707 62.818359 L 2131.7305 62.818359 L 2131.7305 74.535156 L 2128.707 74.535156 L 2128.707 96.451172 L 2131.7305 96.451172 L 2131.7305 108.17188 L 2128.707 108.17188 L 2128.707 111.95117 L 2075.793 111.95117 L 2075.793 108.17188 L 2072.7695 108.17188 L 2072.7695 96.451172 L 2075.793 96.451172 L 2075.793 74.535156 L 2072.7695 74.535156 L 2072.7695 62.818359 L 2075.793 62.818359 L 2075.793 59.035156 z M 2183.7891 59.035156 L 2236.7031 59.035156 L 2236.7031 62.814453 L 2239.7266 62.814453 L 2239.7266 74.53125 L 2236.7031 74.53125 L 2236.7031 76.798828 L 2242.4668 76.798828 L 2242.4668 64.589844 L 2267.9785 64.589844 L 2267.9785 76.798828 L 2271.0957 76.798828 L 2271.0957 87.380859 L 2267.9785 87.380859 L 2267.9785 111.07812 L 2261.459 111.07812 L 2261.459 115.61328 L 2248.9863 115.61328 L 2248.9863 111.07812 L 2242.4668 111.07812 L 2242.4668 94.183594 L 2236.7031 94.183594 L 2236.7031 96.451172 L 2239.7266 96.451172 L 2239.7266 108.16797 L 2236.7031 108.16797 L 2236.7031 111.94727 L 2183.7891 111.94727 L 2183.7891 108.16797 L 2180.7656 108.16797 L 2180.7656 96.451172 L 2183.7891 96.451172 L 2183.7891 94.183594 L 2178.0254 94.183594 L 2178.0254 111.07812 L 2171.5059 111.07812 L 2171.5059 115.61328 L 2159.0332 115.61328 L 2159.0332 111.07812 L 2152.5137 111.07812 L 2152.5137 87.380859 L 2149.3945 87.380859 L 2149.3945 76.798828 L 2152.5137 76.798828 L 2152.5137 64.589844 L 2178.0254 64.589844 L 2178.0254 76.798828 L 2183.7891 76.798828 L 2183.7891 74.53125 L 2180.7656 74.53125 L 2180.7656 62.814453 L 2183.7891 62.814453 L 2183.7891 59.035156 z M 1229.791 131.03906 L 1282.7051 131.03906 L 1282.7051 134.81836 L 1285.7285 134.81836 L 1285.7285 146.53516 L 1282.7051 146.53516 L 1282.7051 168.45508 L 1285.7285 168.45508 L 1285.7285 180.17188 L 1282.7051 180.17188 L 1282.7051 183.95117 L 1229.791 183.95117 L 1229.791 180.17188 L 1226.7676 180.17188 L 1226.7676 168.45508 L 1229.791 168.45508 L 1229.791 146.53516 L 1226.7676 146.53516 L 1226.7676 134.81836 L 1229.791 134.81836 L 1229.791 131.03906 z M 1319.793 131.03906 L 1372.707 131.03906 L 1372.707 134.81836 L 1375.7305 134.81836 L 1375.7305 146.53516 L 1372.707 146.53516 L 1372.707 168.45508 L 1375.7305 168.45508 L 1375.7305 180.17188 L 1372.707 180.17188 L 1372.707 183.95117 L 1319.793 183.95117 L 1319.793 180.17188 L 1316.7695 180.17188 L 1316.7695 168.45508 L 1319.793 168.45508 L 1319.793 146.53516 L 1316.7695 146.53516 L 1316.7695 134.81836 L 1319.793 134.81836 L 1319.793 131.03906 z M 1391.793 131.03906 L 1444.707 131.03906 L 1444.707 134.81836 L 1447.7305 134.81836 L 1447.7305 146.53516 L 1444.707 146.53516 L 1444.707 168.45508 L 1447.7305 168.45508 L 1447.7305 180.17188 L 1444.707 180.17188 L 1444.707 183.95117 L 1391.793 183.95117 L 1391.793 180.17188 L 1388.7695 180.17188 L 1388.7695 168.45508 L 1391.793 168.45508 L 1391.793 146.53516 L 1388.7695 146.53516 L 1388.7695 134.81836 L 1391.793 134.81836 L 1391.793 131.03906 z M 1463.793 131.03906 L 1516.707 131.03906 L 1516.707 134.81836 L 1519.7305 134.81836 L 1519.7305 146.53516 L 1516.707 146.53516 L 1516.707 168.45508 L 1519.7305 168.45508 L 1519.7305 180.17188 L 1516.707 180.17188 L 1516.707 183.95117 L 1463.793 183.95117 L 1463.793 180.17188 L 1460.7695 180.17188 L 1460.7695 168.45508 L 1463.793 168.45508 L 1463.793 146.53516 L 1460.7695 146.53516 L 1460.7695 134.81836 L 1463.793 134.81836 L 1463.793 131.03906 z M 1535.793 131.03906 L 1588.707 131.03906 L 1588.707 134.81836 L 1591.7305 134.81836 L 1591.7305 146.53516 L 1588.707 146.53516 L 1588.707 168.45508 L 1591.7305 168.45508 L 1591.7305 180.17188 L 1588.707 180.17188 L 1588.707 183.95117 L 1535.793 183.95117 L 1535.793 180.17188 L 1532.7695 180.17188 L 1532.7695 168.45508 L 1535.793 168.45508 L 1535.793 146.53516 L 1532.7695 146.53516 L 1532.7695 134.81836 L 1535.793 134.81836 L 1535.793 131.03906 z M 1607.793 131.03906 L 1660.707 131.03906 L 1660.707 134.81836 L 1663.7305 134.81836 L 1663.7305 146.53516 L 1660.707 146.53516 L 1660.707 168.45508 L 1663.7305 168.45508 L 1663.7305 180.17188 L 1660.707 180.17188 L 1660.707 183.95117 L 1607.793 183.95117 L 1607.793 180.17188 L 1604.7695 180.17188 L 1604.7695 168.45508 L 1607.793 168.45508 L 1607.793 146.53516 L 1604.7695 146.53516 L 1604.7695 134.81836 L 1607.793 134.81836 L 1607.793 131.03906 z M 1679.793 131.03906 L 1732.707 131.03906 L 1732.707 134.81836 L 1735.7305 134.81836 L 1735.7305 146.53516 L 1732.707 146.53516 L 1732.707 168.45508 L 1735.7305 168.45508 L 1735.7305 180.17188 L 1732.707 180.17188 L 1732.707 183.95117 L 1679.793 183.95117 L 1679.793 180.17188 L 1676.7656 180.17188 L 1676.7656 168.45508 L 1679.793 168.45508 L 1679.793 146.53516 L 1676.7656 146.53516 L 1676.7656 134.81836 L 1679.793 134.81836 L 1679.793 131.03906 z M 1751.793 131.03906 L 1804.707 131.03906 L 1804.707 134.81836 L 1807.7305 134.81836 L 1807.7305 146.53516 L 1804.707 146.53516 L 1804.707 168.45508 L 1807.7305 168.45508 L 1807.7305 180.17188 L 1804.707 180.17188 L 1804.707 183.95117 L 1751.793 183.95117 L 1751.793 180.17188 L 1748.7695 180.17188 L 1748.7695 168.45508 L 1751.793 168.45508 L 1751.793 146.53516 L 1748.7695 146.53516 L 1748.7695 134.81836 L 1751.793 134.81836 L 1751.793 131.03906 z M 1823.793 131.03906 L 1876.707 131.03906 L 1876.707 134.81836 L 1879.7305 134.81836 L 1879.7305 146.53516 L 1876.707 146.53516 L 1876.707 168.45508 L 1879.7305 168.45508 L 1879.7305 180.17188 L 1876.707 180.17188 L 1876.707 183.95117 L 1823.793 183.95117 L 1823.793 180.17188 L 1820.7695 180.17188 L 1820.7695 168.45508 L 1823.793 168.45508 L 1823.793 146.53516 L 1820.7695 146.53516 L 1820.7695 134.81836 L 1823.793 134.81836 L 1823.793 131.03906 z M 1895.793 131.03906 L 1948.707 131.03906 L 1948.707 134.81836 L 1951.7305 134.81836 L 1951.7305 146.53516 L 1948.707 146.53516 L 1948.707 168.45508 L 1951.7305 168.45508 L 1951.7305 180.17188 L 1948.707 180.17188 L 1948.707 183.95117 L 1895.793 183.95117 L 1895.793 180.17188 L 1892.7695 180.17188 L 1892.7695 168.45508 L 1895.793 168.45508 L 1895.793 146.53516 L 1892.7695 146.53516 L 1892.7695 134.81836 L 1895.793 134.81836 L 1895.793 131.03906 z M 1967.793 131.03906 L 2020.707 131.03906 L 2020.707 134.81836 L 2023.7305 134.81836 L 2023.7305 146.53516 L 2020.707 146.53516 L 2020.707 168.45508 L 2023.7305 168.45508 L 2023.7305 180.17188 L 2020.707 180.17188 L 2020.707 183.95117 L 1967.793 183.95117 L 1967.793 180.17188 L 1964.7695 180.17188 L 1964.7695 168.45508 L 1967.793 168.45508 L 1967.793 146.53516 L 1964.7695 146.53516 L 1964.7695 134.81836 L 1967.793 134.81836 L 1967.793 131.03906 z M 2039.793 131.03906 L 2092.707 131.03906 L 2092.707 134.81836 L 2095.7305 134.81836 L 2095.7305 146.53516 L 2092.707 146.53516 L 2092.707 168.45508 L 2095.7305 168.45508 L 2095.7305 180.17188 L 2092.707 180.17188 L 2092.707 183.95117 L 2039.793 183.95117 L 2039.793 180.17188 L 2036.7695 180.17188 L 2036.7695 168.45508 L 2039.793 168.45508 L 2039.793 146.53516 L 2036.7695 146.53516 L 2036.7695 134.81836 L 2039.793 134.81836 L 2039.793 131.03906 z M 2111.793 131.03906 L 2164.707 131.03906 L 2164.707 134.81836 L 2167.7305 134.81836 L 2167.7305 146.53516 L 2164.707 146.53516 L 2164.707 168.45508 L 2167.7305 168.45508 L 2167.7305 180.17188 L 2164.707 180.17188 L 2164.707 183.95117 L 2111.793 183.95117 L 2111.793 180.17188 L 2108.7695 180.17188 L 2108.7695 168.45508 L 2111.793 168.45508 L 2111.793 146.53516 L 2108.7695 146.53516 L 2108.7695 134.81836 L 2111.793 134.81836 L 2111.793 131.03906 z M 2201.791 131.03906 L 2254.7051 131.03906 L 2254.7051 134.81836 L 2257.7285 134.81836 L 2257.7285 146.53516 L 2254.7051 146.53516 L 2254.7051 168.45508 L 2257.7285 168.45508 L 2257.7285 180.17188 L 2254.7051 180.17188 L 2254.7051 183.95117 L 2201.791 183.95117 L 2201.791 180.17188 L 2198.7676 180.17188 L 2198.7676 168.45508 L 2201.791 168.45508 L 2201.791 146.53516 L 2198.7676 146.53516 L 2198.7676 134.81836 L 2201.791 134.81836 L 2201.791 131.03906 z M 1298.9121 146.89844 A 9.2794735 9.2794732 0 0 1 1308.1914 156.17773 A 9.2794735 9.2794732 0 0 1 1298.9121 165.45703 A 9.2794735 9.2794732 0 0 1 1289.6328 156.17773 A 9.2794735 9.2794732 0 0 1 1298.9121 146.89844 z M 2186.5273 146.90039 A 9.2794665 9.2794657 0 0 1 2195.8086 156.17969 A 9.2794665 9.2794657 0 0 1 2186.5273 165.45898 A 9.2794665 9.2794657 0 0 1 2177.248 156.17969 A 9.2794665 9.2794657 0 0 1 2186.5273 146.90039 z M 1238.791 203.03906 L 1291.7051 203.03906 L 1291.7051 206.81836 L 1294.7285 206.81836 L 1294.7285 218.53516 L 1291.7051 218.53516 L 1291.7051 240.45508 L 1294.7285 240.45508 L 1294.7285 252.17188 L 1291.7051 252.17188 L 1291.7051 255.95117 L 1238.791 255.95117 L 1238.791 252.17188 L 1235.7676 252.17188 L 1235.7676 240.45508 L 1238.791 240.45508 L 1238.791 218.53516 L 1235.7676 218.53516 L 1235.7676 206.81836 L 1238.791 206.81836 L 1238.791 203.03906 z M 1337.791 203.03906 L 1390.7051 203.03906 L 1390.7051 206.81836 L 1393.7285 206.81836 L 1393.7285 218.53516 L 1390.7051 218.53516 L 1390.7051 240.45508 L 1393.7285 240.45508 L 1393.7285 252.17188 L 1390.7051 252.17188 L 1390.7051 255.95117 L 1337.791 255.95117 L 1337.791 252.17188 L 1334.7676 252.17188 L 1334.7676 240.45508 L 1337.791 240.45508 L 1337.791 218.53516 L 1334.7676 218.53516 L 1334.7676 206.81836 L 1337.791 206.81836 L 1337.791 203.03906 z M 1409.791 203.03906 L 1462.7051 203.03906 L 1462.7051 206.81836 L 1465.7285 206.81836 L 1465.7285 218.53516 L 1462.7051 218.53516 L 1462.7051 240.45508 L 1465.7285 240.45508 L 1465.7285 252.17188 L 1462.7051 252.17188 L 1462.7051 255.95117 L 1409.791 255.95117 L 1409.791 252.17188 L 1406.7676 252.17188 L 1406.7676 240.45508 L 1409.791 240.45508 L 1409.791 218.53516 L 1406.7676 218.53516 L 1406.7676 206.81836 L 1409.791 206.81836 L 1409.791 203.03906 z M 1481.791 203.03906 L 1534.7051 203.03906 L 1534.7051 206.81836 L 1537.7285 206.81836 L 1537.7285 218.53516 L 1534.7051 218.53516 L 1534.7051 240.45508 L 1537.7285 240.45508 L 1537.7285 252.17188 L 1534.7051 252.17188 L 1534.7051 255.95117 L 1481.791 255.95117 L 1481.791 252.17188 L 1478.7676 252.17188 L 1478.7676 240.45508 L 1481.791 240.45508 L 1481.791 218.53516 L 1478.7676 218.53516 L 1478.7676 206.81836 L 1481.791 206.81836 L 1481.791 203.03906 z M 1553.791 203.03906 L 1606.7051 203.03906 L 1606.7051 206.81836 L 1609.7285 206.81836 L 1609.7285 218.53516 L 1606.7051 218.53516 L 1606.7051 240.45508 L 1609.7285 240.45508 L 1609.7285 252.17188 L 1606.7051 252.17188 L 1606.7051 255.95117 L 1553.791 255.95117 L 1553.791 252.17188 L 1550.7676 252.17188 L 1550.7676 240.45508 L 1553.791 240.45508 L 1553.791 218.53516 L 1550.7676 218.53516 L 1550.7676 206.81836 L 1553.791 206.81836 L 1553.791 203.03906 z M 1625.791 203.03906 L 1678.7051 203.03906 L 1678.7051 206.81836 L 1681.7285 206.81836 L 1681.7285 218.53516 L 1678.7051 218.53516 L 1678.7051 240.45508 L 1681.7285 240.45508 L 1681.7285 252.17188 L 1678.7051 252.17188 L 1678.7051 255.95117 L 1625.791 255.95117 L 1625.791 252.17188 L 1622.7676 252.17188 L 1622.7676 240.45508 L 1625.791 240.45508 L 1625.791 218.53516 L 1622.7676 218.53516 L 1622.7676 206.81836 L 1625.791 206.81836 L 1625.791 203.03906 z M 1697.791 203.03906 L 1750.7051 203.03906 L 1750.7051 206.81836 L 1753.7285 206.81836 L 1753.7285 218.53516 L 1750.7051 218.53516 L 1750.7051 240.45508 L 1753.7285 240.45508 L 1753.7285 252.17188 L 1750.7051 252.17188 L 1750.7051 255.95117 L 1697.791 255.95117 L 1697.791 252.17188 L 1694.7676 252.17188 L 1694.7676 240.45508 L 1697.791 240.45508 L 1697.791 218.53516 L 1694.7676 218.53516 L 1694.7676 206.81836 L 1697.791 206.81836 L 1697.791 203.03906 z M 1769.791 203.03906 L 1822.7051 203.03906 L 1822.7051 206.81836 L 1825.7285 206.81836 L 1825.7285 218.53516 L 1822.7051 218.53516 L 1822.7051 240.45508 L 1825.7285 240.45508 L 1825.7285 252.17188 L 1822.7051 252.17188 L 1822.7051 255.95117 L 1769.791 255.95117 L 1769.791 252.17188 L 1766.7676 252.17188 L 1766.7676 240.45508 L 1769.791 240.45508 L 1769.791 218.53516 L 1766.7676 218.53516 L 1766.7676 206.81836 L 1769.791 206.81836 L 1769.791 203.03906 z M 1841.791 203.03906 L 1894.7051 203.03906 L 1894.7051 206.81836 L 1897.7285 206.81836 L 1897.7285 218.53516 L 1894.7051 218.53516 L 1894.7051 240.45508 L 1897.7285 240.45508 L 1897.7285 252.17188 L 1894.7051 252.17188 L 1894.7051 255.95117 L 1841.791 255.95117 L 1841.791 252.17188 L 1838.7676 252.17188 L 1838.7676 240.45508 L 1841.791 240.45508 L 1841.791 218.53516 L 1838.7676 218.53516 L 1838.7676 206.81836 L 1841.791 206.81836 L 1841.791 203.03906 z M 1913.791 203.03906 L 1966.7051 203.03906 L 1966.7051 206.81836 L 1969.7285 206.81836 L 1969.7285 218.53516 L 1966.7051 218.53516 L 1966.7051 240.45508 L 1969.7285 240.45508 L 1969.7285 252.17188 L 1966.7051 252.17188 L 1966.7051 255.95117 L 1913.791 255.95117 L 1913.791 252.17188 L 1910.7676 252.17188 L 1910.7676 240.45508 L 1913.791 240.45508 L 1913.791 218.53516 L 1910.7676 218.53516 L 1910.7676 206.81836 L 1913.791 206.81836 L 1913.791 203.03906 z M 1985.791 203.03906 L 2038.7051 203.03906 L 2038.7051 206.81836 L 2041.7285 206.81836 L 2041.7285 218.53516 L 2038.7051 218.53516 L 2038.7051 240.45508 L 2041.7285 240.45508 L 2041.7285 252.17188 L 2038.7051 252.17188 L 2038.7051 255.95117 L 1985.791 255.95117 L 1985.791 252.17188 L 1982.7676 252.17188 L 1982.7676 240.45508 L 1985.791 240.45508 L 1985.791 218.53516 L 1982.7676 218.53516 L 1982.7676 206.81836 L 1985.791 206.81836 L 1985.791 203.03906 z M 2057.791 203.03906 L 2110.7051 203.03906 L 2110.7051 206.81836 L 2113.7285 206.81836 L 2113.7285 218.53516 L 2110.7051 218.53516 L 2110.7051 240.45508 L 2113.7285 240.45508 L 2113.7285 252.17188 L 2110.7051 252.17188 L 2110.7051 255.95117 L 2057.791 255.95117 L 2057.791 252.17188 L 2054.7676 252.17188 L 2054.7676 240.45508 L 2057.791 240.45508 L 2057.791 218.53516 L 2054.7676 218.53516 L 2054.7676 206.81836 L 2057.791 206.81836 L 2057.791 203.03906 z M 2174.791 203.03906 L 2227.7051 203.03906 L 2227.7051 206.81836 L 2230.7285 206.81836 L 2230.7285 218.53516 L 2227.7051 218.53516 L 2227.7051 220.80273 L 2233.4688 220.80273 L 2233.4688 208.59375 L 2258.9805 208.59375 L 2258.9805 220.80273 L 2262.0977 220.80273 L 2262.0977 231.38477 L 2258.9805 231.38477 L 2258.9805 255.08203 L 2252.4609 255.08203 L 2252.4609 259.61719 L 2239.9883 259.61719 L 2239.9883 255.08203 L 2233.4688 255.08203 L 2233.4688 238.1875 L 2227.7051 238.1875 L 2227.7051 240.45508 L 2230.7285 240.45508 L 2230.7285 252.17188 L 2227.7051 252.17188 L 2227.7051 255.95117 L 2174.791 255.95117 L 2174.791 252.17188 L 2171.7676 252.17188 L 2171.7676 240.45508 L 2174.791 240.45508 L 2174.791 238.1875 L 2169.0273 238.1875 L 2169.0273 255.08203 L 2162.5078 255.08203 L 2162.5078 259.61719 L 2150.0352 259.61719 L 2150.0352 255.08203 L 2143.5156 255.08203 L 2143.5156 231.38477 L 2140.3965 231.38477 L 2140.3965 220.80273 L 2143.5156 220.80273 L 2143.5156 208.59375 L 2169.0273 208.59375 L 2169.0273 220.80273 L 2174.791 220.80273 L 2174.791 218.53516 L 2171.7676 218.53516 L 2171.7676 206.81836 L 2174.791 206.81836 L 2174.791 203.03906 z M 1688.2051 220.2207 A 9.2794708 9.2794705 0 0 1 1697.4844 229.5 A 9.2794708 9.2794705 0 0 1 1688.2051 238.78125 A 9.2794708 9.2794705 0 0 1 1678.9258 229.5 A 9.2794708 9.2794705 0 0 1 1688.2051 220.2207 z M 1216.2129 254.94336 A 9.2794727 9.2794724 0 0 1 1225.4922 264.22266 A 9.2794727 9.2794724 0 0 1 1216.2129 273.50195 A 9.2794727 9.2794724 0 0 1 1215.8555 273.48438 L 1215.8555 273.51758 L 1212.5938 273.51758 L 1212.5938 273.5 A 9.2794727 9.2794724 0 0 1 1212.2324 273.51953 A 9.2794727 9.2794724 0 0 1 1202.9531 264.24023 A 9.2794727 9.2794724 0 0 1 1212.2324 254.96094 A 9.2794727 9.2794724 0 0 1 1212.5938 254.97852 L 1212.5938 254.96094 L 1215.8555 254.96094 L 1215.8555 254.96289 A 9.2794727 9.2794724 0 0 1 1216.2129 254.94336 z M 2272.2598 254.95898 A 9.2794674 9.2794667 0 0 1 2281.5391 264.23828 A 9.2794674 9.2794667 0 0 1 2272.2598 273.51758 A 9.2794674 9.2794667 0 0 1 2271.9023 273.5 L 2271.9023 273.5332 L 2268.6406 273.5332 L 2268.6406 273.51562 A 9.2794674 9.2794667 0 0 1 2268.2793 273.53516 A 9.2794674 9.2794667 0 0 1 2259 264.25586 A 9.2794674 9.2794667 0 0 1 2268.2793 254.97656 A 9.2794674 9.2794667 0 0 1 2268.6406 254.99414 L 2268.6406 254.97656 L 2271.9023 254.97656 L 2271.9023 254.97852 A 9.2794674 9.2794667 0 0 1 2272.2598 254.95898 z M 1247.791 275.03906 L 1300.707 275.03906 L 1300.707 278.81836 L 1303.7266 278.81836 L 1303.7266 290.53125 L 1300.707 290.53125 L 1300.707 292.80273 L 1306.4668 292.80273 L 1306.4668 280.59375 L 1331.9785 280.59375 L 1331.9785 292.80273 L 1335.1016 292.80273 L 1335.1016 303.38477 L 1331.9785 303.38477 L 1331.9785 327.08203 L 1325.459 327.08203 L 1325.459 331.61719 L 1312.9902 331.61719 L 1312.9902 327.08203 L 1306.4668 327.08203 L 1306.4668 310.1875 L 1300.707 310.1875 L 1300.707 312.45508 L 1303.7266 312.45508 L 1303.7266 324.17188 L 1300.707 324.17188 L 1300.707 327.95117 L 1247.791 327.95117 L 1247.791 324.17188 L 1244.7656 324.17188 L 1244.7656 312.45508 L 1247.791 312.45508 L 1247.791 310.1875 L 1242.0293 310.1875 L 1242.0293 327.08203 L 1235.5059 327.08203 L 1235.5059 331.61719 L 1223.0332 331.61719 L 1223.0332 327.08203 L 1216.5176 327.08203 L 1216.5176 303.38477 L 1213.3965 303.38477 L 1213.3965 292.80273 L 1216.5176 292.80273 L 1216.5176 280.59375 L 1242.0293 280.59375 L 1242.0293 292.80273 L 1247.791 292.80273 L 1247.791 290.53125 L 1244.7656 290.53125 L 1244.7656 278.81836 L 1247.791 278.81836 L 1247.791 275.03906 z M 1355.793 275.03906 L 1408.707 275.03906 L 1408.707 278.81836 L 1411.7305 278.81836 L 1411.7305 290.53125 L 1408.707 290.53125 L 1408.707 312.45508 L 1411.7305 312.45508 L 1411.7305 324.17188 L 1408.707 324.17188 L 1408.707 327.95117 L 1355.793 327.95117 L 1355.793 324.17188 L 1352.7695 324.17188 L 1352.7695 312.45508 L 1355.793 312.45508 L 1355.793 290.53125 L 1352.7695 290.53125 L 1352.7695 278.81836 L 1355.793 278.81836 L 1355.793 275.03906 z M 1427.793 275.03906 L 1480.707 275.03906 L 1480.707 278.81836 L 1483.7305 278.81836 L 1483.7305 290.53125 L 1480.707 290.53125 L 1480.707 312.45508 L 1483.7305 312.45508 L 1483.7305 324.17188 L 1480.707 324.17188 L 1480.707 327.95117 L 1427.793 327.95117 L 1427.793 324.17188 L 1424.7695 324.17188 L 1424.7695 312.45508 L 1427.793 312.45508 L 1427.793 290.53125 L 1424.7695 290.53125 L 1424.7695 278.81836 L 1427.793 278.81836 L 1427.793 275.03906 z M 1499.793 275.03906 L 1552.707 275.03906 L 1552.707 278.81836 L 1555.7266 278.81836 L 1555.7266 290.53125 L 1552.707 290.53125 L 1552.707 312.45508 L 1555.7266 312.45508 L 1555.7266 324.17188 L 1552.707 324.17188 L 1552.707 327.95117 L 1499.793 327.95117 L 1499.793 324.17188 L 1496.7695 324.17188 L 1496.7695 312.45508 L 1499.793 312.45508 L 1499.793 290.53125 L 1496.7695 290.53125 L 1496.7695 278.81836 L 1499.793 278.81836 L 1499.793 275.03906 z M 1571.791 275.03906 L 1624.7031 275.03906 L 1624.7031 278.81836 L 1627.7266 278.81836 L 1627.7266 290.53125 L 1624.7031 290.53125 L 1624.7031 312.45508 L 1627.7266 312.45508 L 1627.7266 324.17188 L 1624.7031 324.17188 L 1624.7031 327.95117 L 1571.791 327.95117 L 1571.791 324.17188 L 1568.7695 324.17188 L 1568.7695 312.45508 L 1571.791 312.45508 L 1571.791 290.53125 L 1568.7695 290.53125 L 1568.7695 278.81836 L 1571.791 278.81836 L 1571.791 275.03906 z M 1643.791 275.03906 L 1696.707 275.03906 L 1696.707 278.81836 L 1699.7305 278.81836 L 1699.7305 290.53125 L 1696.707 290.53125 L 1696.707 312.45508 L 1699.7305 312.45508 L 1699.7305 324.17188 L 1696.707 324.17188 L 1696.707 327.95117 L 1643.791 327.95117 L 1643.791 324.17188 L 1640.7656 324.17188 L 1640.7656 312.45508 L 1643.791 312.45508 L 1643.791 290.53125 L 1640.7656 290.53125 L 1640.7656 278.81836 L 1643.791 278.81836 L 1643.791 275.03906 z M 1715.793 275.03906 L 1768.707 275.03906 L 1768.707 278.81836 L 1771.7305 278.81836 L 1771.7305 290.53125 L 1768.707 290.53125 L 1768.707 312.45508 L 1771.7305 312.45508 L 1771.7305 324.17188 L 1768.707 324.17188 L 1768.707 327.95117 L 1715.793 327.95117 L 1715.793 324.17188 L 1712.7695 324.17188 L 1712.7695 312.45508 L 1715.793 312.45508 L 1715.793 290.53125 L 1712.7695 290.53125 L 1712.7695 278.81836 L 1715.793 278.81836 L 1715.793 275.03906 z M 1787.793 275.03906 L 1840.707 275.03906 L 1840.707 278.81836 L 1843.7305 278.81836 L 1843.7305 290.53125 L 1840.707 290.53125 L 1840.707 312.45508 L 1843.7305 312.45508 L 1843.7305 324.17188 L 1840.707 324.17188 L 1840.707 327.95117 L 1787.793 327.95117 L 1787.793 324.17188 L 1784.7695 324.17188 L 1784.7695 312.45508 L 1787.793 312.45508 L 1787.793 290.53125 L 1784.7695 290.53125 L 1784.7695 278.81836 L 1787.793 278.81836 L 1787.793 275.03906 z M 1859.793 275.03906 L 1912.707 275.03906 L 1912.707 278.81836 L 1915.7305 278.81836 L 1915.7305 290.53125 L 1912.707 290.53125 L 1912.707 312.45508 L 1915.7305 312.45508 L 1915.7305 324.17188 L 1912.707 324.17188 L 1912.707 327.95117 L 1859.793 327.95117 L 1859.793 324.17188 L 1856.7695 324.17188 L 1856.7695 312.45508 L 1859.793 312.45508 L 1859.793 290.53125 L 1856.7695 290.53125 L 1856.7695 278.81836 L 1859.793 278.81836 L 1859.793 275.03906 z M 1931.793 275.03906 L 1984.707 275.03906 L 1984.707 278.81836 L 1987.7305 278.81836 L 1987.7305 290.53125 L 1984.707 290.53125 L 1984.707 312.45508 L 1987.7305 312.45508 L 1987.7305 324.17188 L 1984.707 324.17188 L 1984.707 327.95117 L 1931.793 327.95117 L 1931.793 324.17188 L 1928.7695 324.17188 L 1928.7695 312.45508 L 1931.793 312.45508 L 1931.793 290.53125 L 1928.7695 290.53125 L 1928.7695 278.81836 L 1931.793 278.81836 L 1931.793 275.03906 z M 2003.793 275.03906 L 2056.707 275.03906 L 2056.707 278.81836 L 2059.7305 278.81836 L 2059.7305 290.53125 L 2056.707 290.53125 L 2056.707 312.45508 L 2059.7305 312.45508 L 2059.7305 324.17188 L 2056.707 324.17188 L 2056.707 327.95117 L 2003.793 327.95117 L 2003.793 324.17188 L 2000.7695 324.17188 L 2000.7695 312.45508 L 2003.793 312.45508 L 2003.793 290.53125 L 2000.7695 290.53125 L 2000.7695 278.81836 L 2003.793 278.81836 L 2003.793 275.03906 z M 2075.793 275.03906 L 2128.707 275.03906 L 2128.707 278.81836 L 2131.7305 278.81836 L 2131.7305 290.53125 L 2128.707 290.53125 L 2128.707 312.45508 L 2131.7305 312.45508 L 2131.7305 324.17188 L 2128.707 324.17188 L 2128.707 327.95117 L 2075.793 327.95117 L 2075.793 324.17188 L 2072.7695 324.17188 L 2072.7695 312.45508 L 2075.793 312.45508 L 2075.793 290.53125 L 2072.7695 290.53125 L 2072.7695 278.81836 L 2075.793 278.81836 L 2075.793 275.03906 z M 2147.793 275.03906 L 2200.707 275.03906 L 2200.707 278.81836 L 2203.7305 278.81836 L 2203.7305 290.53125 L 2200.707 290.53125 L 2200.707 312.45508 L 2203.7305 312.45508 L 2203.7305 324.17188 L 2200.707 324.17188 L 2200.707 327.95117 L 2147.793 327.95117 L 2147.793 324.17188 L 2144.7695 324.17188 L 2144.7695 312.45508 L 2147.793 312.45508 L 2147.793 290.53125 L 2144.7695 290.53125 L 2144.7695 278.81836 L 2147.793 278.81836 L 2147.793 275.03906 z M 2219.793 275.03906 L 2272.707 275.03906 L 2272.707 278.81836 L 2275.7305 278.81836 L 2275.7305 290.53125 L 2272.707 290.53125 L 2272.707 312.45508 L 2275.7305 312.45508 L 2275.7305 324.17188 L 2272.707 324.17188 L 2272.707 327.95117 L 2219.793 327.95117 L 2219.793 324.17188 L 2216.7695 324.17188 L 2216.7695 312.45508 L 2219.793 312.45508 L 2219.793 290.53125 L 2216.7695 290.53125 L 2216.7695 278.81836 L 2219.793 278.81836 L 2219.793 275.03906 z M 1220.793 347.03906 L 1273.707 347.03906 L 1273.707 350.81836 L 1276.7305 350.81836 L 1276.7305 362.53125 L 1273.707 362.53125 L 1273.707 384.45508 L 1276.7305 384.45508 L 1276.7305 396.17188 L 1273.707 396.17188 L 1273.707 399.95117 L 1220.793 399.95117 L 1220.793 396.17188 L 1217.7695 396.17188 L 1217.7695 384.45508 L 1220.793 384.45508 L 1220.793 362.53125 L 1217.7695 362.53125 L 1217.7695 350.81836 L 1220.793 350.81836 L 1220.793 347.03906 z M 1310.791 347.03906 L 1363.7051 347.03906 L 1363.7051 350.81836 L 1366.7285 350.81836 L 1366.7285 362.53125 L 1363.7051 362.53125 L 1363.7051 384.45508 L 1366.7285 384.45508 L 1366.7285 396.17188 L 1363.7051 396.17188 L 1363.7051 399.95117 L 1310.791 399.95117 L 1310.791 396.17188 L 1307.7676 396.17188 L 1307.7676 384.45508 L 1310.791 384.45508 L 1310.791 362.53125 L 1307.7676 362.53125 L 1307.7676 350.81836 L 1310.791 350.81836 L 1310.791 347.03906 z M 1400.793 347.03906 L 1453.707 347.03906 L 1453.707 350.81836 L 1456.7305 350.81836 L 1456.7305 362.53125 L 1453.707 362.53125 L 1453.707 384.45508 L 1456.7305 384.45508 L 1456.7305 396.17188 L 1453.707 396.17188 L 1453.707 399.95117 L 1400.793 399.95117 L 1400.793 396.17188 L 1397.7656 396.17188 L 1397.7656 384.45508 L 1400.793 384.45508 L 1400.793 362.53125 L 1397.7656 362.53125 L 1397.7656 350.81836 L 1400.793 350.81836 L 1400.793 347.03906 z M 1670.791 347.03906 L 1723.7051 347.03906 L 1723.7051 350.81836 L 1726.7285 350.81836 L 1726.7285 362.53125 L 1723.7051 362.53125 L 1723.7051 364.80273 L 1873.4688 364.80273 L 1873.4688 352.59375 L 1898.9805 352.59375 L 1898.9805 364.80273 L 1902.0977 364.80273 L 1902.0977 375.38477 L 1898.9805 375.38477 L 1898.9805 399.07812 L 1892.4609 399.07812 L 1892.4609 403.61719 L 1879.9883 403.61719 L 1879.9883 399.07812 L 1873.4688 399.07812 L 1873.4688 382.18359 L 1723.7051 382.18359 L 1723.7051 384.45508 L 1726.7285 384.45508 L 1726.7285 396.17188 L 1723.7051 396.17188 L 1723.7051 399.95117 L 1670.791 399.95117 L 1670.791 396.17188 L 1667.7676 396.17188 L 1667.7676 384.45508 L 1670.791 384.45508 L 1670.791 382.18359 L 1521.0273 382.18359 L 1521.0273 399.07812 L 1514.5078 399.07812 L 1514.5078 403.61719 L 1502.0352 403.61719 L 1502.0352 399.07812 L 1495.5156 399.07812 L 1495.5156 375.38477 L 1492.3965 375.38477 L 1492.3965 364.80273 L 1495.5156 364.80273 L 1495.5156 352.59375 L 1521.0273 352.59375 L 1521.0273 364.80273 L 1670.791 364.80273 L 1670.791 362.53125 L 1667.7676 362.53125 L 1667.7676 350.81836 L 1670.791 350.81836 L 1670.791 347.03906 z M 1931.793 347.03906 L 1984.707 347.03906 L 1984.707 350.81836 L 1987.7305 350.81836 L 1987.7305 362.53125 L 1984.707 362.53125 L 1984.707 384.45508 L 1987.7305 384.45508 L 1987.7305 396.17188 L 1984.707 396.17188 L 1984.707 399.95117 L 1931.793 399.95117 L 1931.793 396.17188 L 1928.7695 396.17188 L 1928.7695 384.45508 L 1931.793 384.45508 L 1931.793 377.24219 A 9.279468 9.2794669 0 0 1 1923.6738 382.03125 A 9.279468 9.2794669 0 0 1 1914.3945 372.75195 A 9.279468 9.2794669 0 0 1 1923.6738 363.47266 A 9.279468 9.2794669 0 0 1 1931.793 368.28125 L 1931.793 362.53125 L 1928.7695 362.53125 L 1928.7695 350.81836 L 1931.793 350.81836 L 1931.793 347.03906 z M 2003.793 347.03906 L 2056.707 347.03906 L 2056.707 350.81836 L 2059.7305 350.81836 L 2059.7305 362.53125 L 2056.707 362.53125 L 2056.707 384.45508 L 2059.7305 384.45508 L 2059.7305 396.17188 L 2056.707 396.17188 L 2056.707 399.95117 L 2003.793 399.95117 L 2003.793 396.17188 L 2000.7695 396.17188 L 2000.7695 384.45508 L 2003.793 384.45508 L 2003.793 362.53125 L 2000.7695 362.53125 L 2000.7695 350.81836 L 2003.793 350.81836 L 2003.793 347.03906 z M 2075.793 347.03906 L 2128.707 347.03906 L 2128.707 350.81836 L 2131.7305 350.81836 L 2131.7305 362.53125 L 2128.707 362.53125 L 2128.707 384.45508 L 2131.7305 384.45508 L 2131.7305 396.17188 L 2128.707 396.17188 L 2128.707 399.95117 L 2075.793 399.95117 L 2075.793 396.17188 L 2072.7695 396.17188 L 2072.7695 384.45508 L 2075.793 384.45508 L 2075.793 362.53125 L 2072.7695 362.53125 L 2072.7695 350.81836 L 2075.793 350.81836 L 2075.793 347.03906 z M 2147.793 347.03906 L 2200.707 347.03906 L 2200.707 350.81836 L 2203.7305 350.81836 L 2203.7305 362.53125 L 2200.707 362.53125 L 2200.707 384.45508 L 2203.7305 384.45508 L 2203.7305 396.17188 L 2200.707 396.17188 L 2200.707 399.95117 L 2147.793 399.95117 L 2147.793 396.17188 L 2144.7695 396.17188 L 2144.7695 384.45508 L 2147.793 384.45508 L 2147.793 362.53125 L 2144.7695 362.53125 L 2144.7695 350.81836 L 2147.793 350.81836 L 2147.793 347.03906 z M 2219.793 347.03906 L 2272.707 347.03906 L 2272.707 350.81836 L 2275.7305 350.81836 L 2275.7305 362.53125 L 2272.707 362.53125 L 2272.707 384.45508 L 2275.7305 384.45508 L 2275.7305 396.17188 L 2272.707 396.17188 L 2272.707 399.95117 L 2219.793 399.95117 L 2219.793 396.17188 L 2216.7695 396.17188 L 2216.7695 384.45508 L 2219.793 384.45508 L 2219.793 362.53125 L 2216.7695 362.53125 L 2216.7695 350.81836 L 2219.793 350.81836 L 2219.793 347.03906 z M 1557.2109 420.64648 A 3.9645547 3.9645547 0 0 1 1561.1758 424.61133 A 3.9645547 3.9645547 0 0 1 1557.2109 428.57617 A 3.9645547 3.9645547 0 0 1 1553.2461 424.61133 A 3.9645547 3.9645547 0 0 1 1557.2109 420.64648 z M 1927.293 420.64648 A 3.9645547 3.9645547 0 0 1 1931.2578 424.61133 A 3.9645547 3.9645547 0 0 1 1927.293 428.57617 A 3.9645547 3.9645547 0 0 1 1923.3281 424.61133 A 3.9645547 3.9645547 0 0 1 1927.293 420.64648 z M 1187.1348 420.64844 A 3.9645547 3.9645547 0 0 1 1191.0996 424.61328 A 3.9645547 3.9645547 0 0 1 1187.1348 428.57812 A 3.9645547 3.9645547 0 0 1 1183.1699 424.61328 A 3.9645547 3.9645547 0 0 1 1187.1348 420.64844 z M 2297.377 420.65039 A 3.9645547 3.9645547 0 0 1 2301.3418 424.61523 A 3.9645547 3.9645547 0 0 1 2297.377 428.58008 A 3.9645547 3.9645547 0 0 1 2293.4121 424.61523 A 3.9645547 3.9645547 0 0 1 2297.377 420.65039 z "
       transform="matrix(0.26458333,0,0,0.26458333,2.5589898,12.181787)"
       id="path10635" />
  </g>
  <g
     inkscape:groupmode="layer"
     id="layer7"
     inkscape:label="5mm"
     style="display:none"
     transform="translate(-2.5589898,-12.181787)">
    <ellipse
       style="display:inline;fill:none;fill-opacity:1;stroke:#fa0000;stroke-width:0.189;stroke-miterlimit:4;stroke-dasharray:none;stroke-opacity:1"
       id="path9384"
       cx="19.355236"
       cy="70.206108"
       rx="2.4551945"
       ry="2.4551942" />
  </g>
</svg>
