<?xml version="1.0" encoding="UTF-8" standalone="no"?>
<!-- Created with Inkscape (http://www.inkscape.org/) -->

<svg
   xmlns:dc="http://purl.org/dc/elements/1.1/"
   xmlns:cc="http://creativecommons.org/ns#"
   xmlns:rdf="http://www.w3.org/1999/02/22-rdf-syntax-ns#"
   xmlns:svg="http://www.w3.org/2000/svg"
   xmlns="http://www.w3.org/2000/svg"
   xmlns:sodipodi="http://sodipodi.sourceforge.net/DTD/sodipodi-0.dtd"
   xmlns:inkscape="http://www.inkscape.org/namespaces/inkscape"
   width="616.94177mm"
   height="466.44141mm"
   viewBox="0 0 616.94178 466.44138"
   version="1.1"
   id="svg8"
   inkscape:version="0.92.4 (5da689c313, 2019-01-14)"
   sodipodi:docname="layout-a-64-split-backspace.svg">
  <defs
     id="defs2" />
  <sodipodi:namedview
     id="base"
     pagecolor="#ffffff"
     bordercolor="#666666"
     borderopacity="1.0"
     inkscape:pageopacity="0.0"
     inkscape:pageshadow="2"
     inkscape:zoom="0.35355339"
     inkscape:cx="1690.3821"
     inkscape:cy="1254.9449"
     inkscape:document-units="mm"
     inkscape:current-layer="layer9"
     showgrid="false"
     fit-margin-top="5"
     fit-margin-left="5"
     fit-margin-right="5"
     fit-margin-bottom="5"
     showguides="true"
     inkscape:guide-bbox="true"
     inkscape:snap-global="false"
     inkscape:window-width="1920"
     inkscape:window-height="1027"
     inkscape:window-x="-8"
     inkscape:window-y="-8"
     inkscape:window-maximized="1"
     inkscape:pagecheckerboard="true">
    <sodipodi:guide
       position="302.84665,469.21582"
       orientation="1,0"
       id="guide8440"
       inkscape:locked="false" />
    <sodipodi:guide
       position="612.84756,352.4407"
       orientation="1,0"
       inkscape:locked="false"
       id="guide9960" />
    <sodipodi:guide
       position="302.96054,365.09522"
       orientation="0,1"
       id="guide9992"
       inkscape:locked="false" />
    <sodipodi:guide
       position="302.90266,468.3468"
       orientation="0,1"
       id="guide9994"
       inkscape:locked="false" />
    <sodipodi:guide
       position="342.53848,218.8778"
       orientation="1,0"
       id="guide10104"
       inkscape:locked="false" />
    <sodipodi:guide
       position="156.0403,333.8682"
       orientation="0,1"
       id="guide10139"
       inkscape:locked="false" />
    <sodipodi:guide
       position="155.96589,333.83718"
       orientation="1,0"
       id="guide10143"
       inkscape:locked="false" />
    <sodipodi:guide
       position="280.96498,334.13794"
       orientation="1,0"
       id="guide10145"
       inkscape:locked="false" />
    <sodipodi:guide
       position="31.864943,334.2537"
       orientation="1,0"
       id="guide10147"
       inkscape:locked="false" />
    <sodipodi:guide
       position="156.18087,372.1997"
       orientation="0,1"
       id="guide10323"
       inkscape:locked="false" />
    <sodipodi:guide
       position="91.838542,461.25059"
       orientation="0,1"
       id="guide10328"
       inkscape:locked="false" />
  </sodipodi:namedview>
  <metadata
     id="metadata5">
    <rdf:RDF>
      <cc:Work
         rdf:about="">
        <dc:format>image/svg+xml</dc:format>
        <dc:type
           rdf:resource="http://purl.org/dc/dcmitype/StillImage" />
        <dc:title></dc:title>
      </cc:Work>
    </rdf:RDF>
  </metadata>
  <g
     inkscape:label="Layer 1"
     inkscape:groupmode="layer"
     id="layer1"
     transform="translate(333.61983,-31.211298)" />
  <g
     inkscape:groupmode="layer"
     id="layer10"
     inkscape:label="closed-plate"
     transform="translate(-2.5589898,-12.181787)">
    <path
       style="fill:#ffffff;stroke:#ff0000;stroke-width:0.05mm"
       d="m 10.654841,132.27657 -0.236161,0.0103 -0.234094,0.0269 -0.2309939,0.046 -0.2268596,0.0641 -0.221175,0.0822 -0.212907,0.0977 -0.206189,0.11627 -0.1958536,0.12971 -0.1850017,0.14624 -0.173116,0.15968 -0.15968,0.17312 -0.1462445,0.185 -0.1297078,0.19637 -0.1162719,0.20567 -0.097669,0.21291 -0.082166,0.22118 -0.064079,0.22685 -0.045992,0.231 -0.026872,0.23409 -0.0093,0.23617 -0.00103,105.2499 0.010335,0.23616 0.026872,0.23358 0.045992,0.23099 0.064079,0.22738 0.082166,0.22066 0.097669,0.21342 0.1162719,0.20567 0.1297078,0.19637 0.1462445,0.185 0.15968,0.1726 0.173116,0.1602 0.1850017,0.14573 0.1958536,0.13022 0.206189,0.11576 0.212907,0.0982 0.221175,0.0822 0.2268596,0.0641 0.2309939,0.046 0.234094,0.0269 0.236161,0.009 295.750924,10e-4 0.23514,-0.01 0.23357,-0.0269 0.23102,-0.046 0.22735,-0.0641 0.22066,-0.0822 0.21344,-0.0982 0.20567,-0.11576 0.19583,-0.13022 0.185,-0.14573 0.17312,-0.1602 0.1602,-0.1726 0.14573,-0.185 0.13023,-0.19637 0.11576,-0.20567 0.0982,-0.21342 0.0822,-0.22066 0.0641,-0.22738 0.046,-0.23099 0.0269,-0.23358 0.0103,-0.23616 v -105.2499 l -0.0103,-0.23617 -0.0269,-0.23409 -0.046,-0.231 -0.0641,-0.22685 -0.0822,-0.22118 -0.0982,-0.21291 -0.11576,-0.20567 -0.13023,-0.19637 -0.14573,-0.185 -0.1602,-0.17312 -0.17312,-0.15968 -0.185,-0.14624 -0.19583,-0.12971 -0.20567,-0.11627 -0.21344,-0.0977 -0.22066,-0.0827 -0.22735,-0.0641 -0.23102,-0.046 -0.23357,-0.0269 -0.23514,-0.009 z m 98.916959,2.26963 1.49862,0.86609 v 1.73013 l -1.49862,0.86506 -1.49913,-0.86506 v -1.73013 z m 97.91805,0 1.49862,0.86558 v 1.73064 l -1.49862,0.86506 -1.49913,-0.86506 v -1.73064 z m 97.91651,0 1.4986,0.86558 v 1.73064 l -1.4986,0.86506 -1.49913,-0.86506 v -1.73064 z m -293.751063,5.1e-4 1.498616,0.86558 v 1.73065 l -1.498616,0.86506 -1.499133,-0.86506 v -1.73065 z m 5.089095,5.73092 H 300.3157 c 0.6038,0 1.08987,0.48607 1.08987,1.08986 v 93.07028 c 0,0.60379 -0.48607,1.08986 -1.08987,1.08986 H 16.744392 c -0.603785,0 -1.089856,-0.48607 -1.089856,-1.08986 v -93.07028 c 0,-0.60379 0.486071,-1.08986 1.089856,-1.08986 z m -5.089095,97.51911 1.498616,0.86558 v 1.73064 l -1.498616,0.86507 -1.499133,-0.86507 v -1.73064 z m 97.917023,0 1.49861,0.86558 v 1.73064 l -1.49861,0.86507 -1.49914,-0.86507 v -1.73064 z m 97.91702,5.2e-4 1.49861,0.86558 v 1.73064 l -1.49861,0.86507 -1.49914,-0.86507 v -1.73064 z m 97.91702,0 1.4986,0.86558 v 1.73064 l -1.4986,0.86507 -1.49913,-0.86507 v -1.73064 z"
       id="path10046"
       inkscape:connector-curvature="0" />
    <path
       inkscape:connector-curvature="0"
       style="fill:#ffffff;stroke:#ff0000;stroke-width:0.05mm"
       d="m 315.65465,132.27609 -0.23616,0.0104 -0.2341,0.0269 -0.23099,0.046 -0.22686,0.0641 -0.22118,0.0822 -0.2129,0.0977 -0.20619,0.11627 -0.19586,0.12971 -0.185,0.14625 -0.17311,0.15968 -0.15968,0.17311 -0.14625,0.185 -0.12971,0.19637 -0.11627,0.20568 -0.0977,0.2129 -0.0822,0.22118 -0.0641,0.22686 -0.046,0.23099 -0.0269,0.2341 -0.009,0.23616 -0.001,105.2499 0.0103,0.23617 0.0269,0.23357 0.046,0.23099 0.0641,0.22738 0.0822,0.22066 0.0977,0.21342 0.11627,0.20568 0.12971,0.19637 0.14624,0.185 0.15968,0.1726 0.17312,0.16019 0.185,0.14573 0.19585,0.13023 0.20619,0.11575 0.21291,0.0982 0.22117,0.0822 0.22686,0.0641 0.231,0.046 0.23409,0.0269 0.23616,0.009 295.75094,0.001 0.23514,-0.01 0.23356,-0.0269 0.23102,-0.046 0.22735,-0.0641 0.22066,-0.0822 0.21344,-0.0982 0.20567,-0.11576 0.19585,-0.13022 0.18499,-0.14573 0.17312,-0.1602 0.16021,-0.1726 0.14573,-0.185 0.13023,-0.19637 0.11575,-0.20567 0.0982,-0.21342 0.0822,-0.22066 0.0641,-0.22738 0.046,-0.23099 0.0269,-0.23358 0.0103,-0.23616 V 135.27746 l -0.0103,-0.23616 -0.0269,-0.2341 -0.046,-0.23099 -0.0641,-0.22686 -0.0822,-0.22118 -0.0982,-0.2129 -0.11575,-0.20568 -0.13023,-0.19636 -0.14573,-0.18501 -0.16021,-0.17311 -0.17312,-0.15968 -0.18499,-0.14625 -0.19585,-0.1297 -0.20567,-0.11628 -0.21344,-0.0977 -0.22066,-0.0827 -0.22735,-0.0641 -0.23102,-0.046 -0.23356,-0.0269 -0.23514,-0.009 z m 98.91696,2.26963 1.49861,0.8661 v 1.73012 l -1.49861,0.86507 -1.49914,-0.86507 v -1.73012 z m 97.91805,0 1.49862,0.86558 v 1.73064 l -1.49862,0.86507 -1.49913,-0.86507 v -1.73064 z m 97.91651,0 1.4986,0.86558 v 1.73064 l -1.4986,0.86507 -1.49912,-0.86507 v -1.73064 z m -293.75107,5.3e-4 1.49862,0.86558 v 1.73064 l -1.49862,0.86507 -1.49913,-0.86507 v -1.73064 z m 5.0891,5.73092 h 283.57131 c 0.60381,0 1.08987,0.48607 1.08987,1.08985 v 93.07029 c 0,0.60379 -0.48606,1.08986 -1.08987,1.08986 H 321.7442 c -0.60379,0 -1.08986,-0.48607 -1.08986,-1.08986 v -93.0703 c 0,-0.60378 0.48607,-1.08986 1.08986,-1.08986 z m -5.0891,97.51911 1.49862,0.86558 v 1.73064 l -1.49862,0.86507 -1.49913,-0.86507 v -1.73064 z m 97.91702,0 1.49862,0.86558 v 1.73064 l -1.49862,0.86507 -1.49913,-0.86507 v -1.73064 z m 97.91702,5.3e-4 1.49862,0.86558 v 1.73064 l -1.49862,0.86507 -1.49913,-0.86507 v -1.73064 z m 97.91703,0 1.4986,0.86558 v 1.73064 l -1.4986,0.86507 -1.49912,-0.86507 v -1.73064 z"
       id="path10046-6" />
    <path
       inkscape:connector-curvature="0"
       style="fill:#ffffff;stroke:#ff0000;stroke-width:0.05mm"
       d="m 10.654824,247.27619 -0.236161,0.0103 -0.234095,0.0269 -0.2309934,0.046 -0.22686,0.0641 -0.221175,0.0822 -0.212907,0.0977 -0.206189,0.11627 -0.1958534,0.12971 -0.185002,0.14624 -0.173116,0.15968 -0.15968,0.17312 -0.146245,0.185 -0.129707,0.19637 -0.116272,0.20567 -0.09767,0.21291 -0.08217,0.22117 -0.06408,0.22686 -0.04599,0.231 -0.02687,0.23409 -0.0093,0.23617 -0.001,105.2499 0.01033,0.23617 0.02687,0.23357 0.04599,0.23099 0.06408,0.22738 0.08217,0.22066 0.09767,0.21342 0.116272,0.20568 0.129707,0.19637 0.146245,0.185 0.15968,0.1726 0.173116,0.16019 0.185002,0.14573 0.1958534,0.13023 0.206189,0.11575 0.212907,0.0982 0.221175,0.0822 0.22686,0.0641 0.2309934,0.046 0.234095,0.0269 0.236161,0.009 295.750946,10e-4 0.23514,-0.01 0.23356,-0.0269 0.23102,-0.046 0.22735,-0.0641 0.22066,-0.0822 0.21344,-0.0982 0.20567,-0.11576 0.19585,-0.13022 0.18499,-0.14573 0.17312,-0.1602 0.16021,-0.1726 0.14573,-0.185 0.13023,-0.19637 0.11575,-0.20567 0.0982,-0.21342 0.0822,-0.22066 0.0641,-0.22738 0.046,-0.23099 0.0269,-0.23358 0.0103,-0.23616 V 250.27756 l -0.0103,-0.23616 -0.0269,-0.2341 -0.046,-0.23099 -0.0641,-0.22686 -0.0822,-0.22118 -0.0982,-0.2129 -0.11575,-0.20568 -0.13023,-0.19637 -0.14573,-0.185 -0.16021,-0.17311 -0.17312,-0.15968 -0.18499,-0.14625 -0.19585,-0.12971 -0.20567,-0.11627 -0.21344,-0.0977 -0.22066,-0.0827 -0.22735,-0.0641 -0.23102,-0.046 -0.23356,-0.0269 -0.23514,-0.009 z m 98.916966,2.26963 1.49861,0.8661 v 1.73012 l -1.49861,0.86507 -1.49914,-0.86507 v -1.73012 z m 97.91805,0 1.49862,0.86558 v 1.73064 l -1.49862,0.86507 -1.49913,-0.86507 v -1.73064 z m 97.91651,0 1.4986,0.86558 v 1.73064 l -1.4986,0.86507 -1.49912,-0.86507 v -1.73064 z m -293.75107,5.3e-4 1.498616,0.86558 v 1.73064 l -1.498616,0.86506 -1.499134,-0.86506 v -1.73064 z m 5.089095,5.73091 H 300.31569 c 0.60381,0 1.08987,0.48608 1.08987,1.08986 v 93.07029 c 0,0.60378 -0.48606,1.08985 -1.08987,1.08985 H 16.744375 c -0.603785,0 -1.089856,-0.48607 -1.089856,-1.08985 v -93.0703 c 0,-0.60379 0.486071,-1.08986 1.089856,-1.08986 z m -5.089095,97.51912 1.498616,0.86558 v 1.73064 l -1.498616,0.86507 -1.499134,-0.86507 v -1.73064 z m 97.91702,0 1.49862,0.86558 v 1.73064 l -1.49862,0.86507 -1.49913,-0.86507 v -1.73064 z m 97.91702,5.3e-4 1.49862,0.86558 v 1.73064 l -1.49862,0.86507 -1.49913,-0.86507 v -1.73064 z m 97.91703,0 1.4986,0.86558 v 1.73064 l -1.4986,0.86507 -1.49912,-0.86507 v -1.73064 z"
       id="path10046-4" />
  </g>
  <g
     inkscape:groupmode="layer"
     id="layer9"
     inkscape:label="open-plate"
     style="display:inline"
     transform="translate(-2.5589898,-12.181787)">
    <path
       style="fill:#ffffff;stroke:#ff0000;stroke-width:0.05mm"
       d="m 315.65464,362.27668 -0.23617,0.0103 -0.23408,0.0269 -0.23101,0.046 -0.22685,0.0641 -0.22116,0.0822 -0.21291,0.0977 -0.20619,0.11627 -0.19588,0.12971 -0.18499,0.14625 -0.17312,0.15968 -0.15967,0.17311 -0.14624,0.185 -0.12973,0.19637 -0.11625,0.20568 -0.0977,0.2129 -0.0822,0.22118 -0.0641,0.22686 -0.046,0.23099 -0.0269,0.23409 -0.009,0.23617 -0.001,105.2499 0.0103,0.23616 0.0269,0.23358 0.046,0.231 0.0641,0.22736 0.0822,0.22066 0.0977,0.21344 0.11628,0.20566 0.1297,0.19638 0.14626,0.18499 0.15968,0.17262 0.17312,0.16018 0.18499,0.14573 0.19585,0.13023 0.20619,0.11575 0.21291,0.0982 0.22119,0.0822 0.22685,0.0641 0.23099,0.046 0.2341,0.0269 0.23617,0.009 295.75092,5.1e-4 0.23514,-0.01 0.23357,-0.0269 0.23098,-0.046 0.22739,-0.0641 0.22066,-0.0822 0.21341,-0.0982 0.20569,-0.11575 0.19584,-0.13023 0.185,-0.14573 0.17312,-0.16018 0.1602,-0.17262 0.14574,-0.18499 0.13022,-0.19638 0.11576,-0.20566 0.0982,-0.21344 0.0821,-0.22066 0.0641,-0.22736 0.046,-0.231 0.0269,-0.23358 0.0103,-0.23616 v -105.2499 l -0.0103,-0.23617 -0.0269,-0.23409 -0.046,-0.23099 -0.0641,-0.22686 -0.0821,-0.22118 -0.0982,-0.2129 -0.11576,-0.20568 -0.13022,-0.19637 -0.14574,-0.185 -0.1602,-0.17311 -0.17312,-0.15968 -0.185,-0.14625 -0.19584,-0.12971 -0.20569,-0.11627 -0.21341,-0.0977 -0.22066,-0.0832 -0.22739,-0.0641 -0.23098,-0.046 -0.23357,-0.0269 -0.23514,-0.009 -265.97808,-5.2e-4 v 8.00107 h 259.88751 c 0.6038,0 1.08984,0.48606 1.08984,1.08984 v 93.07028 c 0,0.60381 -0.48604,1.08987 -1.08984,1.08987 H 321.74418 c -0.60378,0 -1.08984,-0.48606 -1.08984,-1.08987 v -93.07028 c 0,-0.60378 0.48606,-1.08984 1.08984,-1.08984 h 11.88921 v -8.00107 z m 98.91696,2.26963 1.49863,0.86609 v 1.73013 l -1.49863,0.86506 -1.49913,-0.86506 v -1.73013 z m 97.91806,0 1.4986,0.86558 v 1.73064 l -1.4986,0.86506 -1.49913,-0.86506 v -1.73064 z m 97.91649,0 1.49863,0.86558 v 1.73064 l -1.49863,0.86506 -1.49912,-0.86506 v -1.73064 z m -293.75104,5.2e-4 1.4986,0.86557 v 1.73065 l -1.4986,0.86507 -1.49916,-0.86507 v -1.73065 z m 0,103.25003 1.4986,0.86556 v 1.73067 l -1.4986,0.86505 -1.49916,-0.86505 v -1.73067 z m 97.91699,0 1.49863,0.86556 v 1.73067 l -1.49863,0.86505 -1.49913,-0.86505 v -1.73067 z m 97.91703,5.1e-4 1.49863,0.86558 v 1.73064 l -1.49863,0.86506 -1.49913,-0.86506 v -1.73064 z m 97.91702,0 1.49863,0.86558 v 1.73064 l -1.49863,0.86506 -1.49912,-0.86506 v -1.73064 z"
       id="path10046-9"
       inkscape:connector-curvature="0" />
    <path
       style="display:inline;fill:#ffffff;stroke:#ff0000;stroke-width:0.05mm"
       d="m 315.65464,247.27666 -0.23617,0.0103 -0.23408,0.0269 -0.23101,0.046 -0.22685,0.0641 -0.22116,0.0822 -0.21291,0.0977 -0.20619,0.11627 -0.19588,0.12971 -0.18499,0.14625 -0.17312,0.15968 -0.15967,0.17311 -0.14624,0.185 -0.12973,0.19637 -0.11625,0.20568 -0.0977,0.2129 -0.0822,0.22118 -0.0641,0.22686 -0.046,0.23099 -0.0269,0.23409 -0.009,0.23617 -0.001,105.24989 0.0103,0.23616 0.0269,0.23359 0.046,0.231 0.0641,0.22735 0.0822,0.22066 0.0977,0.21344 0.11628,0.20566 0.1297,0.19638 0.14626,0.18499 0.15968,0.17262 0.17312,0.16019 0.18499,0.14573 0.19585,0.13022 0.20619,0.11576 0.21291,0.0982 0.22119,0.0822 0.22685,0.0641 0.23099,0.046 0.2341,0.0269 0.23617,0.009 295.75093,5.3e-4 0.23514,-0.01 0.23357,-0.0269 0.23098,-0.046 0.22738,-0.0641 0.22067,-0.0822 0.21341,-0.0982 0.20569,-0.11575 0.19584,-0.13023 0.185,-0.14573 0.17312,-0.16018 0.1602,-0.17262 0.14573,-0.18499 0.13023,-0.19638 0.11576,-0.20566 0.0982,-0.21344 0.0821,-0.22066 0.0641,-0.22736 0.046,-0.231 0.0269,-0.23358 0.0103,-0.23616 V 250.27763 l -0.0103,-0.23617 -0.0269,-0.23409 -0.046,-0.23099 -0.0641,-0.22686 -0.0821,-0.22118 -0.0982,-0.2129 -0.11576,-0.20568 -0.13023,-0.19637 -0.14573,-0.185 -0.1602,-0.17311 -0.17312,-0.15968 -0.185,-0.14625 -0.19584,-0.12971 -0.20569,-0.11627 -0.21341,-0.0977 -0.22067,-0.0832 -0.22738,-0.0641 -0.23098,-0.046 -0.23357,-0.0269 -0.23514,-0.009 -265.97809,-5.2e-4 v 8.00107 h 259.88752 c 0.6038,0 1.08984,0.48606 1.08984,1.08984 v 93.07028 c 0,0.60381 -0.48604,1.08987 -1.08984,1.08987 H 321.74418 c -0.60378,0 -1.08984,-0.48606 -1.08984,-1.08987 v -93.07028 c 0,-0.60378 0.48606,-1.08984 1.08984,-1.08984 h 11.88921 v -8.00107 z m 98.91696,2.26963 1.49863,0.86609 v 1.73013 l -1.49863,0.86506 -1.49913,-0.86506 v -1.73013 z m 97.91806,0 1.4986,0.86558 v 1.73064 l -1.4986,0.86506 -1.49913,-0.86506 v -1.73064 z m 97.91649,0 1.49862,0.86558 v 1.73064 l -1.49862,0.86506 -1.49911,-0.86506 v -1.73064 z m -293.75104,5.2e-4 1.4986,0.86557 v 1.73065 l -1.4986,0.86507 -1.49916,-0.86507 v -1.73065 z m 0,103.25002 1.4986,0.86557 v 1.73066 l -1.4986,0.86505 -1.49916,-0.86505 v -1.73066 z m 97.91699,0 1.49863,0.86557 v 1.73066 l -1.49863,0.86505 -1.49913,-0.86505 v -1.73066 z m 97.91703,5.3e-4 1.49863,0.86558 v 1.73064 l -1.49863,0.86506 -1.49913,-0.86506 v -1.73064 z m 97.91702,0 1.49862,0.86558 v 1.73064 l -1.49862,0.86506 -1.49911,-0.86506 v -1.73064 z"
       id="path10046-9-5"
       inkscape:connector-curvature="0" />
    <path
       style="display:inline;fill:#ffffff;stroke:#ff0000;stroke-width:0.05mm"
       d="m 10.654638,362.27666 -0.23617,0.0103 -0.23408,0.0269 -0.2310098,0.046 -0.22685,0.0641 -0.22116,0.0822 -0.21291,0.0977 -0.20619,0.11627 -0.19588,0.12971 -0.18499,0.14625 -0.17312,0.15968 -0.15967,0.17311 -0.14624,0.185 -0.12973,0.19637 -0.11625,0.20568 -0.0977,0.2129 -0.0822,0.22118 -0.0641,0.22686 -0.046,0.23099 -0.0269,0.23409 -0.009,0.23617 -0.001,105.24989 0.0103,0.23616 0.0269,0.23359 0.046,0.231 0.0641,0.22735 0.0822,0.22066 0.0977,0.21344 0.11628,0.20566 0.1297,0.19638 0.14626,0.18499 0.15968,0.17262 0.17312,0.16019 0.18499,0.14573 0.19585,0.13022 0.20619,0.11576 0.21291,0.0982 0.22119,0.0822 0.22685,0.0641 0.2309898,0.046 0.23409,0.0269 0.23617,0.009 295.750942,5.3e-4 0.23514,-0.01 0.23357,-0.0269 0.23098,-0.046 0.22738,-0.0641 0.22067,-0.0822 0.21341,-0.0982 0.20569,-0.11575 0.19584,-0.13023 0.185,-0.14573 0.17312,-0.16018 0.1602,-0.17262 0.14573,-0.18499 0.13023,-0.19638 0.11576,-0.20566 0.0982,-0.21344 0.0821,-0.22066 0.0641,-0.22736 0.046,-0.231 0.0269,-0.23358 0.0103,-0.23616 V 365.27763 l -0.0103,-0.23617 -0.0269,-0.23409 -0.046,-0.23099 -0.0641,-0.22686 -0.0821,-0.22118 -0.0982,-0.2129 -0.11576,-0.20568 -0.13023,-0.19637 -0.14573,-0.185 -0.1602,-0.17311 -0.17312,-0.15968 -0.185,-0.14625 -0.19584,-0.12971 -0.20569,-0.11627 -0.21341,-0.0977 -0.22067,-0.0832 -0.22738,-0.0641 -0.23098,-0.046 -0.23357,-0.0269 -0.23514,-0.009 -265.978096,-5.2e-4 v 8.00107 H 300.31533 c 0.6038,0 1.08984,0.48606 1.08984,1.08984 v 93.07028 c 0,0.60381 -0.48604,1.08987 -1.08984,1.08987 H 16.744178 c -0.60378,0 -1.08984,-0.48606 -1.08984,-1.08987 v -93.07028 c 0,-0.60378 0.48606,-1.08984 1.08984,-1.08984 h 11.8892 v -8.00107 z m 98.916952,2.26963 1.49864,0.86609 v 1.73013 l -1.49864,0.86506 -1.49912,-0.86506 v -1.73013 z m 97.91807,0 1.4986,0.86558 v 1.73064 l -1.4986,0.86506 -1.49913,-0.86506 v -1.73064 z m 97.91649,0 1.49862,0.86558 v 1.73064 l -1.49862,0.86506 -1.49911,-0.86506 v -1.73064 z m -293.751042,5.2e-4 1.4986,0.86557 v 1.73065 l -1.4986,0.86507 -1.49916,-0.86507 v -1.73065 z m 0,103.25002 1.4986,0.86557 v 1.73066 l -1.4986,0.86505 -1.49916,-0.86505 v -1.73066 z m 97.916982,0 1.49864,0.86557 v 1.73066 l -1.49864,0.86505 -1.49912,-0.86505 v -1.73066 z m 97.91704,5.3e-4 1.49863,0.86558 v 1.73064 l -1.49863,0.86506 -1.49913,-0.86506 v -1.73064 z m 97.91702,0 1.49862,0.86558 v 1.73064 l -1.49862,0.86506 -1.49911,-0.86506 v -1.73064 z"
       id="path10046-9-4"
       inkscape:connector-curvature="0" />
  </g>
  <g
     inkscape:groupmode="layer"
     id="layer11"
     inkscape:label="stand-off"
     transform="translate(-4.9999898,-15.999985)">
    <g
       transform="translate(3.5718356e-4,240.5414)"
       id="g10402">
      <path
         inkscape:connector-curvature="0"
         id="rect10137"
         d="m 18.97817,142.68347 c -0.490125,0 -0.884701,0.39458 -0.884701,0.8847 v 6.04924 c 0,0.49013 0.394576,0.8847 0.884701,0.8847 h 283.9749 c 0.49014,0 0.88472,-0.39457 0.88472,-0.8847 v -6.04924 c 0,-0.49012 -0.39458,-0.8847 -0.88472,-0.8847 z m 17.886762,2.85977 a 1.0489551,1.0489551 0 0 1 1.049034,1.04904 1.0489551,1.0489551 0 0 1 -1.049034,1.04903 1.0489551,1.0489551 0 0 1 -1.04903,-1.04903 1.0489551,1.0489551 0 0 1 1.04903,-1.04904 z m 124.100948,5.2e-4 a 1.0489551,1.0489551 0 0 1 1.04903,1.04903 1.0489551,1.0489551 0 0 1 -1.04903,1.04903 1.0489551,1.0489551 0 0 1 -1.04903,-1.04903 1.0489551,1.0489551 0 0 1 1.04903,-1.04903 z m 124.99962,0 a 1.0489551,1.0489551 0 0 1 1.04902,1.04903 1.0489551,1.0489551 0 0 1 -1.04902,1.04903 1.0489551,1.0489551 0 0 1 -1.04905,-1.04903 1.0489551,1.0489551 0 0 1 1.04905,-1.04903 z"
         style="display:inline;fill:#ffffff;fill-opacity:1;stroke:#f60000;stroke-width:0.18165237;stroke-linecap:butt;stroke-linejoin:miter;stroke-miterlimit:4;stroke-dasharray:none;stroke-opacity:1" />
      <path
         id="rect10137-4"
         d="m 18.978526,134.86343 c -0.49013,0 -0.8847,0.39458 -0.8847,0.8847 v 6.04925 c 0,0.49012 0.39457,0.8847 0.8847,0.8847 H 302.95342 c 0.49014,0 0.88471,-0.39458 0.88471,-0.8847 v -6.04925 c 0,-0.49012 -0.39457,-0.8847 -0.88471,-0.8847 z m 17.88676,2.85977 a 1.0489551,1.0489551 0 0 1 1.04903,1.04904 1.0489551,1.0489551 0 0 1 -1.04903,1.04903 1.0489551,1.0489551 0 0 1 -1.04903,-1.04903 1.0489551,1.0489551 0 0 1 1.04903,-1.04904 z m 124.100944,5.3e-4 a 1.0489551,1.0489551 0 0 1 1.04903,1.04903 1.0489551,1.0489551 0 0 1 -1.04903,1.04903 1.0489551,1.0489551 0 0 1 -1.04903,-1.04903 1.0489551,1.0489551 0 0 1 1.04903,-1.04903 z m 124.99962,0 a 1.0489551,1.0489551 0 0 1 1.04902,1.04903 1.0489551,1.0489551 0 0 1 -1.04902,1.04903 1.0489551,1.0489551 0 0 1 -1.04905,-1.04903 1.0489551,1.0489551 0 0 1 1.04905,-1.04903 z"
         style="display:inline;fill:#ffffff;fill-opacity:1;stroke:#f60000;stroke-width:0.18165237;stroke-linecap:butt;stroke-linejoin:miter;stroke-miterlimit:4;stroke-dasharray:none;stroke-opacity:1"
         inkscape:connector-curvature="0" />
      <path
         inkscape:connector-curvature="0"
         id="rect10137-3"
         d="m 18.978527,150.50133 c -0.490125,0 -0.884701,0.39458 -0.884701,0.8847 v 6.04924 c 0,0.49013 0.394576,0.8847 0.884701,0.8847 H 302.95343 c 0.49014,0 0.88471,-0.39457 0.88471,-0.8847 v -6.04924 c 0,-0.49012 -0.39457,-0.8847 -0.88471,-0.8847 z m 17.886763,2.85977 a 1.0489551,1.0489551 0 0 1 1.049034,1.04904 1.0489551,1.0489551 0 0 1 -1.049034,1.04903 1.0489551,1.0489551 0 0 1 -1.049031,-1.04903 1.0489551,1.0489551 0 0 1 1.049031,-1.04904 z m 124.10095,5.3e-4 a 1.0489551,1.0489551 0 0 1 1.04903,1.04903 1.0489551,1.0489551 0 0 1 -1.04903,1.04903 1.0489551,1.0489551 0 0 1 -1.04903,-1.04903 1.0489551,1.0489551 0 0 1 1.04903,-1.04903 z m 124.99962,0 a 1.0489551,1.0489551 0 0 1 1.04902,1.04903 1.0489551,1.0489551 0 0 1 -1.04902,1.04903 1.0489551,1.0489551 0 0 1 -1.04905,-1.04903 1.0489551,1.0489551 0 0 1 1.04905,-1.04903 z"
         style="display:inline;fill:#ffffff;fill-opacity:1;stroke:#f60000;stroke-width:0.18165237;stroke-linecap:butt;stroke-linejoin:miter;stroke-miterlimit:4;stroke-dasharray:none;stroke-opacity:1" />
      <path
         inkscape:connector-curvature="0"
         id="rect10137-1"
         d="m 18.978527,166.14144 c -0.490125,0 -0.884701,0.39458 -0.884701,0.8847 v 6.04924 c 0,0.49013 0.394576,0.8847 0.884701,0.8847 H 302.95343 c 0.49014,0 0.88471,-0.39457 0.88471,-0.8847 v -6.04924 c 0,-0.49012 -0.39457,-0.8847 -0.88471,-0.8847 z m 17.886763,2.85977 a 1.0489551,1.0489551 0 0 1 1.049034,1.04904 1.0489551,1.0489551 0 0 1 -1.049034,1.04903 1.0489551,1.0489551 0 0 1 -1.049031,-1.04903 1.0489551,1.0489551 0 0 1 1.049031,-1.04904 z m 124.10095,5.3e-4 a 1.0489551,1.0489551 0 0 1 1.04903,1.04903 1.0489551,1.0489551 0 0 1 -1.04903,1.04903 1.0489551,1.0489551 0 0 1 -1.04903,-1.04903 1.0489551,1.0489551 0 0 1 1.04903,-1.04903 z m 124.99962,0 a 1.0489551,1.0489551 0 0 1 1.04902,1.04903 1.0489551,1.0489551 0 0 1 -1.04902,1.04903 1.0489551,1.0489551 0 0 1 -1.04905,-1.04903 1.0489551,1.0489551 0 0 1 1.04905,-1.04903 z"
         style="display:inline;fill:#ffffff;fill-opacity:1;stroke:#f60000;stroke-width:0.18165237;stroke-linecap:butt;stroke-linejoin:miter;stroke-miterlimit:4;stroke-dasharray:none;stroke-opacity:1" />
      <path
         inkscape:connector-curvature="0"
         id="rect10137-39"
         d="m 18.978527,158.32105 c -0.490125,0 -0.884701,0.39458 -0.884701,0.8847 v 6.04924 c 0,0.49013 0.394576,0.8847 0.884701,0.8847 H 302.95343 c 0.49014,0 0.88471,-0.39457 0.88471,-0.8847 v -6.04924 c 0,-0.49012 -0.39457,-0.8847 -0.88471,-0.8847 z m 17.886762,2.85977 a 1.0489551,1.0489551 0 0 1 1.049034,1.04904 1.0489551,1.0489551 0 0 1 -1.049034,1.04903 1.0489551,1.0489551 0 0 1 -1.049031,-1.04903 1.0489551,1.0489551 0 0 1 1.049031,-1.04904 z m 124.100951,5.3e-4 a 1.0489551,1.0489551 0 0 1 1.04903,1.04903 1.0489551,1.0489551 0 0 1 -1.04903,1.04903 1.0489551,1.0489551 0 0 1 -1.04903,-1.04903 1.0489551,1.0489551 0 0 1 1.04903,-1.04903 z m 124.99962,0 a 1.0489551,1.0489551 0 0 1 1.04902,1.04903 1.0489551,1.0489551 0 0 1 -1.04902,1.04903 1.0489551,1.0489551 0 0 1 -1.04905,-1.04903 1.0489551,1.0489551 0 0 1 1.04905,-1.04903 z"
         style="display:inline;fill:#ffffff;fill-opacity:1;stroke:#f60000;stroke-width:0.18165237;stroke-linecap:butt;stroke-linejoin:miter;stroke-miterlimit:4;stroke-dasharray:none;stroke-opacity:1" />
      <path
         inkscape:connector-curvature="0"
         id="rect10137-38"
         d="m 18.978527,173.96137 c -0.490125,0 -0.884701,0.39458 -0.884701,0.8847 v 6.04924 c 0,0.49013 0.394576,0.8847 0.884701,0.8847 H 302.95343 c 0.49014,0 0.88471,-0.39457 0.88471,-0.8847 v -6.04924 c 0,-0.49012 -0.39457,-0.8847 -0.88471,-0.8847 z m 17.886762,2.85977 a 1.0489551,1.0489551 0 0 1 1.049034,1.04904 1.0489551,1.0489551 0 0 1 -1.049034,1.04903 1.0489551,1.0489551 0 0 1 -1.049031,-1.04903 1.0489551,1.0489551 0 0 1 1.049031,-1.04904 z m 124.100951,5.3e-4 a 1.0489551,1.0489551 0 0 1 1.04903,1.04903 1.0489551,1.0489551 0 0 1 -1.04903,1.04903 1.0489551,1.0489551 0 0 1 -1.04903,-1.04903 1.0489551,1.0489551 0 0 1 1.04903,-1.04903 z m 124.99962,0 a 1.0489551,1.0489551 0 0 1 1.04902,1.04903 1.0489551,1.0489551 0 0 1 -1.04902,1.04903 1.0489551,1.0489551 0 0 1 -1.04905,-1.04903 1.0489551,1.0489551 0 0 1 1.04905,-1.04903 z"
         style="display:inline;fill:#ffffff;fill-opacity:1;stroke:#f60000;stroke-width:0.18165237;stroke-linecap:butt;stroke-linejoin:miter;stroke-miterlimit:4;stroke-dasharray:none;stroke-opacity:1" />
    </g>
  </g>
  <g
     inkscape:groupmode="layer"
     id="layer3"
     inkscape:label="hex"
     transform="translate(-2.5589898,-12.181787)" />
  <g
     inkscape:groupmode="layer"
     id="layer2"
     inkscape:label="2mm"
     transform="translate(-2.5589898,-12.181787)"
     style="display:none">
    <path
       inkscape:connector-curvature="0"
       style="display:inline;fill:#ffffff;fill-opacity:1;stroke:#fe0000;stroke-width:0.189;stroke-miterlimit:4;stroke-dasharray:none;stroke-opacity:1"
       d="m 0.19719819,152.00295 a 1.0489551,1.0489551 0 0 1 1.04903001,1.04903 1.0489551,1.0489551 0 0 1 -1.04903001,1.04901 1.0489551,1.0489551 0 0 1 -1.04903,-1.04901 1.0489551,1.0489551 0 0 1 1.04903,-1.04903 z"
       id="path8212-1" />
  </g>
  <g
     inkscape:groupmode="layer"
     id="layer4"
     inkscape:label="bottom"
     style="display:inline"
     transform="translate(-2.5589898,-12.181787)">
    <path
       style="fill:#ffffff;stroke:#ff0000;stroke-width:0.189;stroke-miterlimit:4;stroke-dasharray:none"
       d="m 10.655358,17.276779 -0.236161,0.0098 -0.234094,0.02687 -0.2309942,0.04599 -0.2268595,0.06408 -0.221175,0.08217 -0.2129071,0.09819 -0.206189,0.115755 -0.1958535,0.130225 -0.1850017,0.145727 -0.1731161,0.160197 -0.15968,0.173116 -0.1462445,0.185002 -0.1297077,0.195854 -0.116272,0.206189 -0.097669,0.212907 -0.082165,0.220658 -0.064079,0.227376 -0.045992,0.230994 -0.026872,0.233577 -0.0093,0.236162 -0.00103,105.249912 0.010335,0.23616 0.026872,0.23409 0.045992,0.231 0.064079,0.22686 0.082165,0.22117 0.097669,0.21291 0.116272,0.20619 0.1297077,0.19585 0.1462445,0.185 0.15968,0.17312 0.1731161,0.15968 0.1850017,0.14624 0.1958535,0.12971 0.206189,0.11627 0.2129071,0.0977 0.221175,0.0822 0.2268595,0.0641 0.2309942,0.046 0.234094,0.0269 0.236161,0.009 295.750947,0.001 0.23511,-0.0103 0.2336,-0.0269 0.23098,-0.046 0.22738,-0.0641 0.22067,-0.0822 0.21341,-0.0977 0.20569,-0.11628 0.19584,-0.1297 0.185,-0.14625 0.17311,-0.15968 0.1602,-0.17311 0.14573,-0.18501 0.1302,-0.19585 0.11577,-0.20619 0.0982,-0.21291 0.0822,-0.22117 0.0641,-0.22686 0.046,-0.23099 0.0269,-0.2341 0.01,-0.23616 V 20.27763 l -0.01,-0.236162 -0.0269,-0.233577 -0.046,-0.230994 -0.0641,-0.227376 -0.0822,-0.220658 -0.0982,-0.212907 -0.11577,-0.206189 -0.1302,-0.195854 -0.14573,-0.185002 -0.1602,-0.173116 -0.17311,-0.160197 -0.185,-0.145727 -0.19584,-0.130225 -0.20569,-0.115755 -0.21341,-0.09819 -0.22067,-0.08217 -0.22738,-0.06408 -0.23098,-0.04599 -0.2336,-0.02687 -0.23511,-0.0088 z m 0.999939,2.950725 a 1.0489551,1.0489551 0 0 1 1.049032,1.049031 1.0489551,1.0489551 0 0 1 -1.049032,1.049032 1.0489551,1.0489551 0 0 1 -1.049032,-1.049032 1.0489551,1.0489551 0 0 1 1.049032,-1.049031 z m 97.916503,5.16e-4 a 1.0489551,1.0489551 0 0 1 1.04903,1.049032 1.0489551,1.0489551 0 0 1 -1.04903,1.049031 1.0489551,1.0489551 0 0 1 -1.04903,-1.049031 1.0489551,1.0489551 0 0 1 1.04903,-1.049032 z m 195.83353,0 a 1.0489551,1.0489551 0 0 1 1.04902,1.049032 1.0489551,1.0489551 0 0 1 -1.04902,1.049031 1.0489551,1.0489551 0 0 1 -1.04905,-1.049031 1.0489551,1.0489551 0 0 1 1.04905,-1.049032 z m -97.91599,5.17e-4 a 1.0489551,1.0489551 0 0 1 1.04903,1.049032 1.0489551,1.0489551 0 0 1 -1.04903,1.049031 1.0489551,1.0489551 0 0 1 -1.04903,-1.049031 1.0489551,1.0489551 0 0 1 1.04903,-1.049032 z M 34.423932,27.323194 a 1.0489551,1.0489551 0 0 1 1.049034,1.049032 1.0489551,1.0489551 0 0 1 -1.049034,1.049032 1.0489551,1.0489551 0 0 1 -1.04903,-1.049032 1.0489551,1.0489551 0 0 1 1.04903,-1.049032 z m 124.100948,5.17e-4 a 1.0489551,1.0489551 0 0 1 1.04903,1.049032 1.0489551,1.0489551 0 0 1 -1.04903,1.049031 1.0489551,1.0489551 0 0 1 -1.04903,-1.049031 1.0489551,1.0489551 0 0 1 1.04903,-1.049032 z m 124.99909,0 a 1.0489551,1.0489551 0 0 1 1.04902,1.049032 1.0489551,1.0489551 0 0 1 -1.04902,1.049031 1.0489551,1.0489551 0 0 1 -1.04902,-1.049031 1.0489551,1.0489551 0 0 1 1.04902,-1.049032 z M 41.229201,52.45551 a 1.0489551,1.0489551 0 0 1 1.049033,1.04903 1.0489551,1.0489551 0 0 1 -1.049033,1.048518 1.0489551,1.0489551 0 0 1 -1.049031,-1.048518 1.0489551,1.0489551 0 0 1 1.049031,-1.04903 z m 234.848709,0 a 1.0489551,1.0489551 0 0 1 1.04904,1.04903 1.0489551,1.0489551 0 0 1 -1.04904,1.049034 1.0489551,1.0489551 0 0 1 -1.04902,-1.049034 1.0489551,1.0489551 0 0 1 1.04902,-1.04903 z m -38.14134,18.27382 a 1.0489551,1.0489551 0 0 1 1.04904,1.049031 1.0489551,1.0489551 0 0 1 -1.04904,1.049033 1.0489551,1.0489551 0 0 1 -1.04903,-1.049033 1.0489551,1.0489551 0 0 1 1.04903,-1.049031 z m -93.70642,1.127062 a 1.0489551,1.0489551 0 0 1 1.04903,1.049033 1.0489551,1.0489551 0 0 1 -1.04903,1.049031 1.0489551,1.0489551 0 0 1 -1.04903,-1.049031 1.0489551,1.0489551 0 0 1 1.04903,-1.049033 z m -124.881266,9.19117 a 1.0489551,1.0489551 0 0 1 1.049032,1.049033 1.0489551,1.0489551 0 0 1 -1.049032,1.049031 1.0489551,1.0489551 0 0 1 -1.049031,-1.049031 1.0489551,1.0489551 0 0 1 1.049031,-1.049033 z m 278.356146,0 a 1.0489551,1.0489551 0 0 1 1.04902,1.049033 1.0489551,1.0489551 0 0 1 -1.04902,1.049031 1.0489551,1.0489551 0 0 1 -1.04905,-1.049031 1.0489551,1.0489551 0 0 1 1.04905,-1.049033 z m -91.17377,28.709878 a 1.0489551,1.0489551 0 0 1 1.04903,1.04903 1.0489551,1.0489551 0 0 1 -1.04903,1.04955 1.0489551,1.0489551 0 0 1 -1.04904,-1.04955 1.0489551,1.0489551 0 0 1 1.04904,-1.04903 z m -172.107843,6.61717 a 1.0489551,1.0489551 0 0 1 1.04903,1.04903 1.0489551,1.0489551 0 0 1 -1.04903,1.04851 1.0489551,1.0489551 0 0 1 -1.049034,-1.04851 1.0489551,1.0489551 0 0 1 1.049034,-1.04903 z m 124.101463,0 a 1.0489551,1.0489551 0 0 1 1.04903,1.04903 1.0489551,1.0489551 0 0 1 -1.04903,1.04903 1.0489551,1.0489551 0 0 1 -1.04903,-1.04903 1.0489551,1.0489551 0 0 1 1.04903,-1.04903 z m 124.99909,0 a 1.0489551,1.0489551 0 0 1 1.04902,1.04903 1.0489551,1.0489551 0 0 1 -1.04902,1.04851 1.0489551,1.0489551 0 0 1 -1.04902,-1.04851 1.0489551,1.0489551 0 0 1 1.04902,-1.04903 z m -271.868673,7.10396 a 1.0489551,1.0489551 0 0 1 1.049032,1.04903 1.0489551,1.0489551 0 0 1 -1.049032,1.04903 1.0489551,1.0489551 0 0 1 -1.049032,-1.04903 1.0489551,1.0489551 0 0 1 1.049032,-1.04903 z m 97.916503,0 a 1.0489551,1.0489551 0 0 1 1.04903,1.04903 1.0489551,1.0489551 0 0 1 -1.04903,1.04903 1.0489551,1.0489551 0 0 1 -1.04903,-1.04903 1.0489551,1.0489551 0 0 1 1.04903,-1.04903 z m 97.91754,5.1e-4 a 1.0489551,1.0489551 0 0 1 1.04903,1.04904 1.0489551,1.0489551 0 0 1 -1.04903,1.04903 1.0489551,1.0489551 0 0 1 -1.04903,-1.04903 1.0489551,1.0489551 0 0 1 1.04903,-1.04904 z m 97.91649,0 a 1.0489551,1.0489551 0 0 1 1.04905,1.04904 1.0489551,1.0489551 0 0 1 -1.04905,1.04903 1.0489551,1.0489551 0 0 1 -1.04902,-1.04903 1.0489551,1.0489551 0 0 1 1.04902,-1.04904 z"
       id="path10372"
       inkscape:connector-curvature="0" />
  </g>
  <g
     inkscape:groupmode="layer"
     id="layer5"
     inkscape:label="switch-plate"
     style="display:inline"
     transform="translate(-2.5589898,-12.181787)">
    <path
       style="fill:#ffffff;stroke:#ff0000;stroke-width:0.05mm"
       d="m 315.65464,17.276275 -0.23614,0.01034 -0.2341,0.02687 -0.23101,0.04599 -0.22686,0.06408 -0.22116,0.08217 -0.21291,0.09767 -0.20619,0.116272 -0.19585,0.129708 -0.18502,0.146244 -0.17309,0.15968 -0.1597,0.173116 -0.14624,0.185002 -0.1297,0.19637 -0.11628,0.205673 -0.0977,0.212907 -0.0822,0.221175 -0.0641,0.226859 -0.046,0.230994 -0.0269,0.234094 -0.009,0.236162 -0.001,105.249909 0.0103,0.23616 0.0269,0.23358 0.046,0.23099 0.0641,0.22738 0.0822,0.22065 0.0977,0.21343 0.11626,0.20567 0.12972,0.19637 0.14624,0.185 0.15967,0.1726 0.17312,0.1602 0.185,0.14573 0.19587,0.13022 0.20619,0.11576 0.21288,0.0982 0.22119,0.0822 0.22686,0.0641 0.23098,0.046 0.2341,0.0269 0.23617,0.009 295.75093,10e-4 0.23513,-0.0103 0.23358,-0.0269 0.231,-0.046 0.22736,-0.0641 0.22066,-0.0822 0.21344,-0.0982 0.20566,-0.11576 0.19585,-0.13022 0.18499,-0.14573 0.17312,-0.1602 0.16021,-0.1726 0.14573,-0.185 0.13023,-0.19637 0.11575,-0.20567 0.0982,-0.21343 0.0822,-0.22065 0.0641,-0.22738 0.046,-0.23099 0.0269,-0.23358 0.01,-0.23616 V 20.277642 l -0.01,-0.236161 -0.0269,-0.234094 -0.046,-0.230994 -0.0641,-0.22686 -0.0822,-0.221175 -0.0982,-0.212907 -0.11575,-0.205672 -0.13023,-0.19637 -0.14573,-0.185002 -0.16021,-0.173116 -0.17312,-0.15968 -0.18499,-0.146244 -0.19585,-0.129708 -0.20566,-0.116272 -0.21344,-0.09767 -0.22066,-0.08217 -0.22736,-0.06408 -0.231,-0.04599 -0.23358,-0.02687 -0.23513,-0.0093 z m 294.75205,2.950724 a 1.0489551,1.0489551 0 0 1 1.04902,1.049032 1.0489551,1.0489551 0 0 1 -1.04902,1.049031 1.0489551,1.0489551 0 0 1 -1.04905,-1.049031 1.0489551,1.0489551 0 0 1 1.04905,-1.049032 z m -293.75211,5.17e-4 a 1.0489551,1.0489551 0 0 1 1.04905,1.049031 1.0489551,1.0489551 0 0 1 -1.04905,1.049032 1.0489551,1.0489551 0 0 1 -1.04902,-1.049032 1.0489551,1.0489551 0 0 1 1.04902,-1.049031 z m 195.83508,0 a 1.0489551,1.0489551 0 0 1 1.04902,1.049031 1.0489551,1.0489551 0 0 1 -1.04902,1.049032 1.0489551,1.0489551 0 0 1 -1.04902,-1.049032 1.0489551,1.0489551 0 0 1 1.04902,-1.049031 z m -97.91806,5.17e-4 a 1.0489551,1.0489551 0 0 1 1.04905,1.049031 1.0489551,1.0489551 0 0 1 -1.04905,1.049032 1.0489551,1.0489551 0 0 1 -1.04902,-1.049032 1.0489551,1.0489551 0 0 1 1.04902,-1.049031 z m -91.39287,7.573698 h 14.00072 v 1.000972 h 0.79994 v 3.100069 h -0.79994 v 5.798613 h 0.79994 v 3.101101 h -0.79994 v 0.99994 h -14.00072 v -0.99994 h -0.80047 v -3.101101 h 0.80047 v -5.798613 h -0.80047 v -3.100069 h 0.80047 z m 19.05053,0 h 14.00019 v 1.000972 h 0.79994 v 3.100069 h -0.79994 v 5.798613 h 0.79994 v 3.101101 h -0.79994 v 0.99994 h -14.00019 v -0.99994 h -0.79994 v -3.101101 h 0.79994 v -5.798613 h -0.79994 v -3.100069 h 0.79994 z m 19.05,0 h 14.00019 v 1.000972 h 0.79994 v 3.100069 h -0.79994 v 5.798613 h 0.79994 v 3.101101 h -0.79994 v 0.99994 h -14.00019 v -0.99994 h -0.79994 v -3.101101 h 0.79994 v -5.798613 h -0.79994 v -3.100069 h 0.79994 z m 19.05,0 h 14.00019 v 1.000972 h 0.79994 v 3.100069 h -0.79994 v 5.798613 h 0.79994 v 3.101101 h -0.79994 v 0.99994 h -14.00019 v -0.99994 h -0.79994 v -3.101101 h 0.79994 v -5.798613 h -0.79994 v -3.100069 h 0.79994 z m 19.05,0 h 14.00018 v 1.000972 h 0.79891 v 3.100069 h -0.79891 v 5.798613 h 0.79891 v 3.101101 h -0.79891 v 0.99994 h -14.00018 v -0.99994 h -0.79995 v -3.101101 h 0.79995 v -5.798613 h -0.79995 v -3.100069 h 0.79995 z m 19.04947,0 h 13.99966 v 1.000972 h 0.79996 v 3.100069 h -0.79996 v 5.798613 h 0.79996 v 3.101101 h -0.79996 v 0.99994 h -13.99966 v -0.99994 h -0.79942 v -3.101101 h 0.79942 v -5.798613 h -0.79942 v -3.100069 h 0.79942 z m 19.05,0 h 14.00071 v 1.000972 h 0.79995 v 3.100069 h -0.79995 v 5.798613 h 0.79995 v 3.101101 h -0.79995 v 0.99994 h -14.00071 v -0.99994 h -0.80047 v -3.101101 h 0.80047 v -5.798613 h -0.80047 v -3.100069 h 0.80047 z m 19.05053,0 h 14.00018 v 1.000972 h 0.79995 v 3.100069 h -0.79995 v 5.798613 h 0.79995 v 3.101101 h -0.79995 v 0.99994 h -14.00018 v -0.99994 h -0.79995 v -3.101101 h 0.79995 v -5.798613 h -0.79995 v -3.100069 h 0.79995 z m 19.05,0 h 14.00018 v 1.000972 h 0.79995 v 3.100069 h -0.79995 v 5.798613 h 0.79995 v 3.101101 h -0.79995 v 0.99994 h -14.00018 v -0.99994 h -0.79995 v -3.101101 h 0.79995 v -5.798613 h -0.79995 v -3.100069 h 0.79995 z m 19.04999,0 h 14.00019 v 1.000972 h 0.79994 v 3.100069 h -0.79994 v 5.798613 h 0.79994 v 3.101101 h -0.79994 v 0.99994 h -14.00019 v -0.99994 h -0.79994 v -3.101101 h 0.79994 v -5.798613 h -0.79994 v -3.100069 h 0.79994 z m 19.05,0 h 14.00019 v 1.000972 h 0.79994 v 3.100069 h -0.79994 v 5.798613 h 0.79994 v 3.101101 h -0.79994 v 0.99994 h -14.00019 v -0.99994 h -0.79994 v -3.101101 h 0.79994 v -5.798613 h -0.79994 v -3.100069 h 0.79994 z m 19.05,0 h 14.00019 v 1.000972 h 0.79994 v 3.100069 h -0.79994 v 5.798613 h 0.79994 v 3.101101 h -0.79994 v 0.99994 h -14.00019 v -0.99994 h -0.79994 v -3.101101 h 0.79994 v -5.798613 h -0.79994 v -3.100069 h 0.79994 z m 19.05,0 h 14.00019 v 1.000972 h 0.79994 v 3.100069 h -0.79994 v 5.798613 h 0.79994 v 3.101101 h -0.79994 v 0.99994 h -14.00019 v -0.99994 h -0.79994 v -3.101101 h 0.79994 v -5.798613 h -0.79994 v -3.100069 h 0.79994 z m 19.05,0 h 14.00019 v 1.000972 h 0.79994 v 3.100069 h -0.79994 v 5.798613 h 0.79994 v 3.101101 h -0.79994 v 0.99994 h -14.00019 v -0.99994 h -0.79994 v -3.101101 h 0.79994 v -5.798613 h -0.79994 v -3.100069 h 0.79994 z m 19.05,0 h 14.00019 v 1.000972 h 0.79994 v 3.100069 h -0.79994 v 5.798613 h 0.79994 v 3.101101 h -0.79994 v 0.99994 h -14.00019 v -0.99994 h -0.79994 v -3.101101 h 0.79994 v -5.798613 h -0.79994 v -3.100069 h 0.79994 z M 327.94123,46.852764 h 14.00019 v 0.99994 h 0.79994 v 3.100067 h -0.79994 v 5.799648 h 0.79994 v 3.100067 h -0.79994 v 0.99994 h -14.00019 v -0.99994 h -0.79994 v -3.100067 h 0.79994 v -5.799648 h -0.79994 v -3.100067 h 0.79994 z m 23.81303,0 h 14.00019 v 0.99994 h 0.79994 v 3.100067 h -0.79994 v 5.799648 h 0.79994 v 3.100067 h -0.79994 v 0.99994 h -14.00019 v -0.99994 h -0.79994 v -3.100067 h 0.79994 v -5.799648 h -0.79994 v -3.100067 h 0.79994 z m 19.05,0 h 14.00019 v 0.99994 h 0.79994 v 3.100067 h -0.79994 v 5.799648 h 0.79994 v 3.100067 h -0.79994 v 0.99994 h -14.00019 v -0.99994 h -0.79994 v -3.100067 h 0.79994 v -5.799648 h -0.79994 v -3.100067 h 0.79994 z m 19.05,0 h 14.00018 v 0.99994 h 0.79995 v 3.100067 h -0.79995 v 5.799648 h 0.79995 v 3.100067 h -0.79995 v 0.99994 h -14.00018 v -0.99994 h -0.79995 v -3.100067 h 0.79995 v -5.799648 h -0.79995 v -3.100067 h 0.79995 z m 19.05,0 h 14.00018 v 0.99994 h 0.79995 v 3.100067 h -0.79995 v 5.799648 h 0.79995 v 3.100067 h -0.79995 v 0.99994 h -14.00018 v -0.99994 h -0.79995 v -3.100067 h 0.79995 v -5.799648 h -0.79995 v -3.100067 h 0.79995 z m 19.05,0 h 14.00018 v 0.99994 h 0.79995 v 3.100067 h -0.79995 v 5.799648 h 0.79995 v 3.100067 h -0.79995 v 0.99994 h -14.00018 v -0.99994 h -0.79995 v -3.100067 h 0.79995 v -5.799648 h -0.79995 v -3.100067 h 0.79995 z m 19.05,0 h 14.00018 v 0.99994 h 0.79995 v 3.100067 h -0.79995 v 5.799648 h 0.79995 v 3.100067 h -0.79995 v 0.99994 h -14.00018 v -0.99994 h -0.801 v -3.100067 h 0.801 v -5.799648 h -0.801 v -3.100067 h 0.801 z m 19.05,0 h 14.00018 v 0.99994 h 0.79995 v 3.100067 h -0.79995 v 5.799648 h 0.79995 v 3.100067 h -0.79995 v 0.99994 h -14.00018 v -0.99994 h -0.79995 v -3.100067 h 0.79995 v -5.799648 h -0.79995 v -3.100067 h 0.79995 z m 19.04999,0 h 14.00019 v 0.99994 h 0.79995 v 3.100067 h -0.79995 v 5.799648 h 0.79995 v 3.100067 h -0.79995 v 0.99994 h -14.00019 v -0.99994 h -0.79994 v -3.100067 h 0.79994 v -5.799648 h -0.79994 v -3.100067 h 0.79994 z m 19.05,0 h 14.00019 v 0.99994 h 0.79994 v 3.100067 h -0.79994 v 5.799648 h 0.79994 v 3.100067 h -0.79994 v 0.99994 h -14.00019 v -0.99994 h -0.79994 v -3.100067 h 0.79994 v -5.799648 h -0.79994 v -3.100067 h 0.79994 z m 19.05,0 h 14.00019 v 0.99994 h 0.79994 v 3.100067 h -0.79994 v 5.799648 h 0.79994 v 3.100067 h -0.79994 v 0.99994 h -14.00019 v -0.99994 h -0.79994 v -3.100067 h 0.79994 v -5.799648 h -0.79994 v -3.100067 h 0.79994 z m 19.05,0 h 14.00019 v 0.99994 h 0.79994 v 3.100067 h -0.79994 v 5.799648 h 0.79994 v 3.100067 h -0.79994 v 0.99994 h -14.00019 v -0.99994 h -0.79994 v -3.100067 h 0.79994 v -5.799648 h -0.79994 v -3.100067 h 0.79994 z m 19.05,0 h 14.00019 v 0.99994 h 0.79994 v 3.100067 h -0.79994 v 5.799648 h 0.79994 v 3.100067 h -0.79994 v 0.99994 h -14.00019 v -0.99994 h -0.79994 v -3.100067 h 0.79994 v -5.799648 h -0.79994 v -3.100067 h 0.79994 z m 23.81197,0 h 14.00019 v 0.99994 h 0.79994 v 3.100067 h -0.79994 v 5.799648 h 0.79994 v 3.100067 h -0.79994 v 0.99994 h -14.00019 v -0.99994 h -0.79994 v -3.100067 h 0.79994 v -5.799648 h -0.79994 v -3.100067 h 0.79994 z m -238.8867,4.196127 a 2.4551942,2.4551941 0 0 1 2.45515,2.455146 2.4551942,2.4551941 0 0 1 -2.45515,2.455148 2.4551942,2.4551941 0 0 1 -2.45515,-2.455148 2.4551942,2.4551941 0 0 1 2.45515,-2.455146 z m 234.84821,5.16e-4 a 2.4551941,2.4551939 0 0 1 2.45565,2.455146 2.4551941,2.4551939 0 0 1 -2.45565,2.455148 2.4551941,2.4551939 0 0 1 -2.45515,-2.455148 2.4551941,2.4551939 0 0 1 2.45515,-2.455146 z M 330.32248,65.902764 h 14.00019 v 0.999939 h 0.79994 v 3.100068 h -0.79994 v 5.799648 h 0.79994 v 3.100067 h -0.79994 v 0.99994 h -14.00019 v -0.99994 h -0.79994 v -3.100067 h 0.79994 v -5.799648 h -0.79994 v -3.100068 h 0.79994 z m 26.19375,0 h 14.00019 v 0.999939 h 0.79994 v 3.100068 h -0.79994 v 5.799648 h 0.79994 v 3.100067 h -0.79994 v 0.99994 h -14.00019 v -0.99994 h -0.79994 v -3.100067 h 0.79994 v -5.799648 h -0.79994 v -3.100068 h 0.79994 z m 19.05,0 h 14.00019 v 0.999939 h 0.79994 v 3.100068 h -0.79994 v 5.799648 h 0.79994 v 3.100067 h -0.79994 v 0.99994 h -14.00019 v -0.99994 h -0.79994 v -3.100067 h 0.79994 v -5.799648 h -0.79994 v -3.100068 h 0.79994 z m 19.05,0 h 14.00019 v 0.999939 h 0.79994 v 3.100068 h -0.79994 v 5.799648 h 0.79994 v 3.100067 h -0.79994 v 0.99994 h -14.00019 v -0.99994 h -0.79994 v -3.100067 h 0.79994 v -5.799648 h -0.79994 v -3.100068 h 0.79994 z m 19.05,0 h 14.00019 v 0.999939 h 0.79994 v 3.100068 h -0.79994 v 5.799648 h 0.79994 v 3.100067 h -0.79994 v 0.99994 h -14.00019 v -0.99994 h -0.79994 v -3.100067 h 0.79994 v -5.799648 h -0.79994 v -3.100068 h 0.79994 z m 19.05,0 h 14.00019 v 0.999939 h 0.79994 v 3.100068 h -0.79994 v 5.799648 h 0.79994 v 3.100067 h -0.79994 v 0.99994 h -14.00019 v -0.99994 h -0.79994 v -3.100067 h 0.79994 v -5.799648 h -0.79994 v -3.100068 h 0.79994 z m 19.05,0 h 14.00019 v 0.999939 h 0.79994 v 3.100068 h -0.79994 v 5.799648 h 0.79994 v 3.100067 h -0.79994 v 0.99994 h -14.00019 v -0.99994 h -0.79994 v -3.100067 h 0.79994 v -5.799648 h -0.79994 v -3.100068 h 0.79994 z m 19.05,0 h 14.00018 v 0.999939 h 0.79995 v 3.100068 h -0.79995 v 5.799648 h 0.79995 v 3.100067 h -0.79995 v 0.99994 h -14.00018 v -0.99994 h -0.79995 v -3.100067 h 0.79995 v -5.799648 h -0.79995 v -3.100068 h 0.79995 z m 19.05,0 h 14.00018 v 0.999939 h 0.79995 v 3.100068 h -0.79995 v 5.799648 h 0.79995 v 3.100067 h -0.79995 v 0.99994 h -14.00018 v -0.99994 h -0.79995 v -3.100067 h 0.79995 v -5.799648 h -0.79995 v -3.100068 h 0.79995 z m 19.05,0 h 14.00018 v 0.999939 h 0.79995 v 3.100068 h -0.79995 v 5.799648 h 0.79995 v 3.100067 h -0.79995 v 0.99994 h -14.00018 v -0.99994 h -0.79995 v -3.100067 h 0.79995 v -5.799648 h -0.79995 v -3.100068 h 0.79995 z m 19.05,0 h 14.00018 v 0.999939 h 0.79995 v 3.100068 h -0.79995 v 5.799648 h 0.79995 v 3.100067 h -0.79995 v 0.99994 h -14.00018 v -0.99994 h -0.79995 v -3.100067 h 0.79995 v -5.799648 h -0.79995 v -3.100068 h 0.79995 z m 19.05,0 h 14.00018 v 0.999939 h 0.79995 v 3.100068 h -0.79995 v 5.799648 h 0.79995 v 3.100067 h -0.79995 v 0.99994 h -14.00018 v -0.99994 h -0.79995 v -3.100067 h 0.79995 v -5.799648 h -0.79995 v -3.100068 h 0.79995 z m 30.95624,0 h 14.00019 v 0.999939 h 0.79994 v 3.100068 h -0.79994 v 0.599963 h 1.52498 v -3.230292 h 6.74997 v 3.230292 h 0.82476 v 2.799829 h -0.82476 v 6.269903 h -1.72495 v 1.199925 h -3.30007 v -1.199925 h -1.72495 v -4.470011 h -1.52498 v 0.599964 h 0.79994 v 3.100067 h -0.79994 v 0.99994 h -14.00019 v -0.99994 h -0.79994 v -3.100067 h 0.79994 v -0.599964 h -1.52495 v 4.470011 h -1.72498 v 1.199925 h -3.30004 v -1.199925 h -1.72497 v -6.269903 h -0.82527 v -2.799829 h 0.82527 v -3.230292 h 6.74999 v 3.230292 h 1.52495 v -0.599963 h -0.79994 v -3.100068 h 0.79994 z m -128.74251,4.545975 a 2.4551942,2.4551941 0 0 1 2.45515,2.455148 2.4551942,2.4551941 0 0 1 -2.45515,2.455664 2.4551942,2.4551941 0 0 1 -2.45515,-2.455664 2.4551942,2.4551941 0 0 1 2.45515,-2.455148 z m -124.88127,9.187037 a 2.4551942,2.4551941 0 0 1 2.45515,2.455145 2.4551942,2.4551941 0 0 1 -2.45515,2.455149 2.4551942,2.4551941 0 0 1 -0.0946,-0.0047 v 0.0088 h -0.86299 v -0.0047 a 2.4551942,2.4551941 0 0 1 -0.0956,0.0052 2.4551942,2.4551941 0 0 1 -2.45514,-2.455148 2.4551942,2.4551941 0 0 1 2.45514,-2.455146 2.4551942,2.4551941 0 0 1 0.0956,0.0046 v -0.0046 h 0.86299 v 5.16e-4 a 2.4551942,2.4551941 0 0 1 0.0946,-0.0052 z m 279.4124,0.0041 a 2.4551943,2.4551941 0 0 1 2.45515,2.455148 2.4551943,2.4551941 0 0 1 -2.45515,2.455148 2.4551943,2.4551941 0 0 1 -0.0946,-0.0047 v 0.0088 h -0.86302 v -0.0047 a 2.4551943,2.4551941 0 0 1 -0.0956,0.0052 2.4551943,2.4551941 0 0 1 -2.45515,-2.455146 2.4551943,2.4551941 0 0 1 2.45515,-2.455148 2.4551943,2.4551941 0 0 1 0.0956,0.0047 v -0.0047 h 0.86302 v 5.16e-4 a 2.4551943,2.4551941 0 0 1 0.0946,-0.0052 z M 332.70373,84.95273 h 14.00072 v 0.99994 h 0.79891 v 3.099035 h -0.79891 v 0.600996 h 1.52392 v -3.230292 h 6.74997 v 3.230292 h 0.82632 v 2.799829 h -0.82632 v 6.269903 h -1.72495 v 1.199925 h -3.29901 v -1.199925 h -1.72601 v -4.470011 h -1.52392 v 0.599963 h 0.79891 v 3.100068 h -0.79891 v 0.99994 h -14.00072 v -0.99994 h -0.80047 v -3.100068 h 0.80047 v -0.599963 h -1.52445 v 4.470011 h -1.72598 v 1.199925 h -3.30007 v -1.199925 h -1.72392 V 92.45253 h -0.82579 v -2.799829 h 0.82579 v -3.230292 h 6.74997 v 3.230292 h 1.52445 v -0.600996 h -0.80047 V 85.95267 h 0.80047 z m 28.57553,0 h 14.00019 v 0.99994 h 0.79994 v 3.099035 h -0.79994 v 5.80068 h 0.79994 v 3.100068 h -0.79994 v 0.99994 h -14.00019 v -0.99994 h -0.79994 v -3.100068 h 0.79994 v -5.80068 h -0.79994 V 85.95267 h 0.79994 z m 19.05,0 h 14.00019 v 0.99994 h 0.79994 v 3.099035 h -0.79994 v 5.80068 h 0.79994 v 3.100068 h -0.79994 v 0.99994 h -14.00019 v -0.99994 h -0.79994 v -3.100068 h 0.79994 v -5.80068 h -0.79994 V 85.95267 h 0.79994 z m 19.05,0 h 14.00018 v 0.99994 h 0.79891 v 3.099035 h -0.79891 v 5.80068 h 0.79891 v 3.100068 h -0.79891 v 0.99994 h -14.00018 v -0.99994 h -0.79995 v -3.100068 h 0.79995 v -5.80068 h -0.79995 V 85.95267 h 0.79995 z m 19.04947,0 h 13.99966 v 0.99994 h 0.79996 v 3.099035 h -0.79996 v 5.80068 h 0.79996 v 3.100068 h -0.79996 v 0.99994 h -13.99966 v -0.99994 h -0.79942 v -3.100068 h 0.79942 v -5.80068 h -0.79942 V 85.95267 h 0.79942 z m 19.05,0 h 14.00071 v 0.99994 h 0.79995 v 3.099035 h -0.79995 v 5.80068 h 0.79995 v 3.100068 h -0.79995 v 0.99994 h -14.00071 v -0.99994 h -0.80047 v -3.100068 h 0.80047 v -5.80068 h -0.80047 V 85.95267 h 0.80047 z m 19.05053,0 h 14.00018 v 0.99994 h 0.79995 v 3.099035 h -0.79995 v 5.80068 h 0.79995 v 3.100068 h -0.79995 v 0.99994 h -14.00018 v -0.99994 h -0.79995 v -3.100068 h 0.79995 v -5.80068 h -0.79995 V 85.95267 h 0.79995 z m 19.05,0 h 14.00018 v 0.99994 h 0.79995 v 3.099035 h -0.79995 v 5.80068 h 0.79995 v 3.100068 h -0.79995 v 0.99994 h -14.00018 v -0.99994 h -0.79995 v -3.100068 h 0.79995 v -5.80068 h -0.79995 V 85.95267 h 0.79995 z m 19.04999,0 h 14.00019 v 0.99994 h 0.79994 v 3.099035 h -0.79994 v 5.80068 h 0.79994 v 3.100068 h -0.79994 v 0.99994 h -14.00019 v -0.99994 h -0.79994 v -3.100068 h 0.79994 v -5.80068 h -0.79994 V 85.95267 h 0.79994 z m 19.05,0 h 14.00019 v 0.99994 h 0.79994 v 3.099035 h -0.79994 v 5.80068 h 0.79994 v 3.100068 h -0.79994 v 0.99994 h -14.00019 v -0.99994 h -0.79994 v -3.100068 h 0.79994 v -5.80068 h -0.79994 V 85.95267 h 0.79994 z m 19.05,0 h 14.00019 v 0.99994 h 0.79994 v 3.099035 h -0.79994 v 5.80068 h 0.79994 v 3.100068 h -0.79994 v 0.99994 h -14.00019 v -0.99994 h -0.79994 v -3.100068 h 0.79994 v -5.80068 h -0.79994 V 85.95267 h 0.79994 z m 19.05,0 h 14.00019 v 0.99994 h 0.79994 v 3.099035 h -0.79994 v 5.80068 h 0.79994 v 3.100068 h -0.79994 v 0.99994 h -14.00019 v -0.99994 h -0.79994 v -3.100068 h 0.79994 v -5.80068 h -0.79994 V 85.95267 h 0.79994 z m 19.05,0 h 14.00019 v 0.99994 h 0.79994 v 3.099035 h -0.79994 v 5.80068 h 0.79994 v 3.100068 h -0.79994 v 0.99994 h -14.00019 v -0.99994 h -0.79994 v -3.100068 h 0.79994 v -5.80068 h -0.79994 V 85.95267 h 0.79994 z m 19.05,0 h 14.00019 v 0.99994 h 0.79994 v 3.099035 h -0.79994 v 5.80068 h 0.79994 v 3.100068 h -0.79994 v 0.99994 h -14.00019 v -0.99994 h -0.79994 v -3.100068 h 0.79994 v -5.80068 h -0.79994 V 85.95267 h 0.79994 z m -264.31874,19.05 h 14.00019 v 0.99994 h 0.79994 v 3.09904 h -0.79994 v 5.80068 h 0.79994 v 3.10007 h -0.79994 v 0.99994 h -14.00019 v -0.99994 h -0.79994 v -3.10007 h 0.79994 v -5.80068 h -0.79994 v -3.09904 h 0.79994 z m 23.81197,0 h 14.00019 v 0.99994 h 0.79994 v 3.09904 h -0.79994 v 5.80068 h 0.79994 v 3.10007 h -0.79994 v 0.99994 h -14.00019 v -0.99994 h -0.79994 v -3.10007 h 0.79994 v -5.80068 h -0.79994 v -3.09904 h 0.79994 z m 23.81303,0 h 14.00019 v 0.99994 h 0.79994 v 3.09904 h -0.79994 v 5.80068 h 0.79994 v 3.10007 h -0.79994 v 0.99994 h -14.00019 v -0.99994 h -0.801 v -3.10007 h 0.801 v -5.80068 h -0.801 v -3.09904 h 0.801 z m 71.43697,0 h 14.00019 v 0.99994 h 0.79994 v 3.09904 h -0.79994 v 0.60099 h 39.62497 v -3.23029 h 6.74997 v 3.23029 h 0.82476 v 2.79983 h -0.82476 v 6.26887 h -1.72495 v 1.20096 h -3.30007 v -1.20096 h -1.72495 v -4.47001 h -39.62497 v 0.601 h 0.79994 v 3.10007 h -0.79994 v 0.99994 h -14.00019 v -0.99994 h -0.79994 v -3.10007 h 0.79994 v -0.601 h -39.62496 v 4.47001 h -1.72497 v 1.20096 h -3.30005 v -1.20096 h -1.72497 v -6.26887 h -0.82526 v -2.79983 h 0.82526 v -3.23029 h 6.74999 v 3.23029 h 39.62496 v -0.60099 h -0.79994 v -3.09904 h 0.79994 z m 69.05677,0 h 14.00019 v 0.99994 h 0.79994 v 3.09904 h -0.79994 v 5.80068 h 0.79994 v 3.10007 h -0.79994 v 0.99994 h -14.00019 v -0.99994 h -0.79994 v -3.10007 h 0.79994 v -1.90841 a 2.4551942,2.4551939 0 0 1 -2.14817,1.2671 2.4551942,2.4551939 0 0 1 -2.45515,-2.45515 2.4551942,2.4551939 0 0 1 2.45515,-2.45515 2.4551942,2.4551939 0 0 1 2.14817,1.27228 v -1.52135 h -0.79994 v -3.09904 h 0.79994 z m 19.05,0 h 14.00019 v 0.99994 h 0.79994 v 3.09904 h -0.79994 v 5.80068 h 0.79994 v 3.10007 h -0.79994 v 0.99994 h -14.00019 v -0.99994 h -0.79994 v -3.10007 h 0.79994 v -5.80068 h -0.79994 v -3.09904 h 0.79994 z m 19.05,0 h 14.00019 v 0.99994 h 0.79994 v 3.09904 h -0.79994 v 5.80068 h 0.79994 v 3.10007 h -0.79994 v 0.99994 h -14.00019 v -0.99994 h -0.79994 v -3.10007 h 0.79994 v -5.80068 h -0.79994 v -3.09904 h 0.79994 z m 19.05,0 h 14.00019 v 0.99994 h 0.79994 v 3.09904 h -0.79994 v 5.80068 h 0.79994 v 3.10007 h -0.79994 v 0.99994 h -14.00019 v -0.99994 h -0.79994 v -3.10007 h 0.79994 v -5.80068 h -0.79994 v -3.09904 h 0.79994 z m 19.05,0 h 14.00019 v 0.99994 h 0.79994 v 3.09904 h -0.79994 v 5.80068 h 0.79994 v 3.10007 h -0.79994 v 0.99994 h -14.00019 v -0.99994 h -0.79994 v -3.10007 h 0.79994 v -5.80068 h -0.79994 v -3.09904 h 0.79994 z M 414.5711,123.47806 a 1.0489551,1.0489551 0 0 1 1.04902,1.04903 1.0489551,1.0489551 0 0 1 -1.04902,1.04903 1.0489551,1.0489551 0 0 1 -1.04904,-1.04903 1.0489551,1.0489551 0 0 1 1.04904,-1.04903 z m 97.91753,0 a 1.0489551,1.0489551 0 0 1 1.04902,1.04903 1.0489551,1.0489551 0 0 1 -1.04902,1.04903 1.0489551,1.0489551 0 0 1 -1.04905,-1.04903 1.0489551,1.0489551 0 0 1 1.04905,-1.04903 z m -195.83352,5.2e-4 a 1.0489551,1.0489551 0 0 1 1.04902,1.04903 1.0489551,1.0489551 0 0 1 -1.04902,1.04903 1.0489551,1.0489551 0 0 1 -1.04905,-1.04903 1.0489551,1.0489551 0 0 1 1.04905,-1.04903 z m 293.75158,5.1e-4 a 1.0489551,1.0489551 0 0 1 1.04902,1.04904 1.0489551,1.0489551 0 0 1 -1.04902,1.04903 1.0489551,1.0489551 0 0 1 -1.04905,-1.04903 1.0489551,1.0489551 0 0 1 1.04905,-1.04904 z"
       id="polygon5050"
       inkscape:connector-curvature="0" />
  </g>
  <g
     inkscape:groupmode="layer"
     id="layer8"
     inkscape:label="gh60plate"
     style="display:none"
     transform="translate(-2.5589898,-12.181787)">
    <g
       id="g9167"
       transform="translate(10.6527,8.38727)"
       style="display:inline;stroke:#000000;stroke-opacity:1">
      <polygon
         id="polygon8952"
         style="fill:none;stroke:#000000;stroke-width:0.05mm;stroke-opacity:1"
         points="11.066,61.053 10.711,60.356 10.158,59.803 9.462,59.448 8.69,59.326 5.188,59.326 5.189,8.163 5.198,7.927 5.225,7.693 5.271,7.462 5.335,7.235 5.417,7.014 5.515,6.801 5.631,6.595 5.761,6.399 5.907,6.214 6.067,6.041 6.24,5.881 6.425,5.735 6.621,5.605 6.827,5.489 7.04,5.391 7.261,5.309 7.488,5.245 7.719,5.199 7.953,5.172 8.189,5.162 287.564,5.163 287.799,5.172 288.034,5.199 288.264,5.245 288.491,5.309 288.712,5.391 288.925,5.489 289.131,5.605 289.327,5.735 289.512,5.881 289.685,6.041 289.845,6.214 289.991,6.399 290.121,6.595 290.237,6.801 290.335,7.014 290.417,7.235 290.481,7.462 290.527,7.693 290.554,7.927 290.564,8.163 290.564,59.326 287.063,59.326 286.29,59.448 285.594,59.803 285.041,60.356 284.686,61.053 284.564,61.825 284.686,62.599 285.041,63.295 285.594,63.849 286.29,64.204 287.063,64.326 290.564,64.326 290.564,97.09 290.554,97.325 290.527,97.558 290.481,97.79 290.417,98.016 290.335,98.237 290.237,98.451 290.121,98.656 289.991,98.852 289.845,99.037 289.685,99.21 289.512,99.37 289.327,99.516 289.131,99.647 288.925,99.763 288.712,99.861 288.491,99.942 288.264,100.007 288.034,100.052 287.799,100.079 287.564,100.09 8.189,100.09 7.953,100.079 7.719,100.052 7.488,100.007 7.261,99.942 7.04,99.861 6.827,99.763 6.621,99.647 6.425,99.516 6.24,99.37 6.067,99.21 5.907,99.037 5.761,98.852 5.631,98.656 5.515,98.451 5.417,98.237 5.335,98.016 5.271,97.79 5.225,97.558 5.198,97.325 5.188,97.088 5.188,64.326 8.689,64.326 9.462,64.204 10.158,63.849 10.711,63.295 11.066,62.599 11.189,61.826 " />
      <polygon
         id="polygon8954"
         style="fill:none;stroke:#000000;stroke-width:0.05mm;stroke-opacity:1"
         points="142.97,93.025 182.595,93.025 182.595,97.495 184.32,97.495 184.32,98.695 187.62,98.695 187.62,97.495 189.345,97.495 189.345,91.225 190.169,91.225 190.169,88.425 189.345,88.425 189.345,85.195 182.595,85.195 182.595,88.425 142.97,88.425 142.97,87.826 143.769,87.826 143.769,84.725 142.97,84.725 142.97,83.725 128.97,83.725 128.97,84.725 128.169,84.725 128.169,87.826 128.97,87.826 128.97,88.425 89.345,88.425 89.345,85.195 82.595,85.195 82.595,88.425 81.77,88.425 81.77,91.225 82.595,91.225 82.595,97.495 84.32,97.495 84.32,98.695 87.62,98.695 87.62,97.495 89.345,97.495 89.345,93.025 128.97,93.025 128.97,93.626 128.169,93.626 128.169,96.725 128.97,96.725 128.97,97.725 142.97,97.725 142.97,96.725 143.769,96.725 143.769,93.626 142.97,93.626 " />
      <polygon
         id="polygon8956"
         style="fill:none;stroke:#000000;stroke-width:0.05mm;stroke-opacity:1"
         points="9.107,87.826 9.907,87.826 9.907,93.626 9.107,93.626 9.107,96.725 9.907,96.725 9.907,97.725 23.907,97.725 23.907,96.725 24.707,96.725 24.707,93.626 23.907,93.626 23.907,87.826 24.707,87.826 24.707,84.725 23.907,84.725 23.907,83.725 9.907,83.725 9.907,84.725 9.107,84.725 " />
      <polygon
         id="polygon8958"
         style="fill:none;stroke:#000000;stroke-width:0.05mm;stroke-opacity:1"
         points="32.919,87.826 33.719,87.826 33.719,93.626 32.919,93.626 32.919,96.725 33.719,96.725 33.719,97.725 47.719,97.725 47.719,96.725 48.52,96.725 48.52,93.626 47.719,93.626 47.719,87.826 48.52,87.826 48.52,84.725 47.719,84.725 47.719,83.725 33.719,83.725 33.719,84.725 32.919,84.725 " />
      <polygon
         id="polygon8960"
         style="fill:none;stroke:#000000;stroke-width:0.05mm;stroke-opacity:1"
         points="56.731,87.826 57.532,87.826 57.532,93.626 56.731,93.626 56.731,96.725 57.532,96.725 57.532,97.725 71.532,97.725 71.532,96.725 72.332,96.725 72.332,93.626 71.532,93.626 71.532,87.826 72.332,87.826 72.332,84.725 71.532,84.725 71.532,83.725 57.532,83.725 57.532,84.725 56.731,84.725 " />
      <polygon
         id="polygon8962"
         style="fill:none;stroke:#000000;stroke-width:0.05mm;stroke-opacity:1"
         points="198.025,89.305 197.899,89.056 197.346,88.504 196.649,88.148 195.876,88.026 195.103,88.148 194.406,88.504 193.853,89.056 193.499,89.754 193.376,90.526 193.499,91.299 193.853,91.995 194.406,92.549 195.103,92.903 195.876,93.026 196.649,92.903 197.346,92.549 197.899,91.995 198.025,91.746 198.025,93.626 197.226,93.626 197.226,96.725 198.025,96.725 198.025,97.725 212.025,97.725 212.025,96.725 212.826,96.725 212.826,93.626 212.025,93.626 212.025,87.826 212.826,87.826 212.826,84.725 212.025,84.725 212.025,83.725 198.025,83.725 198.025,84.725 197.226,84.725 197.226,87.826 198.025,87.826 " />
      <polygon
         id="polygon8964"
         style="fill:none;stroke:#000000;stroke-width:0.05mm;stroke-opacity:1"
         points="216.275,87.826 217.076,87.826 217.076,93.626 216.275,93.626 216.275,96.725 217.076,96.725 217.076,97.725 231.076,97.725 231.076,96.725 231.876,96.725 231.876,93.626 231.076,93.626 231.076,87.826 231.876,87.826 231.876,84.725 231.076,84.725 231.076,83.725 217.076,83.725 217.076,84.725 216.275,84.725 " />
      <polygon
         id="polygon8966"
         style="fill:none;stroke:#000000;stroke-width:0.05mm;stroke-opacity:1"
         points="235.326,87.826 236.126,87.826 236.126,93.626 235.326,93.626 235.326,96.725 236.126,96.725 236.126,97.725 250.126,97.725 250.126,96.725 250.925,96.725 250.925,93.626 250.126,93.626 250.126,87.826 250.925,87.826 250.925,84.725 250.126,84.725 250.126,83.725 236.126,83.725 236.126,84.725 235.326,84.725 " />
      <polygon
         id="polygon8968"
         style="fill:none;stroke:#000000;stroke-width:0.05mm;stroke-opacity:1"
         points="254.376,87.826 255.175,87.826 255.175,93.626 254.376,93.626 254.376,96.725 255.175,96.725 255.175,97.725 269.175,97.725 269.175,96.725 269.975,96.725 269.975,93.626 269.175,93.626 269.175,87.826 269.975,87.826 269.975,84.725 269.175,84.725 269.175,83.725 255.175,83.725 255.175,84.725 254.376,84.725 " />
      <polygon
         id="polygon8970"
         style="fill:none;stroke:#000000;stroke-width:0.05mm;stroke-opacity:1"
         points="273.425,87.826 274.225,87.826 274.225,93.626 273.425,93.626 273.425,96.725 274.225,96.725 274.225,97.725 288.225,97.725 288.225,96.725 289.025,96.725 289.025,93.626 288.225,93.626 288.225,87.826 289.025,87.826 289.025,84.725 288.225,84.725 288.225,83.725 274.225,83.725 274.225,84.725 273.425,84.725 " />
      <polygon
         id="polygon8972"
         style="fill:none;stroke:#000000;stroke-width:0.05mm;stroke-opacity:1"
         points="31.05,73.975 32.576,73.975 32.576,78.445 34.3,78.445 34.3,79.645 37.6,79.645 37.6,78.445 39.326,78.445 39.326,72.175 40.151,72.175 40.151,69.376 39.326,69.376 39.326,66.145 32.576,66.145 32.576,69.376 31.05,69.376 31.05,68.775 31.851,68.775 31.851,65.675 31.05,65.675 31.05,64.675 17.05,64.675 17.05,65.675 16.251,65.675 16.251,68.775 17.05,68.775 17.05,69.376 15.526,69.376 15.526,66.145 8.776,66.145 8.776,69.376 7.951,69.376 7.951,72.175 8.776,72.175 8.776,78.445 10.501,78.445 10.501,79.645 13.801,79.645 13.801,78.445 15.526,78.445 15.526,73.975 17.05,73.975 17.05,74.576 16.251,74.576 16.251,77.675 17.05,77.675 17.05,78.675 31.05,78.675 31.05,77.675 31.851,77.675 31.851,74.576 31.05,74.576 " />
      <polygon
         id="polygon8974"
         style="fill:none;stroke:#000000;stroke-width:0.05mm;stroke-opacity:1"
         points="44.826,68.775 45.626,68.775 45.626,74.576 44.826,74.576 44.826,77.675 45.626,77.675 45.626,78.675 59.626,78.675 59.626,77.675 60.425,77.675 60.425,74.576 59.626,74.576 59.626,68.775 60.425,68.775 60.425,65.675 59.626,65.675 59.626,64.675 45.626,64.675 45.626,65.675 44.826,65.675 " />
      <polygon
         id="polygon8976"
         style="fill:none;stroke:#000000;stroke-width:0.05mm;stroke-opacity:1"
         points="63.876,68.775 64.675,68.775 64.675,74.576 63.876,74.576 63.876,77.675 64.675,77.675 64.675,78.675 78.675,78.675 78.675,77.675 79.476,77.675 79.476,74.576 78.675,74.576 78.675,68.775 79.476,68.775 79.476,65.675 78.675,65.675 78.675,64.675 64.675,64.675 64.675,65.675 63.876,65.675 " />
      <polygon
         id="polygon8978"
         style="fill:none;stroke:#000000;stroke-width:0.05mm;stroke-opacity:1"
         points="82.925,68.775 83.726,68.775 83.726,74.576 82.925,74.576 82.925,77.675 83.726,77.675 83.726,78.675 97.726,78.675 97.726,77.675 98.526,77.675 98.526,74.576 97.726,74.576 97.726,68.775 98.526,68.775 98.526,65.675 97.726,65.675 97.726,64.675 83.726,64.675 83.726,65.675 82.925,65.675 " />
      <polygon
         id="polygon8980"
         style="fill:none;stroke:#000000;stroke-width:0.05mm;stroke-opacity:1"
         points="101.976,68.775 102.776,68.775 102.776,74.576 101.976,74.576 101.976,77.675 102.776,77.675 102.776,78.675 116.776,78.675 116.776,77.675 117.576,77.675 117.576,74.576 116.776,74.576 116.776,68.775 117.576,68.775 117.576,65.675 116.776,65.675 116.776,64.675 102.776,64.675 102.776,65.675 101.976,65.675 " />
      <polygon
         id="polygon8982"
         style="fill:none;stroke:#000000;stroke-width:0.05mm;stroke-opacity:1"
         points="121.026,68.775 121.826,68.775 121.826,74.576 121.026,74.576 121.026,77.675 121.826,77.675 121.826,78.675 135.826,78.675 135.826,77.675 136.626,77.675 136.626,74.576 135.826,74.576 135.826,68.775 136.626,68.775 136.626,65.675 135.826,65.675 135.826,64.675 121.826,64.675 121.826,65.675 121.026,65.675 " />
      <polygon
         id="polygon8984"
         style="fill:none;stroke:#000000;stroke-width:0.05mm;stroke-opacity:1"
         points="140.076,68.775 140.876,68.775 140.876,74.576 140.076,74.576 140.076,77.675 140.876,77.675 140.876,78.675 154.876,78.675 154.876,77.675 155.675,77.675 155.675,74.576 154.876,74.576 154.876,68.775 155.675,68.775 155.675,65.675 154.876,65.675 154.876,64.675 140.876,64.675 140.876,65.675 140.076,65.675 " />
      <polygon
         id="polygon8986"
         style="fill:none;stroke:#000000;stroke-width:0.05mm;stroke-opacity:1"
         points="159.126,68.775 159.925,68.775 159.925,74.576 159.126,74.576 159.126,77.675 159.925,77.675 159.925,78.675 173.925,78.675 173.925,77.675 174.726,77.675 174.726,74.576 173.925,74.576 173.925,68.775 174.726,68.775 174.726,65.675 173.925,65.675 173.925,64.675 159.925,64.675 159.925,65.675 159.126,65.675 " />
      <polygon
         id="polygon8988"
         style="fill:none;stroke:#000000;stroke-width:0.05mm;stroke-opacity:1"
         points="178.175,68.775 178.976,68.775 178.976,74.576 178.175,74.576 178.175,77.675 178.976,77.675 178.976,78.675 192.976,78.675 192.976,77.675 193.775,77.675 193.775,74.576 192.976,74.576 192.976,68.775 193.775,68.775 193.775,65.675 192.976,65.675 192.976,64.675 178.976,64.675 178.976,65.675 178.175,65.675 " />
      <polygon
         id="polygon8990"
         style="fill:none;stroke:#000000;stroke-width:0.05mm;stroke-opacity:1"
         points="197.226,68.775 198.025,68.775 198.025,74.576 197.226,74.576 197.226,77.675 198.025,77.675 198.025,78.675 212.025,78.675 212.025,77.675 212.826,77.675 212.826,74.576 212.025,74.576 212.025,68.775 212.826,68.775 212.826,65.675 212.025,65.675 212.025,64.675 198.025,64.675 198.025,65.675 197.226,65.675 " />
      <polygon
         id="polygon8992"
         style="fill:none;stroke:#000000;stroke-width:0.05mm;stroke-opacity:1"
         points="216.275,68.775 217.076,68.775 217.076,74.576 216.275,74.576 216.275,77.675 217.076,77.675 217.076,78.675 231.076,78.675 231.076,77.675 231.876,77.675 231.876,74.576 231.076,74.576 231.076,68.775 231.876,68.775 231.876,65.675 231.076,65.675 231.076,64.675 217.076,64.675 217.076,65.675 216.275,65.675 " />
      <polygon
         id="polygon8994"
         style="fill:none;stroke:#000000;stroke-width:0.05mm;stroke-opacity:1"
         points="235.326,68.775 236.126,68.775 236.126,74.576 235.326,74.576 235.326,77.675 236.126,77.675 236.126,78.675 250.126,78.675 250.126,77.675 250.925,77.675 250.925,74.576 250.126,74.576 250.126,68.775 250.925,68.775 250.925,65.675 250.126,65.675 250.126,64.675 236.126,64.675 236.126,65.675 235.326,65.675 " />
      <polygon
         id="polygon8996"
         style="fill:none;stroke:#000000;stroke-width:0.05mm;stroke-opacity:1"
         points="254.376,68.775 255.175,68.775 255.175,74.576 254.376,74.576 254.376,77.675 255.175,77.675 255.175,78.675 269.175,78.675 269.175,77.675 269.975,77.675 269.975,74.576 269.175,74.576 269.175,68.775 269.975,68.775 269.975,65.675 269.175,65.675 269.175,64.675 255.175,64.675 255.175,65.675 254.376,65.675 " />
      <polygon
         id="polygon8998"
         style="fill:none;stroke:#000000;stroke-width:0.05mm;stroke-opacity:1"
         points="273.425,68.775 274.225,68.775 274.225,74.576 273.425,74.576 273.425,77.675 274.225,77.675 274.225,78.675 288.225,78.675 288.225,77.675 289.025,77.675 289.025,74.576 288.225,74.576 288.225,68.775 289.025,68.775 289.025,65.675 288.225,65.675 288.225,64.675 274.225,64.675 274.225,65.675 273.425,65.675 " />
      <polygon
         id="polygon9000"
         style="fill:none;stroke:#000000;stroke-width:0.05mm;stroke-opacity:1"
         points="276.319,54.925 277.844,54.925 277.844,59.395 279.569,59.395 279.569,60.596 282.869,60.596 282.869,59.395 284.594,59.395 284.594,53.126 285.419,53.126 285.419,50.325 284.594,50.325 284.594,47.096 277.844,47.096 277.844,50.325 276.319,50.325 276.319,49.725 277.119,49.725 277.119,46.626 276.319,46.626 276.319,45.626 262.318,45.626 262.318,46.626 261.519,46.626 261.519,49.725 262.318,49.725 262.318,50.325 260.794,50.325 260.794,47.096 254.044,47.096 254.044,50.325 253.22,50.325 253.22,53.126 254.044,53.126 254.044,59.395 255.769,59.395 255.769,60.596 259.068,60.596 259.068,59.395 260.794,59.395 260.794,54.925 262.318,54.925 262.318,55.526 261.519,55.526 261.519,58.626 262.318,58.626 262.318,59.626 276.319,59.626 276.319,58.626 277.119,58.626 277.119,55.526 276.319,55.526 " />
      <polygon
         id="polygon9002"
         style="fill:none;stroke:#000000;stroke-width:0.05mm;stroke-opacity:1"
         points="13.87,49.725 14.67,49.725 14.67,55.526 13.87,55.526 13.87,58.626 14.67,58.626 14.67,59.626 28.67,59.626 28.67,58.626 29.47,58.626 29.47,55.526 28.67,55.526 28.67,49.725 29.47,49.725 29.47,46.626 28.67,46.626 28.67,45.626 14.67,45.626 14.67,46.626 13.87,46.626 " />
      <polygon
         id="polygon9004"
         style="fill:none;stroke:#000000;stroke-width:0.05mm;stroke-opacity:1"
         points="40.064,49.725 40.864,49.725 40.864,55.526 40.064,55.526 40.064,58.626 40.864,58.626 40.864,59.626 54.864,59.626 54.864,58.626 55.662,58.626 55.662,55.526 54.864,55.526 54.864,49.725 55.662,49.725 55.662,46.626 54.864,46.626 54.864,45.626 40.864,45.626 40.864,46.626 40.064,46.626 " />
      <polygon
         id="polygon9006"
         style="fill:none;stroke:#000000;stroke-width:0.05mm;stroke-opacity:1"
         points="59.114,49.725 59.912,49.725 59.912,55.526 59.114,55.526 59.114,58.626 59.912,58.626 59.912,59.626 73.913,59.626 73.913,58.626 74.713,58.626 74.713,55.526 73.913,55.526 73.913,49.725 74.713,49.725 74.713,46.626 73.913,46.626 73.913,45.626 59.912,45.626 59.912,46.626 59.114,46.626 " />
      <polygon
         id="polygon9008"
         style="fill:none;stroke:#000000;stroke-width:0.05mm;stroke-opacity:1"
         points="78.163,49.725 78.963,49.725 78.963,55.526 78.163,55.526 78.163,58.626 78.963,58.626 78.963,59.626 92.963,59.626 92.963,58.626 93.763,58.626 93.763,55.526 92.963,55.526 92.963,49.725 93.763,49.725 93.763,46.626 92.963,46.626 92.963,45.626 78.963,45.626 78.963,46.626 78.163,46.626 " />
      <polygon
         id="polygon9010"
         style="fill:none;stroke:#000000;stroke-width:0.05mm;stroke-opacity:1"
         points="97.213,49.725 98.013,49.725 98.013,55.526 97.213,55.526 97.213,58.626 98.013,58.626 98.013,59.626 112.013,59.626 112.013,58.626 112.812,58.626 112.812,55.526 112.013,55.526 112.013,49.725 112.812,49.725 112.812,46.626 112.013,46.626 112.013,45.626 98.013,45.626 98.013,46.626 97.213,46.626 " />
      <polygon
         id="polygon9012"
         style="fill:none;stroke:#000000;stroke-width:0.05mm;stroke-opacity:1"
         points="116.263,49.725 117.062,49.725 117.062,55.526 116.263,55.526 116.263,58.626 117.062,58.626 117.062,59.626 131.064,59.626 131.064,58.626 131.863,58.626 131.863,55.526 131.064,55.526 131.064,49.725 131.863,49.725 131.863,46.626 131.064,46.626 131.064,45.626 117.062,45.626 117.062,46.626 116.263,46.626 " />
      <polygon
         id="polygon9014"
         style="fill:none;stroke:#000000;stroke-width:0.05mm;stroke-opacity:1"
         points="135.312,49.725 136.113,49.725 136.113,55.526 135.312,55.526 135.312,58.626 136.113,58.626 136.113,59.626 150.113,59.626 150.113,58.626 150.913,58.626 150.913,55.526 150.113,55.526 150.113,49.725 150.913,49.725 150.913,46.626 150.113,46.626 150.113,45.626 136.113,45.626 136.113,46.626 135.312,46.626 " />
      <polygon
         id="polygon9016"
         style="fill:none;stroke:#000000;stroke-width:0.05mm;stroke-opacity:1"
         points="154.363,49.725 155.163,49.725 155.163,55.526 154.363,55.526 154.363,58.626 155.163,58.626 155.163,59.626 169.163,59.626 169.163,58.626 169.964,58.626 169.964,55.526 169.163,55.526 169.163,49.725 169.964,49.725 169.964,46.626 169.163,46.626 169.163,45.626 155.163,45.626 155.163,46.626 154.363,46.626 " />
      <polygon
         id="polygon9018"
         style="fill:none;stroke:#000000;stroke-width:0.05mm;stroke-opacity:1"
         points="173.413,49.725 174.214,49.725 174.214,55.526 173.413,55.526 173.413,58.626 174.214,58.626 174.214,59.626 188.214,59.626 188.214,58.626 189.013,58.626 189.013,55.526 188.214,55.526 188.214,49.725 189.013,49.725 189.013,46.626 188.214,46.626 188.214,45.626 174.214,45.626 174.214,46.626 173.413,46.626 " />
      <polygon
         id="polygon9020"
         style="fill:none;stroke:#000000;stroke-width:0.05mm;stroke-opacity:1"
         points="192.464,49.725 193.263,49.725 193.263,55.526 192.464,55.526 192.464,58.626 193.263,58.626 193.263,59.626 207.263,59.626 207.263,58.626 208.064,58.626 208.064,55.526 207.263,55.526 207.263,49.725 208.064,49.725 208.064,46.626 207.263,46.626 207.263,45.626 193.263,45.626 193.263,46.626 192.464,46.626 " />
      <polygon
         id="polygon9022"
         style="fill:none;stroke:#000000;stroke-width:0.05mm;stroke-opacity:1"
         points="211.513,49.725 212.314,49.725 212.314,55.526 211.513,55.526 211.513,58.626 212.314,58.626 212.314,59.626 226.314,59.626 226.314,58.626 227.114,58.626 227.114,55.526 226.314,55.526 226.314,49.725 227.114,49.725 227.114,46.626 226.314,46.626 226.314,45.626 212.314,45.626 212.314,46.626 211.513,46.626 " />
      <polygon
         id="polygon9024"
         style="fill:none;stroke:#000000;stroke-width:0.05mm;stroke-opacity:1"
         points="230.564,49.725 231.364,49.725 231.364,55.526 230.564,55.526 230.564,58.626 231.364,58.626 231.364,59.626 245.364,59.626 245.364,58.626 246.163,58.626 246.163,55.526 245.364,55.526 245.364,49.725 246.163,49.725 246.163,46.626 245.364,46.626 245.364,45.626 231.364,45.626 231.364,46.626 230.564,46.626 " />
      <polygon
         id="polygon9026"
         style="fill:none;stroke:#fa0000;stroke-width:0.05mm;stroke-opacity:1"
         points="131.197,51.853 131.077,52.627 131.197,53.398 131.554,54.096 132.107,54.648 132.804,55.004 133.577,55.127 134.349,55.004 135.046,54.648 135.599,54.096 135.953,53.398 136.077,52.627 135.953,51.853 135.599,51.157 135.046,50.603 134.349,50.248 133.577,50.127 132.804,50.248 132.107,50.603 131.554,51.157 " />
      <polygon
         id="polygon9028"
         style="fill:none;stroke:#000000;stroke-width:0.05mm;stroke-opacity:1"
         points="11.489,30.675 12.289,30.675 12.289,36.475 11.489,36.475 11.489,39.575 12.289,39.575 12.289,40.575 26.289,40.575 26.289,39.575 27.088,39.575 27.088,36.475 26.289,36.475 26.289,30.675 27.088,30.675 27.088,27.575 26.289,27.575 26.289,26.575 12.289,26.575 12.289,27.575 11.489,27.575 " />
      <polygon
         id="polygon9030"
         style="fill:none;stroke:#000000;stroke-width:0.05mm;stroke-opacity:1"
         points="35.3,30.675 36.1,30.675 36.1,36.475 35.3,36.475 35.3,39.575 36.1,39.575 36.1,40.575 50.1,40.575 50.1,39.575 50.901,39.575 50.901,36.475 50.1,36.475 50.1,30.675 50.901,30.675 50.901,27.575 50.1,27.575 50.1,26.575 36.1,26.575 36.1,27.575 35.3,27.575 " />
      <polygon
         id="polygon9032"
         style="fill:none;stroke:#000000;stroke-width:0.05mm;stroke-opacity:1"
         points="54.35,30.675 55.151,30.675 55.151,36.475 54.35,36.475 54.35,39.575 55.151,39.575 55.151,40.575 69.151,40.575 69.151,39.575 69.951,39.575 69.951,36.475 69.151,36.475 69.151,30.675 69.951,30.675 69.951,27.575 69.151,27.575 69.151,26.575 55.151,26.575 55.151,27.575 54.35,27.575 " />
      <polygon
         id="polygon9034"
         style="fill:none;stroke:#000000;stroke-width:0.05mm;stroke-opacity:1"
         points="73.401,30.675 74.201,30.675 74.201,36.475 73.401,36.475 73.401,39.575 74.201,39.575 74.201,40.575 88.201,40.575 88.201,39.575 89.001,39.575 89.001,36.475 88.201,36.475 88.201,30.675 89.001,30.675 89.001,27.575 88.201,27.575 88.201,26.575 74.201,26.575 74.201,27.575 73.401,27.575 " />
      <polygon
         id="polygon9036"
         style="fill:none;stroke:#000000;stroke-width:0.05mm;stroke-opacity:1"
         points="92.451,30.675 93.251,30.675 93.251,36.475 92.451,36.475 92.451,39.575 93.251,39.575 93.251,40.575 107.251,40.575 107.251,39.575 108.05,39.575 108.05,36.475 107.251,36.475 107.251,30.675 108.05,30.675 108.05,27.575 107.251,27.575 107.251,26.575 93.251,26.575 93.251,27.575 92.451,27.575 " />
      <polygon
         id="polygon9038"
         style="fill:none;stroke:#000000;stroke-width:0.05mm;stroke-opacity:1"
         points="111.501,30.675 112.3,30.675 112.3,36.475 111.501,36.475 111.501,39.575 112.3,39.575 112.3,40.575 126.3,40.575 126.3,39.575 127.101,39.575 127.101,36.475 126.3,36.475 126.3,30.675 127.101,30.675 127.101,27.575 126.3,27.575 126.3,26.575 112.3,26.575 112.3,27.575 111.501,27.575 " />
      <polygon
         id="polygon9040"
         style="fill:none;stroke:#000000;stroke-width:0.05mm;stroke-opacity:1"
         points="130.55,30.675 131.351,30.675 131.351,36.475 130.55,36.475 130.55,39.575 131.351,39.575 131.351,40.575 145.351,40.575 145.351,39.575 146.15,39.575 146.15,36.475 145.351,36.475 145.351,30.675 146.15,30.675 146.15,27.575 145.351,27.575 145.351,26.575 131.351,26.575 131.351,27.575 130.55,27.575 " />
      <polygon
         id="polygon9042"
         style="fill:none;stroke:#000000;stroke-width:0.05mm;stroke-opacity:1"
         points="149.601,30.675 150.4,30.675 150.4,36.475 149.601,36.475 149.601,39.575 150.4,39.575 150.4,40.575 164.4,40.575 164.4,39.575 165.201,39.575 165.201,36.475 164.4,36.475 164.4,30.675 165.201,30.675 165.201,27.575 164.4,27.575 164.4,26.575 150.4,26.575 150.4,27.575 149.601,27.575 " />
      <polygon
         id="polygon9044"
         style="fill:none;stroke:#000000;stroke-width:0.05mm;stroke-opacity:1"
         points="168.65,30.675 169.451,30.675 169.451,36.475 168.65,36.475 168.65,39.575 169.451,39.575 169.451,40.575 183.451,40.575 183.451,39.575 184.251,39.575 184.251,36.475 183.451,36.475 183.451,30.675 184.251,30.675 184.251,27.575 183.451,27.575 183.451,26.575 169.451,26.575 169.451,27.575 168.65,27.575 " />
      <polygon
         id="polygon9046"
         style="fill:none;stroke:#000000;stroke-width:0.05mm;stroke-opacity:1"
         points="187.701,30.675 188.501,30.675 188.501,36.475 187.701,36.475 187.701,39.575 188.501,39.575 188.501,40.575 202.501,40.575 202.501,39.575 203.3,39.575 203.3,36.475 202.501,36.475 202.501,30.675 203.3,30.675 203.3,27.575 202.501,27.575 202.501,26.575 188.501,26.575 188.501,27.575 187.701,27.575 " />
      <polygon
         id="polygon9048"
         style="fill:none;stroke:#000000;stroke-width:0.05mm;stroke-opacity:1"
         points="206.751,30.675 207.55,30.675 207.55,36.475 206.751,36.475 206.751,39.575 207.55,39.575 207.55,40.575 221.55,40.575 221.55,39.575 222.351,39.575 222.351,36.475 221.55,36.475 221.55,30.675 222.351,30.675 222.351,27.575 221.55,27.575 221.55,26.575 207.55,26.575 207.55,27.575 206.751,27.575 " />
      <polygon
         id="polygon9050"
         style="fill:none;stroke:#000000;stroke-width:0.05mm;stroke-opacity:1"
         points="225.8,30.675 226.601,30.675 226.601,36.475 225.8,36.475 225.8,39.575 226.601,39.575 226.601,40.575 240.601,40.575 240.601,39.575 241.4,39.575 241.4,36.475 240.601,36.475 240.601,30.675 241.4,30.675 241.4,27.575 240.601,27.575 240.601,26.575 226.601,26.575 226.601,27.575 225.8,27.575 " />
      <polygon
         id="polygon9052"
         style="fill:none;stroke:#000000;stroke-width:0.05mm;stroke-opacity:1"
         points="244.851,30.675 245.65,30.675 245.65,36.475 244.851,36.475 244.851,39.575 245.65,39.575 245.65,40.575 259.65,40.575 259.65,39.575 260.45,39.575 260.45,36.475 259.65,36.475 259.65,30.675 260.45,30.675 260.45,27.575 259.65,27.575 259.65,26.575 245.65,26.575 245.65,27.575 244.851,27.575 " />
      <polygon
         id="polygon9054"
         style="fill:none;stroke:#000000;stroke-width:0.05mm;stroke-opacity:1"
         points="268.663,30.675 269.463,30.675 269.463,36.475 268.663,36.475 268.663,39.575 269.463,39.575 269.463,40.575 283.463,40.575 283.463,39.575 284.263,39.575 284.263,36.475 283.463,36.475 283.463,30.675 284.263,30.675 284.263,27.575 283.463,27.575 283.463,26.575 269.463,26.575 269.463,27.575 268.663,27.575 " />
      <polygon
         id="polygon9056"
         style="fill:none;stroke:#000000;stroke-width:0.05mm;stroke-opacity:1"
         points="28.199,32.453 28.077,33.227 28.199,33.998 28.553,34.695 29.107,35.248 29.803,35.603 30.577,35.727 31.349,35.603 32.046,35.248 32.597,34.695 32.954,33.998 33.076,33.227 32.954,32.453 32.597,31.756 32.046,31.203 31.349,30.848 30.577,30.726 29.803,30.848 29.107,31.203 28.553,31.756 " />
      <polygon
         id="polygon9058"
         style="fill:none;stroke:#000000;stroke-width:0.05mm;stroke-opacity:1"
         points="263.048,32.453 262.926,33.227 263.048,33.998 263.403,34.695 263.956,35.248 264.653,35.603 265.426,35.727 266.198,35.603 266.895,35.248 267.448,34.695 267.803,33.998 267.926,33.227 267.803,32.453 267.448,31.756 266.895,31.203 266.198,30.848 265.426,30.726 264.653,30.848 263.956,31.203 263.403,31.756 " />
      <polygon
         id="polygon9060"
         style="fill:none;stroke:#000000;stroke-width:0.05mm;stroke-opacity:1"
         points="6.726,11.625 7.526,11.625 7.526,17.425 6.726,17.425 6.726,20.525 7.526,20.525 7.526,21.525 21.526,21.525 21.526,20.525 22.326,20.525 22.326,17.425 21.526,17.425 21.526,11.625 22.326,11.625 22.326,8.525 21.526,8.525 21.526,7.525 7.526,7.525 7.526,8.525 6.726,8.525 " />
      <polygon
         id="polygon9062"
         style="fill:none;stroke:#000000;stroke-width:0.05mm;stroke-opacity:1"
         points="25.776,11.625 26.576,11.625 26.576,17.425 25.776,17.425 25.776,20.525 26.576,20.525 26.576,21.525 40.576,21.525 40.576,20.525 41.376,20.525 41.376,17.425 40.576,17.425 40.576,11.625 41.376,11.625 41.376,8.525 40.576,8.525 40.576,7.525 26.576,7.525 26.576,8.525 25.776,8.525 " />
      <polygon
         id="polygon9064"
         style="fill:none;stroke:#000000;stroke-width:0.05mm;stroke-opacity:1"
         points="44.826,11.625 45.626,11.625 45.626,17.425 44.826,17.425 44.826,20.525 45.626,20.525 45.626,21.525 59.626,21.525 59.626,20.525 60.425,20.525 60.425,17.425 59.626,17.425 59.626,11.625 60.425,11.625 60.425,8.525 59.626,8.525 59.626,7.525 45.626,7.525 45.626,8.525 44.826,8.525 " />
      <polygon
         id="polygon9066"
         style="fill:none;stroke:#000000;stroke-width:0.05mm;stroke-opacity:1"
         points="63.876,11.625 64.675,11.625 64.675,17.425 63.876,17.425 63.876,20.525 64.675,20.525 64.675,21.525 78.675,21.525 78.675,20.525 79.476,20.525 79.476,17.425 78.675,17.425 78.675,11.625 79.476,11.625 79.476,8.525 78.675,8.525 78.675,7.525 64.675,7.525 64.675,8.525 63.876,8.525 " />
      <polygon
         id="polygon9068"
         style="fill:none;stroke:#000000;stroke-width:0.05mm;stroke-opacity:1"
         points="82.925,11.625 83.726,11.625 83.726,17.425 82.925,17.425 82.925,20.525 83.726,20.525 83.726,21.525 97.726,21.525 97.726,20.525 98.526,20.525 98.526,17.425 97.726,17.425 97.726,11.625 98.526,11.625 98.526,8.525 97.726,8.525 97.726,7.525 83.726,7.525 83.726,8.525 82.925,8.525 " />
      <polygon
         id="polygon9070"
         style="fill:none;stroke:#000000;stroke-width:0.05mm;stroke-opacity:1"
         points="101.976,11.625 102.776,11.625 102.776,17.425 101.976,17.425 101.976,20.525 102.776,20.525 102.776,21.525 116.776,21.525 116.776,20.525 117.576,20.525 117.576,17.425 116.776,17.425 116.776,11.625 117.576,11.625 117.576,8.525 116.776,8.525 116.776,7.525 102.776,7.525 102.776,8.525 101.976,8.525 " />
      <polygon
         id="polygon9072"
         style="fill:none;stroke:#000000;stroke-width:0.05mm;stroke-opacity:1"
         points="121.026,11.625 121.826,11.625 121.826,17.425 121.026,17.425 121.026,20.525 121.826,20.525 121.826,21.525 135.826,21.525 135.826,20.525 136.626,20.525 136.626,17.425 135.826,17.425 135.826,11.625 136.626,11.625 136.626,8.525 135.826,8.525 135.826,7.525 121.826,7.525 121.826,8.525 121.026,8.525 " />
      <polygon
         id="polygon9074"
         style="fill:none;stroke:#000000;stroke-width:0.05mm;stroke-opacity:1"
         points="140.076,11.625 140.876,11.625 140.876,17.425 140.076,17.425 140.076,20.525 140.876,20.525 140.876,21.525 154.876,21.525 154.876,20.525 155.675,20.525 155.675,17.425 154.876,17.425 154.876,11.625 155.675,11.625 155.675,8.525 154.876,8.525 154.876,7.525 140.876,7.525 140.876,8.525 140.076,8.525 " />
      <polygon
         id="polygon9076"
         style="fill:none;stroke:#000000;stroke-width:0.05mm;stroke-opacity:1"
         points="159.126,11.625 159.925,11.625 159.925,17.425 159.126,17.425 159.126,20.525 159.925,20.525 159.925,21.525 173.925,21.525 173.925,20.525 174.726,20.525 174.726,17.425 173.925,17.425 173.925,11.625 174.726,11.625 174.726,8.525 173.925,8.525 173.925,7.525 159.925,7.525 159.925,8.525 159.126,8.525 " />
      <polygon
         id="polygon9078"
         style="fill:none;stroke:#000000;stroke-width:0.05mm;stroke-opacity:1"
         points="178.175,11.625 178.976,11.625 178.976,17.425 178.175,17.425 178.175,20.525 178.976,20.525 178.976,21.525 192.976,21.525 192.976,20.525 193.775,20.525 193.775,17.425 192.976,17.425 192.976,11.625 193.775,11.625 193.775,8.525 192.976,8.525 192.976,7.525 178.976,7.525 178.976,8.525 178.175,8.525 " />
      <polygon
         id="polygon9080"
         style="fill:none;stroke:#000000;stroke-width:0.05mm;stroke-opacity:1"
         points="197.226,11.625 198.025,11.625 198.025,17.425 197.226,17.425 197.226,20.525 198.025,20.525 198.025,21.525 212.025,21.525 212.025,20.525 212.826,20.525 212.826,17.425 212.025,17.425 212.025,11.625 212.826,11.625 212.826,8.525 212.025,8.525 212.025,7.525 198.025,7.525 198.025,8.525 197.226,8.525 " />
      <polygon
         id="polygon9082"
         style="fill:none;stroke:#000000;stroke-width:0.05mm;stroke-opacity:1"
         points="216.275,11.625 217.076,11.625 217.076,17.425 216.275,17.425 216.275,20.525 217.076,20.525 217.076,21.525 231.076,21.525 231.076,20.525 231.876,20.525 231.876,17.425 231.076,17.425 231.076,11.625 231.876,11.625 231.876,8.525 231.076,8.525 231.076,7.525 217.076,7.525 217.076,8.525 216.275,8.525 " />
      <polygon
         id="polygon9084"
         style="fill:none;stroke:#000000;stroke-width:0.05mm;stroke-opacity:1"
         points="235.326,11.625 236.126,11.625 236.126,17.425 235.326,17.425 235.326,20.525 236.126,20.525 236.126,21.525 250.126,21.525 250.126,20.525 250.925,20.525 250.925,17.425 250.126,17.425 250.126,11.625 250.925,11.625 250.925,8.525 250.126,8.525 250.126,7.525 236.126,7.525 236.126,8.525 235.326,8.525 " />
      <polygon
         id="polygon9086"
         style="fill:none;stroke:#000000;stroke-width:0.05mm;stroke-opacity:1"
         points="254.376,11.625 255.175,11.625 255.175,17.425 254.376,17.425 254.376,20.525 255.175,20.525 255.175,21.525 269.175,21.525 269.175,20.525 269.975,20.525 269.975,17.425 269.175,17.425 269.175,11.625 269.975,11.625 269.975,8.525 269.175,8.525 269.175,7.525 255.175,7.525 255.175,8.525 254.376,8.525 " />
      <polygon
         id="polygon9088"
         style="fill:none;stroke:#000000;stroke-width:0.05mm;stroke-opacity:1"
         points="273.425,11.625 274.225,11.625 274.225,17.425 273.425,17.425 273.425,20.525 274.225,20.525 274.225,21.525 288.225,21.525 288.225,20.525 289.025,20.525 289.025,17.425 288.225,17.425 288.225,11.625 289.025,11.625 289.025,8.525 288.225,8.525 288.225,7.525 274.225,7.525 274.225,8.525 273.425,8.525 " />
    </g>
  </g>
  <g
     inkscape:groupmode="layer"
     id="layer7"
     inkscape:label="5mm"
     style="display:none"
     transform="translate(-2.5589898,-12.181787)">
    <ellipse
       style="display:inline;fill:none;fill-opacity:1;stroke:#fa0000;stroke-width:0.189;stroke-miterlimit:4;stroke-dasharray:none;stroke-opacity:1"
       id="path9384"
       cx="19.355236"
       cy="70.206108"
       rx="2.4551945"
       ry="2.4551942" />
  </g>
</svg>
