<?xml version="1.0" encoding="UTF-8" standalone="no"?>
<svg
   xmlns:dc="http://purl.org/dc/elements/1.1/"
   xmlns:cc="http://creativecommons.org/ns#"
   xmlns:rdf="http://www.w3.org/1999/02/22-rdf-syntax-ns#"
   xmlns:svg="http://www.w3.org/2000/svg"
   xmlns="http://www.w3.org/2000/svg"
   xmlns:sodipodi="http://sodipodi.sourceforge.net/DTD/sodipodi-0.dtd"
   xmlns:inkscape="http://www.inkscape.org/namespaces/inkscape"
   sodipodi:docname="pix.svg"
   inkscape:version="1.0beta2 (2b71d25, 2019-12-03)"
   id="svg8"
   version="1.1"
   viewBox="0 0 339.91138 140"
   height="140mm"
   width="339.91138mm">
  <defs
     id="defs2">
    <marker
       style="overflow:visible"
       refY="0"
       refX="0"
       orient="auto"
       id="DistanceX">
      <path
         id="path10"
         style="stroke:#000000;stroke-width:0.5"
         d="M 3,-3 -3,3 M 0,-5 V 5" />
    </marker>
    <pattern
       y="0"
       x="0"
       height="8"
       width="8"
       patternUnits="userSpaceOnUse"
       id="Hatch">
      <path
         id="path13"
         linecap="square"
         stroke-width="0.25"
         stroke="#000000"
         d="M8 4 l-4,4" />
      <path
         id="path15"
         linecap="square"
         stroke-width="0.25"
         stroke="#000000"
         d="M6 2 l-4,4" />
      <path
         id="path17"
         linecap="square"
         stroke-width="0.25"
         stroke="#000000"
         d="M4 0 l-4,4" />
    </pattern>
    <symbol
       id="*Paper_Space" />
    <symbol
       id="*Model_Space" />
    <symbol
       id="_ArchTick" />
    <symbol
       id="_Open30" />
  </defs>
  <sodipodi:namedview
     fit-margin-bottom="10"
     fit-margin-right="10"
     fit-margin-left="10"
     lock-margins="true"
     fit-margin-top="10"
     inkscape:window-maximized="0"
     inkscape:window-y="759"
     inkscape:window-x="2774"
     inkscape:window-height="1007"
     inkscape:window-width="1892"
     inkscape:guide-bbox="true"
     showguides="false"
     showgrid="false"
     inkscape:document-rotation="0"
     inkscape:current-layer="g1739"
     inkscape:document-units="mm"
     inkscape:cy="186.56769"
     inkscape:cx="619.12115"
     inkscape:zoom="1"
     inkscape:pageshadow="2"
     inkscape:pageopacity="0.0"
     borderopacity="1.0"
     bordercolor="#666666"
     pagecolor="#ffffff"
     id="base">
    <sodipodi:guide
       id="guide391"
       orientation="0,-1"
       position="77.309432,150.44921" />
    <sodipodi:guide
       id="guide393"
       orientation="1,0"
       position="39.440942,149.68854" />
    <sodipodi:guide
       id="guide1237"
       orientation="1,0"
       position="34.170979,145.09761" />
    <sodipodi:guide
       id="guide1241"
       orientation="1,0"
       position="147.89013,147.96255" />
    <sodipodi:guide
       id="guide923"
       orientation="1,0"
       position="145.31251,151.34219" />
    <sodipodi:guide
       id="guide925"
       orientation="0,-1"
       position="142.28221,162.74408" />
    <sodipodi:guide
       id="guide927"
       orientation="0,-1"
       position="137.40602,138.09027" />
    <sodipodi:guide
       id="guide931"
       orientation="1,0"
       position="36.765137,138.91399" />
    <sodipodi:guide
       id="guide967"
       orientation="1,0"
       position="32.149673,137.84855" />
    <sodipodi:guide
       id="guide969"
       orientation="1,0"
       position="-4.2225413,138.0355" />
    <sodipodi:guide
       id="guide1252"
       orientation="1,0"
       position="48.642449,150.3872" />
    <sodipodi:guide
       id="guide1370"
       orientation="1,0"
       position="67.692448,150.36963" />
    <sodipodi:guide
       id="guide1381"
       orientation="0,-1"
       position="45.149121,158.48181" />
    <sodipodi:guide
       id="guide1383"
       orientation="0,-1"
       position="46.184247,142.41469" />
    <sodipodi:guide
       id="guide1397"
       orientation="1,0"
       position="86.742449,150.40477" />
    <sodipodi:guide
       id="guide1399"
       orientation="1,0"
       position="105.79245,150.30453" />
    <sodipodi:guide
       id="guide1633"
       orientation="1,0"
       position="39.142251,149.3082" />
    <sodipodi:guide
       id="guide1912"
       orientation="0,-1"
       position="91.45947,129.89026" />
  </sodipodi:namedview>
  <metadata
     id="metadata5">
    <rdf:RDF>
      <cc:Work
         rdf:about="">
        <dc:format>image/svg+xml</dc:format>
        <dc:type
           rdf:resource="http://purl.org/dc/dcmitype/StillImage" />
        <dc:title />
      </cc:Work>
    </rdf:RDF>
  </metadata>
  <g
     transform="translate(3.411101,-17.580561)"
     style="display:none"
     id="layer1"
     inkscape:groupmode="layer"
     inkscape:label="Layer 1">
    <g
       transform="matrix(0.26458333,0,0,0.26458333,37.39048,-207.24524)"
       id="g156"
       inkscape:label="View Port" />
    <g
       transform="matrix(0.26458333,0,0,0.26458333,37.39048,-207.24524)"
       id="g158"
       inkscape:label="Defpoints" />
    <g
       id="g1233">
      <g
         transform="translate(-39.783189,-92.147467)"
         id="g389">
        <path
           d="m 91.51548,106.27976 a 0.50000005,0.50000005 0 0 0 0.499999,-0.50001 m -13.999999,0 a 0.50000005,0.50000005 0 0 0 0.499999,0.50001 m 13.5,-13.499992 a 0.50000005,0.50000005 0 0 0 -0.499999,-0.50001 m -13.000001,0 a 0.50000005,0.50000005 0 0 0 -0.499999,0.50001 m 13.999999,0 V 105.77975 M 78.01548,92.779768 v 12.999982 m 0.499999,0.50001 H 91.51548 M 78.515479,92.279758 H 91.51548"
           style="fill:none;stroke:#000000;stroke-width:0.264583"
           id="path80" />
        <path
           d="m 110.56548,106.27976 a 0.50000005,0.50000005 0 0 0 0.5,-0.50001 m -14,0 a 0.50000005,0.50000005 0 0 0 0.499999,0.50001 M 111.06548,92.779768 a 0.50000005,0.50000005 0 0 0 -0.5,-0.50001 m -13.000001,0 a 0.50000005,0.50000005 0 0 0 -0.499999,0.50001 m 14,0 v 12.999982 m -14,-12.999982 v 12.999982 m 0.499999,0.50001 H 110.56548 M 97.565479,92.279758 h 13.000001"
           style="fill:none;stroke:#000000;stroke-width:0.264583"
           id="path96" />
        <path
           d="m 129.61548,106.27976 a 0.50000005,0.50000005 0 0 0 0.5,-0.50001 m -14,0 a 0.50000005,0.50000005 0 0 0 0.5,0.50001 m 13.5,-13.499992 a 0.50000005,0.50000005 0 0 0 -0.5,-0.50001 m -13,0 a 0.50000005,0.50000005 0 0 0 -0.5,0.50001 m 14,0 v 12.999982 m -14,-12.999982 v 12.999982 m 0.5,0.50001 h 13 m -13,-14.000002 h 13"
           style="fill:none;stroke:#000000;stroke-width:0.264583"
           id="path112" />
        <path
           d="m 148.66548,106.27976 a 0.50000005,0.50000005 0 0 0 0.5,-0.50001 m -14,0 a 0.50000005,0.50000005 0 0 0 0.5,0.50001 m 13.5,-13.499992 a 0.50000005,0.50000005 0 0 0 -0.5,-0.50001 m -13,0 a 0.50000005,0.50000005 0 0 0 -0.5,0.50001 m 14,0 v 12.999982 m -14,-12.999982 v 12.999982 m 0.5,0.50001 h 13 m -13,-14.000002 h 13"
           style="fill:none;stroke:#000000;stroke-width:0.264583"
           id="path128" />
      </g>
      <path
         d="m 131.05082,13.206139 a 0.52313935,0.43385344 0 0 0 0.52314,-0.43387 m -14.64791,0 a 0.52313935,0.43385344 0 0 0 0.52315,0.43387 M 131.57396,1.4921589 a 0.52313935,0.43385344 0 0 0 -0.52314,-0.4338621 m -13.60162,0 a 0.52313935,0.43385344 0 0 0 -0.52315,0.4338621 m 14.64791,0 V 12.772269 M 116.92605,1.4921589 V 12.772269 m 0.52315,0.43387 h 13.60162 M 117.4492,1.0582968 h 13.60162"
         style="fill:none;stroke:#000000;stroke-width:0.2521"
         id="path144" />
      <rect
         ry="1.0252604"
         y="0.63148916"
         x="-2.9701567"
         height="13"
         width="39"
         id="rect395"
         style="fill:none;fill-rule:evenodd;stroke:#000000;stroke-width:0.189;stroke-miterlimit:4;stroke-dasharray:none;stroke-opacity:1" />
    </g>
    <rect
       ry="0.5291667"
       y="-2.6534483"
       x="30.75021"
       height="19.561642"
       width="108.56164"
       id="rect1235"
       style="fill:none;stroke:#0000ff;stroke-width:0.189;stroke-miterlimit:4;stroke-dasharray:none;stroke-opacity:1" />
    <rect
       ry="1.5213541"
       y="-7.7727423"
       x="-10.234704"
       height="29.810202"
       width="154.72153"
       id="rect1239"
       style="fill:none;stroke:#0000ff;stroke-width:0.189798;stroke-miterlimit:4;stroke-dasharray:none;stroke-opacity:1" />
    <circle
       r="1.5"
       cy="-5.1641936"
       cx="141.9006"
       id="path91"
       style="display:inline;fill:none;fill-rule:evenodd;stroke:#ff0000;stroke-width:0.189;stroke-miterlimit:4;stroke-dasharray:none;stroke-opacity:1" />
    <circle
       r="1.5"
       cy="19.489555"
       cx="141.90131"
       id="circle929"
       style="display:inline;fill:none;fill-rule:evenodd;stroke:#ff0000;stroke-width:0.189;stroke-miterlimit:4;stroke-dasharray:none;stroke-opacity:1" />
    <circle
       r="1.5"
       cy="19.489578"
       cx="33.354492"
       id="circle929-3"
       style="display:inline;fill:none;fill-rule:evenodd;stroke:#ff0000;stroke-width:0.189;stroke-miterlimit:4;stroke-dasharray:none;stroke-opacity:1" />
    <circle
       r="1.5"
       cy="-5.1645408"
       cx="33.354076"
       id="circle929-0"
       style="display:inline;fill:none;fill-rule:evenodd;stroke:#ff0000;stroke-width:0.189;stroke-miterlimit:4;stroke-dasharray:none;stroke-opacity:1" />
    <rect
       ry="1.5084023"
       y="-7.7727423"
       x="-10.234704"
       height="5.1192937"
       width="154.71373"
       id="rect963"
       style="fill:none;stroke:#ff0000;stroke-width:0.189;stroke-miterlimit:4;stroke-dasharray:none;stroke-opacity:1" />
    <rect
       ry="1.4967089"
       y="16.916183"
       x="-10.235368"
       height="5.1192937"
       width="154.71439"
       id="rect965"
       style="fill:none;stroke:#ff0000;stroke-width:0.189013;stroke-miterlimit:4;stroke-dasharray:none;stroke-opacity:1" />
    <circle
       r="1.5"
       cy="19.490274"
       cx="-7.6336374"
       id="circle929-3-1"
       style="display:inline;fill:none;fill-rule:evenodd;stroke:#ff0000;stroke-width:0.189;stroke-miterlimit:4;stroke-dasharray:none;stroke-opacity:1" />
    <circle
       r="1.5"
       cy="-5.1635098"
       cx="-7.6326098"
       id="circle929-3-9"
       style="display:inline;fill:none;fill-rule:evenodd;stroke:#ff0000;stroke-width:0.189;stroke-miterlimit:4;stroke-dasharray:none;stroke-opacity:1" />
    <ellipse
       ry="0.94073367"
       rx="0.94073373"
       cy="-5.1638517"
       cx="-7.6331601"
       id="ellipse1120"
       style="display:inline;fill:none;fill-rule:evenodd;stroke:#ff0000;stroke-width:0.189;stroke-miterlimit:4;stroke-dasharray:none;stroke-opacity:1" />
    <ellipse
       ry="0.94073367"
       rx="0.94073373"
       cy="19.489252"
       cx="-7.6326098"
       id="ellipse1122"
       style="display:inline;fill:none;fill-rule:evenodd;stroke:#ff0000;stroke-width:0.189;stroke-miterlimit:4;stroke-dasharray:none;stroke-opacity:1" />
    <ellipse
       ry="0.94073367"
       rx="0.94073373"
       cy="19.489252"
       cx="33.355057"
       id="ellipse1124"
       style="display:inline;fill:none;fill-rule:evenodd;stroke:#ff0000;stroke-width:0.189;stroke-miterlimit:4;stroke-dasharray:none;stroke-opacity:1" />
    <ellipse
       ry="0.94073367"
       rx="0.94073373"
       cy="-5.164516"
       cx="33.3549"
       id="ellipse1126"
       style="display:inline;fill:none;fill-rule:evenodd;stroke:#ff0000;stroke-width:0.189;stroke-miterlimit:4;stroke-dasharray:none;stroke-opacity:1" />
    <ellipse
       ry="0.94073367"
       rx="0.94073373"
       cy="19.490278"
       cx="141.90044"
       id="ellipse1128"
       style="display:inline;fill:none;fill-rule:evenodd;stroke:#ff0000;stroke-width:0.189;stroke-miterlimit:4;stroke-dasharray:none;stroke-opacity:1" />
    <ellipse
       ry="0.94073367"
       rx="0.94073373"
       cy="-5.1759057"
       cx="141.91579"
       id="ellipse1130"
       style="display:inline;fill:none;fill-rule:evenodd;stroke:#ff0000;stroke-width:0.189;stroke-miterlimit:4;stroke-dasharray:none;stroke-opacity:1" />
  </g>
  <g
     transform="translate(3.411101,-17.580561)"
     style="display:inline"
     inkscape:label="bottom"
     id="layer3"
     inkscape:groupmode="layer">
    <g
       transform="translate(-165.36458,-42.333333)"
       id="g1290">
      <g
         id="g1147"
         transform="translate(181.91895,125.44772)">
        <path
           inkscape:connector-curvature="0"
           id="rect1027"
           style="display:inline;fill:none;stroke:#ff0000;stroke-width:0.714331;stroke-miterlimit:4;stroke-dasharray:none;stroke-opacity:1"
           d="m -32.980469,-29.376953 c -3.15838,0 -5.701172,2.542791 -5.701172,5.701172 v 7.945312 c 0,3.158381 2.542792,5.701172 5.701172,5.701172 H 116.25781 V 63.935547 H -33.027344 c -3.133896,0 -5.658203,2.522356 -5.658203,5.65625 v 8.035156 c 0,3.133897 2.524307,5.65625 5.658203,5.65625 H 121.84961 c 0.053,0.0014 0.1048,0.0078 0.1582,0.0078 H 540.3418 c 0.21609,0 0.42889,-0.01411 0.63867,-0.03711 0.002,-2.12e-4 0.004,2.14e-4 0.006,0 1.92203,-0.194026 3.55061,-1.3424 4.41406,-2.966797 0.0811,-0.152672 0.15743,-0.310018 0.22461,-0.470703 0.2993,-0.697376 0.4668,-1.465928 0.4668,-2.27539 V -23.626953 c 0,-1.402638 -0.49963,-2.683766 -1.32813,-3.679688 -0.11672,-0.140305 -0.23778,-0.27582 -0.36719,-0.404297 -0.12685,-0.126855 -0.26006,-0.246887 -0.39843,-0.361328 -0.002,-0.0017 -0.004,-0.0041 -0.006,-0.0059 -0.84734,-0.69871 -1.90254,-1.155377 -3.06055,-1.269531 -0.18737,-0.01891 -0.37795,-0.02866 -0.57031,-0.0293 H 122.00781 Z"
           transform="scale(0.26458333)" />
        <ellipse
           style="display:inline;fill:none;fill-rule:evenodd;stroke:#ff0000;stroke-width:0.189;stroke-miterlimit:4;stroke-dasharray:none;stroke-opacity:1"
           id="circle1041"
           cx="-7.6331601"
           cy="-5.1638517"
           rx="0.94073373"
           ry="0.94073367" />
        <text
           xml:space="preserve"
           style="font-style:normal;font-weight:normal;font-size:10.5833px;line-height:1.25;font-family:sans-serif;fill:#000000;fill-opacity:1;stroke:none;stroke-width:0.264583"
           x="58.371662"
           y="12.909118"
           id="text1077"><tspan
             sodipodi:role="line"
             id="tspan1075"
             x="58.371662"
             y="12.909118"
             style="stroke-width:0.264583">2mm</tspan></text>
        <ellipse
           style="display:inline;fill:none;fill-rule:evenodd;stroke:#ff0000;stroke-width:0.189;stroke-miterlimit:4;stroke-dasharray:none;stroke-opacity:1"
           id="circle1041-8"
           cx="-7.6326098"
           cy="19.489252"
           rx="0.94073373"
           ry="0.94073367" />
        <ellipse
           style="display:inline;fill:none;fill-rule:evenodd;stroke:#ff0000;stroke-width:0.189;stroke-miterlimit:4;stroke-dasharray:none;stroke-opacity:1"
           id="circle1041-3"
           cx="33.355057"
           cy="19.489252"
           rx="0.94073373"
           ry="0.94073367" />
        <ellipse
           style="display:inline;fill:none;fill-rule:evenodd;stroke:#ff0000;stroke-width:0.189;stroke-miterlimit:4;stroke-dasharray:none;stroke-opacity:1"
           id="circle1041-81"
           cx="33.3549"
           cy="-5.164516"
           rx="0.94073373"
           ry="0.94073367" />
        <ellipse
           style="display:inline;fill:none;fill-rule:evenodd;stroke:#ff0000;stroke-width:0.189;stroke-miterlimit:4;stroke-dasharray:none;stroke-opacity:1"
           id="circle1041-1"
           cx="141.90044"
           cy="19.490278"
           rx="0.94073373"
           ry="0.94073367" />
        <ellipse
           style="display:inline;fill:none;fill-rule:evenodd;stroke:#ff0000;stroke-width:0.189;stroke-miterlimit:4;stroke-dasharray:none;stroke-opacity:1"
           id="circle1041-2"
           cx="141.91579"
           cy="-5.1759057"
           rx="0.94073373"
           ry="0.94073367" />
      </g>
      <text
         xml:space="preserve"
         style="font-style:normal;font-weight:normal;font-size:10.5833px;line-height:1.25;font-family:sans-serif;display:inline;fill:#000000;fill-opacity:1;stroke:none;stroke-width:0.264583"
         x="227.57018"
         y="127.11808"
         id="text1235"><tspan
           sodipodi:role="line"
           id="tspan1233"
           x="227.57018"
           y="127.11808"
           style="stroke-width:0.264583">hitam transparan</tspan></text>
    </g>
  </g>
  <g
     transform="translate(3.411101,-17.580561)"
     style="display:inline"
     inkscape:label="long spacer"
     id="layer4"
     inkscape:groupmode="layer">
    <g
       id="g1943"
       transform="translate(10.256114,-6.5689702)">
      <rect
         style="display:inline;fill:none;stroke:#ff0000;stroke-width:0.189013;stroke-miterlimit:4;stroke-dasharray:none;stroke-opacity:1"
         id="rect995"
         width="154.71439"
         height="5.1192937"
         x="161.42729"
         y="111.99962"
         ry="1.4967089" />
      <circle
         style="display:inline;fill:none;fill-rule:evenodd;stroke:#ff0000;stroke-width:0.189;stroke-miterlimit:4;stroke-dasharray:none;stroke-opacity:1"
         id="circle1001"
         cx="313.56396"
         cy="114.57299"
         r="1.5" />
      <circle
         style="display:inline;fill:none;fill-rule:evenodd;stroke:#ff0000;stroke-width:0.189;stroke-miterlimit:4;stroke-dasharray:none;stroke-opacity:1"
         id="circle1003"
         cx="205.01715"
         cy="114.57301"
         r="1.5" />
      <circle
         style="display:inline;fill:none;fill-rule:evenodd;stroke:#ff0000;stroke-width:0.189;stroke-miterlimit:4;stroke-dasharray:none;stroke-opacity:1"
         id="circle1007"
         cx="164.02902"
         cy="114.57371"
         r="1.5" />
    </g>
    <g
       transform="translate(10.256114,12.481037)"
       id="g1937">
      <rect
         style="display:inline;fill:none;stroke:#ff0000;stroke-width:0.189;stroke-miterlimit:4;stroke-dasharray:none;stroke-opacity:1"
         id="rect993"
         width="154.71373"
         height="5.1192937"
         x="161.42796"
         y="87.310692"
         ry="1.5084023" />
      <circle
         style="display:inline;fill:none;fill-rule:evenodd;stroke:#ff0000;stroke-width:0.189;stroke-miterlimit:4;stroke-dasharray:none;stroke-opacity:1"
         id="circle999"
         cx="313.56326"
         cy="89.919243"
         r="1.5" />
      <circle
         style="display:inline;fill:none;fill-rule:evenodd;stroke:#ff0000;stroke-width:0.189;stroke-miterlimit:4;stroke-dasharray:none;stroke-opacity:1"
         id="circle1005"
         cx="205.01674"
         cy="89.918892"
         r="1.5" />
      <circle
         style="display:inline;fill:none;fill-rule:evenodd;stroke:#ff0000;stroke-width:0.189;stroke-miterlimit:4;stroke-dasharray:none;stroke-opacity:1"
         id="circle1009"
         cx="164.03004"
         cy="89.919922"
         r="1.5" />
    </g>
    <text
       xml:space="preserve"
       style="font-style:normal;font-weight:normal;font-size:10.5833px;line-height:1.25;font-family:sans-serif;fill:#000000;fill-opacity:1;stroke:none;stroke-width:0.264583"
       x="184.55037"
       y="107.11368"
       id="text1868"><tspan
         sodipodi:role="line"
         id="tspan1866"
         x="184.55037"
         y="107.11368"
         style="stroke-width:0.264583">3mm</tspan></text>
    <g
       transform="translate(10.256114,-0.74813653)"
       id="g1221">
      <rect
         ry="1.4967089"
         y="111.99962"
         x="161.42729"
         height="5.1192937"
         width="154.71439"
         id="rect1213"
         style="display:inline;fill:none;stroke:#ff0000;stroke-width:0.189013;stroke-miterlimit:4;stroke-dasharray:none;stroke-opacity:1" />
      <circle
         r="1.5"
         cy="114.57299"
         cx="313.56396"
         id="circle1215"
         style="display:inline;fill:none;fill-rule:evenodd;stroke:#ff0000;stroke-width:0.189;stroke-miterlimit:4;stroke-dasharray:none;stroke-opacity:1" />
      <circle
         r="1.5"
         cy="114.57301"
         cx="205.01715"
         id="circle1217"
         style="display:inline;fill:none;fill-rule:evenodd;stroke:#ff0000;stroke-width:0.189;stroke-miterlimit:4;stroke-dasharray:none;stroke-opacity:1" />
      <circle
         r="1.5"
         cy="114.57371"
         cx="164.02902"
         id="circle1219"
         style="display:inline;fill:none;fill-rule:evenodd;stroke:#ff0000;stroke-width:0.189;stroke-miterlimit:4;stroke-dasharray:none;stroke-opacity:1" />
    </g>
    <g
       id="g1231"
       transform="translate(10.256114,6.6602021)">
      <rect
         ry="1.5084023"
         y="87.310692"
         x="161.42796"
         height="5.1192937"
         width="154.71373"
         id="rect1223"
         style="display:inline;fill:none;stroke:#ff0000;stroke-width:0.189;stroke-miterlimit:4;stroke-dasharray:none;stroke-opacity:1" />
      <circle
         r="1.5"
         cy="89.919243"
         cx="313.56326"
         id="circle1225"
         style="display:inline;fill:none;fill-rule:evenodd;stroke:#ff0000;stroke-width:0.189;stroke-miterlimit:4;stroke-dasharray:none;stroke-opacity:1" />
      <circle
         r="1.5"
         cy="89.918892"
         cx="205.01674"
         id="circle1227"
         style="display:inline;fill:none;fill-rule:evenodd;stroke:#ff0000;stroke-width:0.189;stroke-miterlimit:4;stroke-dasharray:none;stroke-opacity:1" />
      <circle
         r="1.5"
         cy="89.919922"
         cx="164.03004"
         id="circle1229"
         style="display:inline;fill:none;fill-rule:evenodd;stroke:#ff0000;stroke-width:0.189;stroke-miterlimit:4;stroke-dasharray:none;stroke-opacity:1" />
    </g>
  </g>
  <g
     transform="translate(3.411101,-17.580561)"
     style="display:inline"
     inkscape:label="below switch plate"
     id="layer5"
     inkscape:groupmode="layer">
    <g
       transform="translate(181.9185,35.448202)"
       id="g1440">
      <g
         style="stroke:#ff0014;stroke-opacity:1"
         id="g1418">
        <path
           d="m 131.05082,13.206139 a 0.52313935,0.43385344 0 0 0 0.52314,-0.43387 m -14.64791,0 a 0.52313935,0.43385344 0 0 0 0.52315,0.43387 M 131.57396,1.4921589 a 0.52313935,0.43385344 0 0 0 -0.52314,-0.4338621 m -13.60162,0 a 0.52313935,0.43385344 0 0 0 -0.52315,0.4338621 m 14.64791,0 V 12.772269 M 116.92605,1.4921589 V 12.772269 m 0.52315,0.43387 h 13.60162 M 117.4492,1.0582968 h 13.60162"
           style="fill:none;stroke:#ff0014;stroke-width:0.2521;stroke-opacity:1"
           id="path1203" />
        <rect
           ry="1.0252604"
           y="0.63148916"
           x="-2.9701567"
           height="13"
           width="39"
           id="rect1205"
           style="fill:none;fill-rule:evenodd;stroke:#ff0014;stroke-width:0.189;stroke-miterlimit:4;stroke-dasharray:none;stroke-opacity:1" />
        <rect
           ry="1.5213541"
           y="-7.7727423"
           x="-10.234704"
           height="29.810202"
           width="154.72153"
           id="rect1211"
           style="display:inline;fill:none;stroke:#ff0014;stroke-width:0.189798;stroke-miterlimit:4;stroke-dasharray:none;stroke-opacity:1" />
        <circle
           r="1.5"
           cy="-5.1641936"
           cx="141.9006"
           id="circle1230"
           style="display:inline;fill:none;fill-rule:evenodd;stroke:#ff0014;stroke-width:0.189;stroke-miterlimit:4;stroke-dasharray:none;stroke-opacity:1" />
        <circle
           r="1.5"
           cy="19.489555"
           cx="141.90131"
           id="circle1232"
           style="display:inline;fill:none;fill-rule:evenodd;stroke:#ff0014;stroke-width:0.189;stroke-miterlimit:4;stroke-dasharray:none;stroke-opacity:1" />
        <circle
           r="1.5"
           cy="19.489578"
           cx="33.354492"
           id="circle1234"
           style="display:inline;fill:none;fill-rule:evenodd;stroke:#ff0014;stroke-width:0.189;stroke-miterlimit:4;stroke-dasharray:none;stroke-opacity:1" />
        <circle
           r="1.5"
           cy="-5.1645408"
           cx="33.354076"
           id="circle1236"
           style="display:inline;fill:none;fill-rule:evenodd;stroke:#ff0014;stroke-width:0.189;stroke-miterlimit:4;stroke-dasharray:none;stroke-opacity:1" />
        <circle
           r="1.5"
           cy="19.490274"
           cx="-7.6336374"
           id="circle1238"
           style="display:inline;fill:none;fill-rule:evenodd;stroke:#ff0014;stroke-width:0.189;stroke-miterlimit:4;stroke-dasharray:none;stroke-opacity:1" />
        <circle
           r="1.5"
           cy="-5.1635098"
           cx="-7.6326098"
           id="circle1240"
           style="display:inline;fill:none;fill-rule:evenodd;stroke:#ff0014;stroke-width:0.189;stroke-miterlimit:4;stroke-dasharray:none;stroke-opacity:1" />
        <path
           transform="scale(0.26458333)"
           d="m 165.78906,-3.4082031 c -1.04408,0 -1.88476,0.8406818 -1.88476,1.8847656 v 1.88476562 h -17.51368 c -0.84529,0 -1.56631,0.51083262 -1.87304,1.24218748 -0.0506,0.1205678 -0.0905,0.2476745 -0.11719,0.3789063 -2.5e-4,0.00123 2.5e-4,0.00267 0,0.00391 -0.0265,0.1313075 -0.041,0.2669124 -0.041,0.40625 -1e-5,0.00133 -1e-5,0.00258 0,0.00391 v 49.1230471 0.0039 c 2.6e-4,0.139273 0.0143,0.275031 0.041,0.40625 2.5e-4,0.0012 -2.5e-4,0.0027 0,0.0039 0.0269,0.131143 0.0664,0.258451 0.11719,0.378906 0.30673,0.731355 1.02775,1.242188 1.87304,1.242188 h 17.51368 v 1.884765 c 0,1.044087 0.84068,1.884766 1.88476,1.884766 h 10.32617 c 1.0441,0 1.88477,-0.840679 1.88477,-1.884766 v -1.884765 h 17.51758 c 0.8453,0 1.56631,-0.510833 1.87304,-1.242188 0.10252,-0.243179 0.15821,-0.511641 0.15821,-0.792969 V 2.3964844 c 0,-0.2813283 -0.0557,-0.54979 -0.15821,-0.7929688 -0.30673,-0.73135486 -1.02775,-1.24218748 -1.87304,-1.24218748 H 178 V -1.5234375 c 0,-1.0440838 -0.84068,-1.8847656 -1.88477,-1.8847656 z"
           style="fill:none;stroke:#ff0014;stroke-width:0.726043;stroke-miterlimit:4;stroke-dasharray:none;stroke-opacity:1"
           id="rect1372" />
        <path
           d="m 62.915033,-0.90175373 c -0.276246,0 -0.498676,0.22243039 -0.498676,0.49867756 V 0.0956014 h -4.633828 c -0.223649,0 -0.414419,0.13515779 -0.495575,0.3286621 -0.01338,0.0319002 -0.02394,0.0655305 -0.03101,0.10025229 -6.6e-5,3.2676e-4 6.6e-5,7.0651e-4 0,0.001034 -0.007,0.0347418 -0.01085,0.0706206 -0.01085,0.10748698 -3e-6,3.5079e-4 -3e-6,6.826e-4 0,0.001034 V 13.63121 v 0.001 c 6.9e-5,0.03685 0.0038,0.07277 0.01085,0.107487 6.6e-5,3.3e-4 -6.6e-5,7.03e-4 0,0.001 0.0071,0.0347 0.01757,0.06838 0.03101,0.100252 0.08116,0.193505 0.271926,0.328663 0.495575,0.328663 h 4.633828 v 0.498677 c 0,0.276248 0.22243,0.498678 0.498676,0.498678 h 2.732133 c 0.276251,0 0.498678,-0.22243 0.498678,-0.498678 v -0.498677 h 4.63486 c 0.223652,0 0.41442,-0.135158 0.495575,-0.328663 0.02712,-0.06434 0.04186,-0.135371 0.04186,-0.209806 V 0.63406982 c 0,-0.0744348 -0.01474,-0.14546527 -0.04186,-0.20980632 -0.08116,-0.19350431 -0.271925,-0.3286621 -0.495575,-0.3286621 h -4.63486 v -0.49867757 c 0,-0.27624717 -0.22243,-0.49867756 -0.498678,-0.49867756 z"
           style="fill:none;stroke:#ff0014;stroke-width:0.192099;stroke-miterlimit:4;stroke-dasharray:none;stroke-opacity:1"
           id="path1395" />
        <path
           d="m 81.965045,-0.90175373 c -0.276246,0 -0.498676,0.22243039 -0.498676,0.49867756 V 0.0956014 h -4.633828 c -0.223649,0 -0.414419,0.13515779 -0.495575,0.3286621 -0.01338,0.0319002 -0.02394,0.0655305 -0.03101,0.10025229 -6.6e-5,3.2676e-4 6.6e-5,7.0651e-4 0,0.001034 -0.007,0.0347418 -0.01085,0.0706206 -0.01085,0.10748698 -3e-6,3.5079e-4 -3e-6,6.826e-4 0,0.001034 V 13.63121 v 0.001 c 6.9e-5,0.03685 0.0038,0.07277 0.01085,0.107487 6.6e-5,3.3e-4 -6.6e-5,7.03e-4 0,0.001 0.0071,0.0347 0.01757,0.06838 0.03101,0.100252 0.08116,0.193505 0.271926,0.328663 0.495575,0.328663 h 4.633828 v 0.498677 c 0,0.276248 0.22243,0.498678 0.498676,0.498678 h 2.732133 c 0.276251,0 0.498678,-0.22243 0.498678,-0.498678 v -0.498677 h 4.63486 c 0.223652,0 0.41442,-0.135158 0.495575,-0.328663 0.02712,-0.06434 0.04186,-0.135371 0.04186,-0.209806 V 0.63406982 c 0,-0.0744348 -0.01474,-0.14546527 -0.04186,-0.20980632 -0.08116,-0.19350431 -0.271925,-0.3286621 -0.495575,-0.3286621 h -4.63486 v -0.49867757 c 0,-0.27624717 -0.22243,-0.49867756 -0.498678,-0.49867756 z"
           style="fill:none;stroke:#ff0014;stroke-width:0.192099;stroke-miterlimit:4;stroke-dasharray:none;stroke-opacity:1"
           id="path1401" />
        <path
           d="m 101.01506,-0.90175373 c -0.27625,0 -0.49868,0.22243039 -0.49868,0.49867756 V 0.0956014 h -4.633827 c -0.223649,0 -0.414419,0.13515779 -0.495575,0.3286621 -0.01338,0.0319002 -0.02394,0.0655305 -0.03101,0.10025229 -6.6e-5,3.2676e-4 6.6e-5,7.0651e-4 0,0.001034 -0.007,0.0347418 -0.01085,0.0706206 -0.01085,0.10748698 -3e-6,3.5079e-4 -3e-6,6.826e-4 0,0.001034 V 13.63121 v 0.001 c 6.9e-5,0.03685 0.0038,0.07277 0.01085,0.107487 6.6e-5,3.3e-4 -6.6e-5,7.03e-4 0,0.001 0.0071,0.0347 0.01757,0.06838 0.03101,0.100252 0.08116,0.193505 0.271926,0.328663 0.495575,0.328663 h 4.633827 v 0.498677 c 0,0.276248 0.22243,0.498678 0.49868,0.498678 h 2.73215 c 0.27625,0 0.49868,-0.22243 0.49868,-0.498678 v -0.498677 h 4.63489 c 0.22365,0 0.41442,-0.135158 0.49557,-0.328663 0.0271,-0.06434 0.0419,-0.135371 0.0419,-0.209806 V 0.63406982 c 0,-0.0744348 -0.0147,-0.14546527 -0.0419,-0.20980632 -0.0812,-0.19350431 -0.27192,-0.3286621 -0.49557,-0.3286621 h -4.63489 v -0.49867757 c 0,-0.27624717 -0.22243,-0.49867756 -0.49868,-0.49867756 z"
           style="fill:none;stroke:#ff0014;stroke-width:0.192099;stroke-miterlimit:4;stroke-dasharray:none;stroke-opacity:1"
           id="path1403" />
      </g>
      <text
         id="text1422"
         y="10.054167"
         x="57.943748"
         style="font-style:normal;font-weight:normal;font-size:10.5833px;line-height:1.25;font-family:sans-serif;fill:#000000;fill-opacity:1;stroke:none;stroke-width:0.264583"
         xml:space="preserve"><tspan
           style="stroke-width:0.264583"
           y="10.054167"
           x="57.943748"
           id="tspan1420"
           sodipodi:role="line">2mm</tspan></text>
    </g>
  </g>
  <g
     transform="translate(3.411101,-17.580561)"
     style="display:inline"
     inkscape:label="below switch plate copy"
     id="g1993"
     inkscape:groupmode="layer">
    <g
       transform="translate(181.919,70.448)"
       id="g2064">
      <rect
         ry="1.5213541"
         y="-7.7725401"
         x="-10.235202"
         height="29.810202"
         width="154.72153"
         id="rect1963"
         style="display:inline;fill:none;stroke:#ff0014;stroke-width:0.189798;stroke-miterlimit:4;stroke-dasharray:none;stroke-opacity:1" />
      <circle
         r="1.5"
         cy="-5.1639915"
         cx="141.9001"
         id="circle1965"
         style="display:inline;fill:none;fill-rule:evenodd;stroke:#ff0014;stroke-width:0.189;stroke-miterlimit:4;stroke-dasharray:none;stroke-opacity:1" />
      <circle
         r="1.5"
         cy="19.489758"
         cx="141.9008"
         id="circle1967"
         style="display:inline;fill:none;fill-rule:evenodd;stroke:#ff0014;stroke-width:0.189;stroke-miterlimit:4;stroke-dasharray:none;stroke-opacity:1" />
      <circle
         r="1.5"
         cy="19.48978"
         cx="33.353992"
         id="circle1969"
         style="display:inline;fill:none;fill-rule:evenodd;stroke:#ff0014;stroke-width:0.189;stroke-miterlimit:4;stroke-dasharray:none;stroke-opacity:1" />
      <circle
         r="1.5"
         cy="-5.1643386"
         cx="33.353577"
         id="circle1971"
         style="display:inline;fill:none;fill-rule:evenodd;stroke:#ff0014;stroke-width:0.189;stroke-miterlimit:4;stroke-dasharray:none;stroke-opacity:1" />
      <circle
         r="1.5"
         cy="19.490477"
         cx="-7.6341352"
         id="circle1973"
         style="display:inline;fill:none;fill-rule:evenodd;stroke:#ff0014;stroke-width:0.189;stroke-miterlimit:4;stroke-dasharray:none;stroke-opacity:1" />
      <circle
         r="1.5"
         cy="-5.1633077"
         cx="-7.6331077"
         id="circle1975"
         style="display:inline;fill:none;fill-rule:evenodd;stroke:#ff0014;stroke-width:0.189;stroke-miterlimit:4;stroke-dasharray:none;stroke-opacity:1" />
      <text
         id="text1989"
         y="10.054369"
         x="57.943249"
         style="font-style:normal;font-weight:normal;font-size:10.5833px;line-height:1.25;font-family:sans-serif;fill:#000000;fill-opacity:1;stroke:none;stroke-width:0.264583"
         xml:space="preserve"><tspan
           style="stroke-width:0.264583"
           y="10.054369"
           x="57.943249"
           id="tspan1987"
           sodipodi:role="line">1.5mm</tspan></text>
      <rect
         ry="0.5291667"
         y="-2.6534483"
         x="30.75021"
         height="19.561642"
         width="108.56164"
         id="rect1995"
         style="display:inline;fill:none;stroke:#ff0000;stroke-width:0.189;stroke-miterlimit:4;stroke-dasharray:none;stroke-opacity:1" />
    </g>
  </g>
  <g
     transform="translate(3.411101,-17.580561)"
     style="display:inline"
     inkscape:label="switch plate"
     id="layer2"
     inkscape:groupmode="layer">
    <g
       transform="translate(16.918502,125.4482)"
       id="g1864">
      <g
         style="stroke:#ff0000;stroke-opacity:1"
         id="g56">
        <g
           style="stroke:#ff0000;stroke-opacity:1"
           transform="translate(-39.783189,-92.147467)"
           id="g50">
          <path
             d="m 91.51548,106.27976 a 0.50000005,0.50000005 0 0 0 0.499999,-0.50001 m -13.999999,0 a 0.50000005,0.50000005 0 0 0 0.499999,0.50001 m 13.5,-13.499992 a 0.50000005,0.50000005 0 0 0 -0.499999,-0.50001 m -13.000001,0 a 0.50000005,0.50000005 0 0 0 -0.499999,0.50001 m 13.999999,0 V 105.77975 M 78.01548,92.779768 v 12.999982 m 0.499999,0.50001 H 91.51548 M 78.515479,92.279758 H 91.51548"
             style="fill:none;stroke:#ff0000;stroke-width:0.264583;stroke-opacity:1"
             id="path42" />
          <path
             d="m 110.56548,106.27976 a 0.50000005,0.50000005 0 0 0 0.5,-0.50001 m -14,0 a 0.50000005,0.50000005 0 0 0 0.499999,0.50001 M 111.06548,92.779768 a 0.50000005,0.50000005 0 0 0 -0.5,-0.50001 m -13.000001,0 a 0.50000005,0.50000005 0 0 0 -0.499999,0.50001 m 14,0 v 12.999982 m -14,-12.999982 v 12.999982 m 0.499999,0.50001 H 110.56548 M 97.565479,92.279758 h 13.000001"
             style="fill:none;stroke:#ff0000;stroke-width:0.264583;stroke-opacity:1"
             id="path44" />
          <path
             d="m 129.61548,106.27976 a 0.50000005,0.50000005 0 0 0 0.5,-0.50001 m -14,0 a 0.50000005,0.50000005 0 0 0 0.5,0.50001 m 13.5,-13.499992 a 0.50000005,0.50000005 0 0 0 -0.5,-0.50001 m -13,0 a 0.50000005,0.50000005 0 0 0 -0.5,0.50001 m 14,0 v 12.999982 m -14,-12.999982 v 12.999982 m 0.5,0.50001 h 13 m -13,-14.000002 h 13"
             style="fill:none;stroke:#ff0000;stroke-width:0.264583;stroke-opacity:1"
             id="path46" />
          <path
             d="m 148.66548,106.27976 a 0.50000005,0.50000005 0 0 0 0.5,-0.50001 m -14,0 a 0.50000005,0.50000005 0 0 0 0.5,0.50001 m 13.5,-13.499992 a 0.50000005,0.50000005 0 0 0 -0.5,-0.50001 m -13,0 a 0.50000005,0.50000005 0 0 0 -0.5,0.50001 m 14,0 v 12.999982 m -14,-12.999982 v 12.999982 m 0.5,0.50001 h 13 m -13,-14.000002 h 13"
             style="fill:none;stroke:#ff0000;stroke-width:0.264583;stroke-opacity:1"
             id="path48" />
        </g>
        <path
           d="m 131.05082,13.206139 a 0.52313935,0.43385344 0 0 0 0.52314,-0.43387 m -14.64791,0 a 0.52313935,0.43385344 0 0 0 0.52315,0.43387 M 131.57396,1.4921589 a 0.52313935,0.43385344 0 0 0 -0.52314,-0.4338621 m -13.60162,0 a 0.52313935,0.43385344 0 0 0 -0.52315,0.4338621 m 14.64791,0 V 12.772269 M 116.92605,1.4921589 V 12.772269 m 0.52315,0.43387 h 13.60162 M 117.4492,1.0582968 h 13.60162"
           style="fill:none;stroke:#ff0000;stroke-width:0.2521;stroke-opacity:1"
           id="path52" />
        <rect
           ry="1.0252604"
           y="0.63148916"
           x="-2.9701567"
           height="13"
           width="39"
           id="rect54"
           style="fill:none;fill-rule:evenodd;stroke:#ff0000;stroke-width:0.189;stroke-miterlimit:4;stroke-dasharray:none;stroke-opacity:1" />
      </g>
      <rect
         ry="1.5213541"
         y="-7.7727423"
         x="-10.234704"
         height="29.810202"
         width="154.72153"
         id="rect69"
         style="display:inline;fill:none;stroke:#ff0000;stroke-width:0.189798;stroke-miterlimit:4;stroke-dasharray:none;stroke-opacity:1" />
      <text
         id="text85"
         y="9.921874"
         x="-2.9104152"
         style="font-style:normal;font-weight:normal;font-size:10.5833px;line-height:1.25;font-family:sans-serif;fill:#000000;fill-opacity:1;stroke:none;stroke-width:0.264583"
         xml:space="preserve"><tspan
           style="stroke-width:0.264583"
           y="9.921874"
           x="-2.9104152"
           id="tspan83"
           sodipodi:role="line">1.5mm</tspan></text>
      <ellipse
         ry="0.94073367"
         rx="0.94073373"
         cy="-5.1638517"
         cx="-7.6331601"
         id="ellipse1695"
         style="display:inline;fill:none;fill-rule:evenodd;stroke:#ff0000;stroke-width:0.189;stroke-miterlimit:4;stroke-dasharray:none;stroke-opacity:1" />
      <ellipse
         ry="0.94073367"
         rx="0.94073373"
         cy="19.489252"
         cx="-7.6326098"
         id="ellipse1697"
         style="display:inline;fill:none;fill-rule:evenodd;stroke:#ff0000;stroke-width:0.189;stroke-miterlimit:4;stroke-dasharray:none;stroke-opacity:1" />
      <ellipse
         ry="0.94073367"
         rx="0.94073373"
         cy="19.489252"
         cx="33.355057"
         id="ellipse1699"
         style="display:inline;fill:none;fill-rule:evenodd;stroke:#ff0000;stroke-width:0.189;stroke-miterlimit:4;stroke-dasharray:none;stroke-opacity:1" />
      <ellipse
         ry="0.94073367"
         rx="0.94073373"
         cy="-5.164516"
         cx="33.3549"
         id="ellipse1701"
         style="display:inline;fill:none;fill-rule:evenodd;stroke:#ff0000;stroke-width:0.189;stroke-miterlimit:4;stroke-dasharray:none;stroke-opacity:1" />
      <ellipse
         ry="0.94073367"
         rx="0.94073373"
         cy="19.490278"
         cx="141.90044"
         id="ellipse1703"
         style="display:inline;fill:none;fill-rule:evenodd;stroke:#ff0000;stroke-width:0.189;stroke-miterlimit:4;stroke-dasharray:none;stroke-opacity:1" />
      <ellipse
         ry="0.94073367"
         rx="0.94073373"
         cy="-5.1759057"
         cx="141.91579"
         id="ellipse1705"
         style="display:inline;fill:none;fill-rule:evenodd;stroke:#ff0000;stroke-width:0.189;stroke-miterlimit:4;stroke-dasharray:none;stroke-opacity:1" />
    </g>
  </g>
  <g
     transform="translate(3.411101,-17.580561)"
     style="display:inline"
     inkscape:label="top layer copy"
     id="g1739"
     inkscape:groupmode="layer">
    <g
       transform="translate(182.51344,126.78937)"
       id="g1822">
      <path
         inkscape:connector-curvature="0"
         transform="scale(0.26458333)"
         d="M 135.05078,-9.0175781 V 2.3867188 H -6.9941406 c -2.344097,-1e-7 -4.2324214,1.7282498 -4.2324214,3.875 V 47.646484 c -1e-6,2.146749 1.8883244,3.875 4.2324214,3.875 H 135.05078 V 62.994141 H 513.06055 V -9.0175781 Z"
         style="fill:none;stroke:#ff0020;stroke-width:0.188976mm;stroke-opacity:1"
         id="polygon1713" />
      <path
         inkscape:connector-curvature="0"
         d="M -8.7133499,-7.7727423 H 142.96547 c 0.84283,0 1.52135,0.6785239 1.52135,1.5213541 V 20.516105 c 0,0.84283 -0.67852,1.521354 -1.52135,1.521354 H -8.7133499 c -0.8428302,0 -1.5213541,-0.678524 -1.5213541,-1.521354 V -6.2513882 c 0,-0.8428302 0.6785239,-1.5213541 1.5213541,-1.5213541 z"
         style="display:inline;fill:none;stroke:#ff0020;stroke-width:0.189798;stroke-miterlimit:4;stroke-dasharray:none;stroke-opacity:1"
         id="rect1715" />
      <path
         inkscape:connector-curvature="0"
         d="m -6.6924264,-5.1638517 a 0.94073373,0.94073367 0 0 1 -0.9407337,0.9407336 0.94073373,0.94073367 0 0 1 -0.9407337,-0.9407336 0.94073373,0.94073367 0 0 1 0.9407337,-0.9407337 0.94073373,0.94073367 0 0 1 0.9407337,0.9407337 z"
         style="display:inline;fill:none;fill-rule:evenodd;stroke:#ff0020;stroke-width:0.189;stroke-miterlimit:4;stroke-dasharray:none;stroke-opacity:1"
         id="ellipse1717" />
      <path
         inkscape:connector-curvature="0"
         d="m -6.6918761,19.489252 a 0.94073373,0.94073367 0 0 1 -0.9407337,0.940734 0.94073373,0.94073367 0 0 1 -0.9407338,-0.940734 0.94073373,0.94073367 0 0 1 0.9407338,-0.940734 0.94073373,0.94073367 0 0 1 0.9407337,0.940734 z"
         style="display:inline;fill:none;fill-rule:evenodd;stroke:#ff0020;stroke-width:0.189;stroke-miterlimit:4;stroke-dasharray:none;stroke-opacity:1"
         id="ellipse1719" />
      <path
         inkscape:connector-curvature="0"
         d="m 34.29579,19.489252 a 0.94073373,0.94073367 0 0 1 -0.940733,0.940734 0.94073373,0.94073367 0 0 1 -0.940734,-0.940734 0.94073373,0.94073367 0 0 1 0.940734,-0.940734 0.94073373,0.94073367 0 0 1 0.940733,0.940734 z"
         style="display:inline;fill:none;fill-rule:evenodd;stroke:#ff0020;stroke-width:0.189;stroke-miterlimit:4;stroke-dasharray:none;stroke-opacity:1"
         id="ellipse1721" />
      <path
         inkscape:connector-curvature="0"
         d="M 34.295634,-5.164516 A 0.94073373,0.94073367 0 0 1 33.3549,-4.2237823 0.94073373,0.94073367 0 0 1 32.414167,-5.164516 0.94073373,0.94073367 0 0 1 33.3549,-6.1052496 0.94073373,0.94073367 0 0 1 34.295634,-5.164516 Z"
         style="display:inline;fill:none;fill-rule:evenodd;stroke:#ff0020;stroke-width:0.189;stroke-miterlimit:4;stroke-dasharray:none;stroke-opacity:1"
         id="ellipse1723" />
      <path
         inkscape:connector-curvature="0"
         d="m 142.84117,19.490278 a 0.94073373,0.94073367 0 0 1 -0.94073,0.940734 0.94073373,0.94073367 0 0 1 -0.94074,-0.940734 0.94073373,0.94073367 0 0 1 0.94074,-0.940733 0.94073373,0.94073367 0 0 1 0.94073,0.940733 z"
         style="display:inline;fill:none;fill-rule:evenodd;stroke:#ff0020;stroke-width:0.189;stroke-miterlimit:4;stroke-dasharray:none;stroke-opacity:1"
         id="ellipse1725" />
      <path
         inkscape:connector-curvature="0"
         d="m 142.85652,-5.1759057 a 0.94073373,0.94073367 0 0 1 -0.94073,0.9407337 0.94073373,0.94073367 0 0 1 -0.94074,-0.9407337 0.94073373,0.94073367 0 0 1 0.94074,-0.9407337 0.94073373,0.94073367 0 0 1 0.94073,0.9407337 z"
         style="display:inline;fill:none;fill-rule:evenodd;stroke:#ff0020;stroke-width:0.189;stroke-miterlimit:4;stroke-dasharray:none;stroke-opacity:1"
         id="ellipse1727" />
      <text
         id="text1735"
         y="10.476965"
         x="-1.3096209"
         style="font-style:normal;font-weight:normal;font-size:10.5833px;line-height:1.25;font-family:sans-serif;fill:#000000;fill-opacity:1;stroke:none;stroke-width:0.264583"
         xml:space="preserve"><tspan
           style="stroke-width:0.264583"
           y="10.476965"
           x="-1.3096209"
           id="tspan1733"
           sodipodi:role="line">3mm</tspan></text>
    </g>
  </g>
  <g
     transform="translate(3.411101,-17.580561)"
     style="display:inline"
     inkscape:label="top layer"
     id="layer6"
     inkscape:groupmode="layer">
    <polygon
       transform="translate(41.667387,32.1246)"
       id="polygon1599"
       style="fill:none;stroke:#ff0020;stroke-width:0.05mm;stroke-opacity:1"
       points="111.013,10.998 10.998,10.998 10.998,30.051 111.013,30.051 " />
    <rect
       ry="2.0340128"
       y="27.69029"
       x="6.6986289"
       height="39.855503"
       width="154.72153"
       id="rect1635"
       style="display:inline;fill:none;stroke:#ff0020;stroke-width:0.219459;stroke-miterlimit:4;stroke-dasharray:none;stroke-opacity:1" />
    <ellipse
       ry="0.94073367"
       rx="0.94073373"
       cy="40.344482"
       cx="9.3001728"
       id="ellipse1638"
       style="display:inline;fill:none;fill-rule:evenodd;stroke:#ff0020;stroke-width:0.189;stroke-miterlimit:4;stroke-dasharray:none;stroke-opacity:1" />
    <ellipse
       ry="0.94073367"
       rx="0.94073373"
       cy="64.997581"
       cx="9.3007231"
       id="ellipse1640"
       style="display:inline;fill:none;fill-rule:evenodd;stroke:#ff0020;stroke-width:0.189;stroke-miterlimit:4;stroke-dasharray:none;stroke-opacity:1" />
    <ellipse
       ry="0.94073367"
       rx="0.94073373"
       cy="64.997581"
       cx="50.288391"
       id="ellipse1642"
       style="display:inline;fill:none;fill-rule:evenodd;stroke:#ff0020;stroke-width:0.189;stroke-miterlimit:4;stroke-dasharray:none;stroke-opacity:1" />
    <ellipse
       ry="0.94073367"
       rx="0.94073373"
       cy="40.343819"
       cx="50.288235"
       id="ellipse1644"
       style="display:inline;fill:none;fill-rule:evenodd;stroke:#ff0020;stroke-width:0.189;stroke-miterlimit:4;stroke-dasharray:none;stroke-opacity:1" />
    <ellipse
       ry="0.94073367"
       rx="0.94073373"
       cy="64.998611"
       cx="158.83377"
       id="ellipse1646"
       style="display:inline;fill:none;fill-rule:evenodd;stroke:#ff0020;stroke-width:0.189;stroke-miterlimit:4;stroke-dasharray:none;stroke-opacity:1" />
    <ellipse
       ry="0.94073367"
       rx="0.94073373"
       cy="40.332428"
       cx="158.84912"
       id="ellipse1648"
       style="display:inline;fill:none;fill-rule:evenodd;stroke:#ff0020;stroke-width:0.189;stroke-miterlimit:4;stroke-dasharray:none;stroke-opacity:1" />
    <text
       id="text1668"
       y="55.985298"
       x="15.623713"
       style="font-style:normal;font-weight:normal;font-size:10.5833px;line-height:1.25;font-family:sans-serif;fill:#000000;fill-opacity:1;stroke:none;stroke-width:0.264583"
       xml:space="preserve"><tspan
         style="stroke-width:0.264583"
         y="55.985298"
         x="15.623713"
         id="tspan1666"
         sodipodi:role="line">3mm</tspan></text>
    <text
       id="text1199"
       y="-32.229939"
       x="-162.57593"
       style="display:inline;font-style:normal;font-weight:normal;font-size:10.58329999999999949px;line-height:1.25;font-family:sans-serif;fill:#000000;fill-opacity:1;stroke:none;stroke-width:0.264583"
       xml:space="preserve"
       transform="translate(181.919,70.447999)"><tspan
         style="stroke-width:0.264583"
         y="-32.229939"
         x="-162.57593"
         id="tspan1197"
         sodipodi:role="line">hitam transparan</tspan></text>
  </g>
</svg>
