<?xml version="1.0" encoding="UTF-8" standalone="no"?>
<svg
   xmlns:dc="http://purl.org/dc/elements/1.1/"
   xmlns:cc="http://creativecommons.org/ns#"
   xmlns:rdf="http://www.w3.org/1999/02/22-rdf-syntax-ns#"
   xmlns:svg="http://www.w3.org/2000/svg"
   xmlns="http://www.w3.org/2000/svg"
   xmlns:sodipodi="http://sodipodi.sourceforge.net/DTD/sodipodi-0.dtd"
   xmlns:inkscape="http://www.inkscape.org/namespaces/inkscape"
   width="323.94098mm"
   height="481.54099mm"
   viewBox="0 0 323.94098 481.54098"
   version="1.1"
   id="svg8"
   inkscape:version="1.0beta2 (2b71d25, 2019-12-03)"
   sodipodi:docname="keycaps-tray.svg">
  <defs
     id="defs2" />
  <sodipodi:namedview
     id="base"
     pagecolor="#ffffff"
     bordercolor="#666666"
     borderopacity="1.0"
     inkscape:pageopacity="0.0"
     inkscape:pageshadow="2"
     inkscape:zoom="0.70710678"
     inkscape:cx="574.21358"
     inkscape:cy="405.53505"
     inkscape:document-units="mm"
     inkscape:current-layer="layer4"
     inkscape:document-rotation="0"
     showgrid="false"
     fit-margin-top="10"
     fit-margin-left="10"
     fit-margin-right="10"
     fit-margin-bottom="10"
     inkscape:window-width="1892"
     inkscape:window-height="1007"
     inkscape:window-x="2574"
     inkscape:window-y="585"
     inkscape:window-maximized="0"
     inkscape:pagecheckerboard="true"
     showguides="false"
     inkscape:guide-bbox="true">
    <sodipodi:guide
       position="211.09512,323.94647"
       orientation="1,0"
       id="guide992" />
    <sodipodi:guide
       position="309.34649,324.53454"
       orientation="1,0"
       id="guide994" />
    <sodipodi:guide
       position="112.84582,324.51801"
       orientation="1,0"
       id="guide996" />
    <sodipodi:guide
       position="14.595491,324.52007"
       orientation="1,0"
       id="guide998" />
    <sodipodi:guide
       position="162.52031,240.77015"
       orientation="0,-1"
       id="guide1084" />
    <sodipodi:guide
       position="161.96944,240.80736"
       orientation="1,0"
       id="guide1086" />
    <sodipodi:guide
       position="311.83004,311.95679"
       orientation="0,-1"
       id="guide1132" />
  </sodipodi:namedview>
  <metadata
     id="metadata5">
    <rdf:RDF>
      <cc:Work
         rdf:about="">
        <dc:format>image/svg+xml</dc:format>
        <dc:type
           rdf:resource="http://purl.org/dc/dcmitype/StillImage" />
        <dc:title />
      </cc:Work>
    </rdf:RDF>
  </metadata>
  <g
     inkscape:label="Layer 1"
     inkscape:groupmode="layer"
     id="layer1"
     transform="translate(10,10)">
    <path
       transform="matrix(0.26458333,0,0,0.26458333,-10,-10)"
       d="M 41.935547 1228.7031 L 41.636719 1228.7188 L 41.341797 1228.752 L 41.050781 1228.8086 L 40.763672 1228.8887 L 40.488281 1228.9941 L 40.220703 1229.1152 L 39.958984 1229.2637 L 39.712891 1229.4258 L 39.478516 1229.6113 L 39.259766 1229.8105 L 39.058594 1230.0293 L 38.875 1230.2637 L 38.710938 1230.5098 L 38.564453 1230.7715 L 38.443359 1231.0391 L 38.337891 1231.3145 L 38.257812 1231.6016 L 38.201172 1231.8926 L 38.167969 1232.1875 L 38.15625 1232.4863 L 38.152344 1796.959 L 38.167969 1797.2578 L 38.201172 1797.5527 L 38.257812 1797.8438 L 38.337891 1798.1309 L 38.443359 1798.4062 L 38.564453 1798.6758 L 38.710938 1798.9355 L 38.875 1799.1816 L 39.058594 1799.416 L 39.259766 1799.6348 L 39.478516 1799.8359 L 39.712891 1800.0215 L 39.958984 1800.1836 L 40.220703 1800.3301 L 40.488281 1800.4512 L 40.763672 1800.5566 L 41.050781 1800.6367 L 41.341797 1800.6934 L 41.636719 1800.7266 L 41.935547 1800.7422 L 1182.4121 1800.7422 L 1182.707 1800.7266 L 1183.002 1800.6934 L 1183.293 1800.6367 L 1183.5801 1800.5566 L 1183.8555 1800.4512 L 1184.125 1800.3301 L 1184.3848 1800.1836 L 1184.6309 1800.0215 L 1184.8652 1799.8359 L 1185.084 1799.6348 L 1185.2852 1799.416 L 1185.4688 1799.1816 L 1185.6328 1798.9355 L 1185.7793 1798.6758 L 1185.9004 1798.4062 L 1186.0059 1798.1309 L 1186.0859 1797.8438 L 1186.1426 1797.5527 L 1186.1758 1797.2578 L 1186.1914 1796.9629 L 1186.1914 1232.4863 L 1186.1758 1232.1875 L 1186.1426 1231.8926 L 1186.0859 1231.6016 L 1186.0059 1231.3145 L 1185.9004 1231.0391 L 1185.7793 1230.7715 L 1185.6328 1230.5098 L 1185.4688 1230.2637 L 1185.2852 1230.0293 L 1185.084 1229.8105 L 1184.8652 1229.6113 L 1184.6309 1229.4258 L 1184.3848 1229.2637 L 1184.125 1229.1152 L 1183.8555 1228.9941 L 1183.5801 1228.8887 L 1183.293 1228.8086 L 1183.002 1228.752 L 1182.707 1228.7188 L 1182.4121 1228.707 L 41.935547 1228.7031 z M 55.164062 1239.668 L 57.03125 1239.9629 L 58.716797 1240.8203 L 60.054688 1242.1582 L 60.912109 1243.8438 L 61.210938 1245.7148 L 60.912109 1247.582 L 60.054688 1249.2676 L 58.716797 1250.6055 L 57.03125 1251.4648 L 55.164062 1251.7617 L 53.292969 1251.4648 L 51.607422 1250.6055 L 50.269531 1249.2676 L 49.412109 1247.582 L 49.117188 1245.7148 L 49.412109 1243.8438 L 50.269531 1242.1582 L 51.607422 1240.8203 L 53.292969 1239.9629 L 55.164062 1239.668 z M 426.50195 1239.668 L 428.36914 1239.9629 L 430.05469 1240.8203 L 431.39258 1242.1582 L 432.25586 1243.8438 L 432.55078 1245.7148 L 432.25586 1247.582 L 431.39258 1249.2676 L 430.05469 1250.6055 L 428.36914 1251.4648 L 426.50195 1251.7617 L 424.63086 1251.4648 L 422.94531 1250.6055 L 421.60742 1249.2676 L 420.75 1247.582 L 420.45508 1245.7148 L 420.75 1243.8438 L 421.60742 1242.1582 L 422.94531 1240.8203 L 424.63086 1239.9629 L 426.50195 1239.668 z M 797.8418 1239.668 L 799.71289 1239.9629 L 801.39844 1240.8203 L 802.73633 1242.1582 L 803.59375 1243.8438 L 803.88867 1245.7148 L 803.59375 1247.582 L 802.73633 1249.2676 L 801.39844 1250.6055 L 799.71289 1251.4648 L 797.8418 1251.7617 L 795.97461 1251.4648 L 794.28906 1250.6055 L 792.95117 1249.2676 L 792.08789 1247.582 L 791.79492 1245.7148 L 792.08789 1243.8438 L 792.95117 1242.1582 L 794.28906 1240.8203 L 795.97461 1239.9629 L 797.8418 1239.668 z M 1169.1836 1239.668 L 1171.0508 1239.9629 L 1172.7363 1240.8203 L 1174.0742 1242.1582 L 1174.9316 1243.8438 L 1175.2305 1245.7148 L 1174.9316 1247.582 L 1174.0742 1249.2676 L 1172.7363 1250.6055 L 1171.0508 1251.4648 L 1169.1836 1251.7617 L 1167.3125 1251.4648 L 1165.627 1250.6055 L 1164.2891 1249.2676 L 1163.4316 1247.582 L 1163.1367 1245.7148 L 1163.4316 1243.8438 L 1164.2891 1242.1582 L 1165.627 1240.8203 L 1167.3125 1239.9629 L 1169.1836 1239.668 z M 55.164062 1508.6758 L 57.03125 1508.9707 L 58.716797 1509.832 L 60.054688 1511.1699 L 60.912109 1512.8555 L 61.210938 1514.7227 L 60.912109 1516.5898 L 60.054688 1518.2754 L 58.716797 1519.6133 L 57.03125 1520.4746 L 55.164062 1520.7695 L 53.292969 1520.4746 L 51.607422 1519.6133 L 50.269531 1518.2754 L 49.412109 1516.5898 L 49.117188 1514.7227 L 49.412109 1512.8555 L 50.269531 1511.1699 L 51.607422 1509.832 L 53.292969 1508.9707 L 55.164062 1508.6758 z M 1169.1836 1508.6758 L 1171.0508 1508.9707 L 1172.7363 1509.832 L 1174.0742 1511.1699 L 1174.9316 1512.8555 L 1175.2305 1514.7227 L 1174.9316 1516.5898 L 1174.0742 1518.2754 L 1172.7363 1519.6133 L 1171.0508 1520.4746 L 1169.1836 1520.7695 L 1167.3125 1520.4746 L 1165.627 1519.6133 L 1164.2891 1518.2754 L 1163.4316 1516.5898 L 1163.1367 1514.7227 L 1163.4316 1512.8555 L 1164.2891 1511.1699 L 1165.627 1509.832 L 1167.3125 1508.9707 L 1169.1836 1508.6758 z M 55.164062 1777.6875 L 57.03125 1777.9824 L 58.716797 1778.8398 L 60.054688 1780.1777 L 60.912109 1781.8633 L 61.210938 1783.7344 L 60.912109 1785.6016 L 60.054688 1787.2871 L 58.716797 1788.625 L 57.03125 1789.4844 L 55.164062 1789.7812 L 53.292969 1789.4844 L 51.607422 1788.625 L 50.269531 1787.2871 L 49.412109 1785.6016 L 49.117188 1783.7344 L 49.412109 1781.8633 L 50.269531 1780.1777 L 51.607422 1778.8398 L 53.292969 1777.9824 L 55.164062 1777.6875 z M 426.50195 1777.6875 L 428.36914 1777.9824 L 430.05469 1778.8398 L 431.39258 1780.1777 L 432.25586 1781.8633 L 432.55078 1783.7344 L 432.25586 1785.6016 L 431.39258 1787.2871 L 430.05469 1788.625 L 428.36914 1789.4844 L 426.50195 1789.7812 L 424.63086 1789.4844 L 422.94531 1788.625 L 421.60742 1787.2871 L 420.75 1785.6016 L 420.45508 1783.7344 L 420.75 1781.8633 L 421.60742 1780.1777 L 422.94531 1778.8398 L 424.63086 1777.9824 L 426.50195 1777.6875 z M 797.8418 1777.6875 L 799.71289 1777.9824 L 801.39844 1778.8398 L 802.73633 1780.1777 L 803.59375 1781.8633 L 803.88867 1783.7344 L 803.59375 1785.6016 L 802.73633 1787.2871 L 801.39844 1788.625 L 799.71289 1789.4844 L 797.8418 1789.7812 L 795.97461 1789.4844 L 794.28906 1788.625 L 792.95117 1787.2871 L 792.08789 1785.6016 L 791.79492 1783.7344 L 792.08789 1781.8633 L 792.95117 1780.1777 L 794.28906 1778.8398 L 795.97461 1777.9824 L 797.8418 1777.6875 z M 1169.1836 1777.6875 L 1171.0508 1777.9824 L 1172.7363 1778.8398 L 1174.0742 1780.1777 L 1174.9316 1781.8633 L 1175.2305 1783.7344 L 1174.9316 1785.6016 L 1174.0742 1787.2871 L 1172.7363 1788.625 L 1171.0508 1789.4844 L 1169.1836 1789.7812 L 1167.3125 1789.4844 L 1165.627 1788.625 L 1164.2891 1787.2871 L 1163.4316 1785.6016 L 1163.1367 1783.7344 L 1163.4316 1781.8633 L 1164.2891 1780.1777 L 1165.627 1778.8398 L 1167.3125 1777.9824 L 1169.1836 1777.6875 z "
       style="fill:#ffffff;stroke:#ff0000;stroke-width:0.188976mm;stroke-opacity:1"
       id="polygon235" />
  </g>
  <g
     style="display:inline"
     inkscape:label="Layer 2"
     id="layer3"
     inkscape:groupmode="layer">
    <path
       transform="scale(0.26458333)"
       d="M 41.935547 623.97852 L 41.636719 623.99414 L 41.341797 624.02734 L 41.050781 624.08594 L 40.763672 624.16406 L 40.488281 624.26953 L 40.220703 624.39062 L 39.958984 624.53906 L 39.712891 624.70117 L 39.478516 624.88672 L 39.259766 625.08594 L 39.058594 625.30664 L 38.875 625.54102 L 38.710938 625.78516 L 38.564453 626.04688 L 38.443359 626.31445 L 38.337891 626.5918 L 38.257812 626.87891 L 38.201172 627.16992 L 38.167969 627.46484 L 38.15625 627.76172 L 38.152344 1192.2344 L 38.167969 1192.5332 L 38.201172 1192.8281 L 38.257812 1193.1191 L 38.337891 1193.4062 L 38.443359 1193.6816 L 38.564453 1193.9512 L 38.710938 1194.2109 L 38.875 1194.457 L 39.058594 1194.6914 L 39.259766 1194.9102 L 39.478516 1195.1113 L 39.712891 1195.2969 L 39.958984 1195.459 L 40.220703 1195.6055 L 40.488281 1195.7266 L 40.763672 1195.834 L 41.050781 1195.9121 L 41.341797 1195.9688 L 41.636719 1196.0039 L 41.935547 1196.0176 L 1182.4121 1196.0176 L 1182.707 1196.0039 L 1183.002 1195.9688 L 1183.293 1195.9121 L 1183.5801 1195.834 L 1183.8555 1195.7266 L 1184.125 1195.6055 L 1184.3848 1195.459 L 1184.6309 1195.2969 L 1184.8652 1195.1113 L 1185.084 1194.9102 L 1185.2852 1194.6914 L 1185.4688 1194.457 L 1185.6328 1194.2109 L 1185.7793 1193.9512 L 1185.9004 1193.6816 L 1186.0059 1193.4062 L 1186.0859 1193.1191 L 1186.1426 1192.8281 L 1186.1758 1192.5332 L 1186.1914 1192.2383 L 1186.1914 627.76172 L 1186.1758 627.46484 L 1186.1426 627.16992 L 1186.0859 626.87891 L 1186.0059 626.5918 L 1185.9004 626.31445 L 1185.7793 626.04688 L 1185.6328 625.78516 L 1185.4688 625.54102 L 1185.2852 625.30664 L 1185.084 625.08594 L 1184.8652 624.88672 L 1184.6309 624.70117 L 1184.3848 624.53906 L 1184.125 624.39062 L 1183.8555 624.26953 L 1183.5801 624.16406 L 1183.293 624.08594 L 1183.002 624.02734 L 1182.707 623.99414 L 1182.4121 623.98242 L 41.935547 623.97852 z M 55.166016 631.52539 L 58.095703 631.98828 L 60.732422 633.33008 L 62.828125 635.42383 L 64.169922 638.0625 L 64.630859 640.99023 L 64.169922 643.91406 L 62.828125 646.55078 L 60.732422 648.64648 L 58.095703 649.98828 L 55.166016 650.45508 L 52.244141 649.98828 L 49.605469 648.64648 L 47.511719 646.55078 L 46.164062 643.91406 L 45.701172 640.99023 L 46.164062 638.0625 L 47.511719 635.42383 L 49.605469 633.33008 L 52.244141 631.98828 L 55.166016 631.52539 z M 1169.1855 631.52539 L 1172.1152 631.98633 L 1174.752 633.33008 L 1176.8477 635.42383 L 1178.1895 638.0625 L 1178.6504 640.99023 L 1178.1895 643.91211 L 1176.8477 646.55078 L 1174.752 648.64453 L 1172.1152 649.98828 L 1169.1855 650.45508 L 1166.2637 649.98828 L 1163.625 648.64453 L 1161.5312 646.55078 L 1160.1836 643.91211 L 1159.7207 640.99023 L 1160.1836 638.0625 L 1161.5312 635.42383 L 1163.625 633.33008 L 1166.2637 631.98633 L 1169.1855 631.52539 z M 426.50391 631.52734 L 429.43164 631.98828 L 432.07031 633.33008 L 434.16406 635.42383 L 435.50586 638.0625 L 435.96875 640.99219 L 435.50586 643.91406 L 434.16406 646.55273 L 432.07031 648.64648 L 429.43164 649.98828 L 426.50391 650.45508 L 423.58008 649.98828 L 420.94141 648.64648 L 418.84766 646.55273 L 417.5 643.91406 L 417.03711 640.99219 L 417.5 638.0625 L 418.84766 635.42383 L 420.94141 633.33008 L 423.58008 631.98828 L 426.50391 631.52734 z M 797.84375 631.52734 L 800.77148 631.98828 L 803.41016 633.33008 L 805.50391 635.42383 L 806.84766 638.0625 L 807.30859 640.99219 L 806.84766 643.91406 L 805.50391 646.55273 L 803.41016 648.64648 L 800.77148 649.98828 L 797.84375 650.45508 L 794.92188 649.98828 L 792.2832 648.64648 L 790.18945 646.55273 L 788.83984 643.91406 L 788.37891 640.99219 L 788.83984 638.0625 L 790.18945 635.42383 L 792.2832 633.33008 L 794.92188 631.98828 L 797.84375 631.52734 z M 1169.1836 900.5332 L 1172.1113 900.99609 L 1174.75 902.33789 L 1176.8457 904.43164 L 1178.1875 907.07031 L 1178.6484 909.99805 L 1178.1875 912.92188 L 1176.8457 915.55859 L 1174.75 917.6543 L 1172.1113 918.99609 L 1169.1836 919.46289 L 1166.2617 918.99609 L 1163.623 917.6543 L 1161.5293 915.55859 L 1160.1797 912.92188 L 1159.7188 909.99805 L 1160.1797 907.07031 L 1161.5293 904.43164 L 1163.623 902.33789 L 1166.2617 900.99609 L 1169.1836 900.5332 z M 55.166016 900.53516 L 58.09375 900.99609 L 60.732422 902.33984 L 62.826172 904.43359 L 64.169922 907.07227 L 64.630859 910 L 64.169922 912.92188 L 62.826172 915.56055 L 60.732422 917.6543 L 58.09375 918.99805 L 55.166016 919.46484 L 52.244141 918.99805 L 49.605469 917.6543 L 47.511719 915.56055 L 46.162109 912.92188 L 45.701172 910 L 46.162109 907.07227 L 47.511719 904.43359 L 49.605469 902.33984 L 52.244141 900.99609 L 55.166016 900.53516 z M 55.166016 1169.5469 L 58.095703 1170.0078 L 60.732422 1171.3516 L 62.828125 1173.4453 L 64.169922 1176.084 L 64.630859 1179.0117 L 64.169922 1181.9336 L 62.828125 1184.5723 L 60.732422 1186.666 L 58.095703 1188.0098 L 55.166016 1188.4766 L 52.244141 1188.0098 L 49.605469 1186.666 L 47.511719 1184.5723 L 46.164062 1181.9336 L 45.701172 1179.0117 L 46.164062 1176.084 L 47.511719 1173.4453 L 49.605469 1171.3516 L 52.244141 1170.0078 L 55.166016 1169.5469 z M 426.50391 1169.5469 L 429.43164 1170.0078 L 432.07031 1171.3516 L 434.16406 1173.4453 L 435.50586 1176.084 L 435.96875 1179.0117 L 435.50586 1181.9336 L 434.16406 1184.5723 L 432.07031 1186.666 L 429.43164 1188.0098 L 426.50391 1188.4766 L 423.58008 1188.0098 L 420.94141 1186.666 L 418.84766 1184.5723 L 417.5 1181.9336 L 417.03711 1179.0117 L 417.5 1176.084 L 418.84766 1173.4453 L 420.94141 1171.3516 L 423.58008 1170.0078 L 426.50391 1169.5469 z M 797.84375 1169.5469 L 800.77148 1170.0078 L 803.41016 1171.3516 L 805.50391 1173.4453 L 806.84766 1176.084 L 807.30859 1179.0117 L 806.84766 1181.9336 L 805.50391 1184.5723 L 803.41016 1186.666 L 800.77148 1188.0098 L 797.84375 1188.4766 L 794.92188 1188.0098 L 792.2832 1186.666 L 790.18945 1184.5723 L 788.83984 1181.9336 L 788.37891 1179.0117 L 788.83984 1176.084 L 790.18945 1173.4453 L 792.2832 1171.3516 L 794.92188 1170.0078 L 797.84375 1169.5469 z M 1169.1855 1169.5469 L 1172.1152 1170.0078 L 1174.752 1171.3516 L 1176.8477 1173.4453 L 1178.1895 1176.084 L 1178.6504 1179.0117 L 1178.1895 1181.9336 L 1176.8477 1184.5723 L 1174.752 1186.666 L 1172.1152 1188.0098 L 1169.1855 1188.4766 L 1166.2637 1188.0098 L 1163.625 1186.666 L 1161.5312 1184.5723 L 1160.1836 1181.9336 L 1159.7207 1179.0117 L 1160.1836 1176.084 L 1161.5312 1173.4453 L 1163.625 1171.3516 L 1166.2637 1170.0078 L 1169.1855 1169.5469 z "
       style="fill:#ffffff;stroke:#ff0000;stroke-width:0.188976mm;stroke-opacity:1"
       id="polygon278" />
  </g>
  <g
     style="display:inline"
     inkscape:label="Layer 3"
     id="layer4"
     inkscape:groupmode="layer">
    <path
       transform="scale(0.26458333)"
       d="M 41.935547 38.152344 L 41.636719 38.167969 L 41.341797 38.201172 L 41.050781 38.257812 L 40.763672 38.337891 L 40.488281 38.443359 L 40.220703 38.564453 L 39.958984 38.710938 L 39.712891 38.875 L 39.478516 39.058594 L 39.259766 39.259766 L 39.058594 39.478516 L 38.875 39.712891 L 38.710938 39.958984 L 38.564453 40.220703 L 38.443359 40.488281 L 38.337891 40.763672 L 38.257812 41.050781 L 38.201172 41.341797 L 38.167969 41.636719 L 38.15625 41.935547 L 38.152344 606.4082 L 38.167969 606.70703 L 38.201172 607.00195 L 38.257812 607.29297 L 38.337891 607.58008 L 38.443359 607.85547 L 38.564453 608.125 L 38.710938 608.38477 L 38.875 608.63086 L 39.058594 608.86523 L 39.259766 609.08398 L 39.478516 609.28516 L 39.712891 609.46875 L 39.958984 609.63281 L 40.220703 609.7793 L 40.488281 609.90039 L 40.763672 610.00586 L 41.050781 610.08594 L 41.341797 610.14258 L 41.636719 610.17578 L 41.935547 610.19141 L 1182.4121 610.19141 L 1182.707 610.17578 L 1183.002 610.14258 L 1183.293 610.08594 L 1183.5801 610.00586 L 1183.8555 609.90039 L 1184.125 609.7793 L 1184.3848 609.63281 L 1184.6309 609.46875 L 1184.8652 609.28516 L 1185.084 609.08398 L 1185.2852 608.86523 L 1185.4688 608.63086 L 1185.6328 608.38477 L 1185.7793 608.125 L 1185.9004 607.85547 L 1186.0059 607.58008 L 1186.0859 607.29297 L 1186.1426 607.00195 L 1186.1777 606.70703 L 1186.1914 606.41211 L 1186.1914 41.935547 L 1186.1777 41.636719 L 1186.1426 41.341797 L 1186.0859 41.050781 L 1186.0059 40.763672 L 1185.9004 40.488281 L 1185.7793 40.220703 L 1185.6328 39.958984 L 1185.4688 39.712891 L 1185.2852 39.478516 L 1185.084 39.259766 L 1184.8652 39.058594 L 1184.6309 38.875 L 1184.3848 38.710938 L 1184.125 38.564453 L 1183.8555 38.443359 L 1183.5801 38.337891 L 1183.293 38.257812 L 1183.002 38.201172 L 1182.707 38.167969 L 1182.4121 38.15625 L 41.935547 38.152344 z M 55.166016 45.699219 L 58.095703 46.160156 L 60.732422 47.503906 L 62.828125 49.597656 L 64.169922 52.236328 L 64.630859 55.164062 L 64.169922 58.085938 L 62.828125 60.724609 L 60.732422 62.818359 L 58.095703 64.162109 L 55.166016 64.628906 L 52.244141 64.162109 L 49.605469 62.818359 L 47.511719 60.724609 L 46.164062 58.085938 L 45.701172 55.164062 L 46.164062 52.236328 L 47.511719 49.597656 L 49.605469 47.503906 L 52.244141 46.160156 L 55.166016 45.699219 z M 426.50391 45.699219 L 429.43164 46.160156 L 432.07031 47.503906 L 434.16406 49.597656 L 435.50586 52.236328 L 435.96875 55.164062 L 435.50586 58.085938 L 434.16406 60.724609 L 432.07031 62.818359 L 429.43164 64.162109 L 426.50391 64.628906 L 423.58008 64.162109 L 420.94141 62.818359 L 418.84766 60.724609 L 417.5 58.085938 L 417.03711 55.164062 L 417.5 52.236328 L 418.84766 49.597656 L 420.94141 47.503906 L 423.58008 46.160156 L 426.50391 45.699219 z M 797.84375 45.699219 L 800.77148 46.162109 L 803.41016 47.503906 L 805.50391 49.597656 L 806.84766 52.236328 L 807.30859 55.164062 L 806.84766 58.085938 L 805.50391 60.724609 L 803.41016 62.818359 L 800.77148 64.162109 L 797.84375 64.628906 L 794.92188 64.162109 L 792.2832 62.818359 L 790.18945 60.724609 L 788.83984 58.085938 L 788.37891 55.164062 L 788.83984 52.236328 L 790.18945 49.597656 L 792.2832 47.503906 L 794.92188 46.162109 L 797.84375 45.699219 z M 1169.1855 45.699219 L 1172.1152 46.160156 L 1174.752 47.503906 L 1176.8477 49.597656 L 1178.1895 52.236328 L 1178.6504 55.164062 L 1178.1895 58.085938 L 1176.8477 60.724609 L 1174.752 62.818359 L 1172.1152 64.162109 L 1169.1855 64.628906 L 1166.2637 64.162109 L 1163.625 62.818359 L 1161.5312 60.724609 L 1160.1836 58.085938 L 1159.7207 55.164062 L 1160.1836 52.236328 L 1161.5312 49.597656 L 1163.625 47.503906 L 1166.2637 46.160156 L 1169.1855 45.699219 z M 72.164062 72.164062 L 1152.1758 72.164062 L 1152.1758 144.17578 L 72.164062 144.17578 L 72.164062 72.164062 z M 72.164062 180.16797 L 1152.1758 180.16797 L 1152.1758 252.17578 L 72.164062 252.17578 L 72.164062 180.16797 z M 72.164062 288.16797 L 1152.1758 288.16797 L 1152.1758 360.17578 L 72.164062 360.17578 L 72.164062 288.16797 z M 1169.1836 314.70703 L 1172.1113 315.16797 L 1174.75 316.51172 L 1176.8457 318.60547 L 1178.1875 321.24414 L 1178.6484 324.17188 L 1178.1875 327.09375 L 1176.8457 329.73242 L 1174.75 331.82617 L 1172.1113 333.16992 L 1169.1836 333.63672 L 1166.2617 333.16992 L 1163.623 331.82617 L 1161.5293 329.73242 L 1160.1797 327.09375 L 1159.7188 324.17188 L 1160.1797 321.24414 L 1161.5293 318.60547 L 1163.623 316.51172 L 1166.2617 315.16797 L 1169.1836 314.70703 z M 55.166016 314.70898 L 58.09375 315.16992 L 60.732422 316.51172 L 62.826172 318.60742 L 64.169922 321.24609 L 64.630859 324.17383 L 64.169922 327.0957 L 62.826172 329.73438 L 60.732422 331.82812 L 58.09375 333.17188 L 55.166016 333.63867 L 52.244141 333.17188 L 49.605469 331.82812 L 47.511719 329.73438 L 46.162109 327.0957 L 45.701172 324.17383 L 46.162109 321.24609 L 47.511719 318.60742 L 49.605469 316.51172 L 52.244141 315.16992 L 55.166016 314.70898 z M 72.164062 396.16797 L 1152.1758 396.16797 L 1152.1758 458.17578 L 1152.1758 468.17578 L 1152.1758 504.16797 L 1152.1758 531.60156 L 1152.1758 576.17578 L 72.164062 576.17578 L 72.164062 504.16797 L 1039.2383 504.16797 L 1039.2383 468.17578 L 72.164062 468.17578 L 72.164062 396.16797 z M 1169.1855 583.71875 L 1172.1152 584.18164 L 1174.752 585.52344 L 1176.8477 587.61719 L 1178.1895 590.25586 L 1178.6504 593.18555 L 1178.1895 596.10742 L 1176.8477 598.74609 L 1174.752 600.83984 L 1172.1152 602.18164 L 1169.1855 602.64844 L 1166.2637 602.18164 L 1163.625 600.83984 L 1161.5312 598.74609 L 1160.1836 596.10742 L 1159.7207 593.18555 L 1160.1836 590.25586 L 1161.5312 587.61719 L 1163.625 585.52344 L 1166.2637 584.18164 L 1169.1855 583.71875 z M 55.166016 583.7207 L 58.095703 584.18164 L 60.732422 585.52344 L 62.828125 587.61914 L 64.169922 590.25586 L 64.630859 593.18555 L 64.169922 596.10742 L 62.828125 598.74609 L 60.732422 600.83984 L 58.095703 602.18164 L 55.166016 602.65039 L 52.244141 602.18164 L 49.605469 600.83984 L 47.511719 598.74609 L 46.164062 596.10742 L 45.701172 593.18555 L 46.164062 590.25586 L 47.511719 587.61914 L 49.605469 585.52344 L 52.244141 584.18164 L 55.166016 583.7207 z M 426.50391 583.7207 L 429.43164 584.18164 L 432.07031 585.52539 L 434.16406 587.61914 L 435.50586 590.25781 L 435.96875 593.18555 L 435.50586 596.10742 L 434.16406 598.74609 L 432.07031 600.83984 L 429.43164 602.18359 L 426.50391 602.65039 L 423.58008 602.18359 L 420.94141 600.83984 L 418.84766 598.74609 L 417.5 596.10742 L 417.03711 593.18555 L 417.5 590.25781 L 418.84766 587.61914 L 420.94141 585.52539 L 423.58008 584.18164 L 426.50391 583.7207 z M 797.84375 583.7207 L 800.77148 584.18164 L 803.41016 585.52539 L 805.50391 587.61914 L 806.84766 590.25781 L 807.30859 593.18555 L 806.84766 596.10742 L 805.50391 598.74609 L 803.41016 600.83984 L 800.77148 602.18359 L 797.84375 602.65039 L 794.92188 602.18359 L 792.2832 600.83984 L 790.18945 598.74609 L 788.83984 596.10742 L 788.37891 593.18555 L 788.83984 590.25781 L 790.18945 587.61914 L 792.2832 585.52539 L 794.92188 584.18164 L 797.84375 583.7207 z "
       style="fill:#ffffff;stroke:#ff0000;stroke-width:0.714331;stroke-miterlimit:4;stroke-dasharray:none;stroke-opacity:1"
       id="polygon177" />
    <g
       transform="matrix(0.41035667,0,0,0.41035667,254.68975,151.74988)"
       id="g21978">
      <g
         transform="translate(-28.41955,-96.415024)"
         id="layer1-0" />
      <g
         id="layer3-5"
         inkscape:label="source">
        <g
           transform="translate(-28.41955,-96.415024)"
           id="layer2"
           style="opacity:0.96">
          <g
             id="g4236">
            <g
               id="g4148"
               style="fill:#ffffff;stroke:#000000;stroke-width:0.4;stroke-miterlimit:4;stroke-dasharray:none;stroke-opacity:1"
               transform="translate(0.53453835,-1.4699826)">
              <g
                 id="g4166"
                 style="stroke:#000000;stroke-width:0.4;stroke-miterlimit:4;stroke-dasharray:none;stroke-opacity:1">
                <path
                   inkscape:connector-curvature="0"
                   id="rect1447"
                   d="m 34.350984,103.08501 h 25.798032 c 0.701349,0 1.265973,0.56462 1.265973,1.26597 v 12.29803 c 0,0.70135 -0.564624,1.26598 -1.265973,1.26598 H 34.350984 c -0.701349,0 -1.265973,-0.56463 -1.265973,-1.26598 v -12.29803 c 0,-0.70135 0.564624,-1.26597 1.265973,-1.26597 z"
                   style="fill:#ffffff;fill-opacity:1;stroke:#000000;stroke-width:0.4;stroke-miterlimit:4;stroke-dasharray:none;stroke-opacity:1" />
                <g
                   style="fill:#ffffff;stroke:#000000;stroke-width:0.4;stroke-miterlimit:4;stroke-dasharray:none;stroke-opacity:1"
                   id="g1691">
                  <path
                     inkscape:connector-curvature="0"
                     id="rect1449"
                     d="m 34.896286,113.09309 h 2.207431 c 0.444973,0 0.8032,0.35822 0.8032,0.8032 v 2.20743 c 0,0.44497 -0.358227,0.8032 -0.8032,0.8032 h -2.207431 c -0.444973,0 -0.8032,-0.35823 -0.8032,-0.8032 v -2.20743 c 0,-0.44498 0.358227,-0.8032 0.8032,-0.8032 z"
                     style="fill:#ffffff;fill-opacity:1;stroke:#000000;stroke-width:0.4;stroke-miterlimit:4;stroke-dasharray:none;stroke-opacity:1" />
                  <path
                     inkscape:connector-curvature="0"
                     id="rect1449-2-3"
                     d="m 34.897085,108.59447 h 6.705823 c 0.444648,0 0.802613,0.35796 0.802613,0.80261 v 2.20582 c 0,0.44465 -0.357965,0.80262 -0.802613,0.80262 h -6.705823 c -0.444648,0 -0.802614,-0.35797 -0.802614,-0.80262 v -2.20582 c 0,-0.44465 0.357966,-0.80261 0.802614,-0.80261 z"
                     style="fill:#ffffff;fill-opacity:1;stroke:#000000;stroke-width:0.4;stroke-miterlimit:4;stroke-dasharray:none;stroke-opacity:1" />
                  <path
                     inkscape:connector-curvature="0"
                     id="rect1449-2-3-6"
                     d="m 43.896286,108.59309 h 2.207431 c 0.444973,0 0.8032,0.35822 0.8032,0.8032 v 2.20743 c 0,0.44497 -0.358227,0.8032 -0.8032,0.8032 h -2.207431 c -0.444973,0 -0.8032,-0.35823 -0.8032,-0.8032 v -2.20743 c 0,-0.44498 0.358227,-0.8032 0.8032,-0.8032 z"
                     style="fill:#ffffff;fill-opacity:1;stroke:#000000;stroke-width:0.4;stroke-miterlimit:4;stroke-dasharray:none;stroke-opacity:1" />
                  <path
                     inkscape:connector-curvature="0"
                     id="rect1449-2-3-6-6"
                     d="m 48.396286,108.59309 h 2.207431 c 0.444973,0 0.8032,0.35822 0.8032,0.8032 v 2.20743 c 0,0.44497 -0.358227,0.8032 -0.8032,0.8032 h -2.207431 c -0.444973,0 -0.8032,-0.35823 -0.8032,-0.8032 v -2.20743 c 0,-0.44498 0.358227,-0.8032 0.8032,-0.8032 z"
                     style="fill:#ffffff;fill-opacity:1;stroke:#000000;stroke-width:0.4;stroke-miterlimit:4;stroke-dasharray:none;stroke-opacity:1" />
                  <path
                     inkscape:connector-curvature="0"
                     id="rect1449-2-3-4"
                     d="m 57.396995,104.09442 c -0.444649,0 -0.802537,0.35789 -0.802537,0.80254 v 3.69744 h -3.697449 c -0.444648,0 -0.802534,0.35789 -0.802534,0.80254 v 2.20607 c 0,0.44464 0.357886,0.80253 0.802534,0.80253 h 4.499986 2.206066 c 0.444648,0 0.802534,-0.35789 0.802534,-0.80253 v -2.20607 -4.49998 c 0,-0.44465 -0.357886,-0.80254 -0.802534,-0.80254 z"
                     style="fill:#ffffff;fill-opacity:1;stroke:#000000;stroke-width:0.4;stroke-miterlimit:4;stroke-dasharray:none;stroke-opacity:1" />
                  <path
                     inkscape:connector-curvature="0"
                     id="rect1449-2-3-6-3"
                     d="m 34.896286,104.09309 h 2.207431 c 0.444973,0 0.8032,0.35822 0.8032,0.8032 v 2.20743 c 0,0.44497 -0.358227,0.8032 -0.8032,0.8032 h -2.207431 c -0.444973,0 -0.8032,-0.35823 -0.8032,-0.8032 v -2.20743 c 0,-0.44498 0.358227,-0.8032 0.8032,-0.8032 z"
                     style="fill:#ffffff;fill-opacity:1;stroke:#000000;stroke-width:0.4;stroke-miterlimit:4;stroke-dasharray:none;stroke-opacity:1" />
                  <path
                     inkscape:connector-curvature="0"
                     id="rect1449-2-3-6-6-5"
                     d="m 39.396286,104.09309 h 2.207431 c 0.444973,0 0.8032,0.35822 0.8032,0.8032 v 2.20743 c 0,0.44497 -0.358227,0.8032 -0.8032,0.8032 h -2.207431 c -0.444973,0 -0.8032,-0.35823 -0.8032,-0.8032 v -2.20743 c 0,-0.44498 0.358227,-0.8032 0.8032,-0.8032 z"
                     style="fill:#ffffff;fill-opacity:1;stroke:#000000;stroke-width:0.4;stroke-miterlimit:4;stroke-dasharray:none;stroke-opacity:1" />
                  <path
                     inkscape:connector-curvature="0"
                     id="rect1449-2-3-6-2-8"
                     d="m 43.896286,104.09309 h 2.207431 c 0.444973,0 0.8032,0.35822 0.8032,0.8032 v 2.20743 c 0,0.44497 -0.358227,0.8032 -0.8032,0.8032 h -2.207431 c -0.444973,0 -0.8032,-0.35823 -0.8032,-0.8032 v -2.20743 c 0,-0.44498 0.358227,-0.8032 0.8032,-0.8032 z"
                     style="fill:#ffffff;fill-opacity:1;stroke:#000000;stroke-width:0.4;stroke-miterlimit:4;stroke-dasharray:none;stroke-opacity:1" />
                  <path
                     inkscape:connector-curvature="0"
                     id="rect1449-2-3-6-3-6"
                     d="m 48.396286,104.09309 h 2.207431 c 0.444973,0 0.8032,0.35822 0.8032,0.8032 v 2.20743 c 0,0.44497 -0.358227,0.8032 -0.8032,0.8032 h -2.207431 c -0.444973,0 -0.8032,-0.35823 -0.8032,-0.8032 v -2.20743 c 0,-0.44498 0.358227,-0.8032 0.8032,-0.8032 z"
                     style="fill:#ffffff;fill-opacity:1;stroke:#000000;stroke-width:0.4;stroke-miterlimit:4;stroke-dasharray:none;stroke-opacity:1" />
                  <path
                     inkscape:connector-curvature="0"
                     id="rect1449-2-3-6-2-8-8"
                     d="m 52.896286,104.09309 h 2.207431 c 0.444973,0 0.8032,0.35822 0.8032,0.8032 v 2.20743 c 0,0.44497 -0.358227,0.8032 -0.8032,0.8032 h -2.207431 c -0.444973,0 -0.8032,-0.35823 -0.8032,-0.8032 v -2.20743 c 0,-0.44498 0.358227,-0.8032 0.8032,-0.8032 z"
                     style="fill:#ffffff;fill-opacity:1;stroke:#000000;stroke-width:0.4;stroke-miterlimit:4;stroke-dasharray:none;stroke-opacity:1" />
                  <path
                     inkscape:connector-curvature="0"
                     id="rect1449-2-3-8"
                     d="m 43.897089,113.09447 h 6.705822 c 0.444648,0 0.802614,0.35796 0.802614,0.80261 v 2.20582 c 0,0.44465 -0.357966,0.80262 -0.802614,0.80262 h -6.705822 c -0.444648,0 -0.802614,-0.35797 -0.802614,-0.80262 v -2.20582 c 0,-0.44465 0.357966,-0.80261 0.802614,-0.80261 z"
                     style="fill:#ffffff;fill-opacity:1;stroke:#000000;stroke-width:0.4;stroke-miterlimit:4;stroke-dasharray:none;stroke-opacity:1" />
                  <path
                     inkscape:connector-curvature="0"
                     id="rect1449-8"
                     d="m 39.396198,113.09317 h 2.207432 c 0.444972,0 0.803199,0.35823 0.803199,0.8032 v 2.20743 c 0,0.44497 -0.358227,0.8032 -0.803199,0.8032 h -2.207432 c -0.444973,0 -0.803199,-0.35823 -0.803199,-0.8032 v -2.20743 c 0,-0.44497 0.358226,-0.8032 0.803199,-0.8032 z"
                     style="fill:#ffffff;fill-opacity:1;stroke:#000000;stroke-width:0.4;stroke-miterlimit:4;stroke-dasharray:none;stroke-opacity:1" />
                  <path
                     inkscape:connector-curvature="0"
                     id="rect1449-8-9"
                     d="m 52.896198,113.09317 h 2.207432 c 0.444972,0 0.803199,0.35823 0.803199,0.8032 v 2.20743 c 0,0.44497 -0.358227,0.8032 -0.803199,0.8032 h -2.207432 c -0.444973,0 -0.803199,-0.35823 -0.803199,-0.8032 v -2.20743 c 0,-0.44497 0.358226,-0.8032 0.803199,-0.8032 z"
                     style="fill:#ffffff;fill-opacity:1;stroke:#000000;stroke-width:0.4;stroke-miterlimit:4;stroke-dasharray:none;stroke-opacity:1" />
                  <path
                     inkscape:connector-curvature="0"
                     id="rect1449-8-2"
                     d="m 57.396198,113.09317 h 2.207432 c 0.444972,0 0.803199,0.35823 0.803199,0.8032 v 2.20743 c 0,0.44497 -0.358227,0.8032 -0.803199,0.8032 h -2.207432 c -0.444973,0 -0.803199,-0.35823 -0.803199,-0.8032 v -2.20743 c 0,-0.44497 0.358226,-0.8032 0.803199,-0.8032 z"
                     style="fill:#ffffff;fill-opacity:1;stroke:#000000;stroke-width:0.4;stroke-miterlimit:4;stroke-dasharray:none;stroke-opacity:1" />
                </g>
              </g>
            </g>
            <g
               id="text12"
               style="font-style:normal;font-weight:normal;font-size:10.5833px;line-height:1.25;font-family:sans-serif;letter-spacing:0px;word-spacing:0px;fill:#000000;fill-opacity:1;stroke:none;stroke-width:0.264583"
               aria-label="SENDYYeah">
              <path
                 inkscape:connector-curvature="0"
                 id="path857"
                 style="font-style:normal;font-variant:normal;font-weight:normal;font-stretch:normal;font-size:16.9333px;font-family:'HP Simplified';-inkscape-font-specification:'HP Simplified';stroke-width:0.264583"
                 d="m 63.984232,106.34612 q 0,-1.60867 0.9144,-2.42147 0.9144,-0.8128 2.827867,-0.8128 0.7112,0 1.4224,0.1016 0.7112,0.0847 1.100666,0.22013 0.270934,0.11854 0.321734,0.27094 0.06773,0.13546 0.06773,0.32173 v 0.77893 q -0.626533,-0.0847 -1.286933,-0.13546 -0.6604,-0.0677 -1.354667,-0.0677 -0.6604,0 -1.100666,0.11854 -0.440267,0.1016 -0.7112,0.3048 -0.254,0.2032 -0.372534,0.508 -0.1016,0.3048 -0.1016,0.7112 0,0.4572 0.118534,0.762 0.118533,0.28786 0.389466,0.508 0.287867,0.22013 0.728134,0.4064 0.4572,0.16933 1.1176,0.4064 0.677333,0.254 1.2192,0.508 0.558799,0.254 0.948266,0.64346 0.4064,0.37254 0.6096,0.93134 0.220133,0.54186 0.220133,1.38853 0,1.8288 -0.982133,2.62467 -0.982133,0.77893 -2.8448,0.77893 -0.8128,0 -1.5748,-0.11853 -0.762,-0.1016 -1.185333,-0.254 -0.220133,-0.0847 -0.3048,-0.22014 -0.08467,-0.13546 -0.08467,-0.33866 v -0.84667 q 0.592667,0.0847 1.303867,0.16933 0.728133,0.0847 1.540933,0.0847 0.7112,0 1.1684,-0.11853 0.474134,-0.13547 0.728134,-0.3556 0.270933,-0.23707 0.372533,-0.57574 0.1016,-0.33866 0.1016,-0.762 0,-0.47413 -0.118533,-0.77893 -0.1016,-0.3048 -0.372534,-0.508 -0.270933,-0.22013 -0.728133,-0.4064 -0.440267,-0.18627 -1.1176,-0.42333 -0.7112,-0.254 -1.27,-0.52494 -0.541867,-0.27093 -0.931333,-0.64346 -0.372534,-0.38947 -0.575734,-0.9144 -0.2032,-0.54187 -0.2032,-1.3208 z" />
              <path
                 inkscape:connector-curvature="0"
                 id="path859"
                 style="font-style:normal;font-variant:normal;font-weight:normal;font-stretch:normal;font-size:16.9333px;font-family:'HP Simplified';-inkscape-font-specification:'HP Simplified';stroke-width:0.264583"
                 d="m 79.319482,103.28118 q 0.389467,0 0.389467,0.38947 v 1.0668 h -4.842934 v 3.6068 h 4.0132 q 0.389467,0 0.389467,0.38947 v 1.08373 h -4.402667 v 3.74227 h 4.639734 q 0.186266,0 0.287866,0.1016 0.118534,0.1016 0.118534,0.28786 v 1.0668 h -6.417733 q -0.4064,0 -0.4064,-0.38946 v -11.34534 z" />
              <path
                 inkscape:connector-curvature="0"
                 id="path861"
                 style="font-style:normal;font-variant:normal;font-weight:normal;font-stretch:normal;font-size:16.9333px;font-family:'HP Simplified';-inkscape-font-specification:'HP Simplified';stroke-width:0.264583"
                 d="m 89.795658,115.01598 h -1.405466 q -0.287867,0 -0.4572,-0.38946 -0.270934,-0.57574 -0.643467,-1.3208 -0.372533,-0.74507 -0.795867,-1.55787 -0.423333,-0.8128 -0.8636,-1.64253 -0.440266,-0.84667 -0.846666,-1.59174 -0.4064,-0.762 -0.745067,-1.3716 -0.338666,-0.62653 -0.5588,-1.016 v 8.89 h -1.286933 q -0.4064,0 -0.4064,-0.38946 v -11.34534 h 1.4224 q 0.186267,0 0.287867,0.11854 0.1016,0.1016 0.2032,0.27093 0.220133,0.38947 0.541866,0.98213 0.338667,0.59267 0.728133,1.30387 0.4064,0.7112 0.829734,1.50707 0.423333,0.79586 0.829733,1.59173 0.423333,0.77893 0.795867,1.524 0.389466,0.72813 0.677333,1.3208 v -8.61907 h 1.286933 q 0.4064,0 0.4064,0.38947 z" />
              <path
                 inkscape:connector-curvature="0"
                 id="path863"
                 style="font-style:normal;font-variant:normal;font-weight:normal;font-stretch:normal;font-size:16.9333px;font-family:'HP Simplified';-inkscape-font-specification:'HP Simplified';stroke-width:0.264583"
                 d="m 95.59162,104.58505 q -0.389466,0 -0.8636,0.0339 -0.474133,0.0339 -0.778933,0.0847 v 8.89 h 1.608667 q 0.728133,0 1.27,-0.1524 0.541866,-0.16933 0.897466,-0.6604 0.3556,-0.49106 0.524934,-1.38853 0.169333,-0.9144 0.169333,-2.40453 0,-1.3208 -0.1524,-2.16747 -0.135467,-0.8636 -0.474133,-1.35467 -0.321734,-0.508 -0.8636,-0.69426 -0.541867,-0.18627 -1.337734,-0.18627 z m -3.014133,10.43093 q -0.4064,0 -0.4064,-0.38946 v -11.14214 q 0.389467,-0.0677 0.829734,-0.11853 0.4572,-0.0677 0.9144,-0.1016 0.474133,-0.0508 0.914399,-0.0677 0.440267,-0.0339 0.829734,-0.0339 1.202266,0 2.065866,0.3048 0.8636,0.3048 1.4224,0.99907 0.5588,0.69426 0.8128,1.8288 0.27093,1.13453 0.27093,2.77706 0,1.64254 -0.27093,2.77707 -0.254,1.13453 -0.795866,1.84573 -0.541867,0.69427 -1.405467,1.016 -0.846667,0.3048 -2.032,0.3048 z" />
              <path
                 inkscape:connector-curvature="0"
                 id="path865"
                 style="font-style:normal;font-variant:normal;font-weight:normal;font-stretch:normal;font-size:16.9333px;font-family:'HP Simplified';-inkscape-font-specification:'HP Simplified';stroke-width:0.264583"
                 d="m 104.67159,115.01598 q -0.4064,0 -0.4064,-0.38946 v -4.064 q -0.57573,-0.9652 -1.04987,-1.84574 -0.47413,-0.89746 -0.8636,-1.778 -0.38946,-0.89746 -0.72813,-1.79493 -0.32173,-0.89747 -0.59267,-1.86267 h 1.54094 q 0.254,0 0.32173,0.11854 0.0847,0.1016 0.1524,0.33866 0.1524,0.54187 0.37253,1.1684 0.22014,0.62654 0.47414,1.3208 0.27093,0.67734 0.59266,1.40547 0.32174,0.7112 0.7112,1.4224 0.38947,-0.72813 0.74507,-1.54093 0.37253,-0.82974 0.6604,-1.60867 0.3048,-0.79587 0.52493,-1.4732 0.22014,-0.69427 0.3048,-1.15147 h 1.3208 q 0.23707,0 0.33867,0.16934 0.1016,0.1524 0.0169,0.38946 -0.3048,0.9652 -0.62653,1.81187 -0.32173,0.84667 -0.69427,1.65947 -0.37253,0.79586 -0.8128,1.59173 -0.42333,0.79587 -0.93133,1.65947 v 4.45346 z" />
              <path
                 inkscape:connector-curvature="0"
                 id="path867"
                 style="font-style:normal;font-variant:normal;font-weight:normal;font-stretch:normal;font-size:16.9333px;font-family:'HP Simplified';-inkscape-font-specification:'HP Simplified';stroke-width:0.264583"
                 d="m 113.73357,115.01598 q -0.4064,0 -0.4064,-0.38946 v -4.064 q -0.57573,-0.9652 -1.04987,-1.84574 -0.47413,-0.89746 -0.8636,-1.778 -0.38946,-0.89746 -0.72813,-1.79493 -0.32173,-0.89747 -0.59267,-1.86267 h 1.54094 q 0.254,0 0.32173,0.11854 0.0847,0.1016 0.1524,0.33866 0.1524,0.54187 0.37253,1.1684 0.22014,0.62654 0.47414,1.3208 0.27093,0.67734 0.59266,1.40547 0.32174,0.7112 0.7112,1.4224 0.38947,-0.72813 0.74507,-1.54093 0.37253,-0.82974 0.6604,-1.60867 0.3048,-0.79587 0.52493,-1.4732 0.22014,-0.69427 0.3048,-1.15147 h 1.3208 q 0.23707,0 0.33867,0.16934 0.1016,0.1524 0.0169,0.38946 -0.3048,0.9652 -0.62653,1.81187 -0.32173,0.84667 -0.69427,1.65947 -0.37253,0.79586 -0.8128,1.59173 -0.42333,0.79587 -0.93133,1.65947 v 4.45346 z" />
              <path
                 inkscape:connector-curvature="0"
                 id="path869"
                 style="font-style:normal;font-variant:normal;font-weight:normal;font-stretch:normal;font-size:16.9333px;font-family:'HP Simplified';-inkscape-font-specification:'HP Simplified';stroke-width:0.264583"
                 d="m 120.164,111.34145 q 0.0339,0.67733 0.1524,1.15147 0.11853,0.47413 0.38947,0.77893 0.28786,0.28787 0.762,0.42333 0.47413,0.13547 1.2192,0.13547 0.6604,0 1.20226,-0.0677 0.54187,-0.0677 0.74507,-0.0677 0.38947,0 0.38947,0.37254 v 0.7112 q -0.4064,0.16933 -1.1176,0.28786 -0.69427,0.13547 -1.60867,0.13547 -0.9652,0 -1.6764,-0.23707 -0.7112,-0.23706 -1.18533,-0.762 -0.4572,-0.54186 -0.67734,-1.38853 -0.22013,-0.8636 -0.22013,-2.0828 0,-1.2192 0.22013,-2.0828 0.22014,-0.8636 0.6604,-1.40547 0.4572,-0.5588 1.1176,-0.79586 0.6604,-0.254 1.54094,-0.254 0.98213,0 1.60866,0.28786 0.62654,0.27094 0.98214,0.74507 0.3556,0.47413 0.49106,1.1176 0.13547,0.62653 0.13547,1.35467 0,0.49106 -0.0508,0.94826 -0.0508,0.4572 -0.13547,0.69427 z m 3.57293,-1.20227 q 0.0169,-0.16933 0.0169,-0.254 0,-0.0847 0,-0.22013 0,-1.08373 -0.33867,-1.6256 -0.32173,-0.5588 -1.28693,-0.5588 -0.57574,0 -0.94827,0.18627 -0.37253,0.18626 -0.59267,0.52493 -0.22013,0.33867 -0.32173,0.84667 -0.0847,0.49106 -0.1016,1.10066 z" />
              <path
                 inkscape:connector-curvature="0"
                 id="path871"
                 style="font-style:normal;font-variant:normal;font-weight:normal;font-stretch:normal;font-size:16.9333px;font-family:'HP Simplified';-inkscape-font-specification:'HP Simplified';stroke-width:0.264583"
                 d="m 129.87315,110.90118 q -0.508,0 -0.84667,0.11854 -0.33866,0.1016 -0.54186,0.3048 -0.18627,0.18626 -0.27094,0.4572 -0.0677,0.27093 -0.0677,0.59266 0,0.77894 0.37253,1.13454 0.37254,0.3556 1.13454,0.3556 0.67733,0 1.1684,-0.254 0.49106,-0.27094 0.84666,-0.6096 v -2.09974 z m -0.6604,4.2672 q -1.3208,0 -1.96427,-0.72813 -0.64346,-0.72813 -0.64346,-2.01507 0,-0.79586 0.23706,-1.3208 0.254,-0.52493 0.69427,-0.82973 0.4572,-0.32173 1.0668,-0.44027 0.6096,-0.13546 1.3208,-0.13546 h 1.74413 v -0.57574 q 0,-0.88053 -0.4572,-1.20226 -0.4572,-0.32174 -1.55786,-0.32174 -0.74507,0 -1.33774,0.0847 -0.59266,0.0677 -0.77893,0.0677 -0.22013,0 -0.32173,-0.1016 -0.0847,-0.11853 -0.0847,-0.28786 v -0.72814 q 0.59267,-0.18626 1.33773,-0.3048 0.74507,-0.11853 1.524,-0.11853 0.9652,0 1.60867,0.22013 0.64347,0.2032 1.03293,0.59267 0.38947,0.38947 0.54187,0.94827 0.16933,0.5588 0.16933,1.23613 v 5.80813 h -1.03293 q -0.28787,0 -0.3556,-0.11853 -0.0677,-0.13547 -0.1016,-0.3048 l -0.0677,-0.508 q -0.44027,0.42333 -1.0668,0.762 -0.6096,0.32173 -1.50707,0.32173 z" />
              <path
                 inkscape:connector-curvature="0"
                 id="path873"
                 style="font-style:normal;font-variant:normal;font-weight:normal;font-stretch:normal;font-size:16.9333px;font-family:'HP Simplified';-inkscape-font-specification:'HP Simplified';stroke-width:0.264583"
                 d="m 140.91448,115.01598 q -0.18627,0 -0.3048,-0.1016 -0.1016,-0.1016 -0.1016,-0.28786 v -5.334 q 0,-0.88054 -0.37254,-1.25307 -0.37253,-0.38947 -1.08373,-0.38947 -0.69427,0 -1.18533,0.28787 -0.49107,0.27093 -0.77894,0.5588 v 6.51933 h -1.30386 q -0.4064,0 -0.4064,-0.38946 v -11.76867 h 1.30386 q 0.18627,0 0.28787,0.1016 0.11853,0.1016 0.11853,0.28787 v 4.0132 q 0.49107,-0.52494 1.15147,-0.77894 0.67733,-0.27093 1.43933,-0.27093 1.35467,0 1.94734,0.79587 0.59266,0.79586 0.59266,2.15053 v 5.85893 z" />
            </g>
          </g>
        </g>
      </g>
    </g>
  </g>
</svg>
