<?xml version="1.0" encoding="UTF-8" standalone="no"?>
<!-- Created with Inkscape (http://www.inkscape.org/) -->

<svg
   xmlns:dc="http://purl.org/dc/elements/1.1/"
   xmlns:cc="http://creativecommons.org/ns#"
   xmlns:rdf="http://www.w3.org/1999/02/22-rdf-syntax-ns#"
   xmlns:svg="http://www.w3.org/2000/svg"
   xmlns="http://www.w3.org/2000/svg"
   xmlns:sodipodi="http://sodipodi.sourceforge.net/DTD/sodipodi-0.dtd"
   xmlns:inkscape="http://www.inkscape.org/namespaces/inkscape"
   width="324.0408mm"
   height="474.75153mm"
   viewBox="0 0 324.0408 474.75152"
   version="1.1"
   id="svg8"
   inkscape:version="1.0beta2 (2b71d25, 2019-12-03)"
   sodipodi:docname="keycaps-tray.svg">
  <defs
     id="defs2" />
  <sodipodi:namedview
     id="base"
     pagecolor="#ffffff"
     bordercolor="#666666"
     borderopacity="1.0"
     inkscape:pageopacity="0.0"
     inkscape:pageshadow="2"
     inkscape:zoom="0.25"
     inkscape:cx="-567.03833"
     inkscape:cy="333.78196"
     inkscape:document-units="mm"
     inkscape:current-layer="layer1"
     inkscape:document-rotation="0"
     showgrid="false"
     fit-margin-top="10"
     fit-margin-left="10"
     fit-margin-right="10"
     fit-margin-bottom="10"
     inkscape:window-width="1259"
     inkscape:window-height="1007"
     inkscape:window-x="14"
     inkscape:window-y="37"
     inkscape:window-maximized="0" />
  <metadata
     id="metadata5">
    <rdf:RDF>
      <cc:Work
         rdf:about="">
        <dc:format>image/svg+xml</dc:format>
        <dc:type
           rdf:resource="http://purl.org/dc/dcmitype/StillImage" />
        <dc:title></dc:title>
      </cc:Work>
    </rdf:RDF>
  </metadata>
  <g
     inkscape:label="Layer 1"
     inkscape:groupmode="layer"
     id="layer1"
     transform="translate(10,10)">
    <g
       id="g1250"
       transform="translate(-4.905512,-4.905512)">
      <polygon
         id="polygon1209"
         style="fill:none;stroke:#000000;stroke-width:0.05mm"
         points="308.274,5.148 308.339,5.191 308.401,5.24 308.459,5.293 308.512,5.351 308.561,5.413 308.604,5.478 308.643,5.547 308.675,5.618 308.703,5.691 308.724,5.767 308.739,5.844 308.748,5.922 308.752,6.001 308.752,155.352 308.748,155.43 308.739,155.508 308.724,155.585 308.703,155.661 308.675,155.734 308.643,155.805 308.604,155.874 308.561,155.939 308.512,156.001 308.459,156.059 308.401,156.112 308.339,156.161 308.274,156.204 308.205,156.243 308.134,156.275 308.061,156.303 307.985,156.324 307.908,156.339 307.83,156.348 307.752,156.352 6.001,156.352 5.922,156.348 5.844,156.339 5.767,156.324 5.691,156.303 5.618,156.275 5.547,156.243 5.478,156.204 5.413,156.161 5.351,156.112 5.293,156.059 5.24,156.001 5.191,155.939 5.148,155.874 5.109,155.805 5.077,155.734 5.049,155.661 5.028,155.585 5.013,155.508 5.004,155.43 5,155.351 5.001,6.001 5.004,5.922 5.013,5.844 5.028,5.767 5.049,5.691 5.077,5.618 5.109,5.547 5.148,5.478 5.191,5.413 5.24,5.351 5.293,5.293 5.351,5.24 5.413,5.191 5.478,5.148 5.547,5.109 5.618,5.077 5.691,5.049 5.767,5.028 5.844,5.013 5.922,5.004 6.001,5 307.752,5.001 307.83,5.004 307.908,5.013 307.985,5.028 308.061,5.049 308.134,5.077 308.205,5.109 " />
      <polygon
         id="polygon1211"
         style="fill:none;stroke:#000000;stroke-width:0.05mm"
         points="8.56,153.146 9.006,153.373 9.501,153.452 9.995,153.373 10.441,153.146 10.795,152.792 11.022,152.346 11.101,151.852 11.022,151.357 10.795,150.911 10.441,150.557 9.995,150.33 9.501,150.252 9.006,150.33 8.56,150.557 8.206,150.911 7.979,151.357 7.901,151.852 7.979,152.346 8.206,152.792 " />
      <polygon
         id="polygon1213"
         style="fill:none;stroke:#000000;stroke-width:0.05mm"
         points="106.81,153.146 107.256,153.373 107.751,153.452 108.245,153.373 108.691,153.146 109.045,152.792 109.273,152.346 109.351,151.852 109.273,151.357 109.045,150.911 108.691,150.557 108.245,150.33 107.751,150.252 107.256,150.33 106.81,150.557 106.456,150.911 106.229,151.357 106.151,151.852 106.229,152.346 106.456,152.792 " />
      <polygon
         id="polygon1215"
         style="fill:none;stroke:#000000;stroke-width:0.05mm"
         points="205.061,153.146 205.507,153.373 206.001,153.452 206.496,153.373 206.942,153.146 207.296,152.792 207.523,152.346 207.601,151.852 207.523,151.357 207.296,150.911 206.942,150.557 206.496,150.33 206.001,150.252 205.507,150.33 205.061,150.557 204.707,150.911 204.479,151.357 204.401,151.852 204.479,152.346 204.707,152.792 " />
      <polygon
         id="polygon1217"
         style="fill:none;stroke:#000000;stroke-width:0.05mm"
         points="303.311,153.146 303.757,153.373 304.252,153.452 304.746,153.373 305.192,153.146 305.546,152.792 305.773,152.346 305.852,151.852 305.773,151.357 305.546,150.911 305.192,150.557 304.746,150.33 304.252,150.252 303.757,150.33 303.311,150.557 302.957,150.911 302.73,151.357 302.652,151.852 302.73,152.346 302.957,152.792 " />
      <polygon
         id="polygon1219"
         style="fill:none;stroke:#000000;stroke-width:0.05mm"
         points="8.56,81.97 9.006,82.198 9.501,82.276 9.995,82.198 10.441,81.97 10.795,81.616 11.022,81.17 11.101,80.676 11.022,80.182 10.795,79.736 10.441,79.382 9.995,79.154 9.501,79.076 9.006,79.154 8.56,79.382 8.206,79.736 7.979,80.182 7.901,80.676 7.979,81.17 8.206,81.616 " />
      <polygon
         id="polygon1221"
         style="fill:none;stroke:#000000;stroke-width:0.05mm"
         points="303.311,81.97 303.757,82.198 304.252,82.276 304.746,82.198 305.192,81.97 305.546,81.616 305.773,81.17 305.852,80.676 305.773,80.182 305.546,79.736 305.192,79.382 304.746,79.154 304.252,79.076 303.757,79.154 303.311,79.382 302.957,79.736 302.73,80.182 302.652,80.676 302.73,81.17 302.957,81.616 " />
      <polygon
         id="polygon1223"
         style="fill:none;stroke:#000000;stroke-width:0.05mm"
         points="8.56,10.795 9.006,11.022 9.501,11.101 9.995,11.022 10.441,10.795 10.795,10.441 11.022,9.995 11.101,9.501 11.022,9.006 10.795,8.56 10.441,8.206 9.995,7.979 9.501,7.901 9.006,7.979 8.56,8.206 8.206,8.56 7.979,9.006 7.901,9.501 7.979,9.995 8.206,10.441 " />
      <polygon
         id="polygon1225"
         style="fill:none;stroke:#000000;stroke-width:0.05mm"
         points="303.311,10.795 303.757,11.022 304.252,11.101 304.746,11.022 305.192,10.795 305.546,10.441 305.773,9.995 305.852,9.501 305.773,9.006 305.546,8.56 305.192,8.206 304.746,7.979 304.252,7.901 303.757,7.979 303.311,8.206 302.957,8.56 302.73,9.006 302.652,9.501 302.73,9.995 302.957,10.441 " />
      <polygon
         id="polygon1227"
         style="fill:none;stroke:#000000;stroke-width:0.05mm"
         points="205.061,10.795 205.507,11.022 206.001,11.101 206.496,11.022 206.942,10.795 207.296,10.441 207.523,9.995 207.601,9.501 207.523,9.006 207.296,8.56 206.942,8.206 206.496,7.979 206.001,7.901 205.507,7.979 205.061,8.206 204.707,8.56 204.479,9.006 204.401,9.501 204.479,9.995 204.707,10.441 " />
      <polygon
         id="polygon1229"
         style="fill:none;stroke:#000000;stroke-width:0.05mm"
         points="106.81,10.795 107.256,11.022 107.751,11.101 108.245,11.022 108.691,10.795 109.045,10.441 109.273,9.995 109.351,9.501 109.273,9.006 109.045,8.56 108.691,8.206 108.245,7.979 107.751,7.901 107.256,7.979 106.81,8.206 106.456,8.56 106.229,9.006 106.151,9.501 106.229,9.995 106.456,10.441 " />
    </g>
  </g>
</svg>
