<?xml version="1.0" encoding="UTF-8" standalone="no"?>
<!-- Created with Inkscape (http://www.inkscape.org/) -->

<svg
   xmlns:dc="http://purl.org/dc/elements/1.1/"
   xmlns:cc="http://creativecommons.org/ns#"
   xmlns:rdf="http://www.w3.org/1999/02/22-rdf-syntax-ns#"
   xmlns:svg="http://www.w3.org/2000/svg"
   xmlns="http://www.w3.org/2000/svg"
   xmlns:sodipodi="http://sodipodi.sourceforge.net/DTD/sodipodi-0.dtd"
   xmlns:inkscape="http://www.inkscape.org/namespaces/inkscape"
   width="210mm"
   height="297mm"
   viewBox="0 0 210 297"
   version="1.1"
   id="svg8"
   sodipodi:docname="RoMac2.1_Plates.svg"
   inkscape:version="0.92.4 (5da689c313, 2019-01-14)">
  <defs
     id="defs2" />
  <sodipodi:namedview
     id="base"
     pagecolor="#ffffff"
     bordercolor="#666666"
     borderopacity="1.0"
     inkscape:pageopacity="0.0"
     inkscape:pageshadow="2"
     inkscape:zoom="1.4"
     inkscape:cx="404.64861"
     inkscape:cy="895.57955"
     inkscape:document-units="mm"
     inkscape:current-layer="layer1"
     showgrid="false"
     inkscape:window-width="1920"
     inkscape:window-height="1027"
     inkscape:window-x="-8"
     inkscape:window-y="-8"
     inkscape:window-maximized="1" />
  <metadata
     id="metadata5">
    <rdf:RDF>
      <cc:Work
         rdf:about="">
        <dc:format>image/svg+xml</dc:format>
        <dc:type
           rdf:resource="http://purl.org/dc/dcmitype/StillImage" />
      </cc:Work>
    </rdf:RDF>
  </metadata>
  <g
     inkscape:label="Layer 1"
     inkscape:groupmode="layer"
     id="layer1">
    <g
       style="fill-rule:evenodd"
       id="g1012"
       transform="matrix(0.35277779,0,0,0.35277779,3.1622671,-136.86422)">
      <g
         style="stroke:#ff0000;stroke-opacity:1"
         id="g4902">
        <path
           inkscape:connector-curvature="0"
           id="path3747"
           d="m 33.989339,423.9437 c -0.589555,0.0445 -1.17669,0.0895 -1.744037,0.22938 -0.567347,0.13989 -1.114917,0.37579 -1.624311,0.67215 -0.5094,0.29696 -0.980617,0.65556 -1.395465,1.06987 -0.414848,0.41432 -0.773321,0.88553 -1.07037,1.39409 -0.297044,0.50915 -0.532666,1.05624 -0.672839,1.62348 -0.140172,0.56664 -0.184896,1.15344 -0.229806,1.74261"
           style="fill:none;stroke:#ff0000;stroke-width:0.50424063;stroke-linecap:round;stroke-linejoin:round;stroke-opacity:1" />
        <path
           inkscape:connector-curvature="0"
           id="path3751"
           d="m 27.252511,666.15551 c 0.04491,0.58917 0.08964,1.17597 0.229815,1.74261 0.140177,0.56665 0.375804,1.11432 0.672866,1.62288 0.297055,0.50915 0.655539,0.98037 1.070405,1.39469 0.41486,0.41431 0.886095,0.77291 1.395506,1.06927 0.509412,0.29696 1.057,0.53227 1.624359,0.67274 0.567365,0.13989 1.1545,0.18434 1.744055,0.22939"
           style="fill:none;stroke:#ff0000;stroke-width:0.50424063;stroke-linecap:round;stroke-linejoin:round;stroke-opacity:1" />
        <path
           inkscape:connector-curvature="0"
           id="path3759"
           d="M 27.252511,430.67528 V 666.15551"
           style="fill:none;stroke:#ff0000;stroke-width:0.50424063;stroke-linecap:round;stroke-linejoin:round;stroke-opacity:1" />
        <path
           inkscape:connector-curvature="0"
           id="path3761"
           d="m 39.341664,432.68462 c -0.03909,-0.38172 -0.07788,-0.76106 -0.197527,-1.11788 -0.119702,-0.35682 -0.320313,-0.69053 -0.567489,-0.98215 -0.247175,-0.29103 -0.540856,-0.53938 -0.869593,-0.72964 -0.328677,-0.18967 -0.692411,-0.32185 -1.067238,-0.38765 -0.374826,-0.0658 -0.760745,-0.0658 -1.135334,0 -0.374589,0.0658 -0.73779,0.19798 -1.067238,0.38765 -0.329508,0.19026 -0.625265,0.43861 -0.869652,0.72964 -0.244388,0.29162 -0.437454,0.62533 -0.567661,0.98274 -0.130208,0.35682 -0.197563,0.73735 -0.197622,1.11729 -5.9e-5,0.38053 0.06718,0.76046 0.197313,1.11788 0.130125,0.35741 0.323167,0.69111 0.567555,0.98274 0.244387,0.29162 0.540203,0.53997 0.869711,0.73023 0.329508,0.18967 0.692827,0.32185 1.067475,0.38764 0.374649,0.0658 0.760686,0.0658 1.135572,0 0.374945,-0.0658 0.738679,-0.19797 1.067475,-0.38764 0.328797,-0.19026 0.622536,-0.43861 0.869652,-0.73023 0.247176,-0.29163 0.447728,-0.62533 0.567371,-0.98215 0.119643,-0.35682 0.158259,-0.73617 0.19723,-1.11847"
           style="fill:none;stroke:#ff0000;stroke-width:0.50424063;stroke-linecap:round;stroke-linejoin:round;stroke-opacity:1" />
        <path
           inkscape:connector-curvature="0"
           id="path3763"
           d="m 39.341664,432.68462 v 0"
           style="fill:none;stroke:#ff0000;stroke-width:0.50424063;stroke-linecap:round;stroke-linejoin:round;stroke-opacity:1" />
        <path
           inkscape:connector-curvature="0"
           id="path3765"
           d="m 39.341664,664.08868 v 0"
           style="fill:none;stroke:#ff0000;stroke-width:0.50424063;stroke-linecap:round;stroke-linejoin:round;stroke-opacity:1" />
        <path
           inkscape:connector-curvature="0"
           id="path3767"
           d="m 39.341664,664.08868 c -0.03909,-0.38231 -0.07788,-0.76166 -0.197527,-1.11788 -0.119702,-0.35682 -0.320313,-0.69112 -0.567489,-0.98215 -0.247175,-0.29103 -0.540856,-0.53997 -0.869593,-0.72964 -0.328677,-0.19027 -0.692411,-0.32185 -1.067238,-0.38765 -0.374826,-0.0658 -0.760745,-0.0658 -1.135334,0 -0.374589,0.0658 -0.73779,0.19738 -1.067238,0.38765 -0.329508,0.18967 -0.625265,0.43861 -0.869652,0.72964 -0.244388,0.29103 -0.437454,0.62533 -0.567661,0.98274 -0.130208,0.35682 -0.197563,0.73676 -0.197622,1.11729 -5.9e-5,0.37993 0.06718,0.76046 0.197307,1.11728 0.130131,0.35742 0.323173,0.69171 0.567561,0.98333 0.244387,0.29103 0.540203,0.53998 0.869711,0.72965 0.329508,0.19026 0.692827,0.32185 1.067475,0.38823 0.374649,0.0658 0.760686,0.0658 1.135572,0 0.374945,-0.0664 0.738679,-0.19797 1.067475,-0.38823 0.328797,-0.18967 0.622536,-0.43862 0.869652,-0.72965 0.247176,-0.29162 0.447728,-0.62591 0.567371,-0.98273 0.119643,-0.35682 0.158259,-0.73617 0.19723,-1.11788"
           style="fill:none;stroke:#ff0000;stroke-width:0.50424063;stroke-linecap:round;stroke-linejoin:round;stroke-opacity:1" />
        <path
           inkscape:connector-curvature="0"
           id="path3747-2"
           d="m 269.51138,423.9437 c 0.58956,0.0445 1.17669,0.0895 1.74404,0.22938 0.56734,0.13989 1.11492,0.37579 1.62431,0.67215 0.5094,0.29696 0.98062,0.65556 1.39546,1.06987 0.41485,0.41432 0.77332,0.88553 1.07037,1.39409 0.29705,0.50915 0.53267,1.05624 0.67284,1.62348 0.14018,0.56664 0.1849,1.15344 0.22981,1.74261"
           style="fill:none;stroke:#ff0000;stroke-width:0.50424063;stroke-linecap:round;stroke-linejoin:round;stroke-opacity:1" />
        <path
           inkscape:connector-curvature="0"
           id="path3751-4"
           d="m 276.24821,666.15551 c -0.0449,0.58917 -0.0896,1.17597 -0.22982,1.74261 -0.14017,0.56665 -0.3758,1.11432 -0.67286,1.62288 -0.29706,0.50915 -0.65554,0.98037 -1.07041,1.39469 -0.41486,0.41431 -0.88609,0.77291 -1.3955,1.06927 -0.50942,0.29696 -1.057,0.53227 -1.62436,0.67274 -0.56737,0.13989 -1.1545,0.18434 -1.74406,0.22939"
           style="fill:none;stroke:#ff0000;stroke-width:0.50424063;stroke-linecap:round;stroke-linejoin:round;stroke-opacity:1" />
        <path
           inkscape:connector-curvature="0"
           id="path3759-5"
           d="M 276.24821,430.67528 V 666.15551"
           style="fill:none;stroke:#ff0000;stroke-width:0.50424063;stroke-linecap:round;stroke-linejoin:round;stroke-opacity:1" />
        <path
           inkscape:connector-curvature="0"
           id="path3761-9"
           d="m 264.15906,432.68462 c 0.0391,-0.38172 0.0779,-0.76106 0.19752,-1.11788 0.11971,-0.35682 0.32032,-0.69053 0.56749,-0.98215 0.24718,-0.29103 0.54086,-0.53938 0.86959,-0.72964 0.32868,-0.18967 0.69242,-0.32185 1.06724,-0.38765 0.37483,-0.0658 0.76075,-0.0658 1.13534,0 0.37459,0.0658 0.73779,0.19798 1.06724,0.38765 0.3295,0.19026 0.62526,0.43861 0.86965,0.72964 0.24438,0.29162 0.43745,0.62533 0.56766,0.98274 0.13021,0.35682 0.19756,0.73735 0.19762,1.11729 6e-5,0.38053 -0.0672,0.76046 -0.19731,1.11788 -0.13013,0.35741 -0.32317,0.69111 -0.56756,0.98274 -0.24439,0.29162 -0.5402,0.53997 -0.86971,0.73023 -0.32951,0.18967 -0.69283,0.32185 -1.06747,0.38764 -0.37465,0.0658 -0.76069,0.0658 -1.13558,0 -0.37494,-0.0658 -0.73868,-0.19797 -1.06747,-0.38764 -0.3288,-0.19026 -0.62254,-0.43861 -0.86965,-0.73023 -0.24718,-0.29163 -0.44773,-0.62533 -0.56737,-0.98215 -0.11965,-0.35682 -0.15826,-0.73617 -0.19723,-1.11847"
           style="fill:none;stroke:#ff0000;stroke-width:0.50424063;stroke-linecap:round;stroke-linejoin:round;stroke-opacity:1" />
        <path
           inkscape:connector-curvature="0"
           id="path3763-6"
           d="m 264.15906,432.68462 v 0"
           style="fill:none;stroke:#ff0000;stroke-width:0.50424063;stroke-linecap:round;stroke-linejoin:round;stroke-opacity:1" />
        <path
           inkscape:connector-curvature="0"
           id="path3765-2"
           d="m 264.15906,664.08868 v 0"
           style="fill:none;stroke:#ff0000;stroke-width:0.50424063;stroke-linecap:round;stroke-linejoin:round;stroke-opacity:1" />
        <path
           inkscape:connector-curvature="0"
           id="path3767-4"
           d="m 264.15906,664.08868 c 0.0391,-0.38231 0.0779,-0.76166 0.19752,-1.11788 0.11971,-0.35682 0.32032,-0.69112 0.56749,-0.98215 0.24718,-0.29103 0.54086,-0.53997 0.86959,-0.72964 0.32868,-0.19027 0.69242,-0.32185 1.06724,-0.38765 0.37483,-0.0658 0.76075,-0.0658 1.13534,0 0.37459,0.0658 0.73779,0.19738 1.06724,0.38765 0.3295,0.18967 0.62526,0.43861 0.86965,0.72964 0.24438,0.29103 0.43745,0.62533 0.56766,0.98274 0.13021,0.35682 0.19756,0.73676 0.19762,1.11729 6e-5,0.37993 -0.0672,0.76046 -0.19731,1.11728 -0.13013,0.35742 -0.32317,0.69171 -0.56756,0.98333 -0.24439,0.29103 -0.5402,0.53998 -0.86971,0.72965 -0.32951,0.19026 -0.69283,0.32185 -1.06747,0.38823 -0.37465,0.0658 -0.76069,0.0658 -1.13558,0 -0.37494,-0.0664 -0.73868,-0.19797 -1.06747,-0.38823 -0.3288,-0.18967 -0.62254,-0.43862 -0.86965,-0.72965 -0.24718,-0.29162 -0.44773,-0.62591 -0.56737,-0.98273 -0.11965,-0.35682 -0.15826,-0.73617 -0.19723,-1.11788"
           style="fill:none;stroke:#ff0000;stroke-width:0.50424063;stroke-linecap:round;stroke-linejoin:round;stroke-opacity:1" />
        <path
           inkscape:connector-curvature="0"
           id="path3747-2-3"
           d="m 276.1963,666.16494 c -0.0444,0.58956 -0.0895,1.17669 -0.22938,1.74404 -0.13989,0.56734 -0.37579,1.11492 -0.67215,1.62431 -0.29696,0.5094 -0.65556,0.98062 -1.06987,1.39546 -0.41432,0.41485 -0.88553,0.77332 -1.39409,1.07037 -0.50915,0.29705 -1.05624,0.53267 -1.62348,0.67284 -0.56664,0.14018 -1.15344,0.1849 -1.74261,0.22981"
           style="fill:none;stroke:#ff0000;stroke-width:0.50424063;stroke-linecap:round;stroke-linejoin:round;stroke-opacity:1" />
        <path
           inkscape:connector-curvature="0"
           id="path3751-4-5"
           d="m 33.984491,672.90177 c -0.589169,-0.0449 -1.175967,-0.0896 -1.742612,-0.22982 -0.566645,-0.14017 -1.114324,-0.3758 -1.622882,-0.67286 -0.509151,-0.29706 -0.980367,-0.65554 -1.394682,-1.07041 -0.414315,-0.41486 -0.772914,-0.88609 -1.069276,-1.3955 -0.296956,-0.50942 -0.532268,-1.057 -0.672743,-1.62436 -0.139884,-0.56737 -0.184338,-1.1545 -0.229385,-1.74406"
           style="fill:none;stroke:#ff0000;stroke-width:0.50424063;stroke-linecap:round;stroke-linejoin:round;stroke-opacity:1" />
        <path
           inkscape:connector-curvature="0"
           id="path3759-5-4"
           d="M 269.46472,672.90177 H 33.984491"
           style="fill:none;stroke:#ff0000;stroke-width:0.50424063;stroke-linecap:round;stroke-linejoin:round;stroke-opacity:1" />
        <path
           inkscape:connector-curvature="0"
           id="path3763-6-8"
           d="m 267.45538,660.81262 v 0"
           style="fill:none;stroke:#ff0000;stroke-width:0.50424063;stroke-linecap:round;stroke-linejoin:round;stroke-opacity:1" />
        <path
           inkscape:connector-curvature="0"
           id="path3765-2-3"
           d="m 36.051324,660.81262 v 0"
           style="fill:none;stroke:#ff0000;stroke-width:0.50424063;stroke-linecap:round;stroke-linejoin:round;stroke-opacity:1" />
        <path
           inkscape:connector-curvature="0"
           id="path3747-2-3-3"
           d="m 276.1963,430.71201 c -0.0444,-0.58956 -0.0895,-1.17669 -0.22938,-1.74404 -0.13989,-0.56734 -0.37579,-1.11492 -0.67215,-1.62431 -0.29696,-0.5094 -0.65556,-0.98062 -1.06987,-1.39546 -0.41432,-0.41485 -0.88553,-0.77332 -1.39409,-1.07037 -0.50915,-0.29705 -1.05624,-0.53267 -1.62348,-0.67284 -0.56664,-0.14018 -1.15344,-0.1849 -1.74261,-0.22981"
           style="fill:none;stroke:#ff0000;stroke-width:0.50424063;stroke-linecap:round;stroke-linejoin:round;stroke-opacity:1" />
        <path
           inkscape:connector-curvature="0"
           id="path3751-4-5-8"
           d="m 33.984491,423.97518 c -0.589169,0.0449 -1.175967,0.0896 -1.742612,0.22982 -0.566645,0.14017 -1.114324,0.3758 -1.622882,0.67286 -0.509151,0.29706 -0.980367,0.65554 -1.394682,1.07041 -0.414315,0.41486 -0.772914,0.88609 -1.069276,1.3955 -0.296956,0.50942 -0.532268,1.057 -0.672743,1.62436 -0.139884,0.56737 -0.184338,1.1545 -0.229385,1.74406"
           style="fill:none;stroke:#ff0000;stroke-width:0.50424063;stroke-linecap:round;stroke-linejoin:round;stroke-opacity:1" />
        <path
           inkscape:connector-curvature="0"
           id="path3759-5-4-1"
           d="M 269.46472,423.97518 H 33.984491"
           style="fill:none;stroke:#ff0000;stroke-width:0.50424063;stroke-linecap:round;stroke-linejoin:round;stroke-opacity:1" />
        <path
           inkscape:connector-curvature="0"
           id="path3763-6-8-4"
           d="m 267.45538,436.06433 v 0"
           style="fill:none;stroke:#ff0000;stroke-width:0.50424063;stroke-linecap:round;stroke-linejoin:round;stroke-opacity:1" />
        <path
           inkscape:connector-curvature="0"
           id="path3765-2-3-7"
           d="m 36.051324,436.06433 v 0"
           style="fill:none;stroke:#ff0000;stroke-width:0.50424063;stroke-linecap:round;stroke-linejoin:round;stroke-opacity:1" />
      </g>
    </g>
    <g
       style="fill-rule:evenodd;stroke:#ff0000;stroke-opacity:1"
       id="g1061"
       transform="matrix(0.35277779,0,0,0.35277779,156.14978,-136.63363)">
      <g
         transform="matrix(0.59317368,0,0,0.59272518,27.515515,173.22463)"
         id="g3771"
         style="stroke:#ff0000;stroke-opacity:1">
        <path
           inkscape:connector-curvature="0"
           id="path3747-9"
           d="m 11.3576,421.891 c -0.9939,0.075 -1.98372,0.151 -2.94018,0.387 -0.95646,0.236 -1.87958,0.634 -2.73834,1.134 -0.85877,0.501 -1.65317,1.106 -2.35254,1.805 -0.69937,0.699 -1.3037,1.494 -1.80448,2.352 -0.50077,0.859 -0.897993,1.782 -1.134303,2.739 -0.236309,0.956 -0.3117068,1.946 -0.38741811,2.94"
           style="fill:none;stroke:#ff0000;stroke-width:0.85039401;stroke-linecap:round;stroke-linejoin:round;stroke-opacity:1" />
        <path
           inkscape:connector-curvature="0"
           id="path3749"
           d="m 11.3579,841.889 96.6461,10e-4"
           style="fill:none;stroke:#ff0000;stroke-width:0.85039401;stroke-linecap:round;stroke-linejoin:round;stroke-opacity:1" />
        <path
           inkscape:connector-curvature="0"
           id="path3751-9"
           d="m 3.3889e-4,830.532 c 0.07571431,0.994 0.15111511,1.984 0.38743211,2.94 0.236317,0.956 0.633549,1.88 1.134349,2.738 0.50079,0.859 1.10514,1.654 1.80454,2.353 0.69939,0.699 1.49382,1.304 2.35261,1.804 0.85879,0.501 1.78194,0.898 2.73842,1.135 0.95649,0.236 1.94631,0.311 2.94021,0.387"
           style="fill:none;stroke:#ff0000;stroke-width:0.85039401;stroke-linecap:round;stroke-linejoin:round;stroke-opacity:1" />
        <path
           inkscape:connector-curvature="0"
           id="path3753"
           d="m 107.961,841.89 c 0.994,-0.076 1.984,-0.151 2.94,-0.388 0.957,-0.236 1.88,-0.633 2.739,-1.134 0.859,-0.501 1.653,-1.105 2.353,-1.805 0.699,-0.699 1.304,-1.494 1.805,-2.353 0.5,-0.859 0.898,-1.782 1.134,-2.739 0.236,-0.956 0.312,-1.946 0.388,-2.94"
           style="fill:none;stroke:#ff0000;stroke-width:0.85039401;stroke-linecap:round;stroke-linejoin:round;stroke-opacity:1" />
        <path
           inkscape:connector-curvature="0"
           id="path3755"
           d="M 119.32,830.531 V 433.257"
           style="fill:none;stroke:#ff0000;stroke-width:0.85039401;stroke-linecap:round;stroke-linejoin:round;stroke-opacity:1" />
        <path
           inkscape:connector-curvature="0"
           id="path3757"
           d="m 119.32,433.257 c -0.313,-1.99 -0.621,-3.951 -1.528,-5.684 -0.907,-1.734 -2.413,-3.24 -4.147,-4.147 -1.733,-0.907 -3.694,-1.215 -5.684,-1.527"
           style="fill:none;stroke:#ff0000;stroke-width:0.85039401;stroke-linecap:round;stroke-linejoin:round;stroke-opacity:1" />
        <path
           inkscape:connector-curvature="0"
           id="path3759-0"
           d="M 3.3889e-4,433.248 V 830.532"
           style="fill:none;stroke:#ff0000;stroke-width:0.85039401;stroke-linecap:round;stroke-linejoin:round;stroke-opacity:1" />
        <path
           inkscape:connector-curvature="0"
           id="path3761-5"
           d="m 20.3808,436.638 c -0.0659,-0.644 -0.1313,-1.284 -0.333,-1.886 -0.2018,-0.602 -0.54,-1.165 -0.9567,-1.657 -0.4167,-0.491 -0.9118,-0.91 -1.466,-1.231 -0.5541,-0.32 -1.1673,-0.543 -1.7992,-0.654 -0.6319,-0.111 -1.2825,-0.111 -1.914,0 -0.6315,0.111 -1.2438,0.334 -1.7992,0.654 -0.5555,0.321 -1.0541,0.74 -1.4661,1.231 -0.412,0.492 -0.73748,1.055 -0.95699,1.658 -0.21951,0.602 -0.33306,1.244 -0.33316,1.885 -10e-5,0.642 0.11325,1.283 0.33264,1.886 0.21937,0.603 0.54481,1.166 0.95681,1.658 0.412,0.492 0.9107,0.911 1.4662,1.232 0.5555,0.32 1.168,0.543 1.7996,0.654 0.6316,0.111 1.2824,0.111 1.9144,0 0.6321,-0.111 1.2453,-0.334 1.7996,-0.654 0.5543,-0.321 1.0495,-0.74 1.4661,-1.232 0.4167,-0.492 0.7548,-1.055 0.9565,-1.657 0.2017,-0.602 0.2668,-1.242 0.3325,-1.887"
           style="fill:none;stroke:#ff0000;stroke-width:0.85039401;stroke-linecap:round;stroke-linejoin:round;stroke-opacity:1" />
        <path
           inkscape:connector-curvature="0"
           id="path3763-1"
           d="m 20.3808,436.638 v 0"
           style="fill:none;stroke:#ff0000;stroke-width:0.85039401;stroke-linecap:round;stroke-linejoin:round;stroke-opacity:1" />
        <path
           inkscape:connector-curvature="0"
           id="path3765-9"
           d="m 20.3808,827.045 v 0"
           style="fill:none;stroke:#ff0000;stroke-width:0.85039401;stroke-linecap:round;stroke-linejoin:round;stroke-opacity:1" />
        <path
           inkscape:connector-curvature="0"
           id="path3767-5"
           d="m 20.3808,827.045 c -0.0659,-0.645 -0.1313,-1.285 -0.333,-1.886 -0.2018,-0.602 -0.54,-1.166 -0.9567,-1.657 -0.4167,-0.491 -0.9118,-0.911 -1.466,-1.231 -0.5541,-0.321 -1.1673,-0.543 -1.7992,-0.654 -0.6319,-0.111 -1.2825,-0.111 -1.914,0 -0.6315,0.111 -1.2438,0.333 -1.7992,0.654 -0.5555,0.32 -1.0541,0.74 -1.4661,1.231 -0.412,0.491 -0.73748,1.055 -0.95699,1.658 -0.21951,0.602 -0.33306,1.243 -0.33316,1.885 -10e-5,0.641 0.11325,1.283 0.33263,1.885 0.21938,0.603 0.54482,1.167 0.95682,1.659 0.412,0.491 0.9107,0.911 1.4662,1.231 0.5555,0.321 1.168,0.543 1.7996,0.655 0.6316,0.111 1.2824,0.111 1.9144,0 0.6321,-0.112 1.2453,-0.334 1.7996,-0.655 0.5543,-0.32 1.0495,-0.74 1.4661,-1.231 0.4167,-0.492 0.7548,-1.056 0.9565,-1.658 0.2017,-0.602 0.2668,-1.242 0.3325,-1.886"
           style="fill:none;stroke:#ff0000;stroke-width:0.85039401;stroke-linecap:round;stroke-linejoin:round;stroke-opacity:1" />
        <path
           inkscape:connector-curvature="0"
           id="path3769"
           d="m 11.3576,421.891 96.6034,0.008"
           style="fill:none;stroke:#ff0000;stroke-width:0.85039401;stroke-linecap:round;stroke-linejoin:round;stroke-opacity:1" />
      </g>
    </g>
    <g
       id="g1144"
       transform="translate(100.28614,13.497596)">
      <polygon
         id="polygon1097"
         style="fill:none;stroke:#ff0000;stroke-width:0.05mm"
         points="61.327,80.82 61.196,80.907 61.059,80.984 60.917,81.049 60.77,81.104 60.618,81.146 60.464,81.177 60.308,81.195 60.151,81.201 7.001,81.202 6.844,81.195 6.688,81.177 6.534,81.146 6.382,81.104 6.235,81.049 6.093,80.984 5.956,80.907 5.825,80.82 5.702,80.722 5.586,80.616 5.48,80.5 5.382,80.377 5.295,80.246 5.218,80.109 5.153,79.967 5.098,79.82 5.056,79.668 5.025,79.514 5.007,79.358 5,79.202 5.001,7.001 5.007,6.844 5.025,6.688 5.056,6.534 5.098,6.382 5.153,6.235 5.218,6.093 5.295,5.956 5.382,5.825 5.48,5.702 5.586,5.586 5.702,5.48 5.825,5.382 5.956,5.295 6.093,5.218 6.235,5.153 6.382,5.098 6.534,5.056 6.688,5.025 6.844,5.007 7.001,5 60.151,5.001 60.308,5.007 60.464,5.025 60.618,5.056 60.77,5.098 60.917,5.153 61.059,5.218 61.196,5.295 61.327,5.382 61.45,5.48 61.566,5.586 61.672,5.702 61.77,5.825 61.857,5.956 61.934,6.093 61.999,6.235 62.054,6.382 62.096,6.534 62.127,6.688 62.145,6.844 62.152,7.001 62.151,79.202 62.145,79.358 62.127,79.514 62.096,79.668 62.054,79.82 61.999,79.967 61.934,80.109 61.857,80.246 61.77,80.377 61.672,80.5 61.566,80.616 61.45,80.722 " />
      <polygon
         id="polygon1099"
         style="fill:none;stroke:#ff0000;stroke-width:0.05mm"
         points="7.526,78.676 21.526,78.676 21.526,64.676 7.526,64.676 " />
      <polygon
         id="polygon1101"
         style="fill:none;stroke:#ff0000;stroke-width:0.05mm"
         points="26.576,78.676 40.576,78.676 40.576,64.676 26.576,64.676 " />
      <polygon
         id="polygon1103"
         style="fill:none;stroke:#ff0000;stroke-width:0.05mm"
         points="45.626,78.676 59.626,78.676 59.626,64.676 45.626,64.676 " />
      <polygon
         id="polygon1105"
         style="fill:none;stroke:#ff0000;stroke-width:0.05mm"
         points="7.526,59.626 21.526,59.626 21.526,45.626 7.526,45.626 " />
      <polygon
         id="polygon1107"
         style="fill:none;stroke:#ff0000;stroke-width:0.05mm"
         points="26.576,59.626 40.576,59.626 40.576,45.626 26.576,45.626 " />
      <polygon
         id="polygon1109"
         style="fill:none;stroke:#ff0000;stroke-width:0.05mm"
         points="45.626,59.626 59.626,59.626 59.626,45.626 45.626,45.626 " />
      <polygon
         id="polygon1111"
         style="fill:none;stroke:#ff0000;stroke-width:0.05mm"
         points="7.526,40.576 21.526,40.576 21.526,26.576 7.526,26.576 " />
      <polygon
         id="polygon1113"
         style="fill:none;stroke:#ff0000;stroke-width:0.05mm"
         points="26.576,40.576 40.576,40.576 40.576,26.576 26.576,26.576 " />
      <polygon
         id="polygon1115"
         style="fill:none;stroke:#ff0000;stroke-width:0.05mm"
         points="45.626,40.576 59.626,40.576 59.626,26.576 45.626,26.576 " />
      <polygon
         id="polygon1117"
         style="fill:none;stroke:#ff0000;stroke-width:0.05mm"
         points="7.526,21.526 21.526,21.526 21.526,7.526 7.526,7.526 " />
      <polygon
         id="polygon1119"
         style="fill:none;stroke:#ff0000;stroke-width:0.05mm"
         points="26.576,21.526 40.576,21.526 40.576,7.526 26.576,7.526 " />
      <polygon
         id="polygon1121"
         style="fill:none;stroke:#ff0000;stroke-width:0.05mm"
         points="45.626,21.526 59.626,21.526 59.626,7.526 45.626,7.526 " />
    </g>
  </g>
</svg>
