<?xml version="1.0" encoding="UTF-8" standalone="no"?>
<svg
   xmlns:dc="http://purl.org/dc/elements/1.1/"
   xmlns:cc="http://creativecommons.org/ns#"
   xmlns:rdf="http://www.w3.org/1999/02/22-rdf-syntax-ns#"
   xmlns:svg="http://www.w3.org/2000/svg"
   xmlns="http://www.w3.org/2000/svg"
   xmlns:sodipodi="http://sodipodi.sourceforge.net/DTD/sodipodi-0.dtd"
   xmlns:inkscape="http://www.inkscape.org/namespaces/inkscape"
   inkscape:version="1.0beta2 (2b71d25, 2019-12-03)"
   sodipodi:docname="arisu-lopro.svg"
   viewBox="0 0 1489.1333 1489.1333"
   height="1489.1333"
   width="1489.1333"
   xml:space="preserve"
   id="svg1673"
   version="1.1"><metadata
     id="metadata1679"><rdf:RDF><cc:Work
         rdf:about=""><dc:format>image/svg+xml</dc:format><dc:type
           rdf:resource="http://purl.org/dc/dcmitype/StillImage" /><dc:title></dc:title></cc:Work></rdf:RDF></metadata><defs
     id="defs1677"><clipPath
       id="clipPath1693"
       clipPathUnits="userSpaceOnUse"><path
         inkscape:connector-curvature="0"
         id="path1691"
         d="M 0,1116.85 H 1116.85 V 0 H 0 Z" /></clipPath></defs><sodipodi:namedview
     inkscape:current-layer="g1681"
     inkscape:window-maximized="1"
     inkscape:window-y="798"
     inkscape:window-x="2760"
     inkscape:cy="290.18206"
     inkscape:cx="-80.556671"
     inkscape:zoom="0.25831542"
     showgrid="false"
     id="namedview1675"
     inkscape:window-height="1035"
     inkscape:window-width="1920"
     inkscape:pageshadow="2"
     inkscape:pageopacity="0"
     guidetolerance="10"
     gridtolerance="10"
     objecttolerance="10"
     borderopacity="1"
     inkscape:document-rotation="0"
     bordercolor="#666666"
     pagecolor="#ffffff" /><g
     transform="matrix(1.3333333,0,0,-1.3333333,0,1489.1333)"
     inkscape:label="arisu_lopro_case_P2_ponoko (1)"
     inkscape:groupmode="layer"
     id="g1681"><path
       inkscape:connector-curvature="0"
       id="path1685"
       style="fill:#ffffff;fill-opacity:1;fill-rule:nonzero;stroke:none"
       d="M 1102.677,14.174 H 14.173 v 1088.504 h 1088.504 z" /><g
       id="g1689"
       clip-path="url(#clipPath1693)"
       style="stroke-width:0.535748;stroke-miterlimit:4;stroke-dasharray:none"><g
         id="g1695"
         transform="translate(119.8721,844.5913)"
         style="stroke-width:0.535748;stroke-miterlimit:4;stroke-dasharray:none"><path
           d="m 0,0 c -0.352,0 -0.638,0.287 -0.638,0.638 v 37.984 c 0,0.352 0.286,0.638 0.638,0.638 h 37.984 c 0.351,0 0.638,-0.286 0.638,-0.638 V 0.638 C 38.622,0.287 38.335,0 37.984,0 Z"
           style="fill:none;stroke:#0000ff;stroke-width:0.535748;stroke-linecap:round;stroke-linejoin:round;stroke-miterlimit:4;stroke-dasharray:none;stroke-opacity:1"
           id="path1697"
           inkscape:connector-curvature="0" /></g><g
         id="g1699"
         transform="translate(173.8721,844.5913)"
         style="stroke-width:0.535748;stroke-miterlimit:4;stroke-dasharray:none"><path
           d="m 0,0 c -0.352,0 -0.638,0.287 -0.638,0.638 v 37.984 c 0,0.352 0.286,0.638 0.638,0.638 h 37.984 c 0.351,0 0.638,-0.286 0.638,-0.638 V 0.638 C 38.622,0.287 38.335,0 37.984,0 Z"
           style="fill:none;stroke:#0000ff;stroke-width:0.535748;stroke-linecap:round;stroke-linejoin:round;stroke-miterlimit:4;stroke-dasharray:none;stroke-opacity:1"
           id="path1701"
           inkscape:connector-curvature="0" /></g><g
         id="g1703"
         transform="translate(227.8721,848.8442)"
         style="stroke-width:0.535748;stroke-miterlimit:4;stroke-dasharray:none"><path
           d="m 0,0 c -0.352,0 -0.638,0.287 -0.638,0.638 v 37.985 c 0,0.351 0.286,0.637 0.638,0.637 h 37.984 c 0.351,0 0.638,-0.286 0.638,-0.637 V 0.638 C 38.622,0.287 38.335,0 37.984,0 Z"
           style="fill:none;stroke:#0000ff;stroke-width:0.535748;stroke-linecap:round;stroke-linejoin:round;stroke-miterlimit:4;stroke-dasharray:none;stroke-opacity:1"
           id="path1705"
           inkscape:connector-curvature="0" /></g><g
         id="g1707"
         transform="translate(189.0654,790.5913)"
         style="stroke-width:0.535748;stroke-miterlimit:4;stroke-dasharray:none"><path
           d="m 0,0 c -0.352,0 -0.638,0.287 -0.638,0.638 v 37.984 c 0,0.352 0.286,0.638 0.638,0.638 h 37.984 c 0.352,0 0.639,-0.286 0.639,-0.638 V 0.638 C 38.623,0.287 38.336,0 37.984,0 Z"
           style="fill:none;stroke:#0000ff;stroke-width:0.535748;stroke-linecap:round;stroke-linejoin:round;stroke-miterlimit:4;stroke-dasharray:none;stroke-opacity:1"
           id="path1709"
           inkscape:connector-curvature="0" /></g><g
         id="g1711"
         transform="translate(121.5728,790.5913)"
         style="stroke-width:0.535748;stroke-miterlimit:4;stroke-dasharray:none"><path
           d="m 0,0 c -0.352,0 -0.638,0.287 -0.638,0.638 v 37.984 c 0,0.352 0.286,0.638 0.638,0.638 h 37.984 c 0.351,0 0.638,-0.286 0.638,-0.638 V 0.638 C 38.622,0.287 38.335,0 37.984,0 Z"
           style="fill:none;stroke:#0000ff;stroke-width:0.535748;stroke-linecap:round;stroke-linejoin:round;stroke-miterlimit:4;stroke-dasharray:none;stroke-opacity:1"
           id="path1713"
           inkscape:connector-curvature="0" /></g><g
         id="g1715"
         transform="translate(98.2437,628.5913)"
         style="stroke-width:0.535748;stroke-miterlimit:4;stroke-dasharray:none"><path
           d="m 0,0 c -0.352,0 -0.638,0.287 -0.638,0.638 v 37.984 c 0,0.352 0.286,0.638 0.638,0.638 h 37.984 c 0.351,0 0.638,-0.286 0.638,-0.638 V 0.638 C 38.622,0.287 38.335,0 37.984,0 Z"
           style="fill:none;stroke:#0000ff;stroke-width:0.535748;stroke-linecap:round;stroke-linejoin:round;stroke-miterlimit:4;stroke-dasharray:none;stroke-opacity:1"
           id="path1717"
           inkscape:connector-curvature="0" /></g><g
         id="g1719"
         transform="translate(116.7998,736.5913)"
         style="stroke-width:0.535748;stroke-miterlimit:4;stroke-dasharray:none"><path
           d="m 0,0 c -0.352,0 -0.638,0.287 -0.638,0.638 v 37.984 c 0,0.352 0.286,0.638 0.638,0.638 h 37.984 c 0.352,0 0.638,-0.286 0.638,-0.638 V 0.638 C 38.622,0.287 38.336,0 37.984,0 Z"
           style="fill:none;stroke:#0000ff;stroke-width:0.535748;stroke-linecap:round;stroke-linejoin:round;stroke-miterlimit:4;stroke-dasharray:none;stroke-opacity:1"
           id="path1721"
           inkscape:connector-curvature="0" /></g><g
         id="g1723"
         transform="translate(850.1582,682.5913)"
         style="stroke-width:0.535748;stroke-miterlimit:4;stroke-dasharray:none"><path
           d="m 0,0 c -0.352,0 -0.638,0.287 -0.638,0.638 v 37.984 c 0,0.352 0.286,0.638 0.638,0.638 h 37.984 c 0.352,0 0.638,-0.286 0.638,-0.638 V 0.638 C 38.622,0.287 38.336,0 37.984,0 Z"
           style="fill:none;stroke:#0000ff;stroke-width:0.535748;stroke-linecap:round;stroke-linejoin:round;stroke-miterlimit:4;stroke-dasharray:none;stroke-opacity:1"
           id="path1725"
           inkscape:connector-curvature="0" /></g><g
         id="g1727"
         transform="translate(191.0498,736.5913)"
         style="stroke-width:0.535748;stroke-miterlimit:4;stroke-dasharray:none"><path
           d="m 0,0 c -0.352,0 -0.638,0.287 -0.638,0.638 v 37.984 c 0,0.352 0.286,0.638 0.638,0.638 h 37.984 c 0.352,0 0.638,-0.286 0.638,-0.638 V 0.638 C 38.622,0.287 38.336,0 37.984,0 Z"
           style="fill:none;stroke:#0000ff;stroke-width:0.535748;stroke-linecap:round;stroke-linejoin:round;stroke-miterlimit:4;stroke-dasharray:none;stroke-opacity:1"
           id="path1729"
           inkscape:connector-curvature="0" /></g><g
         id="g1731"
         transform="translate(206.2153,682.5913)"
         style="stroke-width:0.535748;stroke-miterlimit:4;stroke-dasharray:none"><path
           d="m 0,0 c -0.352,0 -0.638,0.287 -0.638,0.638 v 37.984 c 0,0.352 0.286,0.638 0.638,0.638 h 37.984 c 0.351,0 0.638,-0.286 0.638,-0.638 V 0.638 C 38.622,0.287 38.335,0 37.984,0 Z"
           style="fill:none;stroke:#0000ff;stroke-width:0.535748;stroke-linecap:round;stroke-linejoin:round;stroke-miterlimit:4;stroke-dasharray:none;stroke-opacity:1"
           id="path1733"
           inkscape:connector-curvature="0" /></g><g
         id="g1735"
         transform="translate(318.4414,833.3462)"
         style="stroke-width:0.535748;stroke-miterlimit:4;stroke-dasharray:none"><path
           d="m 0,0 c -0.044,0 -0.089,0.005 -0.133,0.014 l -37.155,7.897 c -0.344,0.073 -0.564,0.413 -0.491,0.756 l 7.897,37.155 c 0.062,0.293 0.324,0.505 0.623,0.505 0.045,0 0.09,-0.005 0.134,-0.014 L 8.029,38.416 C 8.373,38.343 8.593,38.003 8.52,37.66 L 0.623,0.505 C 0.561,0.212 0.298,0 0,0 Z"
           style="fill:none;stroke:#0000ff;stroke-width:0.535748;stroke-linecap:round;stroke-linejoin:round;stroke-miterlimit:4;stroke-dasharray:none;stroke-opacity:1"
           id="path1737"
           inkscape:connector-curvature="0" /></g><g
         id="g1739"
         transform="translate(371.2612,822.1187)"
         style="stroke-width:0.535748;stroke-miterlimit:4;stroke-dasharray:none"><path
           d="m 0,0 c -0.044,0 -0.089,0.005 -0.133,0.014 l -37.155,7.898 c -0.344,0.073 -0.564,0.412 -0.491,0.756 l 7.898,37.154 c 0.062,0.293 0.324,0.506 0.623,0.506 0.044,0 0.089,-0.005 0.133,-0.015 L 8.029,38.416 C 8.373,38.343 8.594,38.003 8.521,37.66 L 0.623,0.506 C 0.561,0.212 0.299,0 0,0 Z"
           style="fill:none;stroke:#0000ff;stroke-width:0.535748;stroke-linecap:round;stroke-linejoin:round;stroke-miterlimit:4;stroke-dasharray:none;stroke-opacity:1"
           id="path1741"
           inkscape:connector-curvature="0" /></g><g
         id="g1743"
         transform="translate(424.0811,810.8916)"
         style="stroke-width:0.535748;stroke-miterlimit:4;stroke-dasharray:none"><path
           d="m 0,0 c -0.044,0 -0.089,0.005 -0.133,0.014 l -37.154,7.898 c -0.167,0.035 -0.31,0.133 -0.403,0.276 -0.093,0.143 -0.124,0.313 -0.089,0.479 l 7.898,37.155 c 0.062,0.293 0.324,0.506 0.623,0.506 0.044,0 0.089,-0.005 0.133,-0.015 L 8.029,38.416 C 8.373,38.343 8.594,38.003 8.521,37.66 L 0.623,0.505 C 0.561,0.212 0.299,0 0,0 Z"
           style="fill:none;stroke:#0000ff;stroke-width:0.535748;stroke-linecap:round;stroke-linejoin:round;stroke-miterlimit:4;stroke-dasharray:none;stroke-opacity:1"
           id="path1745"
           inkscape:connector-curvature="0" /></g><g
         id="g1747"
         transform="translate(476.9009,799.6641)"
         style="stroke-width:0.535748;stroke-miterlimit:4;stroke-dasharray:none"><path
           d="m 0,0 c -0.044,0 -0.089,0.005 -0.133,0.014 l -37.154,7.898 c -0.344,0.073 -0.565,0.412 -0.492,0.756 l 7.898,37.154 c 0.062,0.293 0.324,0.506 0.623,0.506 0.044,0 0.089,-0.005 0.133,-0.015 L 8.029,38.416 C 8.196,38.381 8.339,38.283 8.432,38.14 8.524,37.997 8.556,37.827 8.521,37.66 L 0.623,0.506 C 0.561,0.213 0.299,0 0,0 Z"
           style="fill:none;stroke:#0000ff;stroke-width:0.535748;stroke-linecap:round;stroke-linejoin:round;stroke-miterlimit:4;stroke-dasharray:none;stroke-opacity:1"
           id="path1749"
           inkscape:connector-curvature="0" /></g><g
         id="g1751"
         transform="translate(280.8037,786.1396)"
         style="stroke-width:0.535748;stroke-miterlimit:4;stroke-dasharray:none"><path
           d="m 0,0 c -0.044,0 -0.089,0.005 -0.133,0.014 l -37.154,7.898 c -0.344,0.073 -0.565,0.412 -0.492,0.756 l 7.898,37.154 c 0.062,0.293 0.324,0.506 0.623,0.506 0.044,0 0.089,-0.005 0.133,-0.015 L 8.029,38.416 C 8.373,38.343 8.594,38.003 8.521,37.66 L 0.623,0.506 C 0.561,0.212 0.299,0 0,0 Z"
           style="fill:none;stroke:#0000ff;stroke-width:0.535748;stroke-linecap:round;stroke-linejoin:round;stroke-miterlimit:4;stroke-dasharray:none;stroke-opacity:1"
           id="path1753"
           inkscape:connector-curvature="0" /></g><g
         id="g1755"
         transform="translate(333.624,774.9126)"
         style="stroke-width:0.535748;stroke-miterlimit:4;stroke-dasharray:none"><path
           d="m 0,0 c -0.044,0 -0.089,0.005 -0.133,0.014 l -37.155,7.897 c -0.344,0.073 -0.565,0.413 -0.491,0.756 l 7.897,37.155 c 0.062,0.293 0.324,0.505 0.623,0.505 0.045,0 0.09,-0.005 0.134,-0.014 L 8.029,38.416 C 8.196,38.381 8.338,38.282 8.431,38.14 8.524,37.997 8.556,37.826 8.52,37.66 L 0.623,0.505 C 0.561,0.212 0.298,0 0,0 Z"
           style="fill:none;stroke:#0000ff;stroke-width:0.535748;stroke-linecap:round;stroke-linejoin:round;stroke-miterlimit:4;stroke-dasharray:none;stroke-opacity:1"
           id="path1757"
           inkscape:connector-curvature="0" /></g><g
         id="g1759"
         transform="translate(386.4438,763.6851)"
         style="stroke-width:0.535748;stroke-miterlimit:4;stroke-dasharray:none"><path
           d="m 0,0 c -0.044,0 -0.089,0.005 -0.133,0.014 l -37.155,7.898 c -0.344,0.073 -0.564,0.412 -0.491,0.756 l 7.898,37.154 c 0.062,0.293 0.323,0.506 0.622,0.506 0.045,0 0.09,-0.005 0.134,-0.015 L 8.029,38.416 C 8.373,38.343 8.593,38.003 8.52,37.66 L 0.623,0.506 C 0.561,0.212 0.299,0 0,0 Z"
           style="fill:none;stroke:#0000ff;stroke-width:0.535748;stroke-linecap:round;stroke-linejoin:round;stroke-miterlimit:4;stroke-dasharray:none;stroke-opacity:1"
           id="path1761"
           inkscape:connector-curvature="0" /></g><g
         id="g1763"
         transform="translate(439.2637,752.458)"
         style="stroke-width:0.535748;stroke-miterlimit:4;stroke-dasharray:none"><path
           d="m 0,0 c -0.044,0 -0.089,0.005 -0.133,0.014 l -37.155,7.898 c -0.344,0.073 -0.564,0.412 -0.491,0.755 l 7.898,37.155 c 0.062,0.293 0.324,0.506 0.623,0.506 0.044,0 0.089,-0.005 0.133,-0.015 L 8.029,38.416 C 8.373,38.343 8.594,38.003 8.521,37.66 L 0.623,0.505 C 0.561,0.212 0.299,0 0,0 Z"
           style="fill:none;stroke:#0000ff;stroke-width:0.535748;stroke-linecap:round;stroke-linejoin:round;stroke-miterlimit:4;stroke-dasharray:none;stroke-opacity:1"
           id="path1765"
           inkscape:connector-curvature="0" /></g><g
         id="g1767"
         transform="translate(282.7812,730.5127)"
         style="stroke-width:0.535748;stroke-miterlimit:4;stroke-dasharray:none"><path
           d="m 0,0 c -0.044,0 -0.089,0.005 -0.133,0.014 l -37.154,7.898 c -0.344,0.073 -0.565,0.412 -0.492,0.756 l 7.898,37.154 c 0.062,0.293 0.324,0.506 0.623,0.506 0.044,0 0.089,-0.005 0.133,-0.015 L 8.029,38.416 C 8.196,38.381 8.339,38.282 8.432,38.14 8.524,37.997 8.556,37.826 8.521,37.66 L 0.623,0.506 C 0.561,0.212 0.299,0 0,0 Z"
           style="fill:none;stroke:#0000ff;stroke-width:0.535748;stroke-linecap:round;stroke-linejoin:round;stroke-miterlimit:4;stroke-dasharray:none;stroke-opacity:1"
           id="path1769"
           inkscape:connector-curvature="0" /></g><g
         id="g1771"
         transform="translate(335.6016,719.2856)"
         style="stroke-width:0.535748;stroke-miterlimit:4;stroke-dasharray:none"><path
           d="m 0,0 c -0.044,0 -0.089,0.005 -0.133,0.014 l -37.155,7.898 c -0.167,0.035 -0.309,0.133 -0.402,0.276 -0.093,0.143 -0.124,0.313 -0.089,0.479 l 7.897,37.155 c 0.062,0.293 0.324,0.506 0.623,0.506 0.045,0 0.09,-0.005 0.134,-0.015 L 8.029,38.416 C 8.373,38.343 8.593,38.003 8.52,37.66 L 0.623,0.505 C 0.561,0.212 0.298,0 0,0 Z"
           style="fill:none;stroke:#0000ff;stroke-width:0.535748;stroke-linecap:round;stroke-linejoin:round;stroke-miterlimit:4;stroke-dasharray:none;stroke-opacity:1"
           id="path1773"
           inkscape:connector-curvature="0" /></g><g
         id="g1775"
         transform="translate(297.9639,672.0791)"
         style="stroke-width:0.535748;stroke-miterlimit:4;stroke-dasharray:none"><path
           d="m 0,0 c -0.044,0 -0.089,0.005 -0.133,0.014 l -37.154,7.898 c -0.344,0.073 -0.565,0.412 -0.492,0.756 l 7.898,37.154 c 0.062,0.293 0.324,0.506 0.623,0.506 0.044,0 0.089,-0.005 0.133,-0.015 L 8.029,38.416 C 8.374,38.343 8.594,38.004 8.521,37.66 L 0.623,0.506 C 0.561,0.212 0.299,0 0,0 Z"
           style="fill:none;stroke:#0000ff;stroke-width:0.535748;stroke-linecap:round;stroke-linejoin:round;stroke-miterlimit:4;stroke-dasharray:none;stroke-opacity:1"
           id="path1777"
           inkscape:connector-curvature="0" /></g><g
         id="g1779"
         transform="translate(350.7842,660.8521)"
         style="stroke-width:0.535748;stroke-miterlimit:4;stroke-dasharray:none"><path
           d="m 0,0 c -0.044,0 -0.089,0.005 -0.133,0.014 l -37.155,7.898 c -0.344,0.073 -0.564,0.412 -0.491,0.756 l 7.897,37.154 c 0.062,0.293 0.324,0.506 0.623,0.506 0.045,0 0.09,-0.005 0.134,-0.015 L 8.029,38.416 C 8.373,38.343 8.593,38.003 8.52,37.66 L 0.623,0.505 C 0.561,0.212 0.298,0 0,0 Z"
           style="fill:none;stroke:#0000ff;stroke-width:0.535748;stroke-linecap:round;stroke-linejoin:round;stroke-miterlimit:4;stroke-dasharray:none;stroke-opacity:1"
           id="path1781"
           inkscape:connector-curvature="0" /></g><g
         id="g1783"
         transform="translate(403.604,649.625)"
         style="stroke-width:0.535748;stroke-miterlimit:4;stroke-dasharray:none"><path
           d="m 0,0 c -0.044,0 -0.089,0.005 -0.133,0.014 l -37.155,7.897 c -0.344,0.073 -0.564,0.413 -0.491,0.756 l 7.898,37.155 c 0.062,0.293 0.324,0.505 0.622,0.505 0.045,0 0.09,-0.005 0.134,-0.014 L 8.029,38.416 C 8.196,38.38 8.339,38.282 8.432,38.139 8.524,37.997 8.556,37.826 8.521,37.66 L 0.623,0.505 C 0.561,0.212 0.299,0 0,0 Z"
           style="fill:none;stroke:#0000ff;stroke-width:0.535748;stroke-linecap:round;stroke-linejoin:round;stroke-miterlimit:4;stroke-dasharray:none;stroke-opacity:1"
           id="path1785"
           inkscape:connector-curvature="0" /></g><g
         id="g1787"
         transform="translate(456.4238,638.3975)"
         style="stroke-width:0.535748;stroke-miterlimit:4;stroke-dasharray:none"><path
           d="m 0,0 c -0.044,0 -0.089,0.005 -0.133,0.014 l -37.154,7.898 c -0.344,0.073 -0.565,0.412 -0.492,0.756 l 7.898,37.154 c 0.062,0.293 0.324,0.506 0.623,0.506 0.044,0 0.089,-0.005 0.133,-0.015 L 8.029,38.416 C 8.373,38.343 8.594,38.003 8.521,37.66 L 0.623,0.506 C 0.561,0.212 0.299,0 0,0 Z"
           style="fill:none;stroke:#0000ff;stroke-width:0.535748;stroke-linecap:round;stroke-linejoin:round;stroke-miterlimit:4;stroke-dasharray:none;stroke-opacity:1"
           id="path1789"
           inkscape:connector-curvature="0" /></g><g
         id="g1791"
         transform="translate(388.4214,708.0586)"
         style="stroke-width:0.535748;stroke-miterlimit:4;stroke-dasharray:none"><path
           d="m 0,0 c -0.044,0 -0.089,0.005 -0.133,0.014 l -37.155,7.897 c -0.344,0.073 -0.564,0.413 -0.491,0.756 l 7.898,37.155 c 0.062,0.293 0.324,0.505 0.622,0.505 0.045,0 0.09,-0.005 0.134,-0.014 L 8.029,38.416 C 8.196,38.38 8.339,38.282 8.432,38.139 8.524,37.997 8.556,37.826 8.521,37.66 L 0.623,0.505 C 0.561,0.212 0.299,0 0,0 Z"
           style="fill:none;stroke:#0000ff;stroke-width:0.535748;stroke-linecap:round;stroke-linejoin:round;stroke-miterlimit:4;stroke-dasharray:none;stroke-opacity:1"
           id="path1793"
           inkscape:connector-curvature="0" /></g><g
         id="g1795"
         transform="translate(441.2412,696.8311)"
         style="stroke-width:0.535748;stroke-miterlimit:4;stroke-dasharray:none"><path
           d="m 0,0 c -0.044,0 -0.089,0.005 -0.133,0.014 l -37.154,7.898 c -0.344,0.073 -0.565,0.412 -0.492,0.756 l 7.898,37.154 c 0.062,0.293 0.324,0.506 0.623,0.506 0.044,0 0.089,-0.005 0.133,-0.015 L 8.029,38.416 C 8.373,38.343 8.594,38.003 8.521,37.66 L 0.623,0.506 C 0.561,0.212 0.299,0 0,0 Z"
           style="fill:none;stroke:#0000ff;stroke-width:0.535748;stroke-linecap:round;stroke-linejoin:round;stroke-miterlimit:4;stroke-dasharray:none;stroke-opacity:1"
           id="path1797"
           inkscape:connector-curvature="0" /></g><g
         id="g1799"
         transform="translate(299.9419,616.4526)"
         style="stroke-width:0.535748;stroke-miterlimit:4;stroke-dasharray:none"><path
           d="m 0,0 c -0.044,0 -0.089,0.005 -0.133,0.014 l -37.155,7.898 c -0.344,0.073 -0.564,0.412 -0.491,0.755 l 7.897,37.155 c 0.062,0.293 0.324,0.506 0.623,0.506 0.045,0 0.09,-0.005 0.134,-0.015 L 8.029,38.416 C 8.373,38.343 8.593,38.003 8.52,37.66 L 0.623,0.505 C 0.561,0.212 0.299,0 0,0 Z"
           style="fill:none;stroke:#0000ff;stroke-width:0.535748;stroke-linecap:round;stroke-linejoin:round;stroke-miterlimit:4;stroke-dasharray:none;stroke-opacity:1"
           id="path1801"
           inkscape:connector-curvature="0" /></g><g
         id="g1803"
         transform="translate(471.6064,579.9639)"
         style="stroke-width:0.535748;stroke-miterlimit:4;stroke-dasharray:none"><path
           d="m 0,0 c -0.044,0 -0.089,0.005 -0.133,0.014 l -37.154,7.898 c -0.344,0.073 -0.565,0.412 -0.492,0.756 l 7.898,37.154 c 0.062,0.293 0.324,0.506 0.623,0.506 0.044,0 0.089,-0.005 0.133,-0.015 L 8.029,38.416 C 8.374,38.343 8.594,38.004 8.521,37.66 L 0.623,0.506 C 0.561,0.212 0.299,0 0,0 Z"
           style="fill:none;stroke:#0000ff;stroke-width:0.535748;stroke-linecap:round;stroke-linejoin:round;stroke-miterlimit:4;stroke-dasharray:none;stroke-opacity:1"
           id="path1805"
           inkscape:connector-curvature="0" /></g><g
         id="g1807"
         transform="translate(738.4766,848.8442)"
         style="stroke-width:0.535748;stroke-miterlimit:4;stroke-dasharray:none"><path
           d="m 0,0 c -0.352,0 -0.638,0.287 -0.638,0.638 v 37.985 c 0,0.351 0.286,0.637 0.638,0.637 h 37.984 c 0.352,0 0.638,-0.286 0.638,-0.637 V 0.638 C 38.622,0.287 38.336,0 37.984,0 Z"
           style="fill:none;stroke:#0000ff;stroke-width:0.535748;stroke-linecap:round;stroke-linejoin:round;stroke-miterlimit:4;stroke-dasharray:none;stroke-opacity:1"
           id="path1809"
           inkscape:connector-curvature="0" /></g><g
         id="g1811"
         transform="translate(792.4766,844.5913)"
         style="stroke-width:0.535748;stroke-miterlimit:4;stroke-dasharray:none"><path
           d="m 0,0 c -0.352,0 -0.638,0.287 -0.638,0.638 v 37.984 c 0,0.352 0.286,0.638 0.638,0.638 h 37.984 c 0.352,0 0.638,-0.286 0.638,-0.638 V 0.638 C 38.622,0.287 38.336,0 37.984,0 Z"
           style="fill:none;stroke:#0000ff;stroke-width:0.535748;stroke-linecap:round;stroke-linejoin:round;stroke-miterlimit:4;stroke-dasharray:none;stroke-opacity:1"
           id="path1813"
           inkscape:connector-curvature="0" /></g><g
         id="g1815"
         transform="translate(685.9199,833.3481)"
         style="stroke-width:0.535748;stroke-miterlimit:4;stroke-dasharray:none"><path
           d="M 0,0 C -0.299,0 -0.561,0.212 -0.623,0.505 L -8.521,37.66 c -0.035,0.166 -0.003,0.337 0.089,0.48 0.093,0.142 0.236,0.241 0.403,0.276 l 37.154,7.897 c 0.044,0.01 0.089,0.015 0.134,0.015 0.298,0 0.559,-0.213 0.622,-0.506 L 37.778,8.667 C 37.852,8.324 37.632,7.985 37.288,7.912 L 0.134,0.014 C 0.09,0.005 0.044,0 0,0 Z"
           style="fill:none;stroke:#0000ff;stroke-width:0.535748;stroke-linecap:round;stroke-linejoin:round;stroke-miterlimit:4;stroke-dasharray:none;stroke-opacity:1"
           id="path1817"
           inkscape:connector-curvature="0" /></g><g
         id="g1819"
         transform="translate(670.7363,774.9146)"
         style="stroke-width:0.535748;stroke-miterlimit:4;stroke-dasharray:none"><path
           d="M 0,0 C -0.299,0 -0.561,0.212 -0.622,0.505 L -8.52,37.66 c -0.073,0.343 0.147,0.683 0.491,0.756 l 37.154,7.897 c 0.044,0.009 0.09,0.014 0.134,0.014 0.299,0 0.56,-0.212 0.623,-0.505 L 37.779,8.667 C 37.814,8.501 37.783,8.33 37.69,8.188 37.598,8.045 37.455,7.947 37.288,7.912 L 0.134,0.014 C 0.09,0.005 0.045,0 0,0 Z"
           style="fill:none;stroke:#0000ff;stroke-width:0.535748;stroke-linecap:round;stroke-linejoin:round;stroke-miterlimit:4;stroke-dasharray:none;stroke-opacity:1"
           id="path1821"
           inkscape:connector-curvature="0" /></g><g
         id="g1823"
         transform="translate(723.5566,786.1416)"
         style="stroke-width:0.535748;stroke-miterlimit:4;stroke-dasharray:none"><path
           d="M 0,0 C -0.299,0 -0.561,0.212 -0.623,0.506 L -8.521,37.66 c -0.073,0.343 0.148,0.683 0.492,0.756 l 37.154,7.897 c 0.044,0.01 0.089,0.015 0.134,0.015 0.299,0 0.56,-0.213 0.623,-0.506 L 37.779,8.668 C 37.853,8.324 37.632,7.985 37.288,7.912 L 0.134,0.014 C 0.09,0.005 0.045,0 0,0 Z"
           style="fill:none;stroke:#0000ff;stroke-width:0.535748;stroke-linecap:round;stroke-linejoin:round;stroke-miterlimit:4;stroke-dasharray:none;stroke-opacity:1"
           id="path1825"
           inkscape:connector-curvature="0" /></g><g
         id="g1827"
         transform="translate(695.1689,724.9014)"
         style="stroke-width:0.535748;stroke-miterlimit:4;stroke-dasharray:none"><path
           d="M 0,0 C -0.299,0 -0.561,0.212 -0.623,0.505 L -8.521,37.66 c -0.035,0.166 -0.003,0.337 0.089,0.48 0.093,0.142 0.236,0.241 0.403,0.276 l 37.154,7.897 c 0.044,0.009 0.089,0.014 0.134,0.014 0.299,0 0.56,-0.212 0.623,-0.505 L 37.778,8.667 C 37.852,8.324 37.632,7.984 37.288,7.911 L 0.134,0.014 C 0.09,0.005 0.044,0 0,0 Z"
           style="fill:none;stroke:#0000ff;stroke-width:0.535748;stroke-linecap:round;stroke-linejoin:round;stroke-miterlimit:4;stroke-dasharray:none;stroke-opacity:1"
           id="path1829"
           inkscape:connector-curvature="0" /></g><g
         id="g1831"
         transform="translate(666.7812,663.6606)"
         style="stroke-width:0.535748;stroke-miterlimit:4;stroke-dasharray:none"><path
           d="M 0,0 C -0.299,0 -0.561,0.212 -0.623,0.506 L -8.521,37.66 c -0.035,0.166 -0.003,0.337 0.089,0.48 0.093,0.142 0.236,0.241 0.403,0.276 l 37.154,7.897 c 0.044,0.01 0.089,0.015 0.134,0.015 0.298,0 0.559,-0.213 0.622,-0.506 L 37.778,8.668 C 37.852,8.324 37.632,7.985 37.288,7.912 L 0.134,0.014 C 0.09,0.005 0.045,0 0,0 Z"
           style="fill:none;stroke:#0000ff;stroke-width:0.535748;stroke-linecap:round;stroke-linejoin:round;stroke-miterlimit:4;stroke-dasharray:none;stroke-opacity:1"
           id="path1833"
           inkscape:connector-curvature="0" /></g><g
         id="g1835"
         transform="translate(719.6006,674.8882)"
         style="stroke-width:0.535748;stroke-miterlimit:4;stroke-dasharray:none"><path
           d="M 0,0 C -0.298,0 -0.56,0.212 -0.622,0.505 L -8.52,37.66 c -0.073,0.343 0.147,0.682 0.491,0.756 l 37.154,7.897 c 0.044,0.009 0.09,0.014 0.134,0.014 0.299,0 0.56,-0.212 0.623,-0.505 L 37.779,8.667 C 37.814,8.501 37.783,8.331 37.69,8.188 37.598,8.045 37.455,7.946 37.288,7.911 L 0.134,0.014 C 0.09,0.005 0.045,0 0,0 Z"
           style="fill:none;stroke:#0000ff;stroke-width:0.535748;stroke-linecap:round;stroke-linejoin:round;stroke-miterlimit:4;stroke-dasharray:none;stroke-opacity:1"
           id="path1837"
           inkscape:connector-curvature="0" /></g><g
         id="g1839"
         transform="translate(613.9609,652.4336)"
         style="stroke-width:0.535748;stroke-miterlimit:4;stroke-dasharray:none"><path
           d="M 0,0 C -0.299,0 -0.561,0.212 -0.623,0.505 L -8.521,37.66 c -0.073,0.343 0.148,0.683 0.492,0.756 l 37.154,7.897 c 0.044,0.01 0.089,0.015 0.134,0.015 0.299,0 0.56,-0.213 0.623,-0.506 L 37.779,8.667 C 37.853,8.324 37.632,7.985 37.288,7.912 L 0.134,0.014 C 0.09,0.005 0.045,0 0,0 Z"
           style="fill:none;stroke:#0000ff;stroke-width:0.535748;stroke-linecap:round;stroke-linejoin:round;stroke-miterlimit:4;stroke-dasharray:none;stroke-opacity:1"
           id="path1841"
           inkscape:connector-curvature="0" /></g><g
         id="g1843"
         transform="translate(642.3486,713.6738)"
         style="stroke-width:0.535748;stroke-miterlimit:4;stroke-dasharray:none"><path
           d="M 0,0 C -0.299,0 -0.561,0.212 -0.623,0.506 L -8.521,37.66 c -0.073,0.343 0.148,0.683 0.492,0.756 l 37.154,7.897 c 0.044,0.01 0.089,0.015 0.134,0.015 0.299,0 0.56,-0.213 0.623,-0.506 L 37.779,8.668 C 37.814,8.501 37.783,8.331 37.69,8.188 37.598,8.045 37.455,7.947 37.288,7.912 L 0.134,0.014 C 0.09,0.005 0.045,0 0,0 Z"
           style="fill:none;stroke:#0000ff;stroke-width:0.535748;stroke-linecap:round;stroke-linejoin:round;stroke-miterlimit:4;stroke-dasharray:none;stroke-opacity:1"
           id="path1845"
           inkscape:connector-curvature="0" /></g><g
         id="g1847"
         transform="translate(589.5293,702.4468)"
         style="stroke-width:0.535748;stroke-miterlimit:4;stroke-dasharray:none"><path
           d="M 0,0 C -0.299,0 -0.561,0.212 -0.623,0.505 L -8.521,37.66 c -0.035,0.166 -0.003,0.337 0.089,0.48 0.093,0.142 0.236,0.241 0.403,0.276 l 37.153,7.897 c 0.044,0.01 0.089,0.015 0.134,0.015 0.299,0 0.56,-0.213 0.623,-0.506 L 37.778,8.667 C 37.813,8.501 37.782,8.331 37.689,8.188 37.597,8.045 37.454,7.947 37.287,7.912 L 0.134,0.014 C 0.09,0.005 0.044,0 0,0 Z"
           style="fill:none;stroke:#0000ff;stroke-width:0.535748;stroke-linecap:round;stroke-linejoin:round;stroke-miterlimit:4;stroke-dasharray:none;stroke-opacity:1"
           id="path1849"
           inkscape:connector-curvature="0" /></g><g
         id="g1851"
         transform="translate(536.709,691.2197)"
         style="stroke-width:0.535748;stroke-miterlimit:4;stroke-dasharray:none"><path
           d="M 0,0 C -0.299,0 -0.561,0.212 -0.623,0.505 L -8.521,37.66 c -0.035,0.166 -0.003,0.337 0.089,0.479 0.093,0.143 0.236,0.241 0.403,0.277 l 37.154,7.897 c 0.044,0.009 0.089,0.014 0.134,0.014 0.299,0 0.56,-0.212 0.623,-0.505 L 37.779,8.667 C 37.853,8.324 37.632,7.984 37.288,7.911 L 0.133,0.014 C 0.089,0.005 0.044,0 0,0 Z"
           style="fill:none;stroke:#0000ff;stroke-width:0.535748;stroke-linecap:round;stroke-linejoin:round;stroke-miterlimit:4;stroke-dasharray:none;stroke-opacity:1"
           id="path1853"
           inkscape:connector-curvature="0" /></g><g
         id="g1855"
         transform="translate(617.917,763.687)"
         style="stroke-width:0.535748;stroke-miterlimit:4;stroke-dasharray:none"><path
           d="M 0,0 C -0.299,0 -0.561,0.212 -0.623,0.506 L -8.521,37.66 c -0.035,0.167 -0.003,0.337 0.089,0.48 0.093,0.142 0.236,0.241 0.403,0.276 l 37.154,7.897 c 0.044,0.01 0.089,0.015 0.134,0.015 0.298,0 0.559,-0.213 0.622,-0.506 L 37.778,8.668 C 37.852,8.324 37.632,7.985 37.288,7.912 L 0.134,0.014 C 0.09,0.005 0.045,0 0,0 Z"
           style="fill:none;stroke:#0000ff;stroke-width:0.535748;stroke-linecap:round;stroke-linejoin:round;stroke-miterlimit:4;stroke-dasharray:none;stroke-opacity:1"
           id="path1857"
           inkscape:connector-curvature="0" /></g><g
         id="g1859"
         transform="translate(565.0967,752.46)"
         style="stroke-width:0.535748;stroke-miterlimit:4;stroke-dasharray:none"><path
           d="M 0,0 C -0.299,0 -0.561,0.212 -0.623,0.505 L -8.52,37.66 c -0.036,0.166 -0.004,0.337 0.089,0.48 0.093,0.142 0.235,0.241 0.402,0.276 l 37.154,7.897 c 0.044,0.01 0.089,0.015 0.134,0.015 0.299,0 0.56,-0.213 0.623,-0.506 L 37.779,8.667 C 37.814,8.501 37.783,8.331 37.69,8.188 37.598,8.045 37.454,7.947 37.288,7.912 L 0.134,0.014 C 0.09,0.005 0.045,0 0,0 Z"
           style="fill:none;stroke:#0000ff;stroke-width:0.535748;stroke-linecap:round;stroke-linejoin:round;stroke-miterlimit:4;stroke-dasharray:none;stroke-opacity:1"
           id="path1861"
           inkscape:connector-curvature="0" /></g><g
         id="g1863"
         transform="translate(512.2769,741.2329)"
         style="stroke-width:0.535748;stroke-miterlimit:4;stroke-dasharray:none"><path
           d="M 0,0 C -0.299,0 -0.561,0.212 -0.623,0.505 L -8.521,37.66 c -0.035,0.166 -0.003,0.337 0.089,0.48 0.093,0.142 0.236,0.24 0.403,0.276 l 37.154,7.897 c 0.044,0.009 0.089,0.014 0.134,0.014 0.298,0 0.56,-0.212 0.622,-0.505 L 37.779,8.667 C 37.852,8.324 37.632,7.984 37.288,7.911 L 0.133,0.014 C 0.089,0.005 0.044,0 0,0 Z"
           style="fill:none;stroke:#0000ff;stroke-width:0.535748;stroke-linecap:round;stroke-linejoin:round;stroke-miterlimit:4;stroke-dasharray:none;stroke-opacity:1"
           id="path1865"
           inkscape:connector-curvature="0" /></g><g
         id="g1867"
         transform="translate(633.0996,822.1206)"
         style="stroke-width:0.535748;stroke-miterlimit:4;stroke-dasharray:none"><path
           d="M 0,0 C -0.299,0 -0.561,0.212 -0.623,0.506 L -8.521,37.66 c -0.073,0.343 0.148,0.683 0.492,0.756 l 37.154,7.897 c 0.044,0.01 0.089,0.015 0.134,0.015 0.299,0 0.56,-0.213 0.623,-0.506 L 37.779,8.668 C 37.853,8.324 37.632,7.985 37.288,7.912 L 0.134,0.014 C 0.09,0.005 0.045,0 0,0 Z"
           style="fill:none;stroke:#0000ff;stroke-width:0.535748;stroke-linecap:round;stroke-linejoin:round;stroke-miterlimit:4;stroke-dasharray:none;stroke-opacity:1"
           id="path1869"
           inkscape:connector-curvature="0" /></g><g
         id="g1871"
         transform="translate(580.2793,810.8936)"
         style="stroke-width:0.535748;stroke-miterlimit:4;stroke-dasharray:none"><path
           d="M 0,0 C -0.298,0 -0.56,0.212 -0.622,0.506 L -8.52,37.66 c -0.073,0.343 0.147,0.683 0.491,0.756 l 37.154,7.897 c 0.044,0.01 0.089,0.015 0.134,0.015 0.299,0 0.56,-0.213 0.623,-0.506 L 37.779,8.668 C 37.814,8.501 37.783,8.331 37.69,8.188 37.598,8.045 37.455,7.947 37.288,7.912 L 0.134,0.014 C 0.09,0.005 0.045,0 0,0 Z"
           style="fill:none;stroke:#0000ff;stroke-width:0.535748;stroke-linecap:round;stroke-linejoin:round;stroke-miterlimit:4;stroke-dasharray:none;stroke-opacity:1"
           id="path1873"
           inkscape:connector-curvature="0" /></g><g
         id="g1875"
         transform="translate(527.46,799.6665)"
         style="stroke-width:0.535748;stroke-miterlimit:4;stroke-dasharray:none"><path
           d="M 0,0 C -0.299,0 -0.561,0.212 -0.623,0.505 L -8.521,37.66 c -0.073,0.343 0.148,0.683 0.492,0.756 l 37.154,7.897 c 0.044,0.009 0.089,0.014 0.133,0.014 0.299,0 0.561,-0.212 0.623,-0.505 L 37.778,8.667 C 37.852,8.324 37.632,7.985 37.288,7.912 L 0.133,0.014 C 0.089,0.005 0.044,0 0,0 Z"
           style="fill:none;stroke:#0000ff;stroke-width:0.535748;stroke-linecap:round;stroke-linejoin:round;stroke-miterlimit:4;stroke-dasharray:none;stroke-opacity:1"
           id="path1877"
           inkscape:connector-curvature="0" /></g><g
         id="g1879"
         transform="translate(846.4766,844.5913)"
         style="stroke-width:0.535748;stroke-miterlimit:4;stroke-dasharray:none"><path
           d="m 0,0 c -0.352,0 -0.638,0.287 -0.638,0.638 v 37.984 c 0,0.352 0.286,0.638 0.638,0.638 h 37.984 c 0.352,0 0.638,-0.286 0.638,-0.638 V 0.638 C 38.622,0.287 38.336,0 37.984,0 Z"
           style="fill:none;stroke:#0000ff;stroke-width:0.535748;stroke-linecap:round;stroke-linejoin:round;stroke-miterlimit:4;stroke-dasharray:none;stroke-opacity:1"
           id="path1881"
           inkscape:connector-curvature="0" /></g><g
         id="g1883"
         transform="translate(900.4766,844.5913)"
         style="stroke-width:0.535748;stroke-miterlimit:4;stroke-dasharray:none"><path
           d="m 0,0 c -0.352,0 -0.638,0.287 -0.638,0.638 v 37.984 c 0,0.352 0.286,0.638 0.638,0.638 h 37.984 c 0.352,0 0.638,-0.286 0.638,-0.638 V 0.638 C 38.622,0.287 38.336,0 37.984,0 Z"
           style="fill:none;stroke:#0000ff;stroke-width:0.535748;stroke-linecap:round;stroke-linejoin:round;stroke-miterlimit:4;stroke-dasharray:none;stroke-opacity:1"
           id="path1885"
           inkscape:connector-curvature="0" /></g><g
         id="g1887"
         transform="translate(967.9766,858.0913)"
         style="stroke-width:0.535748;stroke-miterlimit:4;stroke-dasharray:none"><path
           d="m 0,0 c -0.352,0 -0.638,0.287 -0.638,0.638 v 37.984 c 0,0.352 0.286,0.638 0.638,0.638 h 37.984 c 0.352,0 0.638,-0.286 0.638,-0.638 V 0.638 C 38.622,0.287 38.336,0 37.984,0 Z"
           style="fill:none;stroke:#0000ff;stroke-width:0.535748;stroke-linecap:round;stroke-linejoin:round;stroke-miterlimit:4;stroke-dasharray:none;stroke-opacity:1"
           id="path1889"
           inkscape:connector-curvature="0" /></g><g
         id="g1891"
         transform="translate(979.8037,804.0913)"
         style="stroke-width:0.535748;stroke-miterlimit:4;stroke-dasharray:none"><path
           d="m 0,0 c -0.352,0 -0.637,0.286 -0.637,0.638 v 37.984 c 0,0.352 0.285,0.638 0.637,0.638 h 37.984 c 0.352,0 0.638,-0.286 0.638,-0.638 V 0.638 C 38.622,0.286 38.336,0 37.984,0 Z"
           style="fill:none;stroke:#0000ff;stroke-width:0.535748;stroke-linecap:round;stroke-linejoin:round;stroke-miterlimit:4;stroke-dasharray:none;stroke-opacity:1"
           id="path1893"
           inkscape:connector-curvature="0" /></g><g
         id="g1895"
         transform="translate(937.9082,669.0913)"
         style="stroke-width:0.535748;stroke-miterlimit:4;stroke-dasharray:none"><path
           d="m 0,0 c -0.352,0 -0.638,0.287 -0.638,0.638 v 37.984 c 0,0.352 0.286,0.638 0.638,0.638 h 37.984 c 0.352,0 0.637,-0.286 0.637,-0.638 V 0.638 C 38.621,0.287 38.336,0 37.984,0 Z"
           style="fill:none;stroke:#0000ff;stroke-width:0.535748;stroke-linecap:round;stroke-linejoin:round;stroke-miterlimit:4;stroke-dasharray:none;stroke-opacity:1"
           id="path1897"
           inkscape:connector-curvature="0" /></g><g
         id="g1899"
         transform="translate(937.9082,615.0913)"
         style="stroke-width:0.535748;stroke-miterlimit:4;stroke-dasharray:none"><path
           d="m 0,0 c -0.352,0 -0.638,0.287 -0.638,0.638 v 37.984 c 0,0.352 0.286,0.638 0.638,0.638 h 37.984 c 0.352,0 0.637,-0.286 0.637,-0.638 V 0.638 C 38.621,0.287 38.336,0 37.984,0 Z"
           style="fill:none;stroke:#0000ff;stroke-width:0.535748;stroke-linecap:round;stroke-linejoin:round;stroke-miterlimit:4;stroke-dasharray:none;stroke-opacity:1"
           id="path1901"
           inkscape:connector-curvature="0" /></g><g
         id="g1903"
         transform="translate(883.9082,615.0913)"
         style="stroke-width:0.535748;stroke-miterlimit:4;stroke-dasharray:none"><path
           d="m 0,0 c -0.352,0 -0.638,0.287 -0.638,0.638 v 37.984 c 0,0.352 0.286,0.638 0.638,0.638 h 37.984 c 0.352,0 0.637,-0.286 0.637,-0.638 V 0.638 C 38.621,0.287 38.336,0 37.984,0 Z"
           style="fill:none;stroke:#0000ff;stroke-width:0.535748;stroke-linecap:round;stroke-linejoin:round;stroke-miterlimit:4;stroke-dasharray:none;stroke-opacity:1"
           id="path1905"
           inkscape:connector-curvature="0" /></g><g
         id="g1907"
         transform="translate(991.9082,615.0913)"
         style="stroke-width:0.535748;stroke-miterlimit:4;stroke-dasharray:none"><path
           d="m 0,0 c -0.352,0 -0.638,0.287 -0.638,0.638 v 37.984 c 0,0.352 0.286,0.638 0.638,0.638 h 37.984 c 0.352,0 0.637,-0.286 0.637,-0.638 V 0.638 C 38.621,0.287 38.336,0 37.984,0 Z"
           style="fill:none;stroke:#0000ff;stroke-width:0.535748;stroke-linecap:round;stroke-linejoin:round;stroke-miterlimit:4;stroke-dasharray:none;stroke-opacity:1"
           id="path1909"
           inkscape:connector-curvature="0" /></g><g
         id="g1911"
         transform="translate(777.2832,790.5913)"
         style="stroke-width:0.535748;stroke-miterlimit:4;stroke-dasharray:none"><path
           d="m 0,0 c -0.352,0 -0.638,0.287 -0.638,0.638 v 37.984 c 0,0.352 0.286,0.638 0.638,0.638 h 37.984 c 0.352,0 0.637,-0.286 0.637,-0.638 V 0.638 C 38.621,0.287 38.336,0 37.984,0 Z"
           style="fill:none;stroke:#0000ff;stroke-width:0.535748;stroke-linecap:round;stroke-linejoin:round;stroke-miterlimit:4;stroke-dasharray:none;stroke-opacity:1"
           id="path1913"
           inkscape:connector-curvature="0" /></g><g
         id="g1915"
         transform="translate(831.2832,790.5913)"
         style="stroke-width:0.535748;stroke-miterlimit:4;stroke-dasharray:none"><path
           d="m 0,0 c -0.352,0 -0.638,0.287 -0.638,0.638 v 37.984 c 0,0.352 0.286,0.638 0.638,0.638 h 37.984 c 0.352,0 0.637,-0.286 0.637,-0.638 V 0.638 C 38.621,0.287 38.336,0 37.984,0 Z"
           style="fill:none;stroke:#0000ff;stroke-width:0.535748;stroke-linecap:round;stroke-linejoin:round;stroke-miterlimit:4;stroke-dasharray:none;stroke-opacity:1"
           id="path1917"
           inkscape:connector-curvature="0" /></g><g
         id="g1919"
         transform="translate(748.9082,736.5913)"
         style="stroke-width:0.535748;stroke-miterlimit:4;stroke-dasharray:none"><path
           d="m 0,0 c -0.352,0 -0.638,0.287 -0.638,0.638 v 37.984 c 0,0.352 0.286,0.638 0.638,0.638 h 37.984 c 0.352,0 0.638,-0.286 0.638,-0.638 V 0.638 C 38.622,0.287 38.336,0 37.984,0 Z"
           style="fill:none;stroke:#0000ff;stroke-width:0.535748;stroke-linecap:round;stroke-linejoin:round;stroke-miterlimit:4;stroke-dasharray:none;stroke-opacity:1"
           id="path1921"
           inkscape:connector-curvature="0" /></g><g
         id="g1923"
         transform="translate(802.9082,736.5913)"
         style="stroke-width:0.535748;stroke-miterlimit:4;stroke-dasharray:none"><path
           d="m 0,0 c -0.352,0 -0.638,0.287 -0.638,0.638 v 37.984 c 0,0.352 0.286,0.638 0.638,0.638 h 37.984 c 0.352,0 0.638,-0.286 0.638,-0.638 V 0.638 C 38.622,0.287 38.336,0 37.984,0 Z"
           style="fill:none;stroke:#0000ff;stroke-width:0.535748;stroke-linecap:round;stroke-linejoin:round;stroke-miterlimit:4;stroke-dasharray:none;stroke-opacity:1"
           id="path1925"
           inkscape:connector-curvature="0" /></g><g
         id="g1927"
         transform="translate(775.9082,682.5913)"
         style="stroke-width:0.535748;stroke-miterlimit:4;stroke-dasharray:none"><path
           d="m 0,0 c -0.352,0 -0.638,0.287 -0.638,0.638 v 37.984 c 0,0.352 0.286,0.638 0.638,0.638 h 37.984 c 0.352,0 0.638,-0.286 0.638,-0.638 V 0.638 C 38.622,0.287 38.336,0 37.984,0 Z"
           style="fill:none;stroke:#0000ff;stroke-width:0.535748;stroke-linecap:round;stroke-linejoin:round;stroke-miterlimit:4;stroke-dasharray:none;stroke-opacity:1"
           id="path1929"
           inkscape:connector-curvature="0" /></g><g
         id="g1931"
         transform="translate(898.8037,790.5913)"
         style="stroke-width:0.535748;stroke-miterlimit:4;stroke-dasharray:none"><path
           d="m 0,0 c -0.352,0 -0.637,0.287 -0.637,0.638 v 37.984 c 0,0.352 0.285,0.638 0.637,0.638 h 37.984 c 0.352,0 0.638,-0.286 0.638,-0.638 V 0.638 C 38.622,0.287 38.336,0 37.984,0 Z"
           style="fill:none;stroke:#0000ff;stroke-width:0.535748;stroke-linecap:round;stroke-linejoin:round;stroke-miterlimit:4;stroke-dasharray:none;stroke-opacity:1"
           id="path1933"
           inkscape:connector-curvature="0" /></g><g
         id="g1935"
         transform="translate(704.418,616.4546)"
         style="stroke-width:0.535748;stroke-miterlimit:4;stroke-dasharray:none"><path
           d="M 0,0 C -0.299,0 -0.561,0.212 -0.623,0.505 L -8.52,37.66 c -0.073,0.343 0.147,0.683 0.491,0.756 l 37.154,7.897 c 0.044,0.009 0.09,0.014 0.134,0.014 0.299,0 0.56,-0.212 0.623,-0.505 L 37.779,8.667 C 37.814,8.501 37.783,8.331 37.69,8.188 37.598,8.045 37.455,7.946 37.288,7.911 L 0.134,0.014 C 0.09,0.005 0.045,0 0,0 Z"
           style="fill:none;stroke:#0000ff;stroke-width:0.535748;stroke-linecap:round;stroke-linejoin:round;stroke-miterlimit:4;stroke-dasharray:none;stroke-opacity:1"
           id="path1937"
           inkscape:connector-curvature="0" /></g><g
         id="g1939"
         transform="translate(561.1406,641.2061)"
         style="stroke-width:0.535748;stroke-miterlimit:4;stroke-dasharray:none"><path
           d="M 0,0 C -0.298,0 -0.56,0.212 -0.622,0.506 L -8.52,37.66 c -0.036,0.167 -0.004,0.337 0.089,0.48 0.093,0.143 0.236,0.241 0.403,0.276 l 37.153,7.897 c 0.044,0.01 0.09,0.015 0.134,0.015 0.299,0 0.56,-0.213 0.623,-0.506 L 37.779,8.668 C 37.814,8.501 37.783,8.331 37.69,8.188 37.598,8.045 37.455,7.947 37.288,7.912 L 0.134,0.014 C 0.09,0.005 0.045,0 0,0 Z"
           style="fill:none;stroke:#0000ff;stroke-width:0.535748;stroke-linecap:round;stroke-linejoin:round;stroke-miterlimit:4;stroke-dasharray:none;stroke-opacity:1"
           id="path1941"
           inkscape:connector-curvature="0" /></g><g
         id="g1943"
         transform="translate(991.9082,750.0913)"
         style="stroke-width:0.535748;stroke-miterlimit:4;stroke-dasharray:none"><path
           d="m 0,0 c -0.352,0 -0.638,0.286 -0.638,0.638 v 37.984 c 0,0.352 0.286,0.638 0.638,0.638 h 37.984 c 0.352,0 0.637,-0.286 0.637,-0.638 V 0.638 C 38.621,0.286 38.336,0 37.984,0 Z"
           style="fill:none;stroke:#0000ff;stroke-width:0.535748;stroke-linecap:round;stroke-linejoin:round;stroke-miterlimit:4;stroke-dasharray:none;stroke-opacity:1"
           id="path1945"
           inkscape:connector-curvature="0" /></g><g
         id="g1947"
         transform="translate(96.5308,673.0811)"
         style="stroke-width:0.535748;stroke-miterlimit:4;stroke-dasharray:none"><path
           d="m 0,0 c -1.446,0 -2.623,1.176 -2.623,2.622 v 48.019 c 0,1.446 1.177,2.622 2.623,2.622 h 14.173 c 1.446,0 2.622,-1.176 2.622,-2.622 V 10.148 c 0,-0.586 0.477,-1.063 1.063,-1.063 h 2.375 c 0.587,0 1.063,0.477 1.063,1.063 v 37.984 c 0,0.352 0.287,0.639 0.639,0.639 h 37.983 c 0.352,0 0.639,-0.287 0.639,-0.639 V 10.148 c 0,-0.586 0.476,-1.063 1.063,-1.063 h 2.375 c 0.586,0 1.063,0.477 1.063,1.063 v 40.493 c 0,1.446 1.176,2.622 2.622,2.622 h 14.173 c 1.446,0 2.622,-1.176 2.622,-2.622 V 2.622 C 84.475,1.176 83.299,0 81.853,0 Z"
           style="fill:none;stroke:#0000ff;stroke-width:0.535748;stroke-linecap:round;stroke-linejoin:round;stroke-miterlimit:4;stroke-dasharray:none;stroke-opacity:1"
           id="path1949"
           inkscape:connector-curvature="0" /></g><g
         id="g1951"
         transform="translate(571.2402,583.5977)"
         style="stroke-width:0.535748;stroke-miterlimit:4;stroke-dasharray:none"><path
           d="m 0,0 c -1.229,0 -2.306,0.874 -2.562,2.077 l -9.983,46.97 c -0.146,0.685 -0.017,1.386 0.365,1.974 0.381,0.587 0.969,0.99 1.654,1.136 l 80.064,17.018 c 0.181,0.039 0.365,0.058 0.548,0.058 1.229,0 2.307,-0.874 2.562,-2.077 l 9.984,-46.97 C 82.777,19.501 82.648,18.8 82.267,18.213 81.886,17.625 81.298,17.222 80.613,17.076 L 66.749,14.129 c -0.181,-0.038 -0.365,-0.058 -0.549,-0.058 -1.227,0 -2.304,0.874 -2.56,2.077 l -8.419,39.609 c -0.104,0.488 -0.541,0.842 -1.039,0.842 -0.075,0 -0.15,-0.008 -0.222,-0.023 l -2.323,-0.494 c -0.279,-0.059 -0.517,-0.223 -0.671,-0.461 -0.155,-0.238 -0.207,-0.522 -0.149,-0.8 l 7.898,-37.154 c 0.073,-0.344 -0.148,-0.683 -0.491,-0.756 L 21.069,9.013 C 21.025,9.004 20.98,8.999 20.936,8.999 c -0.299,0 -0.561,0.212 -0.624,0.505 l -7.897,37.155 c -0.103,0.487 -0.54,0.841 -1.038,0.841 -0.074,0 -0.148,-0.007 -0.222,-0.023 L 8.831,46.983 C 8.258,46.861 7.891,46.296 8.013,45.722 L 16.432,6.114 C 16.732,4.7 15.826,3.305 14.412,3.005 L 0.549,0.058 C 0.368,0.02 0.184,0 0,0 Z"
           style="fill:none;stroke:#0000ff;stroke-width:0.535748;stroke-linecap:round;stroke-linejoin:round;stroke-miterlimit:4;stroke-dasharray:none;stroke-opacity:1"
           id="path1953"
           inkscape:connector-curvature="0" /></g><g
         id="g1955"
         transform="translate(413.312,587.8062)"
         style="stroke-width:0.535748;stroke-miterlimit:4;stroke-dasharray:none"><path
           d="m 0,0 c -0.183,0 -0.367,0.019 -0.548,0.058 l -13.863,2.946 c -0.685,0.146 -1.273,0.55 -1.654,1.137 -0.382,0.588 -0.512,1.288 -0.366,1.973 l 8.419,39.608 c 0.059,0.278 0.007,0.562 -0.148,0.8 -0.155,0.239 -0.393,0.402 -0.671,0.461 l -2.323,0.494 c -0.073,0.016 -0.148,0.023 -0.222,0.023 -0.499,0 -0.936,-0.354 -1.039,-0.841 L -20.312,9.504 c -0.063,-0.293 -0.325,-0.505 -0.623,-0.505 -0.044,0 -0.089,0.005 -0.133,0.014 l -37.155,7.897 c -0.167,0.035 -0.31,0.134 -0.402,0.277 -0.093,0.143 -0.125,0.313 -0.089,0.48 l 7.897,37.154 c 0.122,0.573 -0.246,1.138 -0.818,1.261 l -2.324,0.494 c -0.073,0.015 -0.148,0.023 -0.222,0.023 -0.498,0 -0.935,-0.354 -1.039,-0.842 l -8.419,-39.608 c -0.256,-1.204 -1.333,-2.078 -2.561,-2.078 h -10e-4 c -0.183,0 -0.367,0.02 -0.548,0.058 l -13.863,2.947 c -1.414,0.3 -2.32,1.695 -2.02,3.11 l 9.984,46.969 c 0.255,1.204 1.333,2.078 2.562,2.078 0.182,0 0.367,-0.02 0.547,-0.058 L 10.526,52.157 c 0.685,-0.146 1.273,-0.55 1.654,-1.137 0.382,-0.587 0.512,-1.288 0.366,-1.973 L 2.562,2.078 C 2.306,0.874 1.229,0 0,0 Z"
           style="fill:none;stroke:#0000ff;stroke-width:0.535748;stroke-linecap:round;stroke-linejoin:round;stroke-miterlimit:4;stroke-dasharray:none;stroke-opacity:1"
           id="path1957"
           inkscape:connector-curvature="0" /></g><g
         id="g1959"
         transform="translate(936.4033,732.0981)"
         style="stroke-width:0.535748;stroke-miterlimit:4;stroke-dasharray:none"><path
           d="m 0,0 c -1.445,0 -2.621,1.177 -2.621,2.623 v 40.492 c 0,0.587 -0.478,1.063 -1.064,1.063 h -2.376 c -0.585,0 -1.062,-0.476 -1.062,-1.063 V 5.131 c 0,-0.352 -0.286,-0.638 -0.638,-0.638 h -37.984 c -0.352,0 -0.638,0.286 -0.638,0.638 v 37.984 c 0,0.587 -0.477,1.063 -1.063,1.063 h -2.375 c -0.586,0 -1.064,-0.476 -1.064,-1.063 V 2.623 C -50.885,1.177 -52.061,0 -53.507,0 H -67.68 c -1.446,0 -2.622,1.177 -2.622,2.623 v 48.018 c 0,1.446 1.176,2.623 2.622,2.623 h 81.854 c 1.445,0 2.621,-1.177 2.621,-2.623 V 2.623 C 16.795,1.177 15.619,0 14.174,0 Z"
           style="fill:none;stroke:#0000ff;stroke-width:0.535748;stroke-linecap:round;stroke-linejoin:round;stroke-miterlimit:4;stroke-dasharray:none;stroke-opacity:1"
           id="path1961"
           inkscape:connector-curvature="0" /></g><g
         id="g1963"
         transform="translate(1060.5771,579.3745)"
         style="stroke-width:0.535748;stroke-miterlimit:4;stroke-dasharray:none"><path
           d="m 0,0 h -296.301 l -233.75,-48.195 h -56.693 L -820.493,0 h -186.054 c -3.131,0 -5.669,2.539 -5.669,5.669 V 346.84 c 0,3.131 2.538,5.67 5.669,5.67 H 0 c 3.131,0 5.669,-2.539 5.669,-5.67 V 5.669 C 5.669,2.539 3.131,0 0,0 Z"
           style="fill:none;stroke:#0000ff;stroke-width:0.535748;stroke-linecap:butt;stroke-linejoin:miter;stroke-miterlimit:4;stroke-dasharray:none;stroke-opacity:1"
           id="path1965"
           inkscape:connector-curvature="0" /></g><g
         id="g1967"
         transform="translate(686.4316,576.8555)"
         style="stroke-width:0.535748;stroke-miterlimit:4;stroke-dasharray:none"><path
           d="m 0,0 v 0 c -2.104,0 -3.826,1.722 -3.826,3.827 0,2.105 1.722,3.827 3.826,3.827 2.105,0 3.827,-1.722 3.827,-3.827 C 3.827,1.722 2.105,0 0,0 Z"
           style="fill:none;stroke:#0000ff;stroke-width:0.535748;stroke-linecap:butt;stroke-linejoin:miter;stroke-miterlimit:4;stroke-dasharray:none;stroke-opacity:1"
           id="path1969"
           inkscape:connector-curvature="0" /></g><g
         id="g1971"
         transform="translate(1052.0732,589.7212)"
         style="stroke-width:0.535748;stroke-miterlimit:4;stroke-dasharray:none"><path
           d="m 0,0 v 0 c -2.104,0 -3.827,1.722 -3.827,3.827 0,2.105 1.723,3.826 3.827,3.826 2.104,0 3.827,-1.721 3.827,-3.826 C 3.827,1.722 2.104,0 0,0 Z"
           style="fill:none;stroke:#0000ff;stroke-width:0.535748;stroke-linecap:butt;stroke-linejoin:miter;stroke-miterlimit:4;stroke-dasharray:none;stroke-opacity:1"
           id="path1973"
           inkscape:connector-curvature="0" /></g><g
         id="g1975"
         transform="translate(1052.0732,913.8843)"
         style="stroke-width:0.535748;stroke-miterlimit:4;stroke-dasharray:none"><path
           d="m 0,0 v 0 c -2.104,0 -3.827,1.722 -3.827,3.827 0,2.104 1.723,3.826 3.827,3.826 2.104,0 3.827,-1.722 3.827,-3.826 C 3.827,1.722 2.104,0 0,0 Z"
           style="fill:none;stroke:#0000ff;stroke-width:0.535748;stroke-linecap:butt;stroke-linejoin:miter;stroke-miterlimit:4;stroke-dasharray:none;stroke-opacity:1"
           id="path1977"
           inkscape:connector-curvature="0" /></g><g
         id="g1979"
         transform="translate(686.4316,913.8843)"
         style="stroke-width:0.535748;stroke-miterlimit:4;stroke-dasharray:none"><path
           d="m 0,0 v 0 c -2.104,0 -3.826,1.722 -3.826,3.827 0,2.104 1.722,3.826 3.826,3.826 2.105,0 3.827,-1.722 3.827,-3.826 C 3.827,1.722 2.105,0 0,0 Z"
           style="fill:none;stroke:#0000ff;stroke-width:0.535748;stroke-linecap:butt;stroke-linejoin:miter;stroke-miterlimit:4;stroke-dasharray:none;stroke-opacity:1"
           id="path1981"
           inkscape:connector-curvature="0" /></g><g
         id="g1983"
         transform="translate(310.6646,913.8843)"
         style="stroke-width:0.535748;stroke-miterlimit:4;stroke-dasharray:none"><path
           d="m 0,0 v 0 c -2.104,0 -3.827,1.722 -3.827,3.827 0,2.104 1.723,3.826 3.827,3.826 2.105,0 3.827,-1.722 3.827,-3.826 C 3.827,1.722 2.105,0 0,0 Z"
           style="fill:none;stroke:#0000ff;stroke-width:0.535748;stroke-linecap:butt;stroke-linejoin:miter;stroke-miterlimit:4;stroke-dasharray:none;stroke-opacity:1"
           id="path1985"
           inkscape:connector-curvature="0" /></g><g
         id="g1987"
         transform="translate(62.5342,913.8843)"
         style="stroke-width:0.535748;stroke-miterlimit:4;stroke-dasharray:none"><path
           d="m 0,0 v 0 c -2.105,0 -3.827,1.722 -3.827,3.827 0,2.104 1.722,3.826 3.827,3.826 2.104,0 3.827,-1.722 3.827,-3.826 C 3.827,1.722 2.104,0 0,0 Z"
           style="fill:none;stroke:#0000ff;stroke-width:0.535748;stroke-linecap:butt;stroke-linejoin:miter;stroke-miterlimit:4;stroke-dasharray:none;stroke-opacity:1"
           id="path1989"
           inkscape:connector-curvature="0" /></g><g
         id="g1991"
         transform="translate(62.5342,589.7212)"
         style="stroke-width:0.535748;stroke-miterlimit:4;stroke-dasharray:none"><path
           d="m 0,0 v 0 c -2.105,0 -3.827,1.722 -3.827,3.827 0,2.105 1.722,3.826 3.827,3.826 2.104,0 3.827,-1.721 3.827,-3.826 C 3.827,1.722 2.104,0 0,0 Z"
           style="fill:none;stroke:#0000ff;stroke-width:0.535748;stroke-linecap:butt;stroke-linejoin:miter;stroke-miterlimit:4;stroke-dasharray:none;stroke-opacity:1"
           id="path1993"
           inkscape:connector-curvature="0" /></g><g
         id="g1995"
         transform="translate(317.9282,576.8555)"
         style="stroke-width:0.535748;stroke-miterlimit:4;stroke-dasharray:none"><path
           d="m 0,0 v 0 c -2.105,0 -3.827,1.722 -3.827,3.827 0,2.105 1.722,3.827 3.827,3.827 2.104,0 3.827,-1.722 3.827,-3.827 C 3.827,1.722 2.104,0 0,0 Z"
           style="fill:none;stroke:#0000ff;stroke-width:0.535748;stroke-linecap:butt;stroke-linejoin:miter;stroke-miterlimit:4;stroke-dasharray:none;stroke-opacity:1"
           id="path1997"
           inkscape:connector-curvature="0" /></g><g
         id="g1999"
         transform="translate(40.7949,556.0957)"
         style="stroke-width:0.535748;stroke-miterlimit:4;stroke-dasharray:none"><path
           d="m 0,0 c -0.129,0 -0.244,-0.044 -0.349,-0.104 l -3.394,5.878 c 0.211,0.123 0.36,0.342 0.36,0.604 0,0.392 -0.317,0.708 -0.708,0.708 C -4.483,7.086 -4.8,6.77 -4.8,6.378 h -6.766 c 0,0.392 -0.317,0.708 -0.708,0.708 -0.392,0 -0.709,-0.316 -0.709,-0.708 0,-0.262 0.149,-0.481 0.36,-0.604 l -3.394,-5.878 C -16.122,-0.044 -16.236,0 -16.366,0 c -0.391,0 -0.709,-0.317 -0.709,-0.709 0,-0.391 0.318,-0.708 0.709,-0.708 0.13,0 0.244,0.044 0.349,0.105 l 3.394,-5.879 c -0.211,-0.123 -0.36,-0.342 -0.36,-0.604 0,-0.392 0.317,-0.709 0.709,-0.709 0.391,0 0.708,0.317 0.708,0.709 H -4.8 c 0,-0.392 0.317,-0.709 0.709,-0.709 0.391,0 0.708,0.317 0.708,0.709 0,0.262 -0.149,0.481 -0.36,0.604 l 3.394,5.879 c 0.105,-0.061 0.22,-0.105 0.349,-0.105 0.391,0 0.708,0.317 0.708,0.708 C 0.708,-0.317 0.391,0 0,0 Z"
           style="fill:none;stroke:#0000ff;stroke-width:0.535748;stroke-linecap:butt;stroke-linejoin:miter;stroke-miterlimit:4;stroke-dasharray:none;stroke-opacity:1"
           id="path2001"
           inkscape:connector-curvature="0" /></g><g
         id="g2003"
         transform="translate(296.189,543.2305)"
         style="stroke-width:0.535748;stroke-miterlimit:4;stroke-dasharray:none"><path
           d="m 0,0 c -0.129,0 -0.244,-0.045 -0.349,-0.105 l -3.394,5.878 c 0.211,0.123 0.36,0.342 0.36,0.605 0,0.391 -0.317,0.708 -0.708,0.708 -0.392,0 -0.709,-0.317 -0.709,-0.708 h -6.766 c 0,0.391 -0.317,0.708 -0.708,0.708 -0.392,0 -0.709,-0.317 -0.709,-0.708 0,-0.263 0.149,-0.482 0.36,-0.605 l -3.394,-5.878 C -16.122,-0.045 -16.236,0 -16.366,0 c -0.391,0 -0.709,-0.317 -0.709,-0.709 0,-0.392 0.318,-0.709 0.709,-0.709 0.13,0 0.244,0.044 0.349,0.106 l 3.394,-5.879 c -0.211,-0.123 -0.36,-0.343 -0.36,-0.605 0,-0.392 0.317,-0.708 0.709,-0.708 0.391,0 0.708,0.316 0.708,0.708 H -4.8 c 0,-0.392 0.317,-0.708 0.709,-0.708 0.391,0 0.708,0.316 0.708,0.708 0,0.262 -0.149,0.482 -0.36,0.605 l 3.394,5.879 c 0.105,-0.062 0.22,-0.106 0.349,-0.106 0.391,0 0.708,0.317 0.708,0.709 C 0.708,-0.317 0.391,0 0,0 Z"
           style="fill:none;stroke:#0000ff;stroke-width:0.535748;stroke-linecap:butt;stroke-linejoin:miter;stroke-miterlimit:4;stroke-dasharray:none;stroke-opacity:1"
           id="path2005"
           inkscape:connector-curvature="0" /></g><g
         id="g2007"
         transform="translate(472.2578,526.9941)"
         style="stroke-width:0.535748;stroke-miterlimit:4;stroke-dasharray:none"><path
           d="m 0,0 h -28.346 l -211.073,41.154 h -181.809 c -3.131,10e-4 -5.669,2.538 -5.669,5.669 v 143.654 h -26.922 V 19.889 c -10e-4,-3.131 2.538,-5.668 5.669,-5.669 h 186.054 l 233.75,-48.195 H 0 Z"
           style="fill:none;stroke:#0000ff;stroke-width:0.535748;stroke-linecap:butt;stroke-linejoin:miter;stroke-miterlimit:4;stroke-dasharray:none;stroke-opacity:1"
           id="path2009"
           inkscape:connector-curvature="0" /></g><g
         id="g2011"
         transform="translate(1090.1807,556.1006)"
         style="stroke-width:0.535748;stroke-miterlimit:4;stroke-dasharray:none"><path
           d="m 0,0 c -0.13,0 -0.244,-0.044 -0.349,-0.104 l -3.394,5.878 c 0.211,0.122 0.36,0.342 0.36,0.604 0,0.391 -0.317,0.708 -0.709,0.708 -0.391,0 -0.709,-0.317 -0.709,-0.708 h -6.765 c 0,0.391 -0.318,0.708 -0.708,0.708 -0.392,0 -0.709,-0.317 -0.709,-0.708 0,-0.262 0.148,-0.482 0.36,-0.604 l -3.395,-5.878 C -16.122,-0.044 -16.236,0 -16.366,0 c -0.392,0 -0.709,-0.317 -0.709,-0.709 0,-0.392 0.317,-0.708 0.709,-0.708 0.13,0 0.244,0.044 0.348,0.105 l 3.395,-5.879 c -0.212,-0.123 -0.36,-0.342 -0.36,-0.604 0,-0.392 0.317,-0.709 0.709,-0.709 0.39,0 0.708,0.317 0.708,0.709 h 6.765 c 0,-0.392 0.318,-0.709 0.709,-0.709 0.392,0 0.709,0.317 0.709,0.709 0,0.262 -0.149,0.481 -0.36,0.604 l 3.394,5.879 C -0.244,-1.373 -0.13,-1.417 0,-1.417 c 0.391,0 0.708,0.316 0.708,0.708 C 0.708,-0.317 0.391,0 0,0 Z"
           style="fill:none;stroke:#0000ff;stroke-width:0.535748;stroke-linecap:butt;stroke-linejoin:miter;stroke-miterlimit:4;stroke-dasharray:none;stroke-opacity:1"
           id="path2013"
           inkscape:connector-curvature="0" /></g><g
         id="g2015"
         transform="translate(724.5391,543.2344)"
         style="stroke-width:0.535748;stroke-miterlimit:4;stroke-dasharray:none"><path
           d="m 0,0 c -0.129,0 -0.244,-0.044 -0.349,-0.104 l -3.394,5.878 c 0.212,0.123 0.36,0.342 0.36,0.604 0,0.392 -0.317,0.709 -0.709,0.709 -0.39,0 -0.708,-0.317 -0.708,-0.709 h -6.765 c 0,0.392 -0.318,0.709 -0.709,0.709 -0.392,0 -0.709,-0.317 -0.709,-0.709 0,-0.262 0.149,-0.481 0.36,-0.604 l -3.394,-5.878 C -16.121,-0.044 -16.236,0 -16.366,0 c -0.391,0 -0.708,-0.316 -0.708,-0.708 0,-0.392 0.317,-0.709 0.708,-0.709 0.13,0 0.245,0.044 0.348,0.105 l 3.395,-5.879 c -0.211,-0.122 -0.36,-0.342 -0.36,-0.604 0,-0.392 0.317,-0.709 0.709,-0.709 0.391,0 0.709,0.317 0.709,0.709 H -4.8 c 0,-0.392 0.318,-0.709 0.708,-0.709 0.392,0 0.709,0.317 0.709,0.709 0,0.262 -0.148,0.482 -0.36,0.604 l 3.394,5.879 c 0.105,-0.061 0.22,-0.105 0.349,-0.105 0.392,0 0.709,0.317 0.709,0.709 C 0.709,-0.316 0.392,0 0,0 Z"
           style="fill:none;stroke:#0000ff;stroke-width:0.535748;stroke-linecap:butt;stroke-linejoin:miter;stroke-miterlimit:4;stroke-dasharray:none;stroke-opacity:1"
           id="path2017"
           inkscape:connector-curvature="0" /></g><g
         id="g2019"
         transform="translate(532.1045,493.0244)"
         style="stroke-width:0.535748;stroke-miterlimit:4;stroke-dasharray:none"><path
           d="m 0,0 h 28.347 l 233.749,48.194 h 296.3 c 3.132,0 5.669,2.538 5.67,5.669 V 224.451 H 537.142 V 80.793 c -0.001,-3.131 -2.538,-5.668 -5.669,-5.669 L 239.419,75.128 28.347,33.975 H 0 Z"
           style="fill:none;stroke:#0000ff;stroke-width:0.535748;stroke-linecap:butt;stroke-linejoin:miter;stroke-miterlimit:4;stroke-dasharray:none;stroke-opacity:1"
           id="path2021"
           inkscape:connector-curvature="0" /></g><g
         id="g2023"
         transform="translate(40.7949,947.5757)"
         style="stroke-width:0.535748;stroke-miterlimit:4;stroke-dasharray:none"><path
           d="m 0,0 c -0.129,0 -0.244,-0.044 -0.349,-0.105 l -3.394,5.879 c 0.211,0.123 0.36,0.342 0.36,0.604 0,0.392 -0.317,0.708 -0.708,0.708 C -4.483,7.086 -4.8,6.77 -4.8,6.378 h -6.766 c 0,0.392 -0.317,0.708 -0.708,0.708 -0.392,0 -0.709,-0.316 -0.709,-0.708 0,-0.262 0.149,-0.481 0.36,-0.604 l -3.394,-5.878 C -16.122,-0.044 -16.236,0 -16.366,0 c -0.391,0 -0.709,-0.317 -0.709,-0.708 0,-0.392 0.318,-0.709 0.709,-0.709 0.13,0 0.244,0.044 0.349,0.105 l 3.394,-5.879 c -0.211,-0.123 -0.36,-0.342 -0.36,-0.604 0,-0.392 0.317,-0.709 0.709,-0.709 0.391,0 0.708,0.317 0.708,0.709 H -4.8 c 0,-0.392 0.317,-0.709 0.709,-0.709 0.391,0 0.708,0.317 0.708,0.709 0,0.262 -0.149,0.481 -0.36,0.604 l 3.394,5.879 c 0.105,-0.061 0.22,-0.105 0.349,-0.105 0.391,0 0.708,0.317 0.708,0.709 C 0.708,-0.317 0.391,0 0,0 Z"
           style="fill:none;stroke:#0000ff;stroke-width:0.535748;stroke-linecap:butt;stroke-linejoin:miter;stroke-miterlimit:4;stroke-dasharray:none;stroke-opacity:1"
           id="path2025"
           inkscape:connector-curvature="0" /></g><g
         id="g2027"
         transform="translate(288.9258,947.5757)"
         style="stroke-width:0.535748;stroke-miterlimit:4;stroke-dasharray:none"><path
           d="m 0,0 c -0.13,0 -0.245,-0.044 -0.349,-0.105 l -3.394,5.879 c 0.211,0.123 0.36,0.342 0.36,0.604 0,0.392 -0.317,0.708 -0.709,0.708 C -4.483,7.086 -4.8,6.77 -4.8,6.378 h -6.766 c 0,0.392 -0.317,0.708 -0.708,0.708 -0.392,0 -0.709,-0.316 -0.709,-0.708 0,-0.262 0.149,-0.481 0.36,-0.604 l -3.395,-5.878 C -16.122,-0.044 -16.237,0 -16.366,0 c -0.391,0 -0.709,-0.317 -0.709,-0.708 0,-0.392 0.318,-0.709 0.709,-0.709 0.129,0 0.244,0.044 0.348,0.105 l 3.395,-5.879 c -0.211,-0.123 -0.36,-0.342 -0.36,-0.604 0,-0.392 0.317,-0.709 0.709,-0.709 0.391,0 0.708,0.317 0.708,0.709 H -4.8 c 0,-0.392 0.317,-0.709 0.708,-0.709 0.392,0 0.709,0.317 0.709,0.709 0,0.262 -0.149,0.481 -0.36,0.604 l 3.394,5.879 C -0.244,-1.373 -0.13,-1.417 0,-1.417 c 0.391,0 0.708,0.317 0.708,0.709 C 0.708,-0.317 0.391,0 0,0 Z"
           style="fill:none;stroke:#0000ff;stroke-width:0.535748;stroke-linecap:butt;stroke-linejoin:miter;stroke-miterlimit:4;stroke-dasharray:none;stroke-opacity:1"
           id="path2029"
           inkscape:connector-curvature="0" /></g><g
         id="g2031"
         transform="translate(455.25,934.1113)"
         style="stroke-width:0.535748;stroke-miterlimit:4;stroke-dasharray:none"><path
           d="m 0,0 h -404.221 c -3.132,0 -5.668,-2.539 -5.668,-5.669 v -143.654 h -26.922 V 21.26 c 0,3.131 2.538,5.669 5.669,5.669 L 0,26.929 Z"
           style="fill:none;stroke:#0000ff;stroke-width:0.535748;stroke-linecap:butt;stroke-linejoin:miter;stroke-miterlimit:4;stroke-dasharray:none;stroke-opacity:1"
           id="path2033"
           inkscape:connector-curvature="0" /></g><g
         id="g2035"
         transform="translate(1090.1807,947.5757)"
         style="stroke-width:0.535748;stroke-miterlimit:4;stroke-dasharray:none"><path
           d="m 0,0 c -0.13,0 -0.244,-0.044 -0.349,-0.105 l -3.394,5.879 c 0.211,0.123 0.36,0.342 0.36,0.604 0,0.392 -0.317,0.708 -0.709,0.708 -0.391,0 -0.709,-0.316 -0.709,-0.708 h -6.765 c 0,0.392 -0.318,0.708 -0.708,0.708 -0.392,0 -0.709,-0.316 -0.709,-0.708 0,-0.262 0.148,-0.481 0.36,-0.604 l -3.395,-5.878 C -16.122,-0.044 -16.236,0 -16.366,0 c -0.392,0 -0.709,-0.317 -0.709,-0.708 0,-0.392 0.317,-0.709 0.709,-0.709 0.13,0 0.244,0.044 0.348,0.105 l 3.395,-5.879 c -0.212,-0.123 -0.36,-0.342 -0.36,-0.604 0,-0.392 0.317,-0.709 0.709,-0.709 0.39,0 0.708,0.317 0.708,0.709 h 6.765 c 0,-0.392 0.318,-0.709 0.709,-0.709 0.392,0 0.709,0.317 0.709,0.709 0,0.262 -0.149,0.481 -0.36,0.604 l 3.394,5.879 C -0.244,-1.373 -0.13,-1.417 0,-1.417 c 0.391,0 0.708,0.317 0.708,0.709 C 0.708,-0.317 0.391,0 0,0 Z"
           style="fill:none;stroke:#0000ff;stroke-width:0.535748;stroke-linecap:butt;stroke-linejoin:miter;stroke-miterlimit:4;stroke-dasharray:none;stroke-opacity:1"
           id="path2037"
           inkscape:connector-curvature="0" /></g><g
         id="g2039"
         transform="translate(724.5391,947.5757)"
         style="stroke-width:0.535748;stroke-miterlimit:4;stroke-dasharray:none"><path
           d="m 0,0 c -0.129,0 -0.244,-0.044 -0.349,-0.105 l -3.394,5.879 c 0.212,0.123 0.36,0.342 0.36,0.604 0,0.392 -0.317,0.708 -0.709,0.708 -0.39,0 -0.708,-0.316 -0.708,-0.708 h -6.765 c 0,0.392 -0.318,0.708 -0.709,0.708 -0.392,0 -0.709,-0.316 -0.709,-0.708 0,-0.262 0.149,-0.481 0.36,-0.604 l -3.394,-5.878 C -16.121,-0.044 -16.236,0 -16.366,0 c -0.391,0 -0.708,-0.317 -0.708,-0.708 0,-0.392 0.317,-0.709 0.708,-0.709 0.13,0 0.245,0.044 0.348,0.105 l 3.395,-5.879 c -0.211,-0.123 -0.36,-0.342 -0.36,-0.604 0,-0.392 0.317,-0.709 0.709,-0.709 0.391,0 0.709,0.317 0.709,0.709 H -4.8 c 0,-0.392 0.318,-0.709 0.708,-0.709 0.392,0 0.709,0.317 0.709,0.709 0,0.262 -0.148,0.481 -0.36,0.604 l 3.394,5.879 c 0.105,-0.061 0.22,-0.105 0.349,-0.105 0.392,0 0.709,0.317 0.709,0.709 C 0.709,-0.317 0.392,0 0,0 Z"
           style="fill:none;stroke:#0000ff;stroke-width:0.535748;stroke-linecap:butt;stroke-linejoin:miter;stroke-miterlimit:4;stroke-dasharray:none;stroke-opacity:1"
           id="path2041"
           inkscape:connector-curvature="0" /></g><g
         id="g2043"
         transform="translate(549.1123,934.1113)"
         style="stroke-width:0.535748;stroke-miterlimit:4;stroke-dasharray:none"><path
           d="m 0,0 h 514.465 c 3.131,0.001 5.669,-2.538 5.669,-5.668 v -143.655 h 26.925 V 21.26 c -10e-4,3.131 -2.538,5.669 -5.67,5.669 L 0,26.929 Z"
           style="fill:none;stroke:#0000ff;stroke-width:0.535748;stroke-linecap:butt;stroke-linejoin:miter;stroke-miterlimit:4;stroke-dasharray:none;stroke-opacity:1"
           id="path2045"
           inkscape:connector-curvature="0" /></g><g
         id="g2047"
         transform="translate(1060.5771,105.4766)"
         style="stroke-width:0.535748;stroke-miterlimit:4;stroke-dasharray:none"><path
           d="m 0,0 h -296.301 l -233.75,-48.194 h -56.693 L -820.493,0 h -186.054 c -3.131,0 -5.669,2.538 -5.669,5.669 V 346.84 c 0,3.131 2.538,5.67 5.669,5.67 h 431.142 v -28.346 h 34.016 V 352.51 H 0 c 3.131,0 5.669,-2.539 5.669,-5.67 V 5.669 C 5.669,2.538 3.131,0 0,0 Z"
           style="fill:none;stroke:#0000ff;stroke-width:0.535748;stroke-linecap:butt;stroke-linejoin:miter;stroke-miterlimit:4;stroke-dasharray:none;stroke-opacity:1"
           id="path2049"
           inkscape:connector-curvature="0" /></g><g
         id="g2051"
         transform="translate(686.4316,102.957)"
         style="stroke-width:0.535748;stroke-miterlimit:4;stroke-dasharray:none"><path
           d="m 0,0 v 0 c -2.104,0 -3.826,1.723 -3.826,3.827 0,2.105 1.722,3.826 3.826,3.826 2.105,0 3.827,-1.721 3.827,-3.826 C 3.827,1.723 2.105,0 0,0 Z"
           style="fill:none;stroke:#0000ff;stroke-width:0.535748;stroke-linecap:butt;stroke-linejoin:miter;stroke-miterlimit:4;stroke-dasharray:none;stroke-opacity:1"
           id="path2053"
           inkscape:connector-curvature="0" /></g><g
         id="g2055"
         transform="translate(1052.0732,115.8232)"
         style="stroke-width:0.535748;stroke-miterlimit:4;stroke-dasharray:none"><path
           d="m 0,0 v 0 c -2.104,0 -3.827,1.722 -3.827,3.826 0,2.106 1.723,3.827 3.827,3.827 2.104,0 3.827,-1.721 3.827,-3.827 C 3.827,1.722 2.104,0 0,0 Z"
           style="fill:none;stroke:#0000ff;stroke-width:0.535748;stroke-linecap:butt;stroke-linejoin:miter;stroke-miterlimit:4;stroke-dasharray:none;stroke-opacity:1"
           id="path2057"
           inkscape:connector-curvature="0" /></g><g
         id="g2059"
         transform="translate(1052.0732,439.9863)"
         style="stroke-width:0.535748;stroke-miterlimit:4;stroke-dasharray:none"><path
           d="m 0,0 v 0 c -2.104,0 -3.827,1.722 -3.827,3.826 0,2.105 1.723,3.827 3.827,3.827 2.104,0 3.827,-1.722 3.827,-3.827 C 3.827,1.722 2.104,0 0,0 Z"
           style="fill:none;stroke:#0000ff;stroke-width:0.535748;stroke-linecap:butt;stroke-linejoin:miter;stroke-miterlimit:4;stroke-dasharray:none;stroke-opacity:1"
           id="path2061"
           inkscape:connector-curvature="0" /></g><g
         id="g2063"
         transform="translate(686.4316,439.9863)"
         style="stroke-width:0.535748;stroke-miterlimit:4;stroke-dasharray:none"><path
           d="m 0,0 v 0 c -2.104,0 -3.826,1.722 -3.826,3.826 0,2.105 1.722,3.827 3.826,3.827 2.105,0 3.827,-1.722 3.827,-3.827 C 3.827,1.722 2.105,0 0,0 Z"
           style="fill:none;stroke:#0000ff;stroke-width:0.535748;stroke-linecap:butt;stroke-linejoin:miter;stroke-miterlimit:4;stroke-dasharray:none;stroke-opacity:1"
           id="path2065"
           inkscape:connector-curvature="0" /></g><g
         id="g2067"
         transform="translate(310.6646,439.9863)"
         style="stroke-width:0.535748;stroke-miterlimit:4;stroke-dasharray:none"><path
           d="m 0,0 v 0 c -2.104,0 -3.827,1.722 -3.827,3.826 0,2.105 1.723,3.827 3.827,3.827 2.105,0 3.827,-1.722 3.827,-3.827 C 3.827,1.722 2.105,0 0,0 Z"
           style="fill:none;stroke:#0000ff;stroke-width:0.535748;stroke-linecap:butt;stroke-linejoin:miter;stroke-miterlimit:4;stroke-dasharray:none;stroke-opacity:1"
           id="path2069"
           inkscape:connector-curvature="0" /></g><g
         id="g2071"
         transform="translate(62.5342,439.9863)"
         style="stroke-width:0.535748;stroke-miterlimit:4;stroke-dasharray:none"><path
           d="m 0,0 v 0 c -2.105,0 -3.827,1.722 -3.827,3.826 0,2.105 1.722,3.827 3.827,3.827 2.104,0 3.827,-1.722 3.827,-3.827 C 3.827,1.722 2.104,0 0,0 Z"
           style="fill:none;stroke:#0000ff;stroke-width:0.535748;stroke-linecap:butt;stroke-linejoin:miter;stroke-miterlimit:4;stroke-dasharray:none;stroke-opacity:1"
           id="path2073"
           inkscape:connector-curvature="0" /></g><g
         id="g2075"
         transform="translate(62.5342,115.8232)"
         style="stroke-width:0.535748;stroke-miterlimit:4;stroke-dasharray:none"><path
           d="m 0,0 v 0 c -2.105,0 -3.827,1.722 -3.827,3.826 0,2.106 1.722,3.827 3.827,3.827 2.104,0 3.827,-1.721 3.827,-3.827 C 3.827,1.722 2.104,0 0,0 Z"
           style="fill:none;stroke:#0000ff;stroke-width:0.535748;stroke-linecap:butt;stroke-linejoin:miter;stroke-miterlimit:4;stroke-dasharray:none;stroke-opacity:1"
           id="path2077"
           inkscape:connector-curvature="0" /></g><g
         id="g2079"
         transform="translate(317.9282,102.957)"
         style="stroke-width:0.535748;stroke-miterlimit:4;stroke-dasharray:none"><path
           d="m 0,0 v 0 c -2.105,0 -3.827,1.723 -3.827,3.827 0,2.105 1.722,3.826 3.827,3.826 2.104,0 3.827,-1.721 3.827,-3.826 C 3.827,1.723 2.104,0 0,0 Z"
           style="fill:none;stroke:#0000ff;stroke-width:0.535748;stroke-linecap:butt;stroke-linejoin:miter;stroke-miterlimit:4;stroke-dasharray:none;stroke-opacity:1"
           id="path2081"
           inkscape:connector-curvature="0" /></g><g
         id="g2083"
         transform="translate(40.7949,82.1973)"
         style="stroke-width:0.535748;stroke-miterlimit:4;stroke-dasharray:none"><path
           d="m 0,0 c -0.129,0 -0.244,-0.044 -0.349,-0.104 l -3.394,5.878 c 0.211,0.123 0.36,0.342 0.36,0.604 0,0.392 -0.317,0.709 -0.708,0.709 C -4.483,7.087 -4.8,6.77 -4.8,6.378 h -6.766 c 0,0.392 -0.317,0.709 -0.708,0.709 -0.392,0 -0.709,-0.317 -0.709,-0.709 0,-0.262 0.149,-0.481 0.36,-0.604 l -3.394,-5.878 C -16.122,-0.044 -16.236,0 -16.366,0 c -0.391,0 -0.709,-0.317 -0.709,-0.708 0,-0.392 0.318,-0.709 0.709,-0.709 0.13,0 0.244,0.044 0.349,0.105 l 3.394,-5.879 c -0.211,-0.122 -0.36,-0.342 -0.36,-0.604 0,-0.392 0.317,-0.709 0.709,-0.709 0.391,0 0.708,0.317 0.708,0.709 H -4.8 c 0,-0.392 0.317,-0.709 0.709,-0.709 0.391,0 0.708,0.317 0.708,0.709 0,0.262 -0.149,0.482 -0.36,0.604 l 3.394,5.879 c 0.105,-0.061 0.22,-0.105 0.349,-0.105 0.391,0 0.708,0.317 0.708,0.709 C 0.708,-0.317 0.391,0 0,0 Z"
           style="fill:none;stroke:#0000ff;stroke-width:0.535748;stroke-linecap:butt;stroke-linejoin:miter;stroke-miterlimit:4;stroke-dasharray:none;stroke-opacity:1"
           id="path2085"
           inkscape:connector-curvature="0" /></g><g
         id="g2087"
         transform="translate(296.189,69.332)"
         style="stroke-width:0.535748;stroke-miterlimit:4;stroke-dasharray:none"><path
           d="m 0,0 c -0.129,0 -0.244,-0.044 -0.349,-0.104 l -3.394,5.877 c 0.211,0.123 0.36,0.343 0.36,0.605 0,0.392 -0.317,0.709 -0.708,0.709 C -4.483,7.087 -4.8,6.77 -4.8,6.378 h -6.766 c 0,0.392 -0.317,0.709 -0.708,0.709 -0.392,0 -0.709,-0.317 -0.709,-0.709 0,-0.262 0.149,-0.482 0.36,-0.604 l -3.394,-5.878 C -16.122,-0.044 -16.236,0 -16.366,0 c -0.391,0 -0.709,-0.317 -0.709,-0.709 0,-0.392 0.318,-0.708 0.709,-0.708 0.13,0 0.244,0.044 0.349,0.105 l 3.394,-5.879 c -0.211,-0.123 -0.36,-0.342 -0.36,-0.605 0,-0.391 0.317,-0.708 0.709,-0.708 0.391,0 0.708,0.317 0.708,0.708 H -4.8 c 0,-0.391 0.317,-0.708 0.709,-0.708 0.391,0 0.708,0.317 0.708,0.708 0,0.263 -0.149,0.482 -0.36,0.605 l 3.394,5.879 c 0.105,-0.061 0.22,-0.105 0.349,-0.105 0.391,0 0.708,0.316 0.708,0.708 C 0.708,-0.317 0.391,0 0,0 Z"
           style="fill:none;stroke:#0000ff;stroke-width:0.535748;stroke-linecap:butt;stroke-linejoin:miter;stroke-miterlimit:4;stroke-dasharray:none;stroke-opacity:1"
           id="path2089"
           inkscape:connector-curvature="0" /></g><g
         id="g2091"
         transform="translate(472.2578,53.0957)"
         style="stroke-width:0.535748;stroke-miterlimit:4;stroke-dasharray:none"><path
           d="m 0,0 h -28.346 l -211.073,41.153 h -181.809 c -3.131,0.002 -5.669,2.539 -5.669,5.67 v 143.654 h -26.922 V 19.89 c -10e-4,-3.132 2.538,-5.669 5.669,-5.67 h 186.054 l 233.75,-48.195 H 0 Z"
           style="fill:none;stroke:#0000ff;stroke-width:0.535748;stroke-linecap:butt;stroke-linejoin:miter;stroke-miterlimit:4;stroke-dasharray:none;stroke-opacity:1"
           id="path2093"
           inkscape:connector-curvature="0" /></g><g
         id="g2095"
         transform="translate(1090.1807,82.2021)"
         style="stroke-width:0.535748;stroke-miterlimit:4;stroke-dasharray:none"><path
           d="m 0,0 c -0.13,0 -0.244,-0.044 -0.349,-0.104 l -3.394,5.878 c 0.211,0.122 0.36,0.342 0.36,0.604 0,0.392 -0.317,0.709 -0.709,0.709 -0.391,0 -0.709,-0.317 -0.709,-0.709 h -6.765 c 0,0.392 -0.318,0.709 -0.708,0.709 -0.392,0 -0.709,-0.317 -0.709,-0.709 0,-0.262 0.148,-0.482 0.36,-0.604 l -3.395,-5.878 C -16.122,-0.044 -16.236,0 -16.366,0 c -0.392,0 -0.709,-0.317 -0.709,-0.709 0,-0.391 0.317,-0.708 0.709,-0.708 0.13,0 0.244,0.044 0.348,0.105 l 3.395,-5.879 c -0.212,-0.122 -0.36,-0.342 -0.36,-0.604 0,-0.392 0.317,-0.709 0.709,-0.709 0.39,0 0.708,0.317 0.708,0.709 h 6.765 c 0,-0.392 0.318,-0.709 0.709,-0.709 0.392,0 0.709,0.317 0.709,0.709 0,0.262 -0.149,0.482 -0.36,0.604 l 3.394,5.879 C -0.244,-1.373 -0.13,-1.417 0,-1.417 c 0.391,0 0.708,0.317 0.708,0.708 C 0.708,-0.317 0.391,0 0,0 Z"
           style="fill:none;stroke:#0000ff;stroke-width:0.535748;stroke-linecap:butt;stroke-linejoin:miter;stroke-miterlimit:4;stroke-dasharray:none;stroke-opacity:1"
           id="path2097"
           inkscape:connector-curvature="0" /></g><g
         id="g2099"
         transform="translate(724.5391,69.3369)"
         style="stroke-width:0.535748;stroke-miterlimit:4;stroke-dasharray:none"><path
           d="m 0,0 c -0.129,0 -0.244,-0.044 -0.349,-0.105 l -3.394,5.878 c 0.212,0.123 0.36,0.343 0.36,0.605 0,0.392 -0.317,0.708 -0.709,0.708 -0.39,0 -0.708,-0.316 -0.708,-0.708 h -6.765 c 0,0.392 -0.318,0.708 -0.709,0.708 -0.392,0 -0.709,-0.316 -0.709,-0.708 0,-0.262 0.149,-0.482 0.36,-0.605 l -3.394,-5.878 C -16.121,-0.044 -16.236,0 -16.366,0 c -0.391,0 -0.708,-0.317 -0.708,-0.709 0,-0.392 0.317,-0.709 0.708,-0.709 0.13,0 0.245,0.045 0.348,0.106 l 3.395,-5.879 c -0.211,-0.123 -0.36,-0.342 -0.36,-0.605 0,-0.391 0.317,-0.708 0.709,-0.708 0.391,0 0.709,0.317 0.709,0.708 H -4.8 c 0,-0.391 0.318,-0.708 0.708,-0.708 0.392,0 0.709,0.317 0.709,0.708 0,0.263 -0.148,0.482 -0.36,0.605 l 3.394,5.879 c 0.105,-0.061 0.22,-0.106 0.349,-0.106 0.392,0 0.709,0.317 0.709,0.709 C 0.709,-0.317 0.392,0 0,0 Z"
           style="fill:none;stroke:#0000ff;stroke-width:0.535748;stroke-linecap:butt;stroke-linejoin:miter;stroke-miterlimit:4;stroke-dasharray:none;stroke-opacity:1"
           id="path2101"
           inkscape:connector-curvature="0" /></g><g
         id="g2103"
         transform="translate(532.1045,19.126)"
         style="stroke-width:0.535748;stroke-miterlimit:4;stroke-dasharray:none"><path
           d="m 0,0 h 28.347 l 233.749,48.194 h 296.3 c 3.132,0 5.669,2.538 5.67,5.669 V 224.451 H 537.142 V 80.793 c -0.001,-3.131 -2.538,-5.668 -5.669,-5.669 L 239.419,75.128 28.347,33.975 H 0 Z"
           style="fill:none;stroke:#0000ff;stroke-width:0.535748;stroke-linecap:butt;stroke-linejoin:miter;stroke-miterlimit:4;stroke-dasharray:none;stroke-opacity:1"
           id="path2105"
           inkscape:connector-curvature="0" /></g><g
         id="g2107"
         transform="translate(40.7949,473.6777)"
         style="stroke-width:0.535748;stroke-miterlimit:4;stroke-dasharray:none"><path
           d="m 0,0 c -0.129,0 -0.244,-0.044 -0.349,-0.105 l -3.394,5.878 c 0.211,0.123 0.36,0.343 0.36,0.605 0,0.392 -0.317,0.708 -0.708,0.708 C -4.483,7.086 -4.8,6.77 -4.8,6.378 h -6.766 c 0,0.392 -0.317,0.708 -0.708,0.708 -0.392,0 -0.709,-0.316 -0.709,-0.708 0,-0.262 0.149,-0.482 0.36,-0.605 l -3.394,-5.878 C -16.122,-0.044 -16.236,0 -16.366,0 c -0.391,0 -0.709,-0.317 -0.709,-0.709 0,-0.392 0.318,-0.709 0.709,-0.709 0.13,0 0.244,0.045 0.349,0.106 l 3.394,-5.879 c -0.211,-0.123 -0.36,-0.342 -0.36,-0.605 0,-0.391 0.317,-0.708 0.709,-0.708 0.391,0 0.708,0.317 0.708,0.708 H -4.8 c 0,-0.391 0.317,-0.708 0.709,-0.708 0.391,0 0.708,0.317 0.708,0.708 0,0.263 -0.149,0.482 -0.36,0.605 l 3.394,5.879 c 0.105,-0.061 0.22,-0.106 0.349,-0.106 0.391,0 0.708,0.317 0.708,0.709 C 0.708,-0.317 0.391,0 0,0 Z"
           style="fill:none;stroke:#0000ff;stroke-width:0.535748;stroke-linecap:butt;stroke-linejoin:miter;stroke-miterlimit:4;stroke-dasharray:none;stroke-opacity:1"
           id="path2109"
           inkscape:connector-curvature="0" /></g><g
         id="g2111"
         transform="translate(288.9258,473.6777)"
         style="stroke-width:0.535748;stroke-miterlimit:4;stroke-dasharray:none"><path
           d="m 0,0 c -0.13,0 -0.245,-0.044 -0.349,-0.105 l -3.394,5.878 c 0.211,0.123 0.36,0.343 0.36,0.605 0,0.392 -0.317,0.708 -0.709,0.708 C -4.483,7.086 -4.8,6.77 -4.8,6.378 h -6.766 c 0,0.392 -0.317,0.708 -0.708,0.708 -0.392,0 -0.709,-0.316 -0.709,-0.708 0,-0.262 0.149,-0.482 0.36,-0.605 l -3.395,-5.878 C -16.122,-0.044 -16.237,0 -16.366,0 c -0.391,0 -0.709,-0.317 -0.709,-0.709 0,-0.392 0.318,-0.709 0.709,-0.709 0.129,0 0.244,0.045 0.348,0.106 l 3.395,-5.879 c -0.211,-0.123 -0.36,-0.342 -0.36,-0.605 0,-0.391 0.317,-0.708 0.709,-0.708 0.391,0 0.708,0.317 0.708,0.708 H -4.8 c 0,-0.391 0.317,-0.708 0.708,-0.708 0.392,0 0.709,0.317 0.709,0.708 0,0.263 -0.149,0.482 -0.36,0.605 l 3.394,5.879 C -0.244,-1.373 -0.13,-1.418 0,-1.418 c 0.391,0 0.708,0.317 0.708,0.709 C 0.708,-0.317 0.391,0 0,0 Z"
           style="fill:none;stroke:#0000ff;stroke-width:0.535748;stroke-linecap:butt;stroke-linejoin:miter;stroke-miterlimit:4;stroke-dasharray:none;stroke-opacity:1"
           id="path2113"
           inkscape:connector-curvature="0" /></g><g
         id="g2115"
         transform="translate(455.25,460.2129)"
         style="stroke-width:0.535748;stroke-miterlimit:4;stroke-dasharray:none"><path
           d="m 0,0 h -404.221 c -3.132,0 -5.668,-2.538 -5.668,-5.669 v -143.654 h -26.922 V 21.26 c 0,3.131 2.538,5.669 5.669,5.669 L 0,26.929 Z"
           style="fill:none;stroke:#0000ff;stroke-width:0.535748;stroke-linecap:butt;stroke-linejoin:miter;stroke-miterlimit:4;stroke-dasharray:none;stroke-opacity:1"
           id="path2117"
           inkscape:connector-curvature="0" /></g><g
         id="g2119"
         transform="translate(1090.1807,473.6777)"
         style="stroke-width:0.535748;stroke-miterlimit:4;stroke-dasharray:none"><path
           d="m 0,0 c -0.13,0 -0.244,-0.044 -0.349,-0.105 l -3.394,5.878 c 0.211,0.123 0.36,0.343 0.36,0.605 0,0.392 -0.317,0.708 -0.709,0.708 -0.391,0 -0.709,-0.316 -0.709,-0.708 h -6.765 c 0,0.392 -0.318,0.708 -0.708,0.708 -0.392,0 -0.709,-0.316 -0.709,-0.708 0,-0.262 0.148,-0.482 0.36,-0.605 l -3.395,-5.878 C -16.122,-0.044 -16.236,0 -16.366,0 c -0.392,0 -0.709,-0.317 -0.709,-0.709 0,-0.392 0.317,-0.709 0.709,-0.709 0.13,0 0.244,0.045 0.348,0.106 l 3.395,-5.879 c -0.212,-0.123 -0.36,-0.342 -0.36,-0.605 0,-0.391 0.317,-0.708 0.709,-0.708 0.39,0 0.708,0.317 0.708,0.708 h 6.765 c 0,-0.391 0.318,-0.708 0.709,-0.708 0.392,0 0.709,0.317 0.709,0.708 0,0.263 -0.149,0.482 -0.36,0.605 l 3.394,5.879 C -0.244,-1.373 -0.13,-1.418 0,-1.418 c 0.391,0 0.708,0.317 0.708,0.709 C 0.708,-0.317 0.391,0 0,0 Z"
           style="fill:none;stroke:#0000ff;stroke-width:0.535748;stroke-linecap:butt;stroke-linejoin:miter;stroke-miterlimit:4;stroke-dasharray:none;stroke-opacity:1"
           id="path2121"
           inkscape:connector-curvature="0" /></g><g
         id="g2123"
         transform="translate(724.5391,473.6777)"
         style="stroke-width:0.535748;stroke-miterlimit:4;stroke-dasharray:none"><path
           d="m 0,0 c -0.129,0 -0.244,-0.044 -0.349,-0.105 l -3.394,5.878 c 0.212,0.123 0.36,0.343 0.36,0.605 0,0.392 -0.317,0.708 -0.709,0.708 -0.39,0 -0.708,-0.316 -0.708,-0.708 h -6.765 c 0,0.392 -0.318,0.708 -0.709,0.708 -0.392,0 -0.709,-0.316 -0.709,-0.708 0,-0.262 0.149,-0.482 0.36,-0.605 l -3.394,-5.878 C -16.121,-0.044 -16.236,0 -16.366,0 c -0.391,0 -0.708,-0.317 -0.708,-0.709 0,-0.392 0.317,-0.709 0.708,-0.709 0.13,0 0.245,0.045 0.348,0.106 l 3.395,-5.879 c -0.211,-0.123 -0.36,-0.342 -0.36,-0.605 0,-0.391 0.317,-0.708 0.709,-0.708 0.391,0 0.709,0.317 0.709,0.708 H -4.8 c 0,-0.391 0.318,-0.708 0.708,-0.708 0.392,0 0.709,0.317 0.709,0.708 0,0.263 -0.148,0.482 -0.36,0.605 l 3.394,5.879 c 0.105,-0.061 0.22,-0.106 0.349,-0.106 0.392,0 0.709,0.317 0.709,0.709 C 0.709,-0.317 0.392,0 0,0 Z"
           style="fill:none;stroke:#0000ff;stroke-width:0.535748;stroke-linecap:butt;stroke-linejoin:miter;stroke-miterlimit:4;stroke-dasharray:none;stroke-opacity:1"
           id="path2125"
           inkscape:connector-curvature="0" /></g><g
         id="g2127"
         transform="translate(549.1123,460.2129)"
         style="stroke-width:0.535748;stroke-miterlimit:4;stroke-dasharray:none"><path
           d="m 0,0 514.465,0.001 c 3.131,0.001 5.669,-2.538 5.669,-5.669 v -143.655 h 26.925 V 21.26 c -10e-4,3.131 -2.538,5.669 -5.67,5.669 L 0,26.929 Z"
           style="fill:none;stroke:#0000ff;stroke-width:0.535748;stroke-linecap:butt;stroke-linejoin:miter;stroke-miterlimit:4;stroke-dasharray:none;stroke-opacity:1"
           id="path2129"
           inkscape:connector-curvature="0" /></g><g
         id="g2131"
         transform="translate(1060.5771,1020.6489)"
         style="stroke-width:0.535748;stroke-miterlimit:4;stroke-dasharray:none"><path
           d="m 0,0 h -1006.547 c -3.131,0 -5.669,2.538 -5.669,5.669 v 59.528 c 0,3.131 2.538,5.669 5.669,5.669 H 0 c 3.131,0 5.669,-2.538 5.669,-5.669 V 5.669 C 5.669,2.538 3.131,0 0,0 Z"
           style="fill:none;stroke:#0000ff;stroke-width:0.535748;stroke-linecap:butt;stroke-linejoin:miter;stroke-miterlimit:4;stroke-dasharray:none;stroke-opacity:1"
           id="path2133"
           inkscape:connector-curvature="0" /></g><g
         id="g2135"
         transform="translate(1052.0732,1073.5151)"
         style="stroke-width:0.535748;stroke-miterlimit:4;stroke-dasharray:none"><path
           d="m 0,0 v 0 c -2.104,0 -3.827,1.722 -3.827,3.827 0,2.104 1.723,3.826 3.827,3.826 2.104,0 3.827,-1.722 3.827,-3.826 C 3.827,1.722 2.104,0 0,0 Z"
           style="fill:none;stroke:#0000ff;stroke-width:0.535748;stroke-linecap:butt;stroke-linejoin:miter;stroke-miterlimit:4;stroke-dasharray:none;stroke-opacity:1"
           id="path2137"
           inkscape:connector-curvature="0" /></g><g
         id="g2139"
         transform="translate(686.4316,1073.5151)"
         style="stroke-width:0.535748;stroke-miterlimit:4;stroke-dasharray:none"><path
           d="m 0,0 v 0 c -2.104,0 -3.826,1.722 -3.826,3.827 0,2.104 1.722,3.826 3.826,3.826 2.105,0 3.827,-1.722 3.827,-3.826 C 3.827,1.722 2.105,0 0,0 Z"
           style="fill:none;stroke:#0000ff;stroke-width:0.535748;stroke-linecap:butt;stroke-linejoin:miter;stroke-miterlimit:4;stroke-dasharray:none;stroke-opacity:1"
           id="path2141"
           inkscape:connector-curvature="0" /></g><g
         id="g2143"
         transform="translate(310.6646,1073.5151)"
         style="stroke-width:0.535748;stroke-miterlimit:4;stroke-dasharray:none"><path
           d="m 0,0 v 0 c -2.104,0 -3.827,1.722 -3.827,3.827 0,2.104 1.723,3.826 3.827,3.826 2.105,0 3.827,-1.722 3.827,-3.826 C 3.827,1.722 2.105,0 0,0 Z"
           style="fill:none;stroke:#0000ff;stroke-width:0.535748;stroke-linecap:butt;stroke-linejoin:miter;stroke-miterlimit:4;stroke-dasharray:none;stroke-opacity:1"
           id="path2145"
           inkscape:connector-curvature="0" /></g><g
         id="g2147"
         transform="translate(62.5342,1073.5151)"
         style="stroke-width:0.535748;stroke-miterlimit:4;stroke-dasharray:none"><path
           d="m 0,0 v 0 c -2.105,0 -3.827,1.722 -3.827,3.827 0,2.104 1.722,3.826 3.827,3.826 2.104,0 3.827,-1.722 3.827,-3.826 C 3.827,1.722 2.104,0 0,0 Z"
           style="fill:none;stroke:#0000ff;stroke-width:0.535748;stroke-linecap:butt;stroke-linejoin:miter;stroke-miterlimit:4;stroke-dasharray:none;stroke-opacity:1"
           id="path2149"
           inkscape:connector-curvature="0" /></g><g
         id="g2151"
         transform="translate(1060.5771,971.7495)"
         style="stroke-width:0.535748;stroke-miterlimit:4;stroke-dasharray:none"><path
           d="m 0,0 h -1006.547 c -3.131,0 -5.669,2.539 -5.669,5.669 v 31.182 c 0,3.131 2.538,5.669 5.669,5.669 L 0,42.52 c 3.131,0 5.669,-2.538 5.669,-5.669 V 5.669 C 5.669,2.539 3.131,0 0,0 Z"
           style="fill:none;stroke:#0000ff;stroke-width:0.535748;stroke-linecap:butt;stroke-linejoin:miter;stroke-miterlimit:4;stroke-dasharray:none;stroke-opacity:1"
           id="path2153"
           inkscape:connector-curvature="0" /></g><g
         id="g2155"
         transform="translate(62.5342,996.2695)"
         style="stroke-width:0.535748;stroke-miterlimit:4;stroke-dasharray:none"><path
           d="m 0,0 v 0 c -2.105,0 -3.827,1.722 -3.827,3.827 0,2.105 1.722,3.826 3.827,3.826 2.104,0 3.827,-1.721 3.827,-3.826 C 3.827,1.722 2.104,0 0,0 Z"
           style="fill:none;stroke:#0000ff;stroke-width:0.535748;stroke-linecap:butt;stroke-linejoin:miter;stroke-miterlimit:4;stroke-dasharray:none;stroke-opacity:1"
           id="path2157"
           inkscape:connector-curvature="0" /></g><g
         id="g2159"
         transform="translate(310.6646,996.2695)"
         style="stroke-width:0.535748;stroke-miterlimit:4;stroke-dasharray:none"><path
           d="m 0,0 v 0 c -2.104,0 -3.827,1.722 -3.827,3.827 0,2.105 1.723,3.826 3.827,3.826 2.105,0 3.827,-1.721 3.827,-3.826 C 3.827,1.722 2.105,0 0,0 Z"
           style="fill:none;stroke:#0000ff;stroke-width:0.535748;stroke-linecap:butt;stroke-linejoin:miter;stroke-miterlimit:4;stroke-dasharray:none;stroke-opacity:1"
           id="path2161"
           inkscape:connector-curvature="0" /></g><g
         id="g2163"
         transform="translate(686.4316,996.2695)"
         style="stroke-width:0.535748;stroke-miterlimit:4;stroke-dasharray:none"><path
           d="m 0,0 v 0 c -2.104,0 -3.826,1.722 -3.826,3.827 0,2.105 1.722,3.826 3.826,3.826 2.105,0 3.827,-1.721 3.827,-3.826 C 3.827,1.722 2.105,0 0,0 Z"
           style="fill:none;stroke:#0000ff;stroke-width:0.535748;stroke-linecap:butt;stroke-linejoin:miter;stroke-miterlimit:4;stroke-dasharray:none;stroke-opacity:1"
           id="path2165"
           inkscape:connector-curvature="0" /></g><g
         id="g2167"
         transform="translate(1052.0732,996.2695)"
         style="stroke-width:0.535748;stroke-miterlimit:4;stroke-dasharray:none"><path
           d="m 0,0 v 0 c -2.104,0 -3.827,1.722 -3.827,3.827 0,2.105 1.723,3.826 3.827,3.826 2.104,0 3.827,-1.721 3.827,-3.826 C 3.827,1.722 2.104,0 0,0 Z"
           style="fill:none;stroke:#0000ff;stroke-width:0.535748;stroke-linecap:butt;stroke-linejoin:miter;stroke-miterlimit:4;stroke-dasharray:none;stroke-opacity:1"
           id="path2169"
           inkscape:connector-curvature="0" /></g></g></g></svg>
