<?xml version="1.0" encoding="UTF-8" standalone="no"?>
<!-- Created with Inkscape (http://www.inkscape.org/) -->

<svg
   xmlns:dc="http://purl.org/dc/elements/1.1/"
   xmlns:cc="http://creativecommons.org/ns#"
   xmlns:rdf="http://www.w3.org/1999/02/22-rdf-syntax-ns#"
   xmlns:svg="http://www.w3.org/2000/svg"
   xmlns="http://www.w3.org/2000/svg"
   xmlns:sodipodi="http://sodipodi.sourceforge.net/DTD/sodipodi-0.dtd"
   xmlns:inkscape="http://www.inkscape.org/namespaces/inkscape"
   version="1.1"
   id="svg698"
   xml:space="preserve"
   width="1269.9211"
   height="514.96069"
   viewBox="0 0 1269.9211 514.96069"
   sodipodi:docname="pheromone_bottom_plate.svg"
   inkscape:version="0.92.4 (5da689c313, 2019-01-14)"><metadata
     id="metadata704"><rdf:RDF><cc:Work
         rdf:about=""><dc:format>image/svg+xml</dc:format><dc:type
           rdf:resource="http://purl.org/dc/dcmitype/StillImage" /><dc:title></dc:title></cc:Work></rdf:RDF></metadata><defs
     id="defs702"><clipPath
       clipPathUnits="userSpaceOnUse"
       id="clipPath752"><path
         d="M 0,0 H 953 V 387 H 0 Z"
         id="path750"
         inkscape:connector-curvature="0" /></clipPath><clipPath
       clipPathUnits="userSpaceOnUse"
       id="clipPath770"><path
         d="M 0,0 H 953 V 387 H 0 Z"
         id="path768"
         inkscape:connector-curvature="0" /></clipPath><clipPath
       clipPathUnits="userSpaceOnUse"
       id="clipPath788"><path
         d="M 0,0 H 953 V 387 H 0 Z"
         id="path786"
         inkscape:connector-curvature="0" /></clipPath><clipPath
       clipPathUnits="userSpaceOnUse"
       id="clipPath804"><path
         d="M 0,0 H 953 V 387 H 0 Z"
         id="path802"
         inkscape:connector-curvature="0" /></clipPath><clipPath
       clipPathUnits="userSpaceOnUse"
       id="clipPath820"><path
         d="M 0,0 H 953 V 387 H 0 Z"
         id="path818"
         inkscape:connector-curvature="0" /></clipPath></defs><sodipodi:namedview
     pagecolor="#ffffff"
     bordercolor="#666666"
     borderopacity="1"
     objecttolerance="10"
     gridtolerance="10"
     guidetolerance="10"
     inkscape:pageopacity="0"
     inkscape:pageshadow="2"
     inkscape:window-width="1920"
     inkscape:window-height="1027"
     id="namedview700"
     showgrid="false"
     showguides="true"
     inkscape:guide-bbox="true"
     inkscape:zoom="1"
     inkscape:cx="730.45931"
     inkscape:cy="259.064"
     inkscape:window-x="-8"
     inkscape:window-y="-8"
     inkscape:window-maximized="1"
     inkscape:current-layer="g706"><sodipodi:guide
       position="634.96092,257.21094"
       orientation="1,0"
       id="guide830"
       inkscape:locked="false" /><sodipodi:guide
       position="635.34763,257.48047"
       orientation="0,1"
       id="guide832"
       inkscape:locked="false" /></sodipodi:namedview><g
     id="g706"
     inkscape:groupmode="layer"
     inkscape:label="pheromone_bottom_plate"
     transform="matrix(1.3333333,0,0,1.3333333,0,9.540684e-6)"><g
       transform="scale(-1)"
       id="g710"><path
         inkscape:connector-curvature="0"
         id="path712"
         style="fill:none;stroke:#ff0000;stroke-width:0.70866102;stroke-linecap:round;stroke-linejoin:round;stroke-miterlimit:4;stroke-dasharray:none;stroke-opacity:1"
         d="m -62.148,-353.27 c 0,2.821 2.285,5.106 5.101,5.106 2.817,0 5.102,-2.285 5.102,-5.106 0,-2.816 -2.285,-5.101 -5.102,-5.101 -2.816,0 -5.101,2.285 -5.101,5.101" /></g><g
       transform="scale(-1)"
       id="g714"><path
         inkscape:connector-curvature="0"
         id="path716"
         style="fill:none;stroke:#ff0000;stroke-width:0.70866102;stroke-linecap:round;stroke-linejoin:round;stroke-miterlimit:4;stroke-dasharray:none;stroke-opacity:1"
         d="m -62.148,-32.953 c 0,2.816 2.285,5.101 5.101,5.101 2.817,0 5.102,-2.285 5.102,-5.101 0,-2.817 -2.285,-5.102 -5.102,-5.102 -2.816,0 -5.101,2.285 -5.101,5.102" /></g><g
       transform="scale(-1)"
       id="g718"><path
         inkscape:connector-curvature="0"
         id="path720"
         style="fill:none;stroke:#ff0000;stroke-width:0.70866102;stroke-linecap:round;stroke-linejoin:round;stroke-miterlimit:4;stroke-dasharray:none;stroke-opacity:1"
         d="m -317.27,-353.27 c 0,2.821 2.286,5.106 5.106,5.106 2.816,0 5.101,-2.285 5.101,-5.106 0,-2.816 -2.285,-5.101 -5.101,-5.101 -2.82,0 -5.106,2.285 -5.106,5.101" /></g><g
       transform="scale(-1)"
       id="g722"><path
         inkscape:connector-curvature="0"
         id="path724"
         style="fill:none;stroke:#ff0000;stroke-width:0.70866102;stroke-linecap:round;stroke-linejoin:round;stroke-miterlimit:4;stroke-dasharray:none;stroke-opacity:1"
         d="m -317.27,-32.953 c 0,2.816 2.286,5.101 5.106,5.101 2.816,0 5.101,-2.285 5.101,-5.101 0,-2.817 -2.285,-5.102 -5.101,-5.102 -2.82,0 -5.106,2.285 -5.106,5.102" /></g><g
       transform="scale(-1)"
       id="g726"><path
         inkscape:connector-curvature="0"
         id="path728"
         style="fill:none;stroke:#ff0000;stroke-width:0.70866102;stroke-linecap:round;stroke-linejoin:round;stroke-miterlimit:4;stroke-dasharray:none;stroke-opacity:1"
         d="m -679.395,-353.27 c 0,2.821 2.286,5.106 5.102,5.106 2.82,0 5.105,-2.285 5.105,-5.106 0,-2.816 -2.285,-5.101 -5.105,-5.101 -2.816,0 -5.102,2.285 -5.102,5.101" /></g><g
       transform="scale(-1)"
       id="g730"><path
         inkscape:connector-curvature="0"
         id="path732"
         style="fill:none;stroke:#ff0000;stroke-width:0.70866102;stroke-linecap:round;stroke-linejoin:round;stroke-miterlimit:4;stroke-dasharray:none;stroke-opacity:1"
         d="m -679.395,-32.953 c 0,2.816 2.286,5.101 5.102,5.101 2.82,0 5.105,-2.285 5.105,-5.101 0,-2.817 -2.285,-5.102 -5.105,-5.102 -2.816,0 -5.102,2.285 -5.102,5.102" /></g><g
       transform="scale(-1)"
       id="g734"><path
         inkscape:connector-curvature="0"
         id="path736"
         style="fill:none;stroke:#ff0000;stroke-width:0.70866102;stroke-linecap:round;stroke-linejoin:round;stroke-miterlimit:4;stroke-dasharray:none;stroke-opacity:1"
         d="m -917.504,-353.27 c 0,2.821 2.285,5.106 5.102,5.106 2.82,0 5.101,-2.285 5.101,-5.106 0,-2.816 -2.281,-5.101 -5.101,-5.101 -2.817,0 -5.102,2.285 -5.102,5.101" /></g><g
       transform="scale(-1)"
       id="g738"><path
         inkscape:connector-curvature="0"
         id="path740"
         style="fill:none;stroke:#ff0000;stroke-width:0.70866102;stroke-linecap:round;stroke-linejoin:round;stroke-miterlimit:4;stroke-dasharray:none;stroke-opacity:1"
         d="m -917.504,-32.953 c 0,2.816 2.285,5.101 5.102,5.101 2.82,0 5.101,-2.285 5.101,-5.101 0,-2.817 -2.281,-5.102 -5.101,-5.102 -2.817,0 -5.102,2.285 -5.102,5.102" /></g><g
       transform="scale(-1)"
       id="g742"><path
         inkscape:connector-curvature="0"
         id="path744"
         style="fill:none;stroke:#ff0000;stroke-width:0.70866102;stroke-linecap:round;stroke-linejoin:round;stroke-miterlimit:4;stroke-dasharray:none;stroke-opacity:1"
         d="m -48.543,-14.527 c 18.785,0 34.016,-15.231 34.016,-34.016 0,0 0,-289.133 0,-289.133 0,-18.789 -15.231,-34.015 -34.016,-34.015 0,0 -855.355,0 -855.355,0 -18.786,0 -34.016,15.226 -34.016,34.015 0,0 0,289.133 0,289.133 0,18.785 15.23,34.016 34.016,34.016 0,0 855.355,0 855.355,0" /></g><g
       id="g746"><g
         id="g748" /><g
         id="g762"><g
           style="opacity:0.95999995"
           id="g760"
           clip-path="url(#clipPath752)"><g
             id="g758"><g
               id="g756"
               transform="scale(-1,1)"><path
                 inkscape:connector-curvature="0"
                 id="path754"
                 style="fill:none;stroke:#ff0000;stroke-width:0.492838;stroke-linecap:round;stroke-linejoin:round;stroke-miterlimit:4;stroke-dasharray:none;stroke-opacity:1"
                 d="m -810.348,57.008 c -1.507,0 -2.73,1.222 -2.73,2.73 0,0.899 0.445,1.742 1.187,2.25 -0.742,0.508 -1.187,1.348 -1.187,2.25 0,0.899 0.445,1.742 1.187,2.25 -0.742,0.508 -1.187,1.348 -1.187,2.25 0,0.899 0.445,1.742 1.187,2.25 -0.742,0.508 -1.187,1.348 -1.187,2.25 0,0.899 0.445,1.742 1.187,2.25 -0.742,0.508 -1.187,1.348 -1.187,2.25 0,0.899 0.445,1.742 1.187,2.25 -0.742,0.508 -1.187,1.348 -1.187,2.25 0,0.899 0.445,1.742 1.187,2.25 -0.742,0.508 -1.187,1.348 -1.187,2.25 0,1.508 1.223,2.731 2.73,2.731 1.508,0 2.731,-1.223 2.731,-2.731 0,-0.902 -0.446,-1.742 -1.188,-2.254 0.742,-0.507 1.188,-1.347 1.188,-2.246 0,-0.902 -0.446,-1.742 -1.188,-2.254 0.742,-0.507 1.188,-1.347 1.188,-2.246 0,-0.902 -0.446,-1.742 -1.188,-2.254 0.742,-0.507 1.188,-1.347 1.188,-2.246 0,-0.902 -0.446,-1.742 -1.188,-2.254 0.742,-0.507 1.188,-1.347 1.188,-2.246 0,-0.902 -0.446,-1.742 -1.188,-2.254 0.742,-0.507 1.188,-1.347 1.188,-2.246 0,-0.902 -0.446,-1.742 -1.188,-2.254 0.742,-0.507 1.188,-1.347 1.188,-2.246 0,-1.508 -1.223,-2.73 -2.731,-2.73 z" /></g></g></g></g></g><g
       id="g764"><g
         id="g766" /><g
         id="g780"><g
           style="opacity:0.95999995"
           id="g778"
           clip-path="url(#clipPath770)"><g
             id="g776"><g
               id="g774"
               transform="scale(-1,1)"><path
                 inkscape:connector-curvature="0"
                 id="path772"
                 style="fill:none;stroke:#ff0000;stroke-width:0.492838;stroke-linecap:round;stroke-linejoin:round;stroke-miterlimit:4;stroke-dasharray:none;stroke-opacity:1"
                 d="m -142.105,57.008 c -1.508,0 -2.731,1.222 -2.731,2.73 0,0.899 0.445,1.742 1.188,2.25 -0.743,0.508 -1.188,1.348 -1.188,2.25 0,0.899 0.445,1.742 1.188,2.25 -0.743,0.508 -1.188,1.348 -1.188,2.25 0,0.899 0.445,1.742 1.188,2.25 -0.743,0.508 -1.188,1.348 -1.188,2.25 0,0.899 0.445,1.742 1.188,2.25 -0.743,0.508 -1.188,1.348 -1.188,2.25 0,0.899 0.445,1.742 1.188,2.25 -0.743,0.508 -1.188,1.348 -1.188,2.25 0,0.899 0.445,1.742 1.188,2.25 -0.743,0.508 -1.188,1.348 -1.188,2.25 0,1.508 1.223,2.731 2.731,2.731 1.507,0 2.73,-1.223 2.73,-2.731 0,-0.902 -0.445,-1.742 -1.188,-2.254 0.743,-0.507 1.188,-1.347 1.188,-2.246 0,-0.902 -0.445,-1.742 -1.188,-2.254 0.743,-0.507 1.188,-1.347 1.188,-2.246 0,-0.902 -0.445,-1.742 -1.188,-2.254 0.743,-0.507 1.188,-1.347 1.188,-2.246 0,-0.902 -0.445,-1.742 -1.188,-2.254 0.743,-0.507 1.188,-1.347 1.188,-2.246 0,-0.902 -0.445,-1.742 -1.188,-2.254 0.743,-0.507 1.188,-1.347 1.188,-2.246 0,-0.902 -0.445,-1.742 -1.188,-2.254 0.743,-0.507 1.188,-1.347 1.188,-2.246 0,-1.508 -1.223,-2.73 -2.73,-2.73 z" /></g></g></g></g></g><g
       id="g782"
       style="fill:none;stroke:#000000;stroke-opacity:1"><g
         id="g784"
         style="fill:none;stroke:#000000;stroke-opacity:1" /><g
         id="g796"
         style="fill:none;stroke:#000000;stroke-opacity:1"><g
           style="opacity:0.95999995;fill:none;stroke:#000000;stroke-opacity:1"
           id="g794"
           clip-path="url(#clipPath788)"><g
             id="g792"
             style="fill:none;stroke:#000000;stroke-opacity:1"><path
               inkscape:connector-curvature="0"
               id="path790"
               style="fill:none;fill-opacity:1;fill-rule:nonzero;stroke:#000000;stroke-opacity:1"
               d="m 797.59,353.27 c 0,7.043 5.711,12.753 12.758,12.753 7.043,0 12.754,-5.71 12.754,-12.753 0,-7.047 -5.711,-12.758 -12.754,-12.758 -7.047,0 -12.758,5.711 -12.758,12.758 z" /></g></g></g></g><g
       id="g798"
       style="fill:none;stroke:#000000;stroke-opacity:1"><g
         id="g800"
         style="fill:none;stroke:#000000;stroke-opacity:1" /><g
         id="g812"
         style="fill:none;stroke:#000000;stroke-opacity:1"><g
           style="opacity:0.95999995;fill:none;stroke:#000000;stroke-opacity:1"
           id="g810"
           clip-path="url(#clipPath804)"><g
             id="g808"
             style="fill:none;stroke:#000000;stroke-opacity:1"><path
               inkscape:connector-curvature="0"
               id="path806"
               style="fill:none;fill-opacity:1;fill-rule:nonzero;stroke:#000000;stroke-opacity:1"
               d="m 129.352,353.27 c 0,7.043 5.711,12.753 12.753,12.753 7.047,0 12.758,-5.71 12.758,-12.753 0,-7.047 -5.711,-12.758 -12.758,-12.758 -7.042,0 -12.753,5.711 -12.753,12.758 z" /></g></g></g></g><g
       id="g814"
       style="fill:none;stroke:#000000;stroke-opacity:1"><g
         id="g816"
         style="fill:none;stroke:#000000;stroke-opacity:1" /><g
         id="g828"
         style="fill:none;stroke:#000000;stroke-opacity:1"><g
           style="opacity:0.95999995;fill:none;stroke:#000000;stroke-opacity:1"
           id="g826"
           clip-path="url(#clipPath820)"><g
             id="g824"
             style="fill:none;stroke:#000000;stroke-opacity:1"><path
               inkscape:connector-curvature="0"
               id="path822"
               style="fill:none;fill-opacity:1;fill-rule:nonzero;stroke:#000000;stroke-opacity:1"
               d="m 463.465,353.27 c 0,7.043 5.711,12.753 12.754,12.753 7.047,0 12.758,-5.71 12.758,-12.753 0,-7.047 -5.711,-12.758 -12.758,-12.758 -7.043,0 -12.754,5.711 -12.754,12.758 z" /></g></g></g></g></g></svg>